<svg width="50" height="48" viewBox="0 0 50 48" fill="none" xmlns="http://www.w3.org/2000/svg">
<path d="M12.0356 10.3442C11.8892 9.98477 11.5283 9.74814 11.1262 9.74805C11.1261 9.74805 11.1261 9.74805 11.126 9.74805C10.7241 9.74805 10.363 9.98448 10.2166 10.3439L7.33306 17.4179C7.13647 17.9001 7.38433 18.4439 7.88657 18.6326C8.00347 18.6765 8.12388 18.6973 8.24224 18.6973C8.63257 18.6973 9.00112 18.4712 9.1519 18.1013L9.64097 16.9015H12.6088L13.0973 18.101C13.2936 18.5832 13.8602 18.8214 14.3624 18.6327C14.8648 18.4442 15.1127 17.9004 14.9164 17.4182L12.0356 10.3442ZM10.4053 15.0264L11.1256 13.2593L11.8454 15.0264H10.4053Z" fill="white"/>
<path d="M17.4297 18.697C17.9689 18.697 18.4062 18.2773 18.4062 17.7595V10.6855C18.4062 10.1678 17.9689 9.74805 17.4297 9.74805C16.8904 9.74805 16.4531 10.1678 16.4531 10.6855V17.7595C16.4531 18.2773 16.8904 18.697 17.4297 18.697Z" fill="white"/>
<path d="M46.3956 21.752C44.8959 21.752 43.6245 22.7085 43.2063 24.0201H41.0808L40.2717 20.659C40.1706 20.2393 39.7685 19.9326 39.3202 19.9326H37.3789C37.7671 18.797 38.032 17.5225 38.1097 16.0447L43.476 16.0457C43.8943 17.3559 45.1654 18.3114 46.6649 18.3114C48.5039 18.3114 50 16.8745 50 15.1083C50 13.3406 48.5039 11.9026 46.6649 11.9026C45.1652 11.9026 43.8939 12.8591 43.4758 14.1707L38.1065 14.1697C38.0323 12.8117 37.7979 11.5106 37.4086 10.2816H39.32C39.7684 10.2816 40.1702 9.9748 40.2715 9.55508L41.0806 6.19396H43.2064C43.6248 7.50412 44.8961 8.45962 46.3955 8.45962C48.236 8.45962 49.7333 7.02271 49.7333 5.25646C49.7333 3.49021 48.236 2.0534 46.3955 2.0534C44.8961 2.0534 43.6249 3.0088 43.2064 4.31896H40.304C39.8582 4.31896 39.4828 4.60611 39.3659 4.99808C39.3611 5.01271 39.3566 5.02827 39.3525 5.04543L38.5435 8.40655H36.6681C35.9947 6.99983 35.095 5.71246 33.9786 4.57218C33.6094 4.19483 32.9914 4.17646 32.5982 4.53112C32.2053 4.88577 32.186 5.47902 32.5555 5.85627C33.3133 6.63027 33.9562 7.48433 34.4813 8.40655H31.3731C30.8339 8.40655 30.3966 8.82627 30.3966 9.34405C30.3966 9.86183 30.8339 10.2816 31.3731 10.2816H35.3515C35.7973 11.4951 36.066 12.7977 36.1506 14.1694L30.1172 14.1682C30.1171 14.1682 30.1171 14.1682 30.117 14.1682C29.5777 14.1682 29.1405 14.5879 29.1404 15.1056C29.1403 15.6233 29.5775 16.0431 30.1168 16.0432L36.1522 16.0444C36.0624 17.5492 35.7524 18.8124 35.3008 19.9326H31.3732C30.834 19.9326 30.3967 20.3523 30.3967 20.8701C30.3967 21.3878 30.834 21.8076 31.3732 21.8076H34.3577C33.753 22.8131 33.0506 23.7323 32.3332 24.6699C30.8041 26.6685 29.2278 28.7304 28.5835 31.7331H17.0333C16.6865 30.1196 16.0778 28.7985 15.4072 27.6767C16.2498 27.4636 16.8738 26.7278 16.8738 25.8527V25.5836C17.6554 25.3608 18.4082 25.0606 19.1244 24.6863L19.3242 24.8783C19.6949 25.2343 20.1887 25.4303 20.7146 25.4303C21.2404 25.4303 21.7342 25.2343 22.1049 24.8782L24.0647 22.9955C24.831 22.2595 24.831 21.062 24.0647 20.326L23.8643 20.1335C24.2541 19.4452 24.5667 18.7217 24.7988 17.9706H25.0781C26.1623 17.9706 27.0443 17.1236 27.0443 16.0825V13.4209C27.0443 12.3798 26.1623 11.5327 25.0781 11.5327H24.7988C24.5667 10.7817 24.2541 10.0582 23.8643 9.36993L24.0647 9.17737C24.8309 8.44143 24.8309 7.24396 24.0647 6.50793L22.1049 4.62515C21.7342 4.26918 21.2404 4.07315 20.7146 4.07315C20.1887 4.07315 19.6949 4.26918 19.3242 4.62524L19.1244 4.81715C18.4081 4.4428 17.6554 4.14271 16.8738 3.91986V3.6508C16.8738 3.49274 16.8513 3.33993 16.813 3.19302C18.6845 2.30221 20.7354 1.84799 22.7969 1.8763C22.8059 1.8764 22.8147 1.8764 22.8236 1.8763C23.7808 1.8643 24.7406 1.95562 25.6792 2.14874C26.2064 2.25693 26.7257 1.93471 26.8387 1.42837C26.9516 0.922115 26.6157 0.42374 26.0883 0.315271C25.0113 0.0937399 23.9085 -0.0121976 22.8108 0.00130237C20.2178 -0.0325414 17.6493 0.593803 15.3487 1.81227C15.2066 1.78087 15.0595 1.76258 14.9076 1.76258H12.1368C11.0526 1.76258 10.1706 2.60962 10.1706 3.65071V3.91977C9.38906 4.14261 8.63633 4.44271 7.92002 4.81705L7.72021 4.62515C7.34951 4.26918 6.85576 4.07315 6.32988 4.07315C5.804 4.07315 5.31025 4.26918 4.93955 4.62524L2.97969 6.5083C2.21357 7.24424 2.21357 8.44171 2.97969 9.17774L3.18018 9.3703C2.79033 10.0586 2.47773 10.7821 2.24561 11.5331H1.96631C0.882031 11.533 0 12.3801 0 13.4211V16.0828C0 17.1239 0.882031 17.9709 1.96621 17.9709H2.24551C2.47764 18.722 2.79023 19.4455 3.18008 20.1337L2.97959 20.3263C2.21338 21.0622 2.21338 22.2598 2.97959 22.9957L4.93945 24.8785C5.31016 25.2345 5.80391 25.4305 6.32979 25.4305C6.85566 25.4305 7.34941 25.2345 7.72012 24.8784L7.91992 24.6865C8.63613 25.0608 9.38897 25.361 10.1705 25.5838V25.8529C10.1705 26.894 11.0525 27.741 12.1367 27.741H13.1562C13.9732 28.942 14.7868 30.4061 15.1615 32.308C14.3766 32.8557 13.8649 33.7431 13.8649 34.7436C13.8649 35.5473 14.1949 36.2779 14.7308 36.8186C14.1949 37.3589 13.8649 38.0888 13.8649 38.8919C13.8649 40.3015 14.8801 41.4874 16.2455 41.8131V43.6871C16.2455 45.7038 17.9537 47.3444 20.0533 47.3444H25.5647C27.6659 47.3444 29.3754 45.7038 29.3754 43.6871V41.813C30.7394 41.487 31.7532 40.3012 31.7532 38.8919C31.7532 38.0889 31.4235 37.359 30.8881 36.8186C31.4235 36.2779 31.7532 35.5473 31.7532 34.7436C31.7532 33.7424 31.2412 32.8544 30.4561 32.3068C30.9871 29.5977 32.4078 27.74 33.9073 25.7801C34.8521 24.5452 35.8109 23.2904 36.5764 21.8077H38.5436L39.3526 25.1689C39.4537 25.5887 39.8558 25.8953 40.3041 25.8953H43.2065C43.6249 27.2055 44.8962 28.1609 46.3956 28.1609C48.2361 28.1609 49.7334 26.724 49.7334 24.9578C49.7334 23.19 48.2361 21.752 46.3956 21.752ZM46.6649 13.7777C47.427 13.7777 48.0469 14.3747 48.0469 15.1084C48.0469 15.8407 47.4269 16.4365 46.6649 16.4365C45.903 16.4365 45.2831 15.8407 45.2831 15.1084C45.283 14.3747 45.9029 13.7777 46.6649 13.7777ZM46.3956 3.92849C47.1591 3.92849 47.7803 4.52427 47.7803 5.25655C47.7803 5.98893 47.1592 6.58471 46.3956 6.58471C45.6336 6.58471 45.0137 5.98893 45.0137 5.25655C45.0136 4.52427 45.6336 3.92849 46.3956 3.92849ZM14.9207 24.86V25.8528C14.9207 25.8582 14.9122 25.8659 14.9076 25.8659H13.677C13.6748 25.8659 13.6727 25.8659 13.6704 25.8659H12.1368C12.1322 25.8659 12.1237 25.8582 12.1237 25.8528V24.86C12.1237 24.4216 11.8073 24.0418 11.3619 23.9454C10.2683 23.7088 9.23359 23.2962 8.28682 22.7192C8.12588 22.621 7.94424 22.5731 7.76377 22.5731C7.51143 22.5731 7.26123 22.6669 7.07275 22.8479L6.33877 23.5529C6.33457 23.557 6.32519 23.5569 6.321 23.5529L4.36113 21.6701C4.35742 21.6666 4.35742 21.6551 4.36113 21.6516L5.09512 20.9465C5.41816 20.6361 5.47383 20.1523 5.2291 19.7818C4.62842 18.8721 4.19883 17.8781 3.95244 16.8274C3.85215 16.3996 3.45645 16.0957 2.99971 16.0957H1.96621C1.96162 16.0957 1.95312 16.0881 1.95312 16.0826V13.421C1.95312 13.4155 1.96162 13.4078 1.96621 13.4078H2.99971C3.45645 13.4078 3.85215 13.104 3.95244 12.6762C4.19883 11.6256 4.62842 10.6315 5.2291 9.72177C5.47383 9.35118 5.41816 8.86733 5.09512 8.55712L4.36113 7.85212C4.35732 7.84846 4.35732 7.83702 4.36113 7.83346L6.321 5.95077C6.32519 5.94674 6.33457 5.94683 6.33877 5.95077L7.07275 6.65577C7.39619 6.96636 7.90078 7.0198 8.28691 6.78458C9.23379 6.20755 10.2685 5.79496 11.3619 5.55833C11.8074 5.46196 12.1238 5.08208 12.1238 4.6438V3.65099C12.1238 3.64555 12.1323 3.63787 12.1369 3.63787H14.9077C14.9123 3.63787 14.9208 3.64555 14.9208 3.65099V4.6438C14.9208 5.08218 15.2372 5.46205 15.6827 5.55833C16.7762 5.79487 17.8108 6.20746 18.7577 6.78458C19.1437 7.0199 19.6484 6.96646 19.9719 6.65577L20.7059 5.95077C20.7101 5.94674 20.7194 5.94683 20.7236 5.95077L22.6835 7.83346C22.6873 7.83712 22.6873 7.84855 22.6835 7.85212L21.9495 8.55712C21.6265 8.86743 21.5708 9.35127 21.8155 9.72177C22.4162 10.6315 22.8458 11.6256 23.0922 12.6762C23.1925 13.104 23.5882 13.4078 24.0449 13.4078H25.0784C25.083 13.4078 25.0915 13.4155 25.0915 13.421V16.0826C25.0915 16.0881 25.083 16.0957 25.0784 16.0957H24.0449C23.5882 16.0957 23.1925 16.3996 23.0922 16.8274C22.8458 17.8781 22.4162 18.8721 21.8155 19.7818C21.5708 20.1523 21.6265 20.6361 21.9495 20.9465L22.6835 21.6516C22.6872 21.6551 22.6872 21.6666 22.6835 21.6701L20.7236 23.5528C20.7194 23.5568 20.7101 23.5568 20.7059 23.5528L19.9719 22.8477C19.6484 22.5371 19.1437 22.4836 18.7577 22.7189C17.8109 23.2959 16.7763 23.7085 15.6826 23.9451C15.2371 24.0418 14.9207 24.4216 14.9207 24.86ZM27.4224 43.687C27.4224 44.6697 26.5892 45.4693 25.5648 45.4693H20.0534C19.0307 45.4693 18.1987 44.6698 18.1987 43.687V41.9021H27.4223V43.687H27.4224ZM28.6188 40.0271H17.0023C16.3494 40.0271 15.8183 39.5178 15.8183 38.8918C15.8183 38.2657 16.3494 37.7565 17.0023 37.7565H28.6188C29.2702 37.7565 29.8002 38.2658 29.8002 38.8918C29.8001 39.5178 29.2702 40.0271 28.6188 40.0271ZM28.6188 35.8815H17.0023C16.3494 35.8815 15.8183 35.371 15.8183 34.7436C15.8183 34.1175 16.3494 33.6082 17.0023 33.6082H28.6188C29.2702 33.6082 29.8002 34.1176 29.8002 34.7436C29.8001 35.3709 29.2702 35.8815 28.6188 35.8815ZM46.3956 26.2857C45.6336 26.2857 45.0137 25.6899 45.0137 24.9576C45.0137 24.2239 45.6337 23.627 46.3956 23.627C47.1591 23.627 47.7803 24.224 47.7803 24.9576C47.7803 25.6899 47.1591 26.2857 46.3956 26.2857Z" fill="white"/>
<path d="M29.4308 3.51075L29.4363 3.51338C29.5762 3.5805 29.7245 3.61228 29.8706 3.61228C30.2283 3.61228 30.5725 3.4216 30.7437 3.09272C30.9849 2.6296 30.7865 2.06513 30.3041 1.83357C29.8218 1.602 29.2351 1.78969 28.9939 2.25282C28.7527 2.71613 28.9482 3.27919 29.4308 3.51075Z" fill="white"/>
</svg>
