<svg width="50" height="50" viewBox="0 0 50 50" fill="none" xmlns="http://www.w3.org/2000/svg">
<path d="M39.479 30.8019C38.4977 28.7561 34.9873 25.9165 31.5957 23.1727C29.704 21.6435 27.9165 20.1977 26.7769 19.0582C26.4915 18.7707 26.0644 18.679 25.6874 18.8144C24.9853 19.0686 24.5519 19.2644 24.2103 19.4165C23.6895 19.6498 23.5145 19.729 22.8124 19.7998C22.5019 19.831 22.2228 19.9977 22.0499 20.256C20.5769 22.4581 19.0519 22.2706 18.0332 21.929C17.7082 21.8207 17.6499 21.681 17.6186 21.5477C17.3999 20.6332 18.4978 18.504 19.9207 17.081C23.3061 13.6935 25.0519 12.8456 28.7394 14.4935C32.9227 16.3643 37.1144 17.829 37.1561 17.8435C37.7041 18.0331 38.2936 17.7456 38.4832 17.2018C38.6707 16.6581 38.3852 16.0643 37.8415 15.8748C37.7998 15.8602 33.6915 14.4248 29.5915 12.5893C24.8144 10.4539 22.1935 11.8601 18.4498 15.606C17.0248 17.031 15.0893 19.9143 15.5893 22.029C15.8039 22.929 16.4373 23.5957 17.3789 23.906C19.7393 24.6852 21.8934 23.9393 23.4976 21.8102C24.1601 21.7082 24.5206 21.5582 25.0622 21.3144C25.258 21.2269 25.4872 21.1249 25.7914 21.0019C26.9831 22.1207 28.5914 23.4227 30.2851 24.7915C33.3476 27.2685 36.8206 30.0769 37.6018 31.7019C37.9873 32.504 37.5726 33.0269 37.2914 33.2665C36.8789 33.6207 36.3143 33.7332 36.0081 33.5185C35.6706 33.2873 35.231 33.2727 34.8831 33.481C34.5331 33.6893 34.3373 34.0831 34.381 34.4873C34.4518 35.1498 33.8456 35.529 33.5831 35.6602C32.9164 35.9977 32.2206 35.9394 31.9601 35.6977C31.6684 35.4269 31.2497 35.3477 30.8789 35.4852C30.5081 35.6248 30.2497 35.9665 30.2122 36.3623C30.1497 37.0456 29.6434 37.7018 28.983 37.9581C28.6642 38.0789 28.2017 38.1518 27.7872 37.7726C27.5289 37.5393 27.1705 37.4497 26.8351 37.5309C26.4956 37.6142 26.2226 37.8601 26.1039 38.1872C26.0643 38.2914 25.9747 38.5414 24.9997 38.5414C24.3059 38.5414 23.058 38.0726 22.4476 37.6684C21.7164 37.1872 17.1309 33.7664 13.1706 30.4497C12.6143 29.9809 11.6518 28.9767 10.8018 28.0892C10.0476 27.3017 9.35808 26.5872 9.00388 26.2872C8.56013 25.9122 7.90388 25.9684 7.53513 26.4101C7.16433 26.8497 7.21843 27.5081 7.65807 27.8789C7.98102 28.1518 8.60602 28.8122 9.29558 29.5309C10.2248 30.5017 11.1851 31.5059 11.831 32.0476C15.7102 35.2956 20.3727 38.8018 21.3018 39.4122C22.0685 39.9164 23.7206 40.6247 24.9998 40.6247C26.0268 40.6247 26.8165 40.3892 27.3643 39.9289C28.0976 40.2143 28.931 40.2164 29.7331 39.9039C30.681 39.5372 31.4601 38.7976 31.9018 37.9018C32.7226 38.0768 33.6623 37.9539 34.5164 37.5248C35.3518 37.104 35.9559 36.4602 36.2559 35.7081C37.0851 35.7518 37.9392 35.4581 38.6455 34.8518C39.8415 33.829 40.1706 32.2374 39.479 30.8019Z" fill="white"/>
<path d="M20.8347 13.541H11.4597C10.8847 13.541 10.418 14.0077 10.418 14.5827C10.418 15.1577 10.8847 15.6244 11.4597 15.6244H20.8347C21.4097 15.6244 21.8764 15.1577 21.8764 14.5827C21.8764 14.0077 21.4097 13.541 20.8347 13.541Z" fill="white"/>
<path d="M42.5302 28.5853C42.2072 28.1083 41.5614 27.977 41.0844 28.302L38.0386 30.3478C37.5615 30.6686 37.4344 31.3166 37.7553 31.7936C37.9573 32.0916 38.2865 32.2541 38.622 32.2541C38.8199 32.2541 39.022 32.1978 39.2012 32.077L42.247 30.0312C42.7239 29.7103 42.851 29.0625 42.5302 28.5853Z" fill="white"/>
<path d="M36.063 33.5562C35.3172 32.9687 31.9818 29.5542 29.9193 27.4042C29.5213 26.9875 28.861 26.9729 28.4463 27.3729C28.0296 27.7709 28.0171 28.4312 28.4151 28.8459C28.9505 29.4042 33.6734 34.3271 34.7713 35.1938C34.9609 35.3438 35.1901 35.4168 35.4151 35.4168C35.7213 35.4168 36.0276 35.2793 36.2359 35.0188C36.5922 34.5687 36.5152 33.9125 36.063 33.5562Z" fill="white"/>
<path d="M31.9015 35.6458C30.6536 34.6479 27.5182 31.3166 26.8099 30.5458C26.4182 30.1208 25.7619 30.0958 25.3369 30.4833C24.914 30.8729 24.8849 31.5333 25.2744 31.9563C25.3119 31.9958 29.0536 36.0355 30.5994 37.273C30.7911 37.425 31.0223 37.5 31.2494 37.5C31.5536 37.5 31.8577 37.3646 32.0639 37.1105C32.4224 36.6604 32.3495 36.0041 31.9015 35.6458Z" fill="white"/>
<path d="M27.7579 37.7431C26.2725 36.491 23.2329 33.2556 22.6392 32.6201C22.2454 32.1993 21.585 32.1764 21.1662 32.5701C20.7454 32.9639 20.7245 33.6222 21.1162 34.0431C21.9704 34.9576 24.8787 38.041 26.4142 39.3368C26.61 39.5014 26.8475 39.5826 27.085 39.5826C27.3808 39.5826 27.6767 39.4556 27.8829 39.2118C28.2537 38.7701 28.1975 38.1139 27.7579 37.7431Z" fill="white"/>
<path d="M12.175 11.7431C10.3896 10.0514 3.25 9.50341 1.1042 9.37636C0.808398 9.3618 0.535449 9.45966 0.327148 9.65761C0.11875 9.85341 0 10.1284 0 10.4159V29.1659C0 29.7409 0.466699 30.2076 1.0417 30.2076H7.2917C7.7417 30.2076 8.1417 29.9181 8.28125 29.4889C8.4333 29.0222 12.0229 18.0056 12.4958 12.5889C12.5229 12.2722 12.4062 11.9597 12.175 11.7431ZM6.53125 28.1243H2.0833V11.5326C5.43125 11.7972 9.04375 12.3722 10.3562 13.0097C9.8042 17.5722 7.30625 25.6784 6.53125 28.1243Z" fill="white"/>
<path d="M48.9577 11.457C40.7785 11.457 36.241 13.5508 36.0514 13.6383C35.7806 13.7653 35.5785 14.0008 35.4952 14.2862C35.4119 14.5717 35.4535 14.8779 35.6097 15.132C36.8972 17.205 40.9285 28.7175 41.7035 31.5258C41.8285 31.9778 42.2389 32.2903 42.7077 32.2903H48.9577C49.5327 32.2903 49.9994 31.8236 49.9994 31.2486V12.4986C49.9994 11.9216 49.5327 11.457 48.9577 11.457ZM47.9161 30.207H43.4869C42.4994 26.9903 39.5827 18.6028 37.9556 15.1362C39.5452 14.5967 42.9598 13.6695 47.9161 13.5529V30.207Z" fill="white"/>
</svg>
