<svg width="48" height="48" viewBox="0 0 48 48" fill="none" xmlns="http://www.w3.org/2000/svg">
<g clip-path="url(#clip0_347_9910)">
<path d="M1.98131 19.7997C1.00639 19.9597 0.250328 20.7497 0.13095 21.7297C-0.0282214 23.2197 -0.0381696 24.7297 0.13095 26.2297C0.24038 27.2297 1.00639 28.0397 1.99126 28.1997L4.52805 28.6197C5.01551 30.6997 5.83126 32.6897 6.95541 34.5097L5.46318 36.5997C4.86629 37.4097 4.88618 38.5197 5.50297 39.3097C5.98048 39.8897 6.47789 40.4497 7.01509 40.9797C7.50256 41.4697 8.03976 41.9697 8.69634 42.5097C9.48224 43.1197 10.5666 43.1297 11.3625 42.5397L13.4516 41.0297C15.2522 42.1597 17.2319 42.9797 19.3011 43.4697L19.7189 46.0197C19.8781 46.9997 20.664 47.7597 21.6389 47.8797C22.0965 47.9297 22.5542 47.9697 23.0217 47.9897H23.0914C23.5092 47.9897 23.9071 47.8297 24.2056 47.5397C24.514 47.2397 24.693 46.8197 24.693 46.3897V39.9797C24.693 39.1197 24.0165 38.4197 23.161 38.3797C15.5307 37.9897 9.55188 31.6697 9.55188 23.9997C9.55188 16.3297 15.5208 10.0097 23.1411 9.60972C23.9967 9.56972 24.6632 8.86972 24.6731 8.00972V1.59972C24.6731 1.16972 24.4941 0.749719 24.1857 0.449719C23.8673 0.139719 23.4495 -0.0202813 23.0118 -0.000281278C22.5442 0.0197187 22.0866 0.0497187 21.619 0.0997187C20.6342 0.229719 19.8582 0.989719 19.709 1.96972L19.2912 4.51972C17.2219 5.00972 15.2422 5.83972 13.4416 6.95972L11.3525 5.44972C10.5467 4.86972 9.44245 4.88972 8.65655 5.49972C8.07955 5.97972 7.5324 6.47972 7.00515 7.01972C6.46794 7.54972 5.95064 8.10972 5.48307 8.69972C4.87623 9.48972 4.85634 10.5897 5.44328 11.3897L6.94546 13.4997C5.82131 15.3197 5.00556 17.2997 4.5181 19.3797L1.98131 19.7997ZM5.95064 20.2497C6.4182 17.9897 7.30359 15.8397 8.56701 13.9197C8.74608 13.6397 8.73613 13.2797 8.54712 13.0097L6.73655 10.4597C6.56743 10.2397 6.56743 9.92972 6.7266 9.69972C7.16432 9.15972 7.63188 8.63972 8.12929 8.15972C8.61675 7.66972 9.12411 7.19972 9.65136 6.75972C9.88017 6.58972 10.1985 6.58972 10.4273 6.75972L12.9542 8.58972C13.2228 8.77972 13.5809 8.78972 13.8594 8.60972C15.7695 7.33972 17.9084 6.44972 20.1567 5.97972C20.475 5.90972 20.7237 5.64972 20.7834 5.32972L21.2808 2.24972C21.3206 1.96972 21.5295 1.74972 21.7981 1.70972C22.2159 1.66972 22.6437 1.62972 23.0914 1.61972L23.0715 8.02972C14.5956 8.45972 7.95022 15.4997 7.96017 24.0297C7.96017 32.5597 14.6155 39.5897 23.0914 40.0097L23.0814 46.4197C22.6536 46.3997 22.2259 46.3697 21.808 46.3197C21.5295 46.2797 21.3206 46.0597 21.2808 45.7897L20.7834 42.7097C20.7336 42.3797 20.4849 42.1197 20.1567 42.0597C17.9084 41.5897 15.7695 40.6997 13.8594 39.4297C13.5809 39.2497 13.2228 39.2497 12.9542 39.4497L10.4174 41.2797C10.1985 41.4497 9.90007 41.4597 9.68121 41.2997C9.09426 40.7997 8.58691 40.3397 8.12929 39.8797C7.64183 39.3997 7.17427 38.8897 6.74649 38.3497C6.57737 38.1197 6.57737 37.7997 6.74649 37.5697L8.54712 34.9997C8.73613 34.7297 8.74608 34.3697 8.56701 34.0897C7.30359 32.1697 6.4182 30.0197 5.95064 27.7597C5.881 27.4397 5.62235 27.1897 5.30401 27.1297L2.23997 26.6297C1.95147 26.5797 1.73261 26.3497 1.70276 26.0597C1.55354 24.6797 1.55354 23.2997 1.70276 21.9197C1.74256 21.6397 1.96142 21.4297 2.23002 21.3897L5.29406 20.8897C5.6323 20.8297 5.89095 20.5797 5.95064 20.2497Z" fill="white"/>
<path d="M43.1262 23.9497H43.6534L43.8325 23.4497C44.0613 22.7897 44.6781 22.3497 45.3745 22.3497C46.2101 22.3497 46.9065 22.9797 47.006 23.8097C47.1054 24.6397 46.5583 25.4097 45.7525 25.5997C44.9367 25.7897 44.121 25.3397 43.8424 24.5497L43.6634 24.0497H43.1361H24.6723H23.9262V24.7997V27.1997V27.9497H24.6723H37.406C38.3112 27.9497 39.0474 28.6897 39.0474 29.5997V33.7497V34.2797L39.5448 34.4597C40.3009 34.7297 40.7485 35.4997 40.6192 36.2897C40.4799 37.0797 39.8035 37.6597 38.9977 37.6597C38.2018 37.6597 37.5154 37.0797 37.3761 36.2897C37.2368 35.4997 37.6945 34.7197 38.4505 34.4597L38.9479 34.2797V33.7497V29.5997C38.9479 28.7397 38.2615 28.0497 37.406 28.0497H24.6723H23.9262V28.7997V31.1997V31.9497H24.6723H33.4267C33.4565 31.9497 33.4764 31.9697 33.4764 31.9997C33.4764 32.0297 33.4565 32.0497 33.4267 32.0497H24.6723H23.9262V32.7997V34.3997V35.1497H24.6723H29.4474C30.3527 35.1497 31.0889 35.8897 31.0889 36.7997V41.7497V42.2797L31.5863 42.4597C32.3423 42.7297 32.79 43.4997 32.6607 44.2897C32.5214 45.0797 31.8449 45.6597 31.0391 45.6597C30.2433 45.6597 29.5568 45.0797 29.4176 44.2897C29.2783 43.4997 29.7359 42.7197 30.492 42.4597L30.9894 42.2797V41.7497V36.7997C30.9894 35.9397 30.3029 35.2497 29.4474 35.2497H24.4634H24.0157L23.8267 35.5997V35.1697V12.8297V12.3997L24.0157 12.7497H24.4634H29.4474C30.3029 12.7497 30.9894 12.0597 30.9894 11.1997V6.24972V5.71972L30.492 5.53972C29.7359 5.26972 29.2882 4.49972 29.4176 3.70972C29.5568 2.91972 30.2333 2.33972 31.0391 2.33972C31.835 2.33972 32.5214 2.91972 32.6607 3.70972C32.7999 4.49972 32.3423 5.27972 31.5863 5.53972L31.0889 5.71972V6.24972V11.1997C31.0889 12.1097 30.3527 12.8497 29.4474 12.8497H24.6723H23.9262V13.5997V15.1997V15.9497H24.6723H33.4267C33.4565 15.9497 33.4764 15.9697 33.4764 15.9997C33.4764 16.0297 33.4565 16.0497 33.4267 16.0497H24.6723H23.9262V16.7997V19.1997V19.9497H24.6723H37.406C38.2615 19.9497 38.9479 19.2597 38.9479 18.3997V14.2497V13.7197L38.4505 13.5397C37.6945 13.2697 37.2468 12.4997 37.3761 11.7097C37.5154 10.9197 38.1919 10.3397 38.9977 10.3397C39.7935 10.3397 40.4799 10.9197 40.6192 11.7097C40.7585 12.4997 40.3009 13.2797 39.5448 13.5397L39.0474 13.7197V14.2497V18.3997C39.0474 19.3097 38.3112 20.0497 37.406 20.0497H24.6723H23.9262V20.7997V23.1997V23.9497H24.6723H43.1262ZM23.0308 35.9197L23.4884 35.9497C23.389 35.9997 23.2795 36.0197 23.1701 36.0197H23.1602H23.0905C16.7834 35.6097 11.8789 30.3497 11.8789 23.9997C11.8789 17.6397 16.7933 12.3797 23.1104 11.9697C23.2397 11.9597 23.3691 11.9897 23.4785 12.0397L23.0209 12.0697C16.8132 12.5397 11.9983 17.7397 11.9883 23.9997H12.7345H11.9883C11.9983 30.2697 16.8132 35.4697 23.0308 35.9197ZM40.5396 11.9997C40.5396 11.1397 39.8532 10.4497 38.9977 10.4497C38.1421 10.4497 37.4557 11.1397 37.4557 11.9997C37.4557 12.8597 38.1421 13.5497 38.9977 13.5497C39.8532 13.5497 40.5396 12.8597 40.5396 11.9997ZM32.5811 3.99972C32.5811 3.13972 31.8947 2.44972 31.0391 2.44972C30.1836 2.44972 29.4971 3.13972 29.4971 3.99972C29.4971 4.85972 30.1836 5.54972 31.0391 5.54972C31.8947 5.54972 32.5811 4.85972 32.5811 3.99972ZM29.4971 43.9997C29.4971 44.8597 30.1836 45.5497 31.0391 45.5497C31.8947 45.5497 32.5811 44.8597 32.5811 43.9997C32.5811 43.1397 31.8947 42.4497 31.0391 42.4497C30.1836 42.4497 29.4971 43.1497 29.4971 43.9997ZM37.4557 35.9997C37.4557 36.8597 38.1421 37.5497 38.9977 37.5497C39.8532 37.5497 40.5396 36.8597 40.5396 35.9997C40.5396 35.1397 39.8532 34.4497 38.9977 34.4497C38.1421 34.4497 37.4557 35.1497 37.4557 35.9997ZM43.8225 23.9997C43.8225 24.8597 44.509 25.5497 45.3645 25.5497C46.22 25.5497 46.9065 24.8597 46.9065 23.9997C46.9065 23.1397 46.22 22.4497 45.3645 22.4497C44.509 22.4497 43.8225 23.1497 43.8225 23.9997Z" fill="white" stroke="white" stroke-width="2"/>
</g>
<defs>
<clipPath id="clip0_347_9910">
<rect width="48" height="48" fill="white"/>
</clipPath>
</defs>
</svg>
