<svg width="48" height="48" viewBox="0 0 48 48" fill="none" xmlns="http://www.w3.org/2000/svg">
<g clip-path="url(#clip0_347_9982)">
<path d="M41.9025 18.93L25.9968 3.02433C24.3525 1.37996 21.6767 1.37986 20.0323 3.02433C18.554 4.50248 18.4267 6.75689 19.5183 8.36667L19.4962 8.47739C18.3495 14.2116 15.5577 19.4282 11.4225 23.5633L4.12696 30.8589C2.47865 32.5073 2.47837 35.175 4.12696 36.8234L8.10327 40.7997C9.75148 42.448 12.4194 42.4481 14.0678 40.7997L15.0619 39.8056L22.0206 46.7643C23.6689 48.4127 26.3367 48.4128 27.9851 46.7643C29.6295 45.1199 29.6295 42.4442 27.9851 40.7998L25.0028 37.8175L25.9969 36.8234C27.6452 35.1752 27.6454 32.5075 25.9969 30.859L25.3214 30.1833C28.6447 27.8565 32.419 26.2366 36.4496 25.4305L36.5617 25.4081C38.2073 26.5191 40.4564 26.3405 41.9025 24.8944H41.9026C43.5468 23.2501 43.5468 20.5745 41.9025 18.93ZM12.0797 38.8116C11.5303 39.3608 10.6408 39.3609 10.0914 38.8115L6.11512 34.8352C5.56565 34.2856 5.56565 33.3965 6.11512 32.847L13.0737 25.8883L19.0382 31.8529C18.3574 32.5337 12.7773 38.1139 12.0797 38.8116ZM25.9968 42.7879C26.5449 43.3359 26.5449 44.2279 25.9968 44.776C25.4488 45.3241 24.5567 45.3241 24.0087 44.776L17.05 37.8173L19.0382 35.8292L25.9968 42.7879ZM21.0264 33.841C21.449 33.4184 22.0816 32.7711 23.0801 31.9183L24.0087 32.847C24.5581 33.3965 24.5581 34.2856 24.0087 34.8352L23.0146 35.8293L21.0264 33.841ZM21.0861 29.9245L15.0019 23.8404C18.2625 20.0755 20.5974 15.6313 21.8466 10.8031L34.1233 23.0799C29.2952 24.329 24.8511 26.6639 21.0861 29.9245ZM39.9141 22.9061C39.3646 23.4555 38.4754 23.4555 37.9259 22.9061L22.0204 7.00064C21.471 6.45108 21.471 5.56195 22.0204 5.01248C22.5699 4.46302 23.4592 4.46302 24.0087 5.01248L39.9141 20.9179C40.4621 21.4661 40.4621 22.3579 39.9141 22.9061Z" fill="white"/>
<path d="M14.0678 30.859C13.5188 30.31 12.6286 30.31 12.0796 30.859L10.0914 32.8472C9.54244 33.3962 9.54244 34.2863 10.0914 34.8353C10.6403 35.3843 11.5307 35.3843 12.0796 34.8353L14.0678 32.8472C14.6168 32.2982 14.6168 31.408 14.0678 30.859Z" fill="white"/>
<path d="M32.4567 0C31.6802 0 31.0508 0.629436 31.0508 1.40587V4.21762C31.0508 4.99405 31.6802 5.62349 32.4567 5.62349C33.2331 5.62349 33.8625 4.99405 33.8625 4.21762V1.40587C33.8625 0.629436 33.2331 0 32.4567 0Z" fill="white"/>
<path d="M43.702 11.2469H40.8902C40.1138 11.2469 39.4844 11.8764 39.4844 12.6528C39.4844 13.4293 40.1138 14.0587 40.8902 14.0587H43.702C44.4784 14.0587 45.1079 13.4293 45.1079 12.6528C45.1079 11.8764 44.4783 11.2469 43.702 11.2469Z" fill="white"/>
<path d="M41.8835 3.2223C41.3346 2.6733 40.4444 2.6733 39.8954 3.2223L37.0836 6.03404C36.5346 6.58304 36.5346 7.47319 37.0836 8.02219C37.6325 8.57119 38.5228 8.57129 39.0718 8.02219L41.8835 5.21045C42.4325 4.66145 42.4325 3.77139 41.8835 3.2223Z" fill="white"/>
</g>
<defs>
<clipPath id="clip0_347_9982">
<rect width="48" height="48" fill="white"/>
</clipPath>
</defs>
</svg>
