<svg width="30" height="48" viewBox="0 0 30 48" fill="none" xmlns="http://www.w3.org/2000/svg">
<path d="M24.6016 0H5.40156C2.75519 0 0.601562 2.15363 0.601562 4.8V43.2C0.601562 45.8464 2.75519 48 5.40156 48H24.6016C27.2479 48 29.4016 45.8464 29.4016 43.2V4.8C29.4016 2.15363 27.2479 0 24.6016 0ZM27.0016 43.2C27.0016 44.5256 25.9272 45.6 24.6016 45.6H5.40156C4.07594 45.6 3.00156 44.5256 3.00156 43.2V4.8C3.00156 3.47438 4.07594 2.4 5.40156 2.4H24.6016C25.9272 2.4 27.0016 3.47438 27.0016 4.8V43.2Z" fill="white"/>
<path d="M15.0016 42.9992C16.327 42.9992 17.4016 41.9247 17.4016 40.5992C17.4016 39.2737 16.327 38.1992 15.0016 38.1992C13.6761 38.1992 12.6016 39.2737 12.6016 40.5992C12.6016 41.9247 13.6761 42.9992 15.0016 42.9992Z" fill="white"/>
<path d="M10.5984 5.4C11.2612 5.4 11.7984 4.86274 11.7984 4.2C11.7984 3.53726 11.2612 3 10.5984 3C9.9357 3 9.39844 3.53726 9.39844 4.2C9.39844 4.86274 9.9357 5.4 10.5984 5.4Z" fill="white"/>
</svg>
