<svg width="48" height="48" viewBox="0 0 48 48" fill="none" xmlns="http://www.w3.org/2000/svg">
<path d="M27.3242 48H20.6722C19.0482 48 17.6662 46.89 17.3102 45.302L16.4662 41.556C15.0922 40.974 13.7842 40.214 12.5582 39.288L8.91425 40.438C7.35025 40.92 5.65025 40.258 4.86625 38.862L1.55025 33.126C0.756246 31.706 1.02425 29.956 2.19425 28.856L5.01825 26.26C4.93225 25.5 4.88825 24.742 4.88825 24C4.88825 23.258 4.93025 22.5 5.01625 21.74L2.20625 19.156C1.02425 18.044 0.754246 16.296 1.54025 14.894L4.87625 9.124C5.65225 7.744 7.35024 7.076 8.91024 7.562L12.5582 8.712C13.7842 7.786 15.0942 7.026 16.4662 6.444L17.3102 2.696C17.6662 1.11 19.0482 0 20.6722 0H27.3242C28.9482 0 30.3302 1.11 30.6862 2.698L31.5302 6.444C32.9042 7.026 34.2122 7.786 35.4382 8.712L39.0822 7.562C40.6422 7.074 42.3442 7.742 43.1302 9.138L46.4462 14.874C47.2402 16.294 46.9722 18.044 45.8022 19.144L42.9782 21.74C43.0642 22.5 43.1062 23.258 43.1062 24C43.1062 24.742 43.0642 25.5 42.9782 26.26L45.7902 28.844C45.7942 28.848 45.7982 28.852 45.8022 28.856C46.9722 29.956 47.2422 31.704 46.4562 33.106L43.1202 38.876C42.3422 40.256 40.6442 40.924 39.0862 40.438L35.4362 39.286C34.2102 40.212 32.9002 40.972 31.5282 41.554L30.6842 45.302C30.3302 46.89 28.9482 48 27.3242 48ZM12.8662 36.118C13.2102 36.118 13.5482 36.236 13.8222 36.46C15.1922 37.59 16.6922 38.46 18.2782 39.046C18.7542 39.222 19.1102 39.628 19.2222 40.124L20.2402 44.644C20.2862 44.85 20.4702 45 20.6762 45H27.3282C27.5342 45 27.7162 44.85 27.7642 44.646L28.7822 40.126C28.8942 39.63 29.2482 39.224 29.7262 39.048C31.3122 38.462 32.8122 37.59 34.1822 36.462C34.5742 36.138 35.1002 36.034 35.5882 36.188L39.9902 37.578C40.1982 37.642 40.4222 37.57 40.5202 37.392L43.8562 31.624C43.9562 31.446 43.9202 31.202 43.7582 31.046L40.3822 27.942C40.0142 27.604 39.8402 27.108 39.9162 26.614C40.0482 25.734 40.1162 24.854 40.1162 24C40.1162 23.146 40.0502 22.268 39.9162 21.386C39.8422 20.892 40.0162 20.396 40.3822 20.058L43.7662 16.946C43.9182 16.802 43.9582 16.556 43.8462 16.358L40.5302 10.624C40.4222 10.434 40.2062 10.36 39.9862 10.424L35.5902 11.812C35.1022 11.966 34.5762 11.862 34.1842 11.538C32.8142 10.408 31.3142 9.538 29.7282 8.952C29.2522 8.776 28.8962 8.37 28.7842 7.874L27.7662 3.354C27.7122 3.15 27.5302 3 27.3242 3H20.6722C20.4662 3 20.2842 3.15 20.2362 3.354L19.2182 7.876C19.1082 8.372 18.7522 8.776 18.2762 8.954C16.6902 9.54 15.1902 10.41 13.8202 11.54C13.4282 11.864 12.9022 11.966 12.4142 11.814L8.01225 10.424C7.80425 10.36 7.58025 10.434 7.48225 10.61L4.14625 16.376C4.04425 16.556 4.08425 16.802 4.24825 16.958L7.62225 20.058C7.99025 20.396 8.16425 20.892 8.08825 21.386C7.95625 22.266 7.88825 23.146 7.88825 24C7.88825 24.854 7.95425 25.732 8.08825 26.614C8.16225 27.108 7.98825 27.604 7.62225 27.942L4.23825 31.054C4.08625 31.198 4.04625 31.444 4.15825 31.642L7.47425 37.376C7.58425 37.568 7.80225 37.646 8.01825 37.576L12.4142 36.188C12.5622 36.14 12.7142 36.118 12.8662 36.118Z" fill="white"/>
<path d="M22.5026 32.0004C22.3886 32.0004 22.2766 31.9884 22.1626 31.9624C21.3566 31.7764 20.8526 30.9704 21.0386 30.1644L24.0386 17.1644C24.2246 16.3544 25.0406 15.8564 25.8366 16.0384C26.6426 16.2244 27.1466 17.0304 26.9606 17.8364L23.9606 30.8364C23.8006 31.5324 23.1846 32.0004 22.5026 32.0004Z" fill="white"/>
<path d="M30.5009 30.0001C30.0909 30.0001 29.6829 29.8341 29.3849 29.5041C28.8309 28.8881 28.8809 27.9401 29.4969 27.3841L33.2588 24.0001L29.4969 20.6161C28.8809 20.0621 28.8309 19.1141 29.3849 18.4961C29.9409 17.8821 30.8888 17.8321 31.5048 18.3841L36.5049 22.8841C36.8209 23.1701 37.0008 23.5761 37.0008 24.0001C37.0008 24.4241 36.8209 24.8301 36.5049 25.1161L31.5048 29.6161C31.2168 29.8741 30.8589 30.0001 30.5009 30.0001Z" fill="white"/>
<path d="M17.5 29.9999C17.142 29.9999 16.784 29.8739 16.496 29.6159L11.496 25.1159C11.18 24.8299 11 24.4239 11 23.9999C11 23.5759 11.18 23.1699 11.496 22.8839L16.496 18.3839C17.112 17.8299 18.058 17.8799 18.616 18.4959C19.17 19.1119 19.12 20.0599 18.504 20.6159L14.742 23.9999L18.504 27.3839C19.12 27.9379 19.17 28.8859 18.616 29.5039C18.318 29.8339 17.91 29.9999 17.5 29.9999Z" fill="white"/>
</svg>
