<svg width="48" height="48" viewBox="0 0 48 48" fill="none" xmlns="http://www.w3.org/2000/svg">
<g clip-path="url(#clip0_347_9935)">
<path d="M43.5 0H4.5C2.01469 0 0 2.01469 0 4.5V43.5C0 45.9853 2.01469 48 4.5 48H43.5C45.9853 48 48 45.9853 48 43.5V4.5C48 2.01469 45.9853 0 43.5 0ZM45 43.5C45 44.3285 44.3285 45 43.5 45H4.5C3.67153 45 3 44.3285 3 43.5V4.5C3 3.67153 3.67153 3 4.5 3H43.5C44.3285 3 45 3.67153 45 4.5V43.5Z" fill="white"/>
<path d="M9 6H6V9H9V6Z" fill="white"/>
<path d="M42 6H39V9H42V6Z" fill="white"/>
<path d="M42 39H39V42H42V39Z" fill="white"/>
<path d="M9 39H6V42H9V39Z" fill="white"/>
<path d="M21 19.5H24C24.8285 19.5 25.5 20.1715 25.5 21H28.5C28.5 18.5147 26.4853 16.5 24 16.5H21C18.5147 16.5 16.5 18.5147 16.5 21C16.5 23.4853 18.5147 25.5 21 25.5H24C24.8285 25.5 25.5 26.1715 25.5 27C25.5 27.8285 24.8285 28.5 24 28.5H21C20.1715 28.5 19.5 27.8285 19.5 27H16.5C16.5 29.4853 18.5147 31.5 21 31.5H24C26.4853 31.5 28.5 29.4853 28.5 27C28.5 24.5147 26.4853 22.5 24 22.5H21C20.1715 22.5 19.5 21.8285 19.5 21C19.5 20.1715 20.1715 19.5 21 19.5Z" fill="white"/>
<path d="M6 19.5H9V28.5H6V31.5H15V28.5H12V19.5H15V16.5H6V19.5Z" fill="white"/>
<path d="M36 16.5C32.6863 16.5 30 19.1863 30 22.5V25.5C30 28.8137 32.6863 31.5 36 31.5C39.3137 31.5 42 28.8137 42 25.5V22.5C42 19.1863 39.3137 16.5 36 16.5ZM39 25.5C39 27.1568 37.6568 28.5 36 28.5C34.3432 28.5 33 27.1568 33 25.5V22.5C33 20.8432 34.3432 19.5 36 19.5C37.6568 19.5 39 20.8432 39 22.5V25.5Z" fill="white"/>
</g>
<defs>
<clipPath id="clip0_347_9935">
<rect width="48" height="48" fill="white"/>
</clipPath>
</defs>
</svg>
