<svg width="144" height="71" viewBox="0 0 144 71" fill="none" xmlns="http://www.w3.org/2000/svg">
<g clip-path="url(#clip0_181_7201)">
<path d="M59.8147 9.93731C58.5554 8.94397 56.991 8.41211 55.3875 8.44339C51.3984 8.44339 48.1602 11.6815 48.1602 15.6705C48.1602 19.6595 51.3984 22.8976 55.3875 22.8976C57.5229 22.9445 59.5644 22.0138 60.9332 20.3791V16.3901C60.1276 17.8136 58.9308 18.9868 57.4838 19.7533C56.8189 20.0427 56.1071 20.1992 55.3797 20.1992C52.8845 20.2304 50.8352 18.2438 50.8039 15.7487C50.8039 15.7252 50.8039 15.7096 50.8039 15.6861C50.8118 13.1676 52.8533 11.1262 55.3719 11.134H55.3797C56.5843 11.1418 57.7341 11.6189 58.5867 12.4637C59.4471 13.3006 60.7846 15.0448 61.426 15.7331C64.7815 19.4639 70.5228 19.7612 74.2538 16.4057C77.9848 13.0503 78.282 7.30927 74.9264 3.57839C71.5709 -0.152479 65.8297 -0.449697 62.0987 2.90574C61.6685 3.29682 61.2774 3.71918 60.9254 4.18847V9.57751C62.1847 6.1595 64.4374 3.42979 67.965 3.42979C71.3832 3.46107 74.1286 6.25336 74.0973 9.67137C74.066 13.0894 71.2737 15.8347 67.8555 15.8035C66.4319 15.7878 65.0631 15.2872 63.9681 14.3799C62.6384 13.3319 61.16 11.134 59.7834 9.96859" fill="#DE0021"/>
<path d="M0.910166 24.9082H20.7541V30.438C20.7541 30.438 19.7373 28.2637 17.6254 28.2558H8.40347V37.7903H18.3607V42.8508C18.3607 42.8508 18.04 41.2396 15.6387 41.2318H8.40347V54.2624C8.40347 56.1865 10.4841 57.3207 10.4841 57.3207H1.03531C2.18512 56.7184 2.93602 55.5608 3.01424 54.2624V28.2949C3.01424 26.1127 0.902344 24.9004 0.902344 24.9004" fill="#DE0021"/>
<path d="M50.8044 24.916H60.8945C60.8945 24.916 58.634 25.9876 58.634 27.7396V58.1497C58.634 68.4272 48.3249 70.1167 47.793 70.0854C48.669 69.5222 52.9554 65.8774 52.971 58.1497V27.7396C52.971 26.0892 50.8044 24.916 50.8044 24.916Z" fill="#DE0021"/>
<path d="M62.3281 24.916H72.4496C72.4496 24.916 70.2047 25.9954 70.2047 27.7865V54.2703C70.2047 56.1631 72.4496 57.3519 72.4496 57.3519H62.3281C62.3281 57.3519 64.573 56.1787 64.573 54.2703V27.7787C64.573 25.9876 62.3281 24.9082 62.3281 24.9082" fill="#DE0021"/>
<path d="M74.4828 24.9082H96.7672L94.8743 30.7979C94.8743 30.7979 94.3112 28.3263 92.1602 28.3263H87.5296V54.2625C87.5296 55.905 89.7041 57.3285 89.7041 57.3285H79.786C79.786 57.3285 81.937 56.0458 81.937 54.2625V28.295H76.3523C74.7879 28.295 72.4961 31.2593 72.4961 31.2593L74.475 24.877" fill="#DE0021"/>
<path d="M133.997 24.916H143.751C143.751 24.916 141.663 26.0267 141.663 27.7787V47.4029C141.663 55.3809 135.038 57.829 130.462 57.829C125.886 57.829 118.729 55.3496 118.776 47.4029V27.7787C118.776 26.0267 116.625 24.916 116.625 24.916H126.668C126.668 24.916 124.431 25.9876 124.431 27.7787V47.4029C124.431 51.5796 127.2 54.325 130.454 54.325C133.708 54.325 136.18 51.478 136.187 47.4029V27.7787C136.187 26.0267 133.989 24.916 133.997 24.916Z" fill="#DE0021"/>
<path d="M39.1106 24.916H49.0522C49.0522 24.916 46.9403 26.0658 46.9403 27.81V47.3638C46.9403 55.3731 40.018 57.8916 35.3796 57.8916C30.7413 57.8916 23.6938 55.334 23.6938 47.3638V27.81C23.6938 26.058 21.6602 24.916 21.6602 24.916H31.6564C31.6564 24.916 29.3099 26.058 29.3099 27.81V47.3638C29.3099 51.5092 32.071 54.4032 35.3249 54.4032C38.5788 54.4032 41.1913 51.4858 41.1913 47.3638V27.81C41.1913 26.058 39.0481 24.916 39.0481 24.916" fill="#DE0021"/>
<path d="M113.646 30.1025C113.646 30.1025 112.238 27.6387 108.171 27.6231C104.104 27.6074 101.914 29.7505 101.914 32.5272C101.914 35.6558 104.26 36.8525 107.921 38.6045C111.401 40.2705 116.626 42.5778 116.603 48.3814C116.603 53.5827 111.972 57.9315 103.705 57.9315C101.663 57.8377 99.6296 57.5561 97.6429 57.0946L95.75 50.8374C97.5021 52.5425 100.6 54.3727 103.799 54.3727C106.998 54.3727 111.057 52.3313 111.057 49.0463C111.057 42.7108 96.3132 43.7667 96.3132 33.1607C96.3132 29.5159 98.8553 24.2285 107.647 24.2285C109.681 24.2833 111.707 24.5648 113.685 25.0654V30.0712" fill="#DE0021"/>
</g>
<defs>
<clipPath id="clip0_181_7201">
<rect width="142.85" height="69.51" fill="white" transform="translate(0.902344 0.574219)"/>
</clipPath>
</defs>
</svg>
