<svg width="76" height="77" viewBox="0 0 76 77" fill="none" xmlns="http://www.w3.org/2000/svg">
<g clip-path="url(#clip0_181_529)">
<path d="M68.6385 0C69.0996 0.120278 69.5406 0.240556 70.0017 0.38088C73.3093 1.44334 75.4543 4.39015 75.4944 8.05862C75.5345 11.9877 75.5545 15.9168 75.4944 19.8258C75.4342 24.5167 72.0665 27.9446 67.3957 27.8043C65.0502 27.7441 63.1859 28.3455 61.4018 29.8289C59.3771 31.4928 57.1921 32.9562 55.0671 34.4997C54.8867 34.62 54.7063 34.7403 54.4257 34.9407C54.4257 32.5151 54.4257 30.1898 54.4257 27.8243C52.862 27.5036 51.4588 26.9222 50.2961 25.8798C48.5922 24.3362 47.67 22.4318 47.65 20.1466C47.6099 17.6007 47.65 15.0548 47.65 12.4488C48.4117 12.4488 49.1134 12.4488 49.8952 12.4488C49.8952 13.5112 49.8952 14.5135 49.8952 15.5359C49.8952 16.9592 49.8952 18.3825 49.8952 19.8058C49.9152 23.1335 52.2607 25.519 55.5683 25.6192C55.889 25.6192 56.2098 25.6192 56.5907 25.6192C56.5907 27.243 56.5907 28.8066 56.5907 30.5506C56.9314 30.3301 57.152 30.1898 57.3524 30.0494C59.2167 28.6863 61.061 27.3231 62.9253 26.0001C63.226 25.7796 63.647 25.6593 64.0078 25.6392C65.1505 25.5992 66.3131 25.6392 67.4558 25.6192C70.7634 25.5591 73.149 23.2537 73.2091 19.9661C73.2692 15.9368 73.2893 11.9075 73.2091 7.89825C73.149 4.55052 70.7233 2.26523 67.3756 2.26523C63.5067 2.26523 59.6177 2.26523 55.7487 2.26523C52.2606 2.26523 49.8751 4.67079 49.8751 8.15885C49.8751 8.78029 49.8751 9.40173 49.8751 10.0833C49.1134 10.0833 48.4117 10.0833 47.7101 10.0833C47.0686 5.15191 49.2136 1.76408 53.0625 0.400927C53.5035 0.240556 53.9646 0.140324 54.4056 0C59.1365 0 63.8875 0 68.6385 0Z" fill="white"/>
<path d="M10.8852 74.5723C13.5112 74.5723 16.0371 74.5723 18.5629 74.5723C19.6053 74.5723 20.6678 74.5122 21.7102 74.5924C22.933 74.6926 23.6747 74.5122 24.2561 73.149C25.1982 70.9239 27.2229 69.9216 29.6285 70.122C32.014 70.3225 33.6578 71.6255 34.4797 73.8907C34.6801 74.432 34.9007 74.6325 35.4619 74.5924C36.1836 74.5322 36.9053 74.5723 37.6871 74.5723C37.6871 75.314 37.6871 76.0156 37.6871 76.7774C25.1581 76.7774 12.6292 76.7774 0 76.7774C0.0801853 75.5947 0.140324 74.432 0.22051 73.2693C0.521204 69.4605 0.781807 65.6317 1.12259 61.8229C1.28296 60.1189 1.70394 58.4751 2.54588 56.9717C3.78876 54.7265 5.83348 53.4235 8.11876 52.5414C12.4688 50.8575 16.859 49.2739 21.2491 47.6902C21.8304 47.4697 22.071 47.169 22.091 46.5676C22.1311 45.7257 22.512 44.7434 22.2113 44.0618C21.9307 43.4404 20.9484 43.1397 20.2869 42.6586C16.7587 40.1127 14.1728 36.8852 13.2306 32.5151C13.0702 31.7734 13.0101 30.9716 13.0101 30.2098C12.99 26.6015 12.99 23.0132 13.0101 19.4048C13.0301 12.1681 18.4627 6.75562 25.6994 6.75562C31.9739 6.75562 38.2484 6.75562 44.5229 6.75562C44.7634 6.75562 45.024 6.75562 45.3849 6.75562C45.3849 7.07636 45.3849 7.37705 45.3849 7.6577C45.3849 14.8944 45.3047 22.1111 45.4049 29.3478C45.4651 33.5575 43.8814 37.0256 41.115 40.0526C39.792 41.5159 38.2684 42.7187 36.5244 43.6408C36.1235 43.8614 35.9832 44.1019 36.0633 44.5229C36.1235 44.8436 36.2037 45.1844 36.1636 45.4851C35.9631 47.0888 36.8652 47.6501 38.2484 48.1312C42.1374 49.4543 45.9863 50.9377 49.8552 52.381C50.0356 52.4412 50.216 52.5414 50.4165 52.6216C54.4659 54.2253 56.8113 57.1922 57.2122 61.5222C57.6933 66.5939 58.0341 71.6856 58.435 76.8175C53.7843 76.8175 49.2137 76.8175 44.583 76.8175C44.583 76.1159 44.583 75.4143 44.583 74.6325C45.5252 74.6325 46.4674 74.6325 47.4496 74.6325C47.4697 74.3518 47.4897 74.1313 47.4897 73.9108C47.4897 69.7812 47.4897 65.6517 47.4897 61.5422C47.4897 60.3595 47.149 59.9986 45.9863 59.9986C34.7804 59.9986 23.5745 59.9986 12.3686 59.9986C11.246 59.9986 10.8852 60.3595 10.8852 61.462C10.8852 65.6116 10.8852 69.7612 10.8852 73.9108C10.8852 74.0912 10.8852 74.2917 10.8852 74.5723ZM43.1196 28.5861C43.1196 28.1651 43.1196 27.7441 43.1196 27.3031C43.1196 25.6192 43.1196 25.5992 41.4758 25.2784C34.4195 23.8551 27.3833 22.4519 20.327 21.0286C19.8659 20.9284 19.5452 21.0085 19.2044 21.3694C18.3424 22.2915 17.4604 23.2537 16.4981 24.0556C15.4958 24.8775 15.1149 25.8197 15.2352 27.1026C15.3956 28.8066 15.155 30.5907 15.5159 32.2545C16.4781 36.5444 19.2645 39.5714 23.0132 41.7164C25.6593 43.2199 28.5259 43.7411 31.5529 43.1196C35.1212 42.398 37.9276 40.4535 40.1728 37.667C42.3378 35.041 43.5005 32.0541 43.1196 28.5861ZM2.40556 74.5322C4.53047 74.5322 6.55515 74.5322 8.63997 74.5322C8.63997 74.2315 8.63997 73.9509 8.63997 73.6903C8.63997 69.6209 8.63997 65.5314 8.63997 61.462C8.63997 59.0565 9.98307 57.7134 12.4087 57.7134C23.5745 57.7134 34.7603 57.7134 45.9261 57.7134C48.4119 57.7134 49.7349 59.0364 49.7349 61.5021C49.7349 65.5715 49.7349 69.661 49.7349 73.7304C49.7349 73.991 49.7349 74.2516 49.7349 74.5322C51.8598 74.5322 53.8845 74.5322 55.9493 74.5322C55.8691 73.4096 55.809 72.3271 55.7288 71.2647C55.4882 68.1575 55.2477 65.0303 54.9871 61.9231C54.6864 58.5353 53.0426 56.0696 49.8352 54.8267C46.4874 53.5237 43.1196 52.3009 39.7519 51.0379C38.6092 50.617 37.4666 50.216 36.3239 49.7951C35.2615 53.1428 33.1566 55.2276 29.6485 55.408C25.6994 55.6085 23.2738 53.4635 22.051 49.7951C19.3046 50.7974 16.5984 51.7596 13.9121 52.782C11.7672 53.6039 9.62224 54.4057 7.53742 55.3679C5.37241 56.3502 4.04936 58.1343 3.66848 60.4798C3.36778 62.3441 3.16732 64.2485 3.00695 66.1328C2.76639 68.8792 2.60602 71.6856 2.40556 74.5322ZM43.0996 9.0409C42.859 9.02085 42.6586 9.02085 42.4581 9.02085C36.765 9.02085 31.0718 9.0008 25.3586 9.02085C19.5051 9.06094 14.1527 13.9122 15.3755 22.051C16.438 20.9885 17.4603 19.9661 18.4627 18.9237C18.7634 18.603 19.044 18.5028 19.5051 18.5829C25.6593 19.8258 31.8336 21.0486 38.0078 22.2915C39.6917 22.6323 41.3756 22.953 43.0996 23.2938C43.0996 18.5028 43.0996 13.8119 43.0996 9.0409ZM24.5367 44.8236C24.4164 45.9462 24.2961 46.9685 24.236 47.9709C24.0957 50.4766 25.8999 52.7419 28.3255 53.1027C30.9515 53.5036 33.4774 52.0002 33.9585 49.4543C34.2391 47.9909 33.9986 46.4072 33.9785 44.7835C30.711 45.866 27.6639 45.886 24.5367 44.8236ZM32.3147 74.5523C31.7534 73.0688 30.4504 72.2269 28.9669 72.3271C27.6038 72.4073 26.381 73.3695 26.1404 74.5523C28.1651 74.5523 30.2098 74.5523 32.3147 74.5523Z" fill="white"/>
<path d="M61.7832 18.4417C61.0215 18.2813 60.3599 18.161 59.5781 18.0007C60.1595 15.134 60.7208 12.3276 61.3021 9.46094C62.0639 9.62131 62.7454 9.74159 63.5072 9.90196C62.9259 12.7686 62.3646 15.5751 61.7832 18.4417Z" fill="white"/>
<path d="M56.1909 17.6207C54.948 16.3778 53.7252 15.155 52.5625 14.0124C53.7653 12.8096 54.9881 11.5867 56.251 10.3439C56.6119 10.7648 57.093 11.2861 57.6543 11.9075C57.0328 12.4487 56.2711 13.1103 55.4291 13.852C56.3312 14.6939 57.0729 15.3555 57.8146 16.0571C57.1932 16.6384 56.692 17.1396 56.1909 17.6207Z" fill="white"/>
<path d="M67.5973 13.9125C66.7954 13.1508 66.0737 12.4892 65.332 11.7876C65.9134 11.2463 66.4546 10.7652 66.9157 10.3242C68.0984 11.4869 69.3213 12.7097 70.4839 13.8724C69.3213 15.0552 68.0784 16.298 66.8355 17.5609C66.4145 17.14 65.9334 16.6188 65.332 15.9973C66.0337 15.3558 66.7553 14.6743 67.5973 13.9125Z" fill="white"/>
<path d="M42.2192 76.7974C41.4775 76.7974 40.7959 76.7974 40.0742 76.7974C40.0742 76.0758 40.0742 75.3942 40.0742 74.6525C40.7758 74.6525 41.4775 74.6525 42.2192 74.6525C42.2192 75.334 42.2192 76.0357 42.2192 76.7974Z" fill="white"/>
<path d="M36.3252 13.4716C35.5834 13.4716 34.9019 13.4716 34.1602 13.4716C34.1602 12.75 34.1602 12.0484 34.1602 11.3066C34.8618 11.3066 35.5834 11.3066 36.3252 11.3066C36.3252 12.0083 36.3252 12.6898 36.3252 13.4716Z" fill="white"/>
<path d="M40.833 11.2852C40.833 12.0269 40.833 12.7084 40.833 13.4502C40.1113 13.4502 39.4097 13.4502 38.668 13.4502C38.668 12.7285 38.668 12.0269 38.668 11.2852C39.3896 11.2852 40.0712 11.2852 40.833 11.2852Z" fill="white"/>
</g>
<defs>
<clipPath id="clip0_181_529">
<rect width="75.5145" height="76.7975" fill="white"/>
</clipPath>
</defs>
</svg>
