<svg width="123" height="85" viewBox="0 0 123 85" fill="none" xmlns="http://www.w3.org/2000/svg">
<path d="M60.7782 42.5274C59.78 42.373 58.7703 42.2746 57.7862 42.0564C49.3954 40.1994 43.0143 33.8167 41.5196 25.3419C40.0763 17.1554 42.7373 10.3044 49.0954 4.96734C51.9573 2.56486 55.3155 1.16363 59.0136 0.615555C59.2464 0.580967 59.5154 0.623536 59.7366 0.709561C61.8064 1.51571 63.2842 2.99143 64.3762 4.89107C65.5319 6.90334 66.1992 9.09387 66.5319 11.3678C66.831 13.4093 66.9735 15.4757 67.1531 17.5332C67.177 17.8081 67.1009 18.2427 66.9204 18.3517C66.593 18.5504 66.308 18.2267 66.07 17.9766C63.5303 15.301 60.8047 12.847 57.6119 10.9651C55.6916 9.83351 53.6714 8.96528 51.4299 8.70011C51.1325 8.66463 51.0131 8.73292 50.929 9.02026C49.552 13.7206 48.8565 18.5025 49.1096 23.4121C49.2875 26.8708 49.914 30.24 50.9502 33.5391C51.0608 33.8903 51.2139 33.9958 51.5732 33.9683C52.9324 33.8637 54.2616 33.6163 55.5474 33.1648C55.9323 33.0292 56.1226 33.1329 56.2421 33.4965C56.5863 34.5483 56.9102 35.6081 57.2925 36.6457C58.0614 38.7334 59.18 40.6135 60.7109 42.2374C60.7498 42.279 60.7799 42.3296 60.8144 42.3766C60.802 42.4271 60.7897 42.4768 60.7782 42.5274Z" fill="#B91D5A"/>
<path d="M63.517 0.574219C65.6249 0.686849 67.5779 1.06376 69.4363 1.79985C76.9448 4.77436 81.5721 10.2338 82.9844 18.2022C84.902 29.0236 77.605 39.8033 66.939 42.157C66.4789 42.2581 66.0169 42.376 65.5506 42.4151C65.2276 42.4417 64.8657 42.4151 64.5692 42.2945C62.4189 41.4262 60.9251 39.8432 59.8473 37.8292C58.6181 35.5304 58.0004 33.0419 57.6757 30.4807C57.4633 28.8125 57.3633 27.1293 57.2474 25.4505C57.2297 25.1933 57.3996 24.9228 57.4828 24.6585C57.7509 24.7791 58.0872 24.835 58.2757 25.0319C60.7278 27.5842 63.3277 29.9574 66.355 31.8189C68.239 32.9781 70.2212 33.9004 72.4255 34.2658C73.3574 34.4201 73.3565 34.4236 73.6131 33.5279C74.9971 28.6999 75.6121 23.7849 75.2484 18.7636C75.0184 15.5833 74.4025 12.4767 73.4308 9.4392C73.3317 9.12969 73.176 9.03214 72.8901 9.08535C71.5911 9.32924 70.2858 9.55095 68.9956 9.83563C68.3381 9.98019 68.3186 10.0236 68.0939 9.36205C67.7381 8.31467 67.4257 7.25045 67.0381 6.21549C66.2851 4.20234 65.178 2.39848 63.71 0.823425C63.6631 0.772874 63.625 0.714342 63.517 0.574219Z" fill="#B91D5A"/>
<path d="M105.227 53.3851C106.001 53.1652 106.566 53.4516 107.07 53.9846C108.803 55.8195 110.542 57.6482 112.286 59.4742C114.528 61.8226 116.777 64.1648 119.021 66.5123C119.224 66.7251 119.398 66.9664 119.594 67.1854C119.656 67.2546 119.75 67.2963 119.83 67.3504C119.875 67.2519 119.943 67.1579 119.96 67.0551C119.983 66.9105 119.968 66.7606 119.968 66.6125C119.968 62.3849 119.968 58.1581 119.968 53.9305C119.968 53.7576 119.968 53.5846 119.968 53.3886C120.992 53.3886 121.96 53.3886 122.976 53.3886C122.984 53.5527 122.999 53.7097 122.999 53.8667C123 60.2813 123 66.6959 123 73.1105C123 73.6293 122.915 73.7614 122.421 73.6435C122.015 73.5468 121.569 73.3437 121.284 73.0493C118.122 69.7839 114.987 66.491 111.844 63.2061C110.925 62.2465 110.002 61.2914 109.091 60.3247C108.849 60.0693 108.644 59.7802 108.326 59.3882C108.258 59.6365 108.17 59.8112 108.17 59.9868C108.161 62.9871 108.164 65.9873 108.164 68.9884C108.164 70.3479 108.164 71.7084 108.164 73.0679C108.164 73.2267 108.164 73.3854 108.164 73.5761C107.165 73.5761 106.215 73.5761 105.228 73.5761C105.227 66.8511 105.227 60.1341 105.227 53.3851Z" fill="black"/>
<path d="M90.5973 52.9786C96.42 52.9538 101.149 57.6151 101.175 63.4053C101.2 69.4226 96.5413 74.0086 90.3866 74.0245C84.6754 74.0396 79.9375 69.3588 79.918 63.682C79.8968 57.6674 84.5488 53.0043 90.5973 52.9786ZM90.5849 55.8228C86.2656 55.8263 82.9445 59.144 82.9445 63.4532C82.9445 67.7128 86.3311 71.1946 90.4804 71.2017C94.7652 71.2097 98.1385 67.8263 98.1474 63.5135C98.1571 59.1493 94.8829 55.8192 90.5849 55.8228Z" fill="black"/>
<path d="M22.7306 63.5261C22.697 57.6942 27.4667 53.0036 33.4541 52.9805C39.1981 52.9584 43.9838 57.6419 44.0086 63.3088C44.0351 69.3412 39.3751 73.9972 33.2931 74.038C28.4136 74.0717 22.7333 70.1988 22.7306 63.5261ZM40.9636 63.4605C40.9503 59.0732 37.684 55.8132 33.3116 55.8229C29.0384 55.8327 25.7677 59.1885 25.7792 63.5536C25.7898 67.7387 29.2127 71.2116 33.3187 71.2036C37.6398 71.1956 40.9768 67.8158 40.9636 63.4605Z" fill="black"/>
<path d="M15.5521 67.3646C15.5972 65.8347 15.5653 64.3014 15.5715 62.7698C15.5777 61.2036 15.5724 59.6374 15.5724 58.0712C15.5724 56.5237 15.5724 54.977 15.5724 53.4028C16.5795 53.4028 17.529 53.4028 18.5201 53.4028C18.5289 53.5749 18.544 53.7318 18.544 53.8888C18.5449 60.2866 18.5449 66.6852 18.544 73.083C18.544 73.6373 18.4015 73.7978 17.8635 73.6293C17.4768 73.5078 17.0865 73.263 16.8025 72.9704C14.653 70.7594 12.5301 68.5219 10.3965 66.2959C8.44616 64.2615 6.49225 62.2314 4.54012 60.1988C4.32331 59.9735 4.1127 59.7429 3.89944 59.515C3.85961 59.5327 3.81891 59.5514 3.77909 59.5691C3.77909 64.2224 3.77909 68.8766 3.77909 73.569C2.74904 73.569 1.78625 73.569 0.759738 73.569C0.759738 73.4093 0.759738 73.2524 0.759738 73.0954C0.759738 66.6826 0.764163 60.2697 0.750004 53.8569C0.749119 53.4312 0.892476 53.3283 1.27742 53.3301C1.9119 53.3336 2.3526 53.6653 2.76054 54.0963C4.50649 55.9383 6.25509 57.7786 8.00812 59.6135C10.2505 61.961 12.4991 64.3014 14.7415 66.6489C14.9627 66.8803 15.1592 67.1349 15.368 67.3787C15.4291 67.3743 15.491 67.3699 15.5521 67.3646Z" fill="black"/>
<path d="M78.0938 73.8828C77.0523 73.8828 76.0691 73.913 75.0913 73.8562C74.9046 73.8456 74.6718 73.5156 74.5736 73.2851C73.9568 71.8324 73.3701 70.3664 72.7763 68.904C71.6268 66.0741 70.48 63.2432 69.3305 60.4133C69.2694 60.2643 69.2022 60.1171 69.0898 59.8581C68.9101 60.2483 68.7544 60.549 68.6296 60.862C67.0314 64.8635 65.4377 68.8668 63.8448 72.87C63.4387 73.8917 63.3741 73.9422 62.298 73.9413C61.6352 73.9405 60.9715 73.928 60.3087 73.9192C60.2662 73.9183 60.2237 73.9032 60.1211 73.8837C60.3299 73.3551 60.529 72.8372 60.7388 72.3246C63.259 66.1503 65.7819 59.9761 68.3004 53.8009C68.4216 53.5029 68.5854 53.2954 68.9367 53.2839C69.3526 53.2697 69.5924 53.4861 69.7428 53.847C70.418 55.4682 71.0959 57.0885 71.7728 58.7079C73.7701 63.4862 75.7674 68.2655 77.7638 73.0438C77.8744 73.3117 77.9753 73.583 78.0938 73.8828Z" fill="black"/>
<path d="M62.7486 53.3304C62.3964 54.1879 62.0876 54.9506 61.7699 55.7089C59.3328 61.5373 56.8949 67.3648 54.4489 73.1905C54.3498 73.4273 54.2189 73.6925 54.0233 73.838C53.6224 74.1368 53.1269 73.9098 52.9083 73.3759C51.9145 70.9442 50.9234 68.5106 49.9297 66.078C48.2722 62.0197 46.6139 57.9615 44.9573 53.9024C44.8909 53.741 44.8361 53.5742 44.7617 53.372C45.7581 53.372 46.7147 53.3206 47.6581 53.4066C47.905 53.4288 48.1996 53.8438 48.3235 54.1409C49.15 56.1151 49.9376 58.1052 50.7358 60.0908C51.611 62.2681 52.4835 64.4471 53.3596 66.6243C53.4525 66.8549 53.5614 67.0801 53.7083 67.4118C53.9242 66.8992 54.1074 66.4762 54.2808 66.0487C55.8878 62.0818 57.4931 58.1132 59.0992 54.1454C59.4169 53.3605 59.5425 53.2984 60.393 53.325C61.1425 53.349 61.8929 53.3304 62.7486 53.3304Z" fill="black"/>
<path d="M28.87 81.9491C28.8691 81.2556 28.8832 80.5621 28.8638 79.8686C28.854 79.5041 28.993 79.363 29.3531 79.3746C29.9699 79.395 30.5955 79.3311 31.2035 79.4092C32.4601 79.5697 33.1804 80.4335 33.2043 81.7035C33.2326 83.2315 32.5379 84.2159 31.1946 84.4429C30.5902 84.5449 29.9655 84.5236 29.3487 84.5458C29.0053 84.5582 28.8531 84.3933 28.8646 84.0297C28.885 83.337 28.8708 82.6426 28.87 81.9491ZM29.7274 81.9314C29.7274 82.3597 29.7266 82.7872 29.7274 83.2155C29.7292 83.9303 29.7292 83.9303 30.4593 83.9073C30.4743 83.9064 30.4885 83.9073 30.5035 83.9064C31.7105 83.8532 32.4849 82.8847 32.3291 81.6236C32.1831 80.4388 31.2442 79.7604 30.0584 79.9697C29.8089 80.014 29.7142 80.124 29.7221 80.3812C29.7389 80.8973 29.7274 81.4143 29.7274 81.9314Z" fill="#6D6E72"/>
<path d="M43.2351 79.5564C43.1776 79.7684 43.1254 79.9599 43.0741 80.1506C42.7369 80.1001 42.4352 80.0371 42.1307 80.0123C40.7706 79.9014 39.9255 80.7741 39.9795 81.974C40.037 83.2448 40.8334 84.0173 42.0785 83.8993C42.459 83.863 42.6891 83.7255 42.6236 83.2936C42.6042 83.1641 42.6068 83.0267 42.6228 82.8963C42.6697 82.5034 42.529 82.3074 42.1095 82.3527C41.8847 82.3766 41.7016 82.3349 41.698 82.0352C41.6936 81.7061 41.8954 81.6937 42.1369 81.6991C42.4458 81.7061 42.7555 81.7097 43.0643 81.6982C43.3227 81.6884 43.4431 81.7833 43.4395 82.0556C43.4307 82.6897 43.4564 83.3255 43.4245 83.9587C43.4174 84.1024 43.2617 84.3232 43.1307 84.3632C42.329 84.6053 41.5095 84.6611 40.6972 84.4084C39.5423 84.0492 38.9928 83.0967 39.084 81.6458C39.153 80.547 39.9963 79.6291 41.1317 79.395C41.8387 79.2478 42.5254 79.2664 43.2351 79.5564Z" fill="#6D6E72"/>
<path d="M82.473 84.4049C81.7695 84.6133 81.6341 84.5459 81.474 83.9402C81.3952 83.6414 81.3333 83.3363 81.2359 83.0427C81.0563 82.5 80.5616 82.2135 80.0218 82.3669C79.9094 82.3989 79.7882 82.6117 79.7785 82.7483C79.7466 83.2041 79.7537 83.6635 79.7643 84.1211C79.7714 84.4182 79.6298 84.4998 79.3581 84.4998C79.0794 84.4998 78.9572 84.3961 78.9581 84.1096C78.9617 82.6472 78.951 81.1848 78.9626 79.7224C78.9634 79.6133 79.0962 79.4111 79.1705 79.4102C79.874 79.3995 80.5837 79.3765 81.281 79.4527C81.8093 79.5104 82.2049 79.8412 82.3022 80.4114C82.4084 81.0313 82.2553 81.5546 81.6846 81.8987C81.6111 81.943 81.5448 81.9971 81.4412 82.0716C82.2607 82.6658 82.1828 83.6068 82.473 84.4049ZM79.7652 80.8416C79.7634 81.8331 79.8616 81.9253 80.7094 81.7257C81.3094 81.5847 81.5784 81.2114 81.4828 80.6509C81.3961 80.1392 80.9103 79.8829 80.1545 79.9494C79.5307 80.0044 79.8519 80.4948 79.7652 80.7981C79.7625 80.8114 79.7652 80.8274 79.7652 80.8416Z" fill="#6D6E72"/>
<path d="M58.7632 84.439C57.9791 84.5853 57.9632 84.5632 57.7304 83.8821C57.3836 82.8657 57.6269 83.0591 56.6075 83.0466C55.7004 83.0351 55.7004 83.0449 55.4385 83.9246C55.2527 84.5499 55.1881 84.5844 54.4297 84.4292C54.5288 84.1073 54.6244 83.7881 54.7253 83.4714C55.1217 82.2219 55.5235 80.9741 55.9146 79.7227C55.9916 79.4753 56.1208 79.3281 56.3871 79.3866C56.6854 79.4513 57.103 79.1711 57.2614 79.6527C57.7632 81.1772 58.2552 82.7052 58.7481 84.2333C58.7693 84.2971 58.7587 84.3716 58.7632 84.439ZM55.8686 82.3576C56.3871 82.3576 56.8119 82.3576 57.3004 82.3576C57.0623 81.5851 56.842 80.8739 56.6225 80.1626C56.5845 80.167 56.5464 80.1724 56.5084 80.1768C56.2995 80.8872 56.0916 81.5966 55.8686 82.3576Z" fill="#6D6E72"/>
<path d="M84.881 83.6738C85.1314 83.7359 85.3651 83.8308 85.6031 83.845C85.9482 83.8654 86.3217 83.9017 86.6394 83.7979C87.2314 83.6055 87.3137 82.9005 86.7986 82.5466C86.5119 82.3497 86.165 82.2415 85.8473 82.089C85.3721 81.8602 84.9341 81.5915 84.8262 81.0159C84.6669 80.1654 85.2111 79.4337 86.1509 79.3167C86.5509 79.267 86.9694 79.3459 87.3774 79.3867C87.6464 79.4133 87.7605 79.5659 87.6862 79.8479C87.6145 80.1211 87.4676 80.1086 87.2234 80.0643C86.8854 80.0031 86.5155 79.9676 86.1898 80.0474C85.9845 80.098 85.7235 80.3623 85.6925 80.5636C85.6606 80.7658 85.8235 81.0957 86.0031 81.2154C86.4146 81.4904 86.9075 81.6411 87.334 81.8974C88.1375 82.3808 88.2366 83.5354 87.5172 84.1217C87.2659 84.3265 86.9261 84.4853 86.6084 84.5278C86.1792 84.5846 85.7261 84.5509 85.296 84.4808C84.6934 84.3806 84.6908 84.338 84.881 83.6738Z" fill="#6D6E72"/>
<path d="M69.8069 81.9049C69.8069 81.2104 69.8158 80.5152 69.8025 79.8207C69.7963 79.5095 69.8813 79.3649 70.2264 79.3755C70.9334 79.3977 71.6423 79.3853 72.3502 79.38C72.5785 79.3782 72.7484 79.3915 72.7484 79.701C72.7484 79.9928 72.6148 80.0469 72.367 80.0407C71.9245 80.0292 71.4821 80.046 71.0396 80.0354C70.783 80.0292 70.6733 80.1311 70.6467 80.3919C70.5273 81.5714 70.5494 81.6015 71.7228 81.6024C71.8847 81.6024 72.0476 81.6086 72.2095 81.6015C72.429 81.5909 72.5776 81.6308 72.5803 81.9057C72.5838 82.1727 72.4856 82.28 72.2183 82.272C71.8352 82.2605 71.4511 82.2782 71.0679 82.2685C70.768 82.2605 70.6388 82.3891 70.6441 82.6906C70.6529 83.1482 70.6317 83.6076 70.6485 84.0652C70.6609 84.3942 70.529 84.5042 70.206 84.5033C69.891 84.5024 69.776 84.3738 69.8052 84.0776C69.8069 84.0635 69.8052 84.0484 69.8052 84.0333C69.8069 83.3238 69.8069 82.6143 69.8069 81.9049Z" fill="#6D6E72"/>
<path d="M50.687 82.249C50.6861 81.6725 50.6666 81.0952 50.6932 80.5205C50.7109 80.1418 50.5604 80.0159 50.2047 80.0434C49.9852 80.0602 49.7622 80.0354 49.5419 80.0478C49.2853 80.062 49.1676 79.9804 49.172 79.6984C49.1764 79.4306 49.3012 79.3791 49.5295 79.3809C50.5764 79.3871 51.6232 79.3871 52.6701 79.3818C52.8913 79.3809 53.0382 79.4235 53.0444 79.6904C53.0506 79.9645 52.9276 80.0673 52.6701 80.0452C52.6409 80.0425 52.6108 80.0452 52.5816 80.0452C51.5268 80.0656 51.5259 80.0656 51.525 81.1112C51.5232 82.0867 51.5135 83.0622 51.5294 84.0369C51.5356 84.3792 51.425 84.5078 51.0746 84.506C50.7056 84.5042 50.679 84.3065 50.6843 84.0227C50.6949 83.4312 50.6879 82.8396 50.687 82.249Z" fill="#6D6E72"/>
<path d="M91.5456 82.238C91.5456 81.6482 91.5385 81.0576 91.5482 80.4678C91.5535 80.169 91.4332 80.0315 91.1305 80.0439C90.881 80.0537 90.6297 80.0359 90.3801 80.0457C90.1332 80.0554 90.0439 79.9517 90.043 79.7051C90.0421 79.448 90.1536 79.3761 90.3907 79.3779C91.4358 79.385 92.4809 79.3868 93.5251 79.377C93.7906 79.3743 93.8906 79.4648 93.888 79.7362C93.8862 80.0111 93.7419 80.0581 93.5225 80.0448C93.4933 80.043 93.4641 80.0448 93.434 80.0448C92.3836 80.0599 92.3836 80.0599 92.3836 81.0948C92.3836 82.0828 92.373 83.0716 92.3898 84.0596C92.3951 84.3833 92.2942 84.503 91.9641 84.5039C91.6261 84.5048 91.5341 84.3656 91.542 84.0516C91.558 83.4477 91.5465 82.8419 91.5465 82.238C91.5473 82.238 91.5465 82.238 91.5456 82.238Z" fill="#6D6E72"/>
<path d="M61.28 81.9327C61.28 81.2099 61.2933 80.4871 61.2738 79.7644C61.265 79.4327 61.4145 79.3768 61.6995 79.375C61.9932 79.3733 62.1251 79.454 62.1207 79.775C62.1074 80.9403 62.1357 82.1057 62.1056 83.2701C62.0932 83.7313 62.2516 83.8661 62.6879 83.827C63.0826 83.7924 63.4826 83.8279 63.879 83.8164C64.1286 83.8093 64.2604 83.8749 64.2595 84.1605C64.2586 84.4549 64.1011 84.4984 63.8657 84.4966C63.1295 84.4922 62.3941 84.4877 61.6579 84.4984C61.3667 84.5028 61.2729 84.376 61.2773 84.0984C61.288 83.3783 61.2809 82.6555 61.28 81.9327Z" fill="#6D6E72"/>
<path d="M36.5644 81.94C36.5644 82.6637 36.5529 83.3873 36.5689 84.1101C36.5759 84.44 36.4158 84.5012 36.1344 84.5039C35.8406 84.5066 35.7131 84.4205 35.7158 84.1004C35.7291 82.6539 35.7308 81.2066 35.7149 79.7601C35.7114 79.4204 35.8645 79.3788 36.1432 79.377C36.4317 79.3752 36.5777 79.4435 36.5697 79.7707C36.5529 80.4926 36.5644 81.2163 36.5644 81.94Z" fill="#6D6E72"/>
<path d="M46.0779 81.8858C46.0779 81.178 46.0938 80.4695 46.0708 79.7617C46.0602 79.4247 46.2124 79.3777 46.4947 79.3751C46.7858 79.3724 46.9195 79.4434 46.9168 79.7688C46.9035 81.2144 46.9035 82.66 46.9159 84.1055C46.9186 84.4301 46.7761 84.502 46.4894 84.5037C46.1947 84.5055 46.0646 84.4177 46.0726 84.0985C46.0903 83.3606 46.0779 82.6227 46.0779 81.8858Z" fill="#6D6E72"/>
<path d="M76.1866 81.9387C76.1866 82.6456 76.1742 83.3533 76.1928 84.0592C76.2007 84.3838 76.091 84.5062 75.7627 84.5017C75.4627 84.4982 75.3468 84.3989 75.3486 84.0894C75.3592 82.6464 75.361 81.2027 75.3477 79.7597C75.345 79.4281 75.4937 79.3757 75.7769 79.3731C76.0724 79.3713 76.2016 79.4529 76.1928 79.773C76.1733 80.4949 76.1857 81.2168 76.1866 81.9387Z" fill="#6D6E72"/>
</svg>
