<svg width="32" height="36" viewBox="0 0 32 36" fill="none" xmlns="http://www.w3.org/2000/svg">
<g clip-path="url(#clip0_372_7735)">
<path d="M15.7777 0C16.5512 0.205009 17.2035 0.587071 17.6601 1.26733C17.7253 1.36051 17.9489 1.36983 18.098 1.36983C19.5517 1.37915 20.6234 2.02213 21.2477 3.32673C21.4341 3.71811 21.5366 4.19336 21.5552 4.63133C21.5925 5.80548 21.5739 6.97962 21.5646 8.15376C21.5646 8.3774 21.5086 8.60105 21.4714 8.83401C21.7416 8.88061 22.0212 8.89924 22.2914 8.96447C23.4096 9.25335 24.2204 10.1759 24.2949 11.3221C24.3415 12.0116 24.3415 12.7199 24.2949 13.4094C24.1924 14.7327 23.0648 15.7764 21.7416 15.8136C21.3223 15.8229 20.9029 15.8136 20.465 15.8136C20.4184 16.0652 20.3904 16.2889 20.3438 16.5125C19.9338 18.311 18.8901 19.597 17.2314 20.3704C17.0078 20.4729 16.9239 20.5941 16.9332 20.8363C16.9519 21.6377 16.9425 22.4391 16.9425 23.2592C17.7719 23.2592 18.5733 23.2592 19.3747 23.2592C19.4865 22.9051 19.5704 22.5416 19.7008 22.2062C21.1266 18.3762 25.7672 16.8666 29.1592 19.131C29.271 19.2056 29.4015 19.2801 29.4947 19.3826C29.681 19.5877 29.7183 19.8206 29.5506 20.0443C29.3828 20.2679 29.1592 20.3331 28.9076 20.2027C28.8237 20.1654 28.7492 20.1095 28.6746 20.0536C26.9414 18.926 25.1243 18.7676 23.2885 19.6995C21.462 20.622 20.465 22.1689 20.3718 24.2097C20.2879 26.0547 21.0148 27.583 22.5057 28.6733C23.3537 29.2976 24.006 30.0151 24.2017 31.1054C25.1429 31.1054 26.0747 31.1054 26.9973 31.0961C27.0625 31.0961 27.165 30.9843 27.1837 30.9097C27.4073 30.0058 27.9291 29.3349 28.684 28.8037C30.9297 27.2103 31.61 24.4426 30.3799 21.9732C30.2402 21.703 30.1749 21.4421 30.4265 21.2091C30.6036 21.0414 30.8272 21.0041 31.0322 21.1532C31.1441 21.237 31.2372 21.3675 31.3118 21.498C32.7748 24.2563 31.9734 27.7414 29.4201 29.5492C28.5255 30.1829 28.0876 30.9563 28.1528 32.0466C28.1901 32.6709 28.1621 33.3046 28.1621 33.929C28.1528 34.954 27.4259 35.6808 26.4009 35.6902C25.8977 35.6995 25.4038 35.6995 24.9006 35.6902C23.9501 35.6715 23.2233 34.954 23.2139 34.0035C23.2046 33.2394 23.2139 32.4659 23.2046 31.7018C23.1953 30.8631 22.8598 30.2015 22.1609 29.7263C20.3438 28.4683 19.412 26.7257 19.3095 24.5172C19.3095 24.4706 19.3001 24.424 19.2908 24.3588C18.5267 24.3588 17.7719 24.3588 16.9705 24.3588C16.9705 24.5172 16.9705 24.6663 16.9705 24.8154C16.9705 28.1514 16.9705 31.4875 16.9705 34.8235C16.9705 34.9633 16.9798 35.1031 16.9519 35.2429C16.9053 35.5411 16.7189 35.6995 16.4207 35.6902C16.1411 35.6808 15.9734 35.5131 15.9361 35.2336C15.9175 35.1031 15.9268 34.9819 15.9268 34.8515C15.9268 32.9319 15.9361 31.0122 15.9175 29.1019C15.9175 28.9062 15.815 28.6733 15.6938 28.5242C15.2186 27.9744 14.7154 27.4432 14.147 26.8375C14.147 27.35 14.147 27.7694 14.147 28.198C14.147 28.608 13.9513 28.8503 13.6344 28.8503C13.3176 28.8503 13.1126 28.608 13.1033 28.2073C13.1033 27.788 13.1033 27.378 13.1033 26.8561C12.8144 27.173 12.6094 27.4525 12.3485 27.6575C11.4912 28.3378 11.2489 29.1951 11.3141 30.2761C11.4073 31.8323 11.3421 33.3885 11.3328 34.9447C11.3328 35.0845 11.3514 35.2615 11.2768 35.3454C11.1464 35.4945 10.9507 35.6529 10.7736 35.6808C10.522 35.7181 10.345 35.5317 10.3077 35.2615C10.2891 35.1404 10.2984 35.0099 10.2984 34.8794C10.2984 31.5154 10.2984 28.1607 10.2984 24.7967C10.2984 24.657 10.2984 24.5265 10.2984 24.4054C10.2518 24.3681 10.2332 24.3494 10.2145 24.3494C8.83537 24.3494 7.44691 24.2935 6.06776 24.3588C4.09222 24.4613 2.72239 25.8404 2.36828 27.9091C1.95826 30.3133 1.52029 32.7082 1.10095 35.1124C1.05436 35.392 0.942536 35.6622 0.635023 35.6715C0.45797 35.6715 0.225006 35.5504 0.122501 35.4106C0.0293154 35.2895 0.0479526 35.0565 0.0852269 34.8794C0.318191 33.5189 0.560474 32.1584 0.812076 30.7979C1.00777 29.7076 1.20346 28.6267 1.39915 27.5364C1.85576 24.9831 3.81266 23.3151 6.41254 23.2871C7.57737 23.2778 8.73287 23.2871 9.89769 23.2871C10.0188 23.2871 10.1493 23.2871 10.317 23.2871C10.317 22.3832 10.3263 21.5166 10.3077 20.65C10.3077 20.5661 10.1586 20.4636 10.0654 20.417C8.35081 19.6156 7.27917 18.3017 6.88779 16.438C6.85052 16.2423 6.82256 16.0466 6.78529 15.8229C6.41254 15.8229 6.05844 15.8229 5.70433 15.8229C4.0829 15.8043 2.95535 14.6768 2.92739 13.0553C2.91808 12.5521 2.91808 12.0582 2.92739 11.555C2.96467 10.1107 3.96176 9.0297 5.40614 8.88993C5.50864 8.88061 5.61115 8.87129 5.64842 8.86197C5.64842 6.47641 5.66706 4.10017 5.62978 1.72394C5.54592 0.885265 5.83479 0.298195 6.64551 0C9.69268 0 12.7305 0 15.7777 0ZM20.3345 8.61969C20.3625 8.61969 20.3811 8.61969 20.409 8.61969C20.4463 8.44263 20.5209 8.2749 20.5302 8.09785C20.5395 6.95166 20.5488 5.79616 20.5302 4.64997C20.5116 3.64356 19.8127 2.74898 18.8342 2.51602C18.4335 2.42283 18.0049 2.43215 17.5855 2.43215C17.2314 2.43215 16.9984 2.31101 16.84 1.98486C16.5418 1.37915 16.0293 1.053 15.3584 1.053C12.5908 1.04368 9.82314 1.053 7.05552 1.04368C6.74801 1.04368 6.60823 1.18346 6.60823 1.48165C6.60823 3.69016 6.60823 5.89866 6.61755 8.10716C6.61755 8.28422 6.70142 8.46127 6.74801 8.63832C6.88779 8.50786 6.92507 8.38672 6.98098 8.2749C7.56805 6.92371 8.59309 6.13163 10.0468 5.95457C10.6991 5.87071 11.37 5.92662 12.0316 5.92662C12.7678 5.92662 13.4947 5.9173 14.2308 5.92662C14.5477 5.92662 14.7434 6.13163 14.7527 6.4205C14.762 6.70006 14.5756 6.9237 14.2681 6.96098C14.1656 6.9703 14.0631 6.9703 13.9513 6.9703C12.7399 6.9703 11.5284 6.95166 10.3263 6.97962C8.83537 7.01689 7.43759 8.41468 7.80101 10.3063C9.61813 8.85265 12.2087 9.53291 13.0101 11.7973C13.3922 11.7973 13.7649 11.7973 14.147 11.7973C14.5197 10.735 15.2372 9.98952 16.3461 9.67269C17.4457 9.35585 18.4521 9.61677 19.3561 10.3343C19.617 8.49854 18.5267 7.10076 16.7562 6.97962C16.3741 6.95166 16.1598 6.75597 16.1691 6.42982C16.1784 6.11299 16.4021 5.92662 16.7934 5.92662C18.2192 5.92662 19.589 6.87711 20.1574 8.24694C20.232 8.36808 20.2786 8.49854 20.3345 8.61969ZM7.78237 15.18C7.61464 17.5748 9.54359 19.7368 11.9012 19.8113C12.9355 19.8486 13.9699 19.8206 15.0043 19.8206C17.073 19.8113 18.8249 18.4415 19.3001 16.4193C19.3933 16.028 19.4026 15.6179 19.4586 15.1334C17.9024 16.2609 16.4673 16.233 15.0322 15.1147C14.7713 15.7764 14.3147 16.1864 13.5878 16.1864C12.861 16.1864 12.4137 15.767 12.1435 15.1241C10.9227 16.1398 9.31994 16.3448 7.78237 15.18ZM11.3048 20.8457C11.3048 21.7123 11.2955 22.551 11.3141 23.399C11.3141 23.4828 11.4166 23.5946 11.5005 23.6506C12.1342 24.0419 12.7678 24.4147 13.4108 24.7874C13.504 24.8433 13.681 24.8433 13.7742 24.7874C14.4079 24.4333 15.0415 24.0606 15.6566 23.6692C15.7777 23.5946 15.8709 23.4083 15.8802 23.2592C15.9082 22.7001 15.8895 22.1503 15.8895 21.5911C15.8895 21.3395 15.8895 21.0973 15.8895 20.855C14.3333 20.8457 12.8424 20.8457 11.3048 20.8457ZM17.2687 10.5952C16.0573 10.5859 15.0881 11.5457 15.0881 12.7385C15.0788 13.9406 16.048 14.919 17.2407 14.9284C18.4428 14.9377 19.4213 13.9686 19.4213 12.7758C19.4213 11.5644 18.4708 10.5952 17.2687 10.5952ZM9.93497 10.5952C8.73287 10.5952 7.76374 11.555 7.75442 12.7571C7.75442 13.9499 8.73287 14.9284 9.92565 14.9284C11.1277 14.9284 12.0969 13.9592 12.0969 12.7665C12.0969 11.555 11.1464 10.5952 9.93497 10.5952ZM20.4743 14.7886C20.9123 14.7886 21.3036 14.7979 21.695 14.7886C22.4964 14.7606 23.186 14.1642 23.2419 13.3628C23.2885 12.6919 23.2885 12.0116 23.2419 11.35C23.1953 10.735 22.8226 10.297 22.2541 10.0641C21.6764 9.8311 21.0707 9.93361 20.4743 9.94292C20.4743 11.5737 20.4743 13.1672 20.4743 14.7886ZM6.70142 9.96156C6.21685 9.96156 5.76024 9.92429 5.31295 9.97088C4.52087 10.0547 3.9338 10.707 3.91516 11.4991C3.89653 12.0769 3.89653 12.664 3.91516 13.2417C3.94312 13.9779 4.44632 14.6302 5.18249 14.742C5.67637 14.8259 6.1889 14.7606 6.70142 14.7606C6.70142 13.1578 6.70142 11.5644 6.70142 9.96156ZM24.211 32.1864C24.211 32.3262 24.211 32.438 24.211 32.5405C24.211 33.0437 24.2017 33.5376 24.2204 34.0408C24.2297 34.4135 24.4906 34.6558 24.882 34.6651C25.3945 34.6744 25.907 34.6744 26.4102 34.6651C26.7643 34.6558 27.0439 34.4415 27.0625 34.106C27.0905 33.4723 27.0718 32.8387 27.0718 32.1957C26.1027 32.1864 25.1802 32.1864 24.211 32.1864ZM14.0351 13.9872C14.0351 13.7449 14.0445 13.5026 14.0351 13.2603C14.0258 12.9901 13.886 12.813 13.6158 12.8037C13.3269 12.7944 13.1685 12.9808 13.1592 13.2603C13.1499 13.7356 13.1499 14.2108 13.1592 14.6861C13.1685 14.9656 13.3083 15.152 13.6158 15.1427C13.8954 15.1334 14.0258 14.9563 14.0351 14.6861C14.0351 14.4531 14.0351 14.2202 14.0351 13.9872ZM15.8616 24.7688C15.3584 25.067 14.9018 25.3372 14.4079 25.6261C14.8925 26.1479 15.3491 26.6511 15.8616 27.2009C15.8616 26.3716 15.8616 25.6075 15.8616 24.7688ZM11.3234 24.7781C11.3234 25.5981 11.3234 26.3529 11.3234 27.1916C11.8266 26.6418 12.2832 26.1479 12.7678 25.6354C12.2646 25.3372 11.8173 25.067 11.3234 24.7781Z" fill="white"/>
<path d="M24.9316 25.0943C24.6427 25.6628 24.3631 26.1939 24.0929 26.7344C24.037 26.8369 23.9904 26.9487 23.9252 27.0419C23.7574 27.2842 23.4592 27.3681 23.2263 27.2283C22.9747 27.0699 22.8815 26.8369 23.0119 26.5667C23.422 25.7187 23.8506 24.88 24.2886 24.0507C24.4656 23.7152 24.7918 23.6686 25.1179 23.9202C25.6398 24.3116 26.143 24.7216 26.6835 25.1409C26.7487 25.0105 26.8139 24.908 26.8698 24.8055C27.2239 24.0693 27.5687 23.3424 27.9228 22.6063C28.0906 22.2615 28.3794 22.159 28.659 22.2988C28.9292 22.4385 29.0131 22.7274 28.864 23.0442C28.3794 24.0693 27.8855 25.0943 27.3823 26.1194C27.1773 26.5294 26.8605 26.6039 26.4971 26.3244C25.9939 25.9423 25.4814 25.5323 24.9316 25.0943Z" fill="white"/>
<path d="M14.1101 33.0067C14.1101 33.6963 14.1101 34.3765 14.1101 35.0661C14.1101 35.4761 13.9144 35.7091 13.5882 35.7091C13.2714 35.7091 13.0664 35.4668 13.0664 35.0661C13.0664 33.687 13.0664 32.2985 13.0664 30.9193C13.0664 30.5093 13.2621 30.2764 13.5882 30.2764C13.9144 30.2764 14.1101 30.5093 14.1101 30.9193C14.1101 31.6089 14.1101 32.3078 14.1101 33.0067Z" fill="white"/>
<path d="M6.43053 31.3941C6.32802 32.6615 6.22552 33.8822 6.1137 35.1029C6.07642 35.5223 5.86209 35.7366 5.54526 35.7086C5.20979 35.6807 5.04206 35.4105 5.07933 34.9911C5.18183 33.789 5.28434 32.5869 5.38684 31.3941C5.42412 30.9934 5.61981 30.7605 5.93664 30.7698C6.25347 30.7884 6.44916 31.04 6.43053 31.3941Z" fill="white"/>
<path d="M13.5889 18.3391C13.0857 18.3112 12.6477 18.1528 12.2936 17.7987C12.042 17.5471 12.0234 17.2582 12.2377 17.0252C12.4334 16.8109 12.7223 16.8109 12.9832 17.0159C13.4585 17.3793 13.7287 17.3793 14.1946 17.0252C14.4742 16.8109 14.7724 16.8202 14.9681 17.0532C15.1638 17.2768 15.1265 17.5843 14.8749 17.8266C14.5115 18.1621 14.0735 18.3112 13.5889 18.3391Z" fill="white"/>
</g>
<defs>
<clipPath id="clip0_372_7735">
<rect width="32" height="35.7181" fill="white"/>
</clipPath>
</defs>
</svg>
