<svg width="157" height="43" viewBox="0 0 157 43" fill="none" xmlns="http://www.w3.org/2000/svg">
<g clip-path="url(#clip0_181_7192)">
<path d="M0.16529 21.5649C0.16529 15.0922 0.16529 8.61955 0.16529 2.14689C0.16529 1.89538 0.149569 1.64386 0.17315 1.39234C0.220312 0.857864 0.405029 0.673156 0.92774 0.618136C1.04957 0.606346 1.17927 0.614206 1.30503 0.614206C7.27494 0.618136 13.2448 0.519887 19.2148 0.657436C24.3279 0.775335 29.048 2.26479 33.0646 5.57383C33.9332 6.28908 34.731 7.10651 35.4856 7.9436C36.4878 9.05578 36.5978 10.278 35.8511 11.5945C34.676 13.6735 33.4812 15.7367 32.2707 17.796C30.7458 20.3898 30.7498 22.96 32.2865 25.5499C33.4065 27.4402 34.4952 29.3501 35.5878 31.2601C36.5192 32.8871 36.4013 34.0582 35.1515 35.4612C32.031 38.9668 28.0969 41.0497 23.5458 42.0086C21.6043 42.4173 19.6392 42.5823 17.6506 42.5784C12.3409 42.5666 7.02734 42.5745 1.7177 42.5745C1.46617 42.5745 1.21464 42.5902 0.963111 42.5666C0.393239 42.5195 0.208521 42.323 0.16922 41.7335C0.153499 41.4819 0.16529 41.2304 0.16529 40.9789C0.16529 34.5102 0.16529 28.0375 0.16529 21.5649ZM16.2632 32.0147C16.2632 31.9871 16.2632 31.9596 16.2632 31.9282C17.2064 31.9282 18.1536 31.9989 19.0851 31.9164C22.4807 31.6217 25.1139 30.0536 26.7489 27.0236C28.2384 24.2648 28.4035 21.3291 27.586 18.3384C26.4816 14.3062 23.2235 11.5317 19.0379 11.2684C17.1593 11.1505 15.2728 11.178 13.3863 11.178C12.3409 11.174 12.1326 11.4098 12.1326 12.4749C12.1287 18.5702 12.1287 24.6617 12.1326 30.7571C12.1326 31.7592 12.3409 31.9832 13.3392 32.0107C14.3139 32.0343 15.2885 32.0147 16.2632 32.0147Z" fill="#53565F"/>
<path d="M155.355 0.625943C155.17 0.602364 154.977 0.614154 154.789 0.614154C143.883 0.614154 132.976 0.610224 122.074 0.625943C121.677 0.625943 121.276 0.755632 120.832 0.861742V2.36299C120.828 15.214 120.82 28.0689 120.809 40.9199H120.816V42.5273C121.316 42.6098 121.791 42.7356 122.263 42.7356C132.037 42.7473 141.811 42.7473 151.586 42.7473C151.743 42.7473 151.9 42.7513 152.057 42.7473C152.867 42.712 153.048 42.5508 153.052 41.7256C153.063 38.9903 153.063 36.259 153.052 33.5237C153.048 32.6277 152.91 32.5019 151.99 32.498C150.418 32.4901 148.846 32.4941 147.278 32.4941C142.876 32.4941 138.479 32.498 134.077 32.4901C133.071 32.4901 132.858 32.2701 132.851 31.2718C132.839 30.1086 132.839 28.9453 132.851 27.782C132.858 26.9253 133.122 26.662 133.963 26.607C134.246 26.5912 134.529 26.5991 134.812 26.5991C138.836 26.5991 142.857 26.603 146.881 26.5952C147.954 26.5952 148.072 26.4773 148.076 25.4044C148.084 22.8578 148.08 20.3151 148.076 17.7685C148.076 17.6113 148.08 17.4541 148.068 17.2969C148.037 16.8135 147.762 16.5541 147.294 16.5069C147.046 16.4834 146.791 16.4952 146.539 16.4952C142.515 16.4952 138.494 16.4952 134.47 16.4952C134.218 16.4952 133.967 16.5069 133.715 16.4834C133.145 16.4323 132.878 16.224 132.862 15.6817C132.831 14.3612 132.831 13.0407 132.862 11.7242C132.874 11.174 133.141 10.9421 133.684 10.891C133.931 10.8674 134.187 10.8792 134.438 10.8792C139.276 10.8792 144.118 10.8596 148.956 10.895C149.754 10.8989 150.214 10.6238 150.627 9.96355C152.262 7.35405 153.948 4.77992 155.61 2.19007C155.728 2.00536 155.866 1.82458 155.952 1.62416C156.172 1.10147 155.932 0.696683 155.355 0.625943Z" fill="#53565F"/>
<path d="M81.3652 19.3791C78.2014 13.8811 75.0219 8.39094 71.8817 2.88113C70.9817 1.30521 69.7084 0.562445 67.8848 0.574235C61.5061 0.609605 55.1235 0.609605 48.7449 0.593885C47.0038 0.589955 45.7541 1.31307 44.8894 2.81432C41.7099 8.33985 38.5265 13.8615 35.3195 19.3752C34.4273 20.9079 34.4313 22.3816 35.3234 23.9143C38.5226 29.4281 41.7139 34.9457 44.8776 40.4831C45.7816 42.0668 47.0942 42.7782 48.8903 42.7742C55.1746 42.7546 61.4629 42.7467 67.7472 42.7585C69.614 42.7624 70.9896 42.0315 71.9092 40.373C73.1119 38.2037 74.3774 36.0697 75.6154 33.92C77.7573 30.2023 79.8993 26.4845 82.0451 22.7628C82.0491 22.7628 82.049 22.7628 82.053 22.7628V20.4206C81.7504 20.0747 81.5617 19.725 81.3652 19.3791ZM72.2001 22.865C70.235 26.2605 68.2739 29.6599 66.3166 33.0633C65.79 33.9829 64.9647 34.3209 63.9507 34.3169C62.0642 34.313 60.1817 34.3169 58.2952 34.3169C56.503 34.3169 54.7148 34.2973 52.9227 34.3248C51.6729 34.3445 50.8004 33.8729 50.1716 32.745C48.3991 29.5617 46.5872 26.402 44.7283 23.2737C44.0562 22.138 44.0523 21.1594 44.7244 20.0276C46.6187 16.8443 48.4501 13.6217 50.2855 10.4031C50.824 9.45989 51.5903 9.02367 52.6711 9.0276C56.503 9.03939 60.3389 9.03939 64.1708 9.0276C65.1415 9.02367 65.8607 9.41666 66.3441 10.2537C68.2974 13.6571 70.2468 17.0644 72.2079 20.4638C72.6796 21.2812 72.6717 22.0594 72.2001 22.865Z" fill="#ED232F"/>
<path d="M63.7912 14.21C63.3903 13.4947 62.844 13.2039 62.0305 13.2314C60.8082 13.2747 59.582 13.2432 58.3558 13.2432C57.161 13.2432 55.9662 13.2825 54.7754 13.2314C53.8793 13.1921 53.3055 13.534 52.8732 14.3082C51.7099 16.3911 50.523 18.4583 49.2968 20.5019C48.8251 21.2918 48.8055 21.9756 49.281 22.7773C50.519 24.8523 51.7177 26.9509 52.8929 29.0613C53.2898 29.7766 53.8243 30.1028 54.6339 30.0989C57.1138 30.0831 59.5938 30.0871 62.0737 30.0989C62.8361 30.1028 63.3746 29.8198 63.7597 29.136C64.9781 26.9785 66.2161 24.8288 67.4698 22.6909C67.8785 21.9953 67.8982 21.3665 67.4894 20.663C66.2397 18.5212 65.0056 16.3715 63.7912 14.21Z" fill="#ED232F"/>
<path d="M120.605 41.6502C120.374 41.3555 120.177 41.1276 120 40.8839C115.5 34.7178 111.004 28.5517 106.508 22.3855C105.812 21.4306 105.812 21.3559 106.52 20.4127C111.035 14.3763 115.555 8.34377 120.075 2.31126C120.24 2.09119 120.429 1.88683 120.586 1.69426C120.59 1.69426 120.59 1.69426 120.594 1.69819V0.916125C120.59 0.916125 120.59 0.916125 120.59 0.916125C120.346 0.519199 119.847 0.613518 119.379 0.613518C115.763 0.609588 112.152 0.637098 108.536 0.593868C107.683 0.582078 107.168 0.857176 106.685 1.56064C103.199 6.63816 99.6734 11.6842 96.1598 16.7382C95.9987 16.97 95.8376 17.2019 95.6686 17.4299C95.4367 17.7364 95.1223 17.8661 94.7568 17.7482C94.3873 17.6303 94.2183 17.3355 94.1987 16.9583C94.183 16.6753 94.1869 16.3923 94.1869 16.1094C94.1869 11.4917 94.1869 6.87003 94.1869 2.25231C94.1869 2.03224 94.1908 1.81216 94.1869 1.59208C94.1594 0.810016 94.01 0.648888 93.2555 0.621378C92.941 0.609588 92.6266 0.617448 92.3122 0.617448C89.2939 0.617448 86.2794 0.613518 83.2611 0.621378C82.365 0.625308 82.2156 0.782507 82.1921 1.65496C82.1842 1.87504 82.1921 2.09512 82.1921 2.31519C82.1921 7.81322 82.1921 13.3112 82.1881 18.8132H82.2078V24.7003H82.1881C82.1881 30.1944 82.1881 35.6846 82.1881 41.1787C82.1881 41.4616 82.1842 41.7446 82.196 42.0275C82.2156 42.4323 82.4593 42.6563 82.8366 42.7271C83.0488 42.7664 83.2768 42.7506 83.4929 42.7506C86.6371 42.7506 89.7773 42.7506 92.9214 42.7506C93.11 42.7506 93.3026 42.7624 93.4873 42.7349C93.9157 42.676 94.1751 42.448 94.179 41.9922C94.183 41.7406 94.183 41.4891 94.183 41.2376C94.183 37.06 94.183 32.8786 94.183 28.701C94.183 28.418 94.1751 28.1351 94.2026 27.8521C94.238 27.4827 94.4148 27.1369 94.8039 27.1172C95.0751 27.1054 95.3974 27.2391 95.6293 27.408C95.8454 27.5652 95.9751 27.8482 96.1402 28.0801C99.4062 32.6978 102.68 37.3076 105.926 41.9371C106.323 42.5031 106.748 42.7782 107.471 42.7703C111.464 42.7389 115.453 42.7624 119.446 42.7428C119.87 42.7389 120.295 42.6013 120.66 42.5266C120.763 42.1101 120.605 41.6502 120.605 41.6502Z" fill="#53565F"/>
</g>
<defs>
<clipPath id="clip0_181_7192">
<rect width="155.87" height="42.2" fill="white" transform="translate(0.160156 0.574219)"/>
</clipPath>
</defs>
</svg>
