<svg width="135" height="72" viewBox="0 0 135 72" fill="none" xmlns="http://www.w3.org/2000/svg">
<g clip-path="url(#clip0_181_7213)">
<path d="M12.5982 0.574219C12.5982 18.4029 12.5982 36.073 12.5982 53.8163C53.3405 53.8163 94.0249 53.8163 134.901 53.8163C134.618 54.0543 134.49 54.1855 134.343 54.2831C132.012 55.8421 129.688 57.404 127.342 58.9386C127.058 59.1247 126.674 59.2376 126.335 59.2376C84.7842 59.2498 43.2365 59.2498 1.68578 59.2498C1.47223 59.2498 1.25868 59.2315 0.950558 59.2162C0.950558 58.9233 0.950558 58.661 0.950558 58.4017C0.953609 42.0831 0.953609 25.7706 0.941406 9.45807C0.941406 8.91504 1.08479 8.57945 1.54545 8.25912C4.99581 5.87647 8.42176 3.4633 11.8569 1.06234C12.0521 0.925058 12.2535 0.799976 12.5982 0.574219Z" fill="#CD2027"/>
<path d="M78.7726 28.7271C80.9691 28.66 83.1321 28.5929 85.295 28.5227C85.7587 28.5075 86.2346 28.5532 86.68 28.4587C87.342 28.3183 87.6166 28.657 87.9156 29.1603C90.1823 32.9952 92.4764 36.8178 94.7614 40.6434C94.8834 40.8478 95.0115 41.0522 95.2525 41.4397C95.2525 36.9062 95.2525 32.5711 95.2525 28.178C96.9091 28.0498 98.4771 27.9278 100.109 27.8027C100.109 35.4632 100.109 43.0749 100.109 50.7598C98.285 50.7598 96.4881 50.7781 94.6912 50.7354C94.4899 50.7293 94.2397 50.4181 94.1055 50.1954C91.2195 45.3386 88.3488 40.4726 85.475 35.6097C84.874 34.5938 84.273 33.5778 83.5042 32.6047C83.5042 38.6269 83.5042 44.6491 83.5042 50.7171C81.8843 50.7171 80.359 50.7171 78.7695 50.7171C78.7726 43.4257 78.7726 36.1283 78.7726 28.7271Z" fill="black"/>
<path d="M119.238 24.8828C122.673 33.5013 126.093 42.08 129.552 50.7625C127.575 50.7625 125.711 50.7747 123.847 50.7412C123.673 50.7381 123.429 50.4605 123.35 50.2592C122.621 48.3494 121.901 46.4365 121.224 44.5084C121.065 44.0569 120.855 43.9227 120.391 43.9257C117.246 43.9441 114.1 43.9441 110.958 43.9257C110.497 43.9227 110.284 44.0478 110.134 44.5145C109.527 46.4152 108.881 48.3006 108.212 50.1798C108.13 50.4147 107.831 50.7351 107.627 50.7381C105.876 50.7839 104.118 50.7625 102.242 50.7625C102.343 50.4575 102.413 50.2164 102.505 49.9815C105.513 42.3302 108.518 34.6758 111.55 27.0336C111.66 26.756 112.001 26.4509 112.288 26.3868C114.564 25.8621 116.852 25.3923 119.238 24.8828ZM115.928 29.3461C114.595 33.0375 113.325 36.5551 112.032 40.1275C114.75 40.1275 117.337 40.1275 120.003 40.1275C118.652 36.5459 117.328 33.0406 115.928 29.3461Z" fill="black"/>
<path d="M17.746 22.7381C19.6832 23.4428 21.5472 24.117 23.5027 24.8279C23.5027 24.9621 23.5027 25.2519 23.5027 25.5448C23.5027 30.8837 23.5027 36.2195 23.5027 41.5583C23.5027 44.1911 24.7047 45.7501 27.31 46.1314C28.4541 46.2992 29.7049 46.1924 30.8336 45.9057C32.5664 45.4694 33.4969 44.0386 33.4969 42.2447C33.503 37.4184 33.4999 32.5921 33.4999 27.7658C33.4999 27.479 33.4999 27.1922 33.4999 26.8353C35.245 27.0366 36.9015 27.2288 38.6465 27.4302C38.6465 27.717 38.6465 27.9763 38.6465 28.2386C38.6465 32.9673 38.6435 37.696 38.6465 42.4247C38.6496 45.7104 37.0906 48.0443 34.226 49.5056C31.7854 50.7473 29.1405 50.9059 26.4558 50.6893C24.2532 50.5093 22.1787 49.9602 20.4459 48.508C18.6857 47.0314 17.7613 45.1155 17.7521 42.8213C17.7277 36.3384 17.743 29.8556 17.743 23.3696C17.746 23.1286 17.746 22.8937 17.746 22.7381Z" fill="black"/>
<path d="M64.7715 28.7668C64.0515 30.8047 63.3499 32.7969 62.6482 34.7921C60.8544 39.8868 59.0514 44.9786 57.2789 50.0795C57.0959 50.6042 56.8762 50.7964 56.3119 50.7781C54.8262 50.7354 53.3374 50.7507 51.8517 50.772C51.4521 50.7781 51.2385 50.6683 51.1012 50.2747C48.56 42.9163 46.0065 35.5609 43.4592 28.2024C43.4226 28.0956 43.4012 27.9797 43.3555 27.8027C45.2012 27.9766 46.998 28.12 48.7827 28.3397C49.0023 28.3671 49.2525 28.7698 49.3501 29.0475C50.8633 33.3368 52.3551 37.6354 53.853 41.9309C53.9567 42.2268 54.0665 42.5227 54.2343 42.9834C54.7774 41.2963 55.2716 39.7648 55.7627 38.2333C56.7024 35.2893 57.645 32.3453 58.5633 29.3952C58.7067 28.9315 58.8989 28.7363 59.4205 28.7485C61.1625 28.7912 62.9136 28.7668 64.7715 28.7668Z" fill="black"/>
<path d="M68.0742 28.8008C70.0084 28.8008 71.8968 28.8008 73.834 28.8008C73.834 36.1348 73.834 43.3896 73.834 50.7053C71.9273 50.7053 70.0236 50.7053 68.0742 50.7053C68.0742 43.3896 68.0742 36.0921 68.0742 28.8008Z" fill="black"/>
<path d="M78.9107 67.3102C78.8436 68.6434 78.7765 69.9736 78.7063 71.3403C78.2182 71.3403 77.7911 71.3403 77.2938 71.3403C77.2938 70.8796 77.2724 70.4251 77.2969 69.9766C77.3853 68.4939 77.5104 67.0113 77.5806 65.5255C77.605 65.0283 77.7575 64.8574 78.27 64.8574C79.7374 64.8605 79.7374 64.8361 80.073 66.2791C80.25 67.0357 80.4238 67.7953 80.6008 68.555C80.6099 68.6007 80.6435 68.6404 80.7076 68.7716C81.037 67.4353 81.3513 66.1693 81.6624 64.8971C82.358 64.8971 82.9864 64.8971 83.7461 64.8971C83.862 67.0326 83.9779 69.156 84.0969 71.3312C83.5722 71.3312 83.0993 71.3312 82.4953 71.3312C82.4953 69.9675 82.4953 68.6129 82.4953 67.2614C82.4221 67.2523 82.3488 67.2462 82.2756 67.237C81.9767 68.3322 81.638 69.4183 81.3909 70.5258C81.2658 71.084 81.0431 71.2701 80.4665 71.2579C79.9845 71.2457 79.8473 71.0474 79.7588 70.6356C79.5239 69.5221 79.2524 68.4146 78.9961 67.3041C78.9686 67.3072 78.9412 67.3102 78.9107 67.3102Z" fill="#231F20"/>
<path d="M93.3033 68.9002C93.6541 67.4816 93.9683 66.2125 94.2887 64.9128C94.969 64.9128 95.6218 64.9128 96.3753 64.9128C96.4913 67.0392 96.6102 69.1626 96.7292 71.3378C96.1892 71.3378 95.7164 71.3378 95.1581 71.3378C95.0971 70.0168 95.0361 68.6958 94.9781 67.3748C94.9415 67.3687 94.9079 67.3657 94.8713 67.3596C94.612 68.3114 94.3466 69.2602 94.0934 70.212C93.8036 71.3073 93.8066 71.3103 92.5314 71.1791C92.2355 69.9222 91.9304 68.6348 91.6284 67.3474C91.5949 67.3504 91.5583 67.3565 91.5247 67.3596C91.4637 68.6775 91.4057 69.9924 91.3417 71.3439C90.8261 71.3439 90.3959 71.3439 89.8438 71.3439C89.9871 69.2053 90.1275 67.085 90.2739 64.8793C90.9146 64.8793 91.4942 64.8457 92.0677 64.9006C92.2233 64.9159 92.4308 65.1783 92.4765 65.3644C92.7633 66.487 93.0073 67.6189 93.3033 68.9002Z" fill="#231F20"/>
<path d="M120.39 67.5013C120.39 68.7521 120.39 70.003 120.39 71.3178C119.886 71.3178 119.42 71.3178 118.91 71.3178C118.91 69.1915 118.91 67.0864 118.91 64.8746C119.435 64.8746 119.944 64.8288 120.439 64.896C120.64 64.9234 120.875 65.1705 120.979 65.3749C121.509 66.4336 122.001 67.5105 122.571 68.7186C122.571 67.3671 122.571 66.1742 122.571 64.9265C123.038 64.9265 123.486 64.9265 123.999 64.9265C123.999 67.0437 123.999 69.164 123.999 71.3758C123.52 71.3758 123.056 71.4277 122.614 71.3514C122.412 71.3178 122.193 71.0616 122.092 70.8511C121.54 69.7314 121.021 68.5966 120.49 67.4678C120.454 67.483 120.42 67.4922 120.39 67.5013Z" fill="#231F20"/>
<path d="M69.3741 64.8759C69.8867 64.8759 70.3534 64.821 70.7958 64.9003C71.0215 64.94 71.2808 65.1841 71.3907 65.4037C71.9215 66.4562 72.4096 67.5301 72.9618 68.7047C72.9618 67.3837 72.9618 66.2 72.9618 64.9492C73.4164 64.9492 73.8831 64.9492 74.3987 64.9492C74.3987 67.0633 74.3987 69.1653 74.3987 71.3863C73.938 71.3863 73.4774 71.4382 73.0381 71.3649C72.8367 71.3314 72.6049 71.0904 72.5042 70.886C71.9642 69.7999 71.4608 68.6955 70.8537 67.402C70.8537 68.8236 70.8537 70.0562 70.8537 71.3375C70.3229 71.3375 69.8775 71.3375 69.3711 71.3375C69.3741 69.208 69.3741 67.103 69.3741 64.8759Z" fill="#231F20"/>
<path d="M14.3652 67.4872C14.3652 68.1339 14.3652 68.7807 14.3652 69.4275C14.3652 70.0529 14.3652 70.6783 14.3652 71.3403C13.8466 71.3403 13.4195 71.3403 12.9375 71.3403C12.9375 69.1956 12.9375 67.0723 12.9375 64.8727C13.4531 64.8727 13.9412 64.8269 14.411 64.894C14.6123 64.9245 14.8472 65.1594 14.951 65.3638C15.4726 66.395 15.9547 67.4475 16.5343 68.6678C16.5343 67.3072 16.5343 66.1357 16.5343 64.9184C17.0133 64.9184 17.4434 64.9184 17.9376 64.9184C17.9376 67.0265 17.9376 69.1529 17.9376 71.38C17.5929 71.38 17.2329 71.3494 16.879 71.3891C16.4336 71.4379 16.2262 71.2305 16.0553 70.8552C15.5428 69.7264 15.0028 68.6099 14.472 67.4872C14.4385 67.4872 14.4018 67.4872 14.3652 67.4872Z" fill="#231F20"/>
<path d="M9.05498 71.4742C7.40454 71.4224 6.3917 70.4095 6.23001 68.4448C6.06222 66.3886 7.29166 64.4788 9.66207 64.8236C10.8549 64.9974 11.6298 65.8242 11.9257 67.255C12.3101 69.1251 11.5322 70.8244 10.0495 71.2942C9.73223 71.398 9.3875 71.4163 9.05498 71.4742ZM10.3393 68.0848C10.1898 67.5937 10.1136 67.075 9.88172 66.6357C9.52784 65.9645 8.78346 65.9737 8.34416 66.6021C7.86825 67.2825 7.85299 68.9238 8.3167 69.6163C8.75906 70.2753 9.54614 70.2844 9.90002 69.5797C10.1258 69.1343 10.1898 68.6096 10.3393 68.0848Z" fill="#231F20"/>
<path d="M57.1328 64.9062C57.6575 64.9062 58.1365 64.9062 58.7222 64.9062C58.7222 65.6964 58.7222 66.4591 58.7222 67.2645C59.3751 67.2645 59.9212 67.2645 60.5618 67.2645C60.5618 66.4866 60.5618 65.7239 60.5618 64.9185C61.1323 64.9185 61.6082 64.9185 62.1482 64.9185C62.1482 67.0448 62.1482 69.1682 62.1482 71.3373C61.6631 71.3373 61.1872 71.3373 60.6259 71.3373C60.6259 70.5319 60.6259 69.7173 60.6259 68.8418C59.9761 68.8418 59.4086 68.8418 58.7527 68.8418C58.7527 69.6472 58.7527 70.4648 58.7527 71.3312C58.1701 71.3312 57.6728 71.3312 57.1328 71.3312C57.1328 69.2048 57.1328 67.0967 57.1328 64.9062Z" fill="#231F20"/>
<path d="M21.9583 67.5387C22.7362 67.5387 23.4348 67.5387 24.2585 67.5387C24.2585 68.6583 24.2707 69.7658 24.2402 70.8763C24.2372 70.9952 23.9962 71.1935 23.8528 71.2088C23.0108 71.282 22.1444 71.4437 21.3207 71.3278C19.6672 71.0929 18.8344 69.8817 18.8893 68.0543C18.9411 66.3062 20.0302 65.0249 21.7051 64.8693C22.4586 64.7991 23.2304 64.9059 24.0846 64.9364C23.9596 65.5404 23.8711 65.9584 23.8009 66.2879C23.1145 66.2879 22.5074 66.2208 21.9217 66.3062C21.1895 66.413 20.7502 66.9987 20.6495 67.8072C20.5336 68.7407 20.8661 69.601 21.5281 69.8878C21.821 70.0159 22.3427 70.141 22.4708 70.0007C22.6844 69.7719 22.66 69.3234 22.7393 68.9512C22.4159 68.8749 22.2084 68.8261 21.9552 68.7651C21.9583 68.3807 21.9583 67.9994 21.9583 67.5387Z" fill="#231F20"/>
<path d="M107.401 64.8965C107.99 64.8965 108.447 64.8965 109.03 64.8965C109.03 65.586 109.042 66.2541 109.027 66.9222C109.006 67.8191 109.067 68.7374 108.911 69.613C108.667 70.9736 107.743 71.5106 106.117 71.4282C104.951 71.3672 104.134 70.6441 104.057 69.3781C103.969 67.9259 104.036 66.4646 104.036 64.9392C104.494 64.9392 105.009 64.9392 105.644 64.9392C105.644 66.0741 105.638 67.2303 105.647 68.3866C105.65 68.7252 105.604 69.1157 105.754 69.3842C105.915 69.6771 106.269 70.0065 106.562 70.0309C106.785 70.0492 107.172 69.6557 107.261 69.372C107.404 68.9235 107.386 68.414 107.395 67.929C107.413 66.9466 107.401 65.9521 107.401 64.8965Z" fill="#231F20"/>
<path d="M68.5221 71.3557C67.8876 71.3557 67.3568 71.3557 66.7893 71.3557C66.6612 70.9042 66.5392 70.4649 66.3927 69.9493C66.048 69.9493 65.6819 69.9066 65.3341 69.9676C65.1541 69.9981 64.907 70.1811 64.8552 70.3459C64.5043 71.4106 64.5196 71.4167 63.4091 71.3831C63.2688 71.3801 63.1315 71.3526 62.918 71.3313C63.3939 69.5344 63.8606 67.7832 64.3243 66.029C64.3854 65.7941 64.4037 65.5257 64.5349 65.3365C64.6721 65.1413 64.9131 64.9094 65.1236 64.8941C66.7863 64.7813 66.7893 64.7965 67.2164 66.4073C67.6435 68.0212 68.0676 69.6381 68.5221 71.3557ZM66.2005 68.6435C66.0206 67.8625 65.865 67.1822 65.7094 66.4988C65.6728 66.5049 65.6331 66.5111 65.5965 66.5202C65.4562 67.2158 65.3158 67.9083 65.1664 68.6466C65.5324 68.6435 65.8131 68.6435 66.2005 68.6435Z" fill="#231F20"/>
<path d="M130.275 71.3793C129.762 71.3793 129.329 71.4067 128.902 71.364C128.755 71.3487 128.569 71.1932 128.502 71.0559C128.34 70.7142 128.337 70.1559 128.09 70.0278C127.749 69.8478 127.245 69.982 126.748 69.982C126.626 70.4244 126.498 70.882 126.367 71.3548C125.836 71.3548 125.329 71.3548 124.707 71.3548C124.89 70.6684 125.058 70.0278 125.229 69.3871C125.58 68.0722 125.946 66.7634 126.266 65.4394C126.373 65.0031 126.556 64.8598 127.007 64.8598C128.591 64.8567 128.594 64.8384 128.999 66.3607C129.381 67.7946 129.753 69.2285 130.125 70.6623C130.183 70.8698 130.217 71.0803 130.275 71.3793ZM127.544 66.5926C127.486 66.5956 127.425 66.5956 127.367 66.5987C127.236 67.2638 127.105 67.9319 126.965 68.6397C127.34 68.6397 127.614 68.6397 127.977 68.6397C127.822 67.9197 127.685 67.2546 127.544 66.5926Z" fill="#231F20"/>
<path d="M111.516 64.916C111.864 66.417 112.197 67.857 112.578 69.4922C112.95 67.8509 113.28 66.4048 113.615 64.9191C114.189 64.9191 114.738 64.9191 115.385 64.9191C115.29 65.2882 115.214 65.6329 115.113 65.9716C114.649 67.5336 114.149 69.0834 113.728 70.6576C113.572 71.2311 113.341 71.4813 112.737 71.3959C112.38 71.344 112.01 71.3867 111.556 71.3867C110.937 69.2481 110.317 67.1187 109.68 64.9191C110.348 64.916 110.9 64.916 111.516 64.916Z" fill="#231F20"/>
<path d="M46.0918 69.2227C46.0918 69.8939 46.0918 70.5681 46.0918 71.3125C45.5183 71.3125 45.0027 71.3125 44.3895 71.3125C44.3895 70.2203 44.3895 69.1312 44.3895 68.0421C44.3895 67.2123 44.4139 66.3825 44.3804 65.5557C44.3621 65.095 44.5116 64.8601 44.9814 64.8693C45.8051 64.8876 46.644 64.8266 47.4525 64.9577C48.4775 65.1225 48.9931 65.812 49.0236 66.773C49.0571 67.8987 48.5812 68.6461 47.5745 68.9482C47.1138 69.0854 46.6257 69.1282 46.0918 69.2227ZM46.0949 68.0299C46.586 67.7614 47.0101 67.6546 47.2114 67.3801C47.364 67.1757 47.3518 66.6448 47.1901 66.4648C46.9674 66.2208 46.5281 66.175 46.0949 66.0133C46.0949 66.7272 46.0949 67.2275 46.0949 68.0299Z" fill="#231F20"/>
<path d="M86.8079 66.2465C86.8079 66.6706 86.8079 66.936 86.8079 67.296C87.4608 67.296 88.1014 67.296 88.7909 67.296C88.7909 67.7841 88.7909 68.1838 88.7909 68.6902C88.138 68.6902 87.4974 68.6902 86.8262 68.6902C86.8262 69.1539 86.8262 69.5109 86.8262 69.9502C87.5645 69.9502 88.2814 69.9502 89.038 69.9502C89.038 70.4566 89.038 70.8776 89.038 71.3444C88.7573 71.3596 88.5194 71.3779 88.2814 71.381C87.2625 71.384 86.2466 71.384 85.1758 71.384C85.1758 69.2027 85.1758 67.0977 85.1758 64.9316C86.4144 64.9316 87.6408 64.9316 88.916 64.9316C88.916 65.3343 88.916 65.737 88.916 66.2465C88.2448 66.2465 87.5584 66.2465 86.8079 66.2465Z" fill="#231F20"/>
<path d="M53.2795 69.238C53.2795 69.9305 53.2795 70.6047 53.2795 71.3308C52.7304 71.3308 52.2361 71.3308 51.6992 71.3308C51.6992 69.2197 51.6992 67.1391 51.6992 64.9516C52.8676 64.8296 54.0391 64.6313 55.1801 65.1042C56.0038 65.4459 56.2875 66.1384 56.2539 66.9957C56.2173 67.9567 55.8085 68.6217 54.9543 68.9054C54.454 69.0702 53.9171 69.116 53.2795 69.238ZM53.2856 66.175C53.2856 66.6235 53.2368 67.0201 53.3069 67.3953C53.3375 67.5601 53.6151 67.8072 53.7707 67.8011C54.3503 67.7736 54.6676 67.4075 54.5913 66.8248C54.4937 66.0926 53.9598 66.0713 53.2856 66.175Z" fill="#231F20"/>
<path d="M6.01314 65.0807C5.91857 65.4895 5.8301 65.8648 5.72943 66.301C4.92404 66.1821 4.05153 65.9593 3.49935 66.7129C3.20648 67.1125 3.03259 67.6952 3.02954 68.1956C3.01734 69.6203 3.73731 70.0779 5.66231 69.962C5.71417 70.1572 5.78434 70.3586 5.82095 70.566C5.85451 70.7552 5.85756 70.9504 5.87586 71.1335C4.92709 71.7314 2.77633 71.4599 1.974 70.4562C1.07098 69.3274 0.994716 67.3078 1.87332 66.0753C2.71532 64.8916 4.50609 64.4401 6.01314 65.0807Z" fill="#231F20"/>
<path d="M43.626 65.095C43.5375 65.4794 43.4491 65.876 43.3636 66.2574C41.2769 66.175 40.6393 66.6387 40.6546 68.1702C40.6698 69.6224 41.3319 70.0861 43.3087 69.958C43.3789 70.3424 43.4491 70.7359 43.5192 71.1112C42.305 71.7793 40.4655 71.4437 39.6021 70.4308C38.6533 69.3203 38.6289 67.194 39.5533 65.9889C40.4258 64.851 42.2684 64.433 43.626 65.095Z" fill="#231F20"/>
<path d="M31.3906 64.9669C31.5005 64.9151 31.5218 64.8968 31.5432 64.8968C33.1692 64.7717 33.1661 64.7717 33.7092 66.3123C33.819 66.6265 33.938 66.9347 34.1271 67.4442C34.359 66.7211 34.5725 66.1964 34.6946 65.6503C34.8257 65.0554 35.0972 64.7625 35.7379 64.8632C36.0399 64.909 36.3511 64.8724 36.7629 64.8724C35.9026 67.0201 34.2522 68.8292 34.9386 71.3339C34.3071 71.3339 33.8312 71.3339 33.1722 71.3339C33.7427 68.9207 32.2662 67.0567 31.3906 64.9669Z" fill="#231F20"/>
<path d="M27.9232 66.294C27.3375 66.294 26.9073 66.294 26.4375 66.294C26.4375 65.812 26.4375 65.3879 26.4375 64.9181C27.969 64.9181 29.4638 64.9181 31.0258 64.9181C31.0258 65.3513 31.0258 65.7754 31.0258 66.2635C30.5926 66.2909 30.1441 66.3184 29.6072 66.352C29.6072 68.0116 29.6072 69.6498 29.6072 71.3339C29.0215 71.3339 28.5272 71.3339 27.9262 71.3339C27.9232 69.6742 27.9232 68.036 27.9232 66.294Z" fill="#231F20"/>
<path d="M99.5664 64.9062C100.116 64.9062 100.616 64.9062 101.199 64.9062C101.199 66.5811 101.199 68.2255 101.199 69.9339C101.952 69.9339 102.623 69.9339 103.358 69.9339C103.358 70.419 103.358 70.84 103.358 71.322C102.114 71.322 100.863 71.322 99.5664 71.322C99.5664 69.2078 99.5664 67.0967 99.5664 64.9062Z" fill="#231F20"/>
<path d="M117.657 71.3491C117.105 71.3491 116.629 71.3491 116.102 71.3491C116.102 69.2014 116.102 67.078 116.102 64.9181C116.62 64.9181 117.114 64.9181 117.657 64.9181C117.657 67.0658 117.657 69.1678 117.657 71.3491Z" fill="#231F20"/>
<path d="M9.06762 64.2932C8.66797 64.3909 8.21647 64.5007 7.76801 64.6105C7.71615 64.522 7.66124 64.4336 7.60938 64.3451C7.99987 64.0187 8.34155 63.5519 8.79305 63.3932C9.67166 63.079 10.1537 63.6983 10.6235 64.6075C10.0255 64.4885 9.57099 64.3939 9.06762 64.2932Z" fill="black"/>
<path d="M66.9348 64.607C66.5291 64.5002 66.1234 64.3965 65.684 64.2836C65.3637 64.3751 64.9397 64.4971 64.5156 64.6192C64.778 64.0456 64.7993 63.4111 65.5834 63.3409C66.465 63.2616 66.6511 63.8931 67.002 64.3965C66.9806 64.4636 66.9593 64.5368 66.9348 64.607Z" fill="black"/>
<path d="M88.2206 64.6217C87.8148 64.4966 87.4091 64.3715 87.0552 64.2647C86.6647 64.3715 86.2529 64.4874 85.841 64.6003C85.8136 64.5362 85.7892 64.4722 85.7617 64.4112C86.1064 63.9841 86.1705 63.3495 87.0034 63.3343C87.8667 63.319 87.9796 63.9597 88.3335 64.4173C88.2938 64.4844 88.2572 64.5515 88.2206 64.6217Z" fill="black"/>
<path d="M67.8857 63.7558C66.9492 63.9907 66.6472 63.2158 66.1133 62.7917C67.2512 62.4195 67.4373 62.5202 67.8857 63.7558Z" fill="black"/>
<path d="M89.2095 63.7481C88.276 64.0592 87.9922 63.2203 87.4492 62.7962C88.5536 62.424 88.7214 62.5155 89.2095 63.7481Z" fill="black"/>
</g>
<defs>
<clipPath id="clip0_181_7213">
<rect width="133.96" height="70.9" fill="white" transform="translate(0.941406 0.574219)"/>
</clipPath>
</defs>
</svg>
