<svg width="32" height="24" viewBox="0 0 32 24" fill="none" xmlns="http://www.w3.org/2000/svg">
<g clip-path="url(#clip0_372_7714)">
<path d="M0 19.2647C0.250489 18.0045 1.36986 17.6913 2.34051 17.1825C1.67515 16.8694 1.11155 16.5015 0.688845 15.9458C0.540117 15.7501 0.446184 15.5544 0.547945 15.3117C0.853229 14.5681 0.876712 13.7696 0.931507 12.9868C0.986301 12.2276 0.970646 11.4604 1.1272 10.7246C1.72211 7.98489 4.74364 6.67765 7.03718 8.1571C8.18787 8.90074 8.79061 10.0045 8.92368 11.3508C9.01761 12.3058 9.0411 13.2608 9.1272 14.2158C9.15851 14.5602 9.2681 14.9047 9.37769 15.2413C9.47162 15.5231 9.42466 15.7422 9.25245 15.9692C8.82975 16.5094 8.28963 16.8773 7.64775 17.1747C7.87475 17.3782 8.04697 17.4017 8.33659 17.2765C9.182 16.9086 10.0587 16.6111 10.9276 16.2902C11.225 16.1806 11.546 16.1336 11.6399 15.7422C11.6634 15.6483 11.7887 15.57 11.8669 15.4839C12.0391 15.3039 12.2113 15.1238 12.3836 14.936C12.5949 14.7011 12.5949 13.2765 12.3679 13.0651C11.1468 11.9223 10.5362 10.4976 10.5284 8.83812C10.5205 8.16493 10.3796 7.53871 10.2231 6.889C9.8865 5.43304 9.80039 3.94576 10.4814 2.55241C11.2407 1.00251 12.5245 0.11014 14.2387 0.0475174C16.6419 -0.0307604 19.0528 0.0162063 21.456 0.0240341C21.8004 0.0240341 21.9883 0.204073 21.9883 0.548496C21.9883 2.30192 21.9961 4.04752 21.9648 5.80094C21.9569 6.2393 21.8865 6.70896 21.7221 7.11601C21.4873 7.68744 21.4873 8.26669 21.4873 8.86161C21.4873 9.80094 21.3386 10.7246 20.8532 11.5309C20.5245 12.0788 20.1018 12.572 19.6869 13.0573C19.5538 13.2139 19.4599 13.3391 19.4834 13.5426C19.4834 13.5661 19.4834 13.5818 19.4834 13.6052C19.3503 14.4272 19.5616 15.116 20.2583 15.617C20.2896 15.6405 20.3366 15.6718 20.3444 15.7109C20.4462 16.1649 20.8532 16.1962 21.1898 16.3293C21.7534 16.5407 22.317 16.7598 22.8885 16.9399C23.092 17.0025 23.3268 16.979 23.546 16.9634C23.6869 16.9555 23.8278 16.8851 23.9687 16.8459C24.5793 16.6737 24.5871 16.6737 24.5479 16.0397C24.5401 15.9379 24.4853 15.8127 24.4149 15.7579C23.4755 14.9673 23.0215 13.9575 23.0607 12.7442C23.0763 12.3371 22.9667 11.9771 22.7945 11.6092C22.0039 9.88705 23.2798 7.69527 25.1742 7.60133C26.7632 7.52305 28.3601 7.55437 29.9491 7.54654C30.2779 7.54654 30.4892 7.70309 30.4892 7.99272C30.4971 8.94771 30.4892 9.91053 30.4501 10.8655C30.4423 11.1395 30.3405 11.4213 30.2153 11.664C30.0352 12.0084 29.9883 12.3606 29.9961 12.7442C30.0352 13.9732 29.6204 15.0064 28.6341 15.7814C28.3679 15.9927 28.5166 16.2902 28.5245 16.5407C28.5245 16.6268 28.728 16.7442 28.8611 16.7833C29.4168 16.9555 29.9804 17.1043 30.5362 17.2765C31.4677 17.5661 32 18.2784 32 19.2491C32.0078 20.4859 32.0078 21.7305 32 22.9673C32 23.3117 31.8121 23.5231 31.5303 23.5231C31.2564 23.5231 31.0763 23.3117 31.0607 22.9673C31.0607 22.8968 31.0607 22.8186 31.0607 22.7481C31.0607 21.6444 31.0607 20.5407 31.0607 19.4369C31.0607 18.6463 30.8258 18.3254 30.0665 18.1062C29.4951 17.9418 28.9315 17.7696 28.3523 17.6287C28.2583 17.6052 28.1331 17.6679 28.0313 17.6992C28.0078 17.707 27.9843 17.7383 27.9609 17.7618C27.6399 18.0906 27.2016 18.3645 27.0372 18.7559C26.8728 19.1395 26.9902 19.6405 26.9902 20.0867C26.9902 21.0025 26.9902 21.9184 26.9902 22.8342C26.9902 22.9438 26.9824 23.0612 26.9589 23.1708C26.8963 23.4056 26.7241 23.5231 26.4971 23.5074C26.2544 23.4917 26.09 23.343 26.0665 23.0925C26.0509 22.889 26.0587 22.6777 26.0587 22.4663C26.0587 21.3548 26.0509 20.2354 26.0665 19.1238C26.0665 18.8577 26.0196 18.6463 25.8004 18.4741C25.5969 18.3019 25.4168 18.0984 25.2211 17.9027C24.8454 17.527 24.8454 17.527 24.3366 17.7383C24.4384 17.8792 24.5401 18.0123 24.6341 18.161C24.8845 18.5681 25.002 19.0221 25.002 19.4996C25.0098 20.6424 25.0176 21.7931 24.9941 22.936C24.9941 23.116 24.8689 23.3274 24.728 23.4448C24.6419 23.5152 24.3679 23.4996 24.2818 23.4135C24.1566 23.296 24.0783 23.0769 24.0704 22.8968C24.0548 21.8009 24.0626 20.7129 24.0626 19.617C24.0626 18.7403 23.7182 18.2471 22.8885 17.9418C21.9413 17.5974 20.9941 17.253 20.0078 16.8929C19.7808 17.2295 19.5538 17.5739 19.319 17.9184C19.1311 18.1923 18.9511 18.4741 18.7632 18.7481C18.3562 19.3195 17.7143 19.3822 17.2055 18.9047C16.9785 18.6933 16.7671 18.4585 16.4932 18.1767C16.4853 18.3645 16.4775 18.4663 16.4775 18.5759C16.4775 19.9849 16.4775 21.3861 16.4775 22.7951C16.4775 23.2882 16.3131 23.5309 15.9922 23.5152C15.6791 23.4996 15.546 23.2804 15.546 22.7872C15.546 21.3939 15.546 19.9927 15.546 18.5994C15.546 18.4898 15.546 18.3724 15.546 18.161C15.2798 18.4272 15.0841 18.6229 14.8806 18.8264C14.2857 19.4135 13.6517 19.3508 13.182 18.6542C12.7906 18.0749 12.407 17.4957 12.0078 16.8929C11.1703 17.1982 10.3405 17.4957 9.51859 17.7931C8.15656 18.2941 7.95303 18.5837 7.95303 20.0397C7.95303 20.9555 7.95303 21.8714 7.95303 22.7872C7.95303 22.889 7.95303 22.9986 7.94521 23.1004C7.91389 23.3508 7.74951 23.4917 7.50685 23.5074C7.27984 23.5152 7.10763 23.39 7.05284 23.1551C7.02935 23.0456 7.02153 22.9281 7.02153 22.8186C7.02153 21.8401 7.02153 20.8616 7.02153 19.8831C7.02153 19.0299 7.05284 18.889 7.36595 18.161C6.93542 17.8244 6.93542 17.8244 6.55969 18.1923C5.72211 18.9908 4.83757 19.163 3.99217 18.6542C3.71037 18.482 3.48337 18.2236 3.21722 18.0279C3.13894 17.9732 2.99022 17.9418 2.90411 17.981C2.45793 18.1845 2.0274 18.4115 1.58904 18.6307C1.14286 18.8499 0.931507 19.2099 0.939335 19.7109C0.947162 20.7912 0.947162 21.8792 0.939335 22.9594C0.939335 23.343 0.688845 23.5935 0.391389 23.4996C0.250489 23.4526 0.133072 23.3117 0.00782779 23.2178C0 21.887 0 20.5798 0 19.2647ZM21.0568 0.986852C20.9941 0.963369 20.9706 0.955541 20.955 0.955541C18.7397 0.955541 16.5166 0.92423 14.3014 0.971196C12.8767 0.99468 11.6086 1.9575 11.1859 3.31953C10.7867 4.57981 10.8728 5.86356 11.272 7.12384C11.3738 7.43695 11.4442 7.76572 11.4521 8.08666C11.4677 8.90075 11.4755 9.70701 11.7573 10.4898C12.4149 12.3371 14.2231 13.6131 16.1174 13.5426C18.184 13.4643 19.9217 12.1258 20.3836 10.1454C20.5479 9.42521 20.501 8.65808 20.5636 7.91444C20.5793 7.70309 20.6106 7.47609 20.6888 7.28039C20.9393 6.662 21.0568 6.02795 21.0646 5.36259C21.0646 4.57981 21.0646 3.79703 21.0646 3.02208C21.0568 2.34889 21.0568 1.6757 21.0568 0.986852ZM29.5577 8.48587C29.4638 8.47804 29.409 8.47022 29.3464 8.47022C28.1096 8.47022 26.865 8.47022 25.6282 8.47022C25.4325 8.47022 25.229 8.4937 25.0411 8.54067C23.7495 8.85378 23.1076 10.3097 23.726 11.3822C23.9374 11.7501 23.9922 12.1336 24 12.5485C24 12.9477 24.0391 13.3626 24.1409 13.7461C24.407 14.7403 25.2994 15.4369 26.3796 15.5465C27.272 15.6405 28.2661 15.0847 28.7358 14.2471C29.002 13.7775 29.0802 13.2687 29.0646 12.7442C29.0489 12.251 29.0802 11.7814 29.3386 11.3274C29.4716 11.0847 29.5421 10.7716 29.5499 10.4898C29.5734 9.83225 29.5577 9.17472 29.5577 8.48587ZM1.90998 12.4076C2.1135 12.6033 2.30137 12.7207 2.40313 12.8929C2.48141 13.026 2.45793 13.2139 2.48141 13.3782C2.63796 14.5759 3.59295 15.4369 4.89237 15.5465C5.93346 15.6326 7.03718 14.8655 7.3816 13.8244C7.48337 13.5191 7.45205 13.2765 7.26419 13.0103C6.52838 11.9849 5.47945 11.6013 4.2818 11.5074C4.19569 11.4996 4.09393 11.5778 4.02348 11.6405C3.82779 11.8283 3.6634 12.0553 3.44423 12.2041C3.30333 12.298 3.06067 12.3215 2.91194 12.2667C2.79452 12.2197 2.69276 11.9927 2.68493 11.844C2.66928 11.5309 3.70254 10.5524 4.01566 10.5524C4.95499 10.5681 5.86301 10.7481 6.66145 11.2569C7.16243 11.57 7.60078 11.9849 8.02348 12.3215C8.08611 11.1865 7.81996 10.2315 7.11546 9.42521C5.99609 8.15711 3.86693 8.19624 2.77886 9.47217C2.0274 10.3645 1.89432 11.4056 1.90998 12.4076ZM13.4638 13.8557C13.4638 14.1062 13.4403 14.3019 13.4716 14.4976C13.4951 14.6229 13.5577 14.7794 13.6595 14.8499C14.3796 15.3587 15.1155 15.8596 15.8513 16.345C15.9296 16.3919 16.0939 16.3998 16.1644 16.345C16.908 15.8518 17.6438 15.343 18.3796 14.8342C18.4579 14.7794 18.5362 14.6855 18.544 14.5994C18.5675 14.3802 18.5519 14.1532 18.5519 13.8792C16.8532 14.6698 15.1859 14.7011 13.4638 13.8557ZM17.9648 18.2549C18.3405 17.6992 18.7162 17.1356 19.092 16.5641C19.4364 16.0475 19.4364 16.0475 18.9746 15.6248C18.9667 15.617 18.9589 15.617 18.9119 15.6013C18.2074 16.0867 17.4795 16.5798 16.7828 17.0573C17.182 17.4565 17.5656 17.8479 17.9648 18.2549ZM14.0274 18.2236C14.4344 17.8244 14.8258 17.4487 15.225 17.0573C14.5127 16.572 13.7926 16.0788 13.0646 15.5778C12.8924 15.7657 12.7515 15.9223 12.6027 16.0788C13.0959 16.8225 13.5734 17.5348 14.0274 18.2236ZM3.96086 16.4311C3.88258 16.9555 3.77299 17.5113 4.43836 17.8401C4.82975 18.0358 5.182 18.0123 5.56556 17.8166C6.23092 17.4722 6.04305 16.9164 5.98826 16.4311C5.31507 16.4311 4.64971 16.4311 3.96086 16.4311ZM27.546 16.4232C26.8415 16.4232 26.184 16.4232 25.4795 16.4232C25.4873 16.5328 25.4403 16.752 25.5342 16.8616C25.8317 17.2139 26.184 17.527 26.544 17.887C26.818 17.5974 27.0607 17.3078 27.3346 17.0651C27.5616 16.8616 27.6164 16.6503 27.546 16.4232ZM1.75342 14.5289C1.69863 14.7324 1.62035 15.0142 1.56556 15.3039C1.5499 15.3978 1.57339 15.5387 1.62818 15.6013C2.00391 15.9849 2.45793 16.2432 3.04501 16.4311C2.99022 16.1884 3.00587 15.9458 2.89628 15.8127C2.5362 15.3587 2.12133 14.936 1.75342 14.5289ZM6.97456 16.4154C7.49119 16.2276 7.94521 15.9927 8.31311 15.6092C8.36791 15.5465 8.43053 15.4448 8.41487 15.3743C8.35225 15.0612 8.25832 14.7559 8.18787 14.5054C7.88258 14.8733 7.59296 15.296 7.22505 15.6326C6.98239 15.8596 6.89628 16.071 6.97456 16.4154Z" fill="white"/>
<path d="M29.994 21.5733C29.994 22.0194 29.994 22.4656 29.994 22.9118C29.994 23.2797 29.814 23.4989 29.5322 23.4989C29.2504 23.5067 29.0625 23.2797 29.0625 22.9196C29.0625 21.9881 29.0625 21.0488 29.0625 20.1173C29.0625 19.7729 29.2425 19.5694 29.5243 19.5615C29.8061 19.5615 29.994 19.765 30.0018 20.1016C30.0018 20.6026 29.994 21.0879 29.994 21.5733Z" fill="white"/>
<path d="M2.93738 21.8636C2.93738 22.2237 2.94521 22.5916 2.93738 22.9517C2.92955 23.2883 2.74168 23.4996 2.46771 23.4996C2.20157 23.4996 2.00587 23.2883 2.00587 22.9752C1.99804 22.2159 1.99804 21.4566 2.00587 20.6973C2.00587 20.3842 2.20939 20.1885 2.47554 20.1885C2.74951 20.1885 2.92955 20.3842 2.93738 20.7051C2.94521 21.0965 2.93738 21.4801 2.93738 21.8636Z" fill="white"/>
<path d="M21.0582 22.0118C21.0582 21.6987 21.0503 21.3856 21.0582 21.0725C21.066 20.7672 21.246 20.5794 21.5044 20.5715C21.7627 20.5637 21.9819 20.7437 21.9819 21.0412C21.9975 21.7066 21.9975 22.3719 21.9819 23.0373C21.974 23.3113 21.7548 23.4991 21.52 23.4991C21.2695 23.4991 21.066 23.3034 21.0582 23.006C21.0503 22.685 21.0582 22.3484 21.0582 22.0118Z" fill="white"/>
<path d="M10.951 22.0277C10.951 22.3486 10.9589 22.6774 10.951 22.9983C10.9432 23.3036 10.7632 23.4993 10.5127 23.5071C10.27 23.515 10.043 23.3271 10.0352 23.0375C10.0195 22.3721 10.0195 21.7067 10.0352 21.0414C10.043 20.7439 10.27 20.5561 10.5283 20.5874C10.8101 20.6187 10.951 20.7909 10.9589 21.0649C10.9589 21.378 10.951 21.7067 10.951 22.0277Z" fill="white"/>
<path d="M12.962 5.39378C12.962 5.75386 12.9698 6.0748 12.962 6.39574C12.9541 6.75581 12.7976 6.94368 12.5079 6.95934C12.2105 6.96716 12.0305 6.77147 12.0226 6.39574C12.0148 6.04349 12.007 5.69124 12.0383 5.33899C12.0696 4.88497 12.3984 4.53272 12.8445 4.4701C14.4179 4.2431 15.9913 4.18047 17.5569 4.5249C18.3866 4.70494 19.1616 5.0337 19.7878 5.63644C20.007 5.83996 20.0305 6.10611 19.8582 6.3018C19.7017 6.48967 19.4199 6.53664 19.2164 6.3566C18.3162 5.55034 17.2125 5.34681 16.0696 5.26071C15.052 5.16677 14.0265 5.24505 12.962 5.39378Z" fill="white"/>
<path d="M25.5491 10.0674C26.4023 10.1144 27.2477 10.2005 28.0461 10.5214C28.0931 10.5371 28.1401 10.5606 28.187 10.5841C28.4375 10.7171 28.5393 10.9363 28.4532 11.1711C28.3592 11.4138 28.1479 11.5469 27.8739 11.4451C26.9659 11.0929 26.0187 11.0381 25.0637 10.9755C24.7271 10.952 24.5549 10.7798 24.5628 10.5058C24.5706 10.224 24.7663 10.0518 25.1185 10.0439C25.2516 10.0439 25.4003 10.0596 25.5491 10.0674Z" fill="white"/>
</g>
<defs>
<clipPath id="clip0_372_7714">
<rect width="32" height="23.5068" fill="white"/>
</clipPath>
</defs>
</svg>
