<svg width="162" height="56" viewBox="0 0 162 56" fill="none" xmlns="http://www.w3.org/2000/svg">
<g clip-path="url(#clip0_181_7165)">
<path d="M77.3078 11.1484C76.6991 11.1484 76.1713 11.1568 75.6407 11.1456C74.2082 11.1205 73.404 10.3358 73.3454 8.92273C73.2644 6.96235 73.2644 6.96235 75.2191 6.96235C75.6882 6.96235 76.1573 6.93722 76.6237 6.96794C77.1263 7.00145 77.3469 6.85344 77.319 6.29772C77.2715 5.45157 77.2966 4.60263 77.3106 3.75649C77.3301 2.34903 78.1706 1.52802 79.5836 1.51964C80.3431 1.51406 81.1027 1.50847 81.8594 1.52244C83.1299 1.54198 83.9425 2.33507 83.976 3.61127C84.0012 4.52444 84.0012 5.4404 83.9788 6.35636C83.9677 6.82831 84.1548 6.97073 84.6099 6.97073C88.6952 6.95956 92.7777 6.95677 96.863 6.97352C97.3796 6.97631 97.5136 6.77246 97.4996 6.29493C97.4717 5.42644 97.4801 4.55516 97.4968 3.68388C97.522 2.42443 98.3904 1.55315 99.6526 1.52523C100.412 1.50847 101.172 1.51126 101.928 1.52523C103.238 1.54757 104.132 2.45236 104.151 3.77883C104.165 4.75902 104.162 5.742 104.168 6.72219C104.168 6.76408 104.196 6.80597 104.235 6.92046C104.467 6.93442 104.726 6.96235 104.986 6.96235C107.172 6.96514 109.362 6.97911 111.548 6.95397C112.076 6.94839 112.269 7.11036 112.224 7.63815C112.182 8.12685 112.224 8.61834 112.213 9.10983C112.185 10.319 111.42 11.1177 110.197 11.1372C108.457 11.1652 106.715 11.1456 104.975 11.1512C104.735 11.1512 104.492 11.1735 104.154 11.1903C104.154 11.4919 104.154 11.7488 104.154 12.0057C104.154 15.0189 104.207 18.0293 104.14 21.0397C104.056 24.7957 105.871 25.8736 109.069 26.1417C109.957 26.2171 110.853 26.2143 111.744 26.2031C112.243 26.1975 112.414 26.3846 112.394 26.8705C112.364 27.6497 112.405 28.4344 112.364 29.2107C112.327 29.8949 111.878 30.3836 111.227 30.3864C108.622 30.3948 105.989 30.6405 103.436 29.948C102.336 29.6491 101.25 29.1604 100.281 28.56C98.4602 27.4346 97.5639 25.6697 97.5276 23.5614C97.4633 19.7467 97.4968 15.9321 97.4913 12.1174C97.4885 11.1512 97.4913 11.1484 96.5586 11.1484C92.652 11.1484 88.7455 11.1624 84.8417 11.1344C84.1743 11.1289 83.9593 11.3048 83.9705 11.9918C84.0207 15.3149 83.9453 18.6409 84.0598 21.9612C84.1436 24.441 85.3639 25.6697 87.8491 25.9993C89.0387 26.1556 90.2506 26.1947 91.4513 26.192C92.1103 26.192 92.3058 26.3986 92.2583 27.0325C92.2052 27.7195 92.2583 28.4148 92.2415 29.1074C92.222 29.8167 91.7808 30.3752 91.1274 30.3808C88.4997 30.4031 85.8469 30.6293 83.2696 29.948C82.2308 29.6743 81.206 29.2163 80.2845 28.6634C78.098 27.3537 77.3301 25.2425 77.319 22.8046C77.2994 19.2133 77.3134 15.6221 77.3134 12.0281C77.3078 11.7711 77.3078 11.5086 77.3078 11.1484Z" fill="#D93238"/>
<path d="M131.345 30.3839C128.645 30.3839 125.939 30.4732 123.244 30.3476C121.865 30.2834 120.444 30.0013 119.145 29.5322C116.565 28.5939 114.987 26.6391 114.446 23.9582C113.787 20.6937 113.815 17.3901 114.348 14.1116C114.887 10.7801 117.009 8.76665 120.134 7.85068C121.787 7.36757 123.532 7.06318 125.249 6.96823C128.921 6.76996 132.619 6.62196 136.215 7.658C140.208 8.80853 142.174 11.414 142.208 15.547C142.213 16.1669 142.202 16.8009 142.088 17.4096C141.752 19.208 140.39 20.4005 138.544 20.4703C136.804 20.5345 135.062 20.515 133.322 20.5178C129.46 20.5233 125.598 20.5178 121.737 20.5205C120.879 20.5205 120.863 20.5373 120.938 21.3807C120.974 21.8023 121.016 22.2268 121.086 22.6429C121.482 24.9216 122.89 26.0833 125.498 26.1448C128.466 26.2146 131.435 26.2006 134.406 26.2146C136.483 26.223 138.558 26.2258 140.635 26.209C141.113 26.2062 141.325 26.3319 141.297 26.8513C141.258 27.5411 141.294 28.2336 141.286 28.9262C141.272 29.898 140.775 30.4062 139.792 30.409C136.98 30.4202 134.165 30.4118 131.354 30.4118C131.345 30.4006 131.345 30.3923 131.345 30.3839ZM120.826 18.2055C120.904 18.2223 120.98 18.239 121.058 18.253C121.834 17.2002 122.946 16.7925 124.172 16.6249C124.699 16.5523 125.235 16.5048 125.769 16.5048C128.536 16.4937 131.301 16.502 134.068 16.4993C135.52 16.4965 136 15.8765 135.612 14.4551C135.109 12.6092 133.702 11.6653 131.976 11.4308C130.005 11.1627 127.98 11.1236 125.987 11.2018C124.981 11.2409 123.951 11.6569 123.01 12.0758C122.047 12.5059 121.309 13.3074 121.142 14.3853C120.946 15.6447 120.924 16.9321 120.826 18.2055Z" fill="#D93238"/>
<path d="M60.7784 30.3824C58.0558 30.3824 55.3304 30.4131 52.6078 30.3684C51.1083 30.3433 49.6367 30.0584 48.2573 29.4301C45.8251 28.3243 44.3423 26.4253 43.8481 23.8282C43.2449 20.6698 43.2784 17.4779 43.742 14.3056C44.239 10.8931 46.3528 8.78748 49.5641 7.84918C51.2172 7.36607 52.9624 7.05889 54.6798 6.96673C58.3965 6.76567 62.1411 6.60928 65.774 7.69001C68.6557 8.54732 70.8003 10.248 71.3811 13.3561C71.6129 14.5904 71.6603 15.889 71.571 17.1428C71.4342 19.0306 69.9179 20.3794 67.9828 20.466C66.5112 20.533 65.0368 20.5107 63.5652 20.5135C59.4352 20.519 55.3053 20.5135 51.1753 20.5163C50.2901 20.5163 50.279 20.533 50.3906 21.435C50.4549 21.9432 50.5023 22.4543 50.5861 22.9597C50.8151 24.3309 51.5635 25.3781 52.9066 25.7076C54.1883 26.0232 55.5398 26.1712 56.8634 26.1907C61.1721 26.2494 65.4808 26.2131 69.7866 26.2131C70.7109 26.2131 70.7109 26.2159 70.7137 27.1179C70.7137 27.7211 70.7249 28.3243 70.7081 28.9247C70.6858 29.9132 70.2055 30.4019 69.2142 30.4047C66.4023 30.4159 63.5903 30.4075 60.7756 30.4075C60.7784 30.3991 60.7784 30.3908 60.7784 30.3824ZM50.2343 18.1956C50.3208 18.218 50.4046 18.2403 50.4912 18.2627C51.1921 17.2797 52.2113 16.8636 53.331 16.6653C53.9426 16.5564 54.5709 16.5117 55.1908 16.5089C57.9357 16.4922 60.6778 16.5033 63.4228 16.5005C64.9837 16.5005 65.5143 15.8359 64.9893 14.3419C64.7631 13.6968 64.3498 13.0378 63.8388 12.5965C63.2692 12.105 62.5264 11.742 61.7976 11.5242C59.667 10.8875 57.4666 10.9936 55.2941 11.2142C54.3223 11.312 53.3478 11.6694 52.4459 12.0715C51.5299 12.482 50.79 13.2388 50.614 14.2525C50.3879 15.5455 50.3543 16.8775 50.2343 18.1956Z" fill="#D93238"/>
<path d="M0.941406 7.02591C2.41858 7.02591 3.84271 6.87232 5.21936 7.06221C7.21313 7.33589 8.57582 8.58137 9.43308 10.4049C11.5358 14.8814 13.6552 19.3467 15.7774 23.8148C15.9813 24.2477 16.2409 24.6554 16.5928 25.2865C16.9307 24.7168 17.1904 24.3482 17.3802 23.9488C19.4913 19.478 21.6051 15.0071 23.6911 10.525C24.8052 8.13177 26.6342 6.917 29.2926 6.96447C30.2476 6.98123 31.2026 6.96727 32.2693 6.96727C32.1213 7.28283 32.0292 7.49785 31.9203 7.7073C28.3655 14.5938 24.7969 21.4774 21.2645 28.3806C20.4854 29.8998 19.2707 30.6231 17.6232 30.6454C16.6012 30.6594 15.568 30.6454 14.5627 30.4918C13.4541 30.3215 12.5885 29.668 12.0635 28.6571C8.38873 21.55 4.7251 14.4402 1.05869 7.33309C1.01959 7.25769 0.997254 7.17392 0.941406 7.02591Z" fill="#D93238"/>
<path d="M152.709 13.1786C152.709 16.3035 152.717 19.4256 152.706 22.5504C152.701 23.9467 153.142 25.1336 154.438 25.7758C155.01 26.0607 155.714 26.1668 156.364 26.1919C157.858 26.2506 159.355 26.2254 160.852 26.2031C161.338 26.1947 161.547 26.3344 161.497 26.8482C161.438 27.4458 161.502 28.0602 161.388 28.641C161.176 29.7106 160.332 30.3864 159.246 30.3947C157.238 30.4115 155.228 30.4422 153.22 30.3752C149.732 30.2635 146.51 27.2168 146.144 23.7484C146.077 23.1062 146.038 22.4583 146.038 21.8132C146.03 15.8343 146.055 9.85265 146.016 3.87377C146.007 2.49983 146.661 1.21804 148.546 1.36046C149.233 1.41352 149.928 1.36326 150.62 1.37163C151.908 1.3856 152.695 2.14797 152.703 3.46606C152.723 6.27817 152.712 9.08749 152.712 11.8996C152.709 12.3324 152.709 12.7569 152.709 13.1786Z" fill="#D93238"/>
<path d="M33.1939 18.6746C33.1939 15.5106 33.1911 12.3439 33.1939 9.17989C33.1967 7.63839 33.8501 6.97656 35.3748 6.96818C36.1538 6.96259 36.9357 6.9598 37.7176 6.96818C39.1417 6.98214 39.8594 7.69424 39.8594 9.11007C39.8621 13.19 39.8594 17.2671 39.8594 21.3471C39.8594 23.6426 39.8621 25.9381 39.8594 28.2335C39.8566 29.6941 39.1501 30.4034 37.6869 30.4117C36.8408 30.4173 35.9919 30.4229 35.1458 30.409C33.9283 30.3894 33.2051 29.6689 33.1995 28.4374C33.1855 25.1813 33.1939 21.9279 33.1939 18.6746Z" fill="#D93238"/>
<path d="M33.2119 6.37521C33.2119 4.87561 33.1756 3.49608 33.2259 2.12214C33.2566 1.24248 34.0412 0.611362 35.0297 0.589021C36.0099 0.56668 36.99 0.56668 37.9701 0.589021C39.0815 0.611362 39.8243 1.35139 39.8606 2.42094C39.8997 3.61616 39.129 4.58518 38.0455 4.67175C37.448 4.71922 36.8392 4.68292 36.2472 4.7639C34.8091 4.96776 34.2702 5.26377 33.2119 6.37521Z" fill="#D93238"/>
<path d="M138.542 44.5021C138.852 44.5021 139.14 44.5021 139.503 44.5021C139.503 45.2114 139.503 45.9123 139.503 46.7194C140.235 46.7194 140.894 46.7166 141.555 46.7194C141.868 46.7194 142.181 46.7194 142.491 46.7361C144.39 46.8255 145.44 47.8559 145.56 49.7465C145.565 49.8135 145.565 49.8805 145.568 49.9476C145.652 52.8016 144.635 53.8571 141.793 53.8599C141.036 53.8599 140.276 53.8711 139.52 53.8264C138.83 53.7845 138.47 53.4299 138.467 52.7736C138.453 50.0788 138.467 47.3812 138.473 44.6864C138.473 44.6445 138.503 44.6054 138.542 44.5021ZM139.536 47.5208C139.536 49.2969 139.525 50.9194 139.556 52.5446C139.559 52.7038 139.818 52.9887 139.958 52.9915C140.958 52.9942 141.963 52.997 142.954 52.8825C143.764 52.7876 144.309 52.1984 144.356 51.4025C144.401 50.6094 144.348 49.8051 144.258 49.0149C144.169 48.2301 143.638 47.761 142.882 47.6884C141.801 47.5767 140.712 47.5711 139.536 47.5208Z" fill="#221F20"/>
<path d="M152.053 49.4753C152.268 47.9449 151.952 47.5652 150.556 47.5652C149.358 47.5652 148.157 47.5652 146.926 47.5652C146.926 47.2691 146.926 47.0541 146.926 46.8112C146.999 46.786 147.077 46.733 147.158 46.733C148.543 46.7302 149.925 46.7023 151.31 46.7413C152.553 46.7777 153.189 47.459 153.2 48.6961C153.214 50.0338 153.212 51.3742 153.203 52.7119C153.198 53.5301 152.902 53.8401 152.07 53.8512C150.774 53.8708 149.481 53.8764 148.185 53.8456C146.948 53.8149 146.312 53.1224 146.259 51.835C146.197 50.422 146.742 49.6791 148.021 49.5479C148.794 49.4669 149.579 49.492 150.361 49.4809C150.913 49.4669 151.469 49.4753 152.053 49.4753ZM152.128 50.3549C150.86 50.3549 149.668 50.341 148.473 50.3605C147.683 50.3717 147.423 50.6872 147.409 51.5613C147.392 52.5834 147.658 52.9827 148.456 53.0079C149.523 53.0414 150.59 53.033 151.656 52.9995C151.818 52.9939 152.097 52.7537 152.109 52.6085C152.153 51.8825 152.128 51.1536 152.128 50.3549Z" fill="#221F20"/>
<path d="M90.669 49.4769C90.9036 47.9606 90.5769 47.5668 89.1835 47.564C88.0246 47.564 86.8658 47.564 85.6316 47.564C85.6176 47.2987 85.6064 47.067 85.5953 46.8184C85.707 46.7821 85.7879 46.7319 85.8689 46.7291C87.2288 46.7263 88.5915 46.6983 89.9486 46.7374C91.0963 46.771 91.7441 47.3825 91.7888 48.5247C91.8446 49.9712 91.8223 51.4234 91.8027 52.8699C91.7944 53.5066 91.4258 53.8473 90.7751 53.8473C89.4376 53.8473 88.0972 53.8724 86.7625 53.8305C85.7628 53.7998 85.1736 53.2022 85.0368 52.2081C84.7855 50.3678 85.5031 49.516 87.3684 49.4769C88.463 49.4602 89.5521 49.4769 90.669 49.4769ZM90.7528 50.3985C90.5601 50.3762 90.4736 50.3566 90.3842 50.3566C89.3175 50.3538 88.248 50.3426 87.1813 50.3594C86.4134 50.3734 86.1258 50.7196 86.1119 51.5714C86.0951 52.5655 86.3855 52.9872 87.1841 53.0095C88.2061 53.0375 89.2309 53.0375 90.253 52.9984C90.4261 52.9928 90.7193 52.7275 90.7332 52.5683C90.7835 51.8618 90.7528 51.1525 90.7528 50.3985Z" fill="#221F20"/>
<path d="M127.645 47.5659C127.645 47.2643 127.645 47.0465 127.645 46.8203C127.707 46.7924 127.765 46.7421 127.824 46.7393C129.206 46.7365 130.591 46.703 131.971 46.7477C132.987 46.7812 133.632 47.4039 133.663 48.3757C133.707 49.8893 133.691 51.4085 133.682 52.922C133.68 53.514 133.344 53.8352 132.761 53.8408C131.401 53.852 130.038 53.8687 128.681 53.8268C127.821 53.7989 127.263 53.299 127.109 52.4529C127.025 51.9809 127.003 51.4727 127.073 51.0007C127.201 50.1351 127.704 49.638 128.586 49.5654C129.628 49.4788 130.678 49.4983 131.725 49.476C132.01 49.4704 132.295 49.476 132.56 49.476C132.847 48.0099 132.498 47.5659 131.127 47.5659C129.996 47.5631 128.86 47.5659 127.645 47.5659ZM132.658 50.4199C132.498 50.3808 132.456 50.364 132.415 50.3612C131.482 50.3585 130.549 50.3529 129.617 50.3529C128.279 50.3529 127.997 50.6908 128.137 52.0507C128.201 52.6651 128.516 52.9946 129.117 53.0058C130.139 53.0281 131.161 53.0309 132.183 52.9946C132.345 52.989 132.63 52.7545 132.638 52.6121C132.683 51.8888 132.658 51.1599 132.658 50.4199Z" fill="#221F20"/>
<path d="M69.2563 46.6113C69.6529 46.6309 69.9656 46.6309 70.2784 46.6644C71.5377 46.7928 72.6826 47.1698 73.1462 48.4879C73.6627 49.9568 73.6432 51.4201 72.7468 52.7773C72.6854 52.8695 72.6044 52.9477 72.5235 53.0258C71.2306 54.3021 67.3743 54.3216 66.1624 52.984C65.0315 51.7357 65.0538 50.2109 65.4838 48.6946C65.8636 47.3569 66.9135 46.8375 68.2064 46.6951C68.5834 46.656 68.9604 46.6337 69.2563 46.6113ZM69.3262 47.4659C68.8207 47.5329 68.3069 47.572 67.8099 47.6725C67.0839 47.8205 66.5729 48.2785 66.4947 49.0101C66.4053 49.8423 66.3913 50.6996 66.4779 51.5318C66.5533 52.2523 67.0699 52.755 67.7848 52.889C68.4773 53.0175 69.2005 53.0677 69.907 53.051C71.6355 53.0119 72.3084 52.297 72.3392 50.5656C72.3838 48.1277 71.7723 47.5077 69.3262 47.4659Z" fill="#221F20"/>
<path d="M58.5806 50.6421C58.36 52.1668 59.0525 52.999 60.4961 53.013C61.7639 53.0269 63.0316 53.0158 64.3413 53.0158C64.3413 53.3062 64.3413 53.5352 64.3413 53.7865C62.7161 53.7865 61.0881 53.887 59.4825 53.753C58.3935 53.6608 57.6591 52.8594 57.5195 51.7591C57.405 50.8627 57.405 49.93 57.5195 49.0336C57.6647 47.883 58.4102 47.0816 59.5495 46.9196C60.566 46.7744 61.641 46.766 62.6547 46.928C63.8749 47.1235 64.587 48.1735 64.5842 49.3938C64.5814 50.2511 64.2435 50.6225 63.3751 50.6337C62.0152 50.6533 60.6553 50.6421 59.2926 50.6421C59.0469 50.6421 58.8068 50.6421 58.5806 50.6421ZM58.5834 49.7904C60.0857 49.7904 61.5963 49.8015 63.1098 49.7708C63.2355 49.768 63.4477 49.5083 63.4589 49.3547C63.5231 48.5868 62.9339 47.8076 62.1129 47.6876C61.44 47.5898 60.7335 47.5786 60.0577 47.6624C58.9883 47.7965 58.4521 48.6035 58.5834 49.7904Z" fill="#221F20"/>
<path d="M101.497 47.5651C101.497 49.6986 101.497 51.7232 101.497 53.8037C101.146 53.8037 100.83 53.8037 100.473 53.8037C100.473 50.7235 100.473 47.6572 100.473 44.5352C100.785 44.5352 101.101 44.5352 101.495 44.5352C101.495 45.2389 101.495 45.9398 101.495 46.7189C102.232 46.7189 102.894 46.7162 103.558 46.7189C104.027 46.7217 104.497 46.7134 104.963 46.7469C106.219 46.839 106.996 47.5037 107.057 48.7463C107.138 50.4107 107.077 52.0807 107.077 53.8037C106.75 53.8037 106.451 53.8037 106.041 53.8037C106.041 53.5216 106.041 53.22 106.041 52.9156C106.041 51.645 106.057 50.3744 106.032 49.1038C106.013 48.0454 105.563 47.5958 104.513 47.5679C103.539 47.5483 102.561 47.5651 101.497 47.5651Z" fill="#221F20"/>
<path d="M50.955 53.8232C50.5502 53.8232 50.2709 53.8232 49.9414 53.8232C49.9414 50.7151 49.9414 47.6321 49.9414 44.5156C50.2597 44.5156 50.539 44.5156 50.9243 44.5156C50.9243 45.0825 50.9411 45.6326 50.9187 46.18C50.902 46.5793 51.0388 46.7329 51.4549 46.7245C52.368 46.705 53.2867 46.7022 54.1998 46.7385C55.5597 46.7944 56.3388 47.4506 56.4002 48.7603C56.4784 50.4247 56.4198 52.0974 56.4198 53.8093C56.0847 53.8093 55.7887 53.8093 55.4089 53.8093C55.4089 52.48 55.4089 51.1703 55.4089 49.8578C55.4089 47.7773 55.1883 47.5567 53.1024 47.5567C52.4127 47.5567 51.723 47.5567 50.9578 47.5567C50.955 49.6567 50.955 51.7009 50.955 53.8232Z" fill="#221F20"/>
<path d="M154.536 53.8028C154.536 51.7056 154.533 49.6586 154.539 47.6089C154.541 47.0727 154.846 46.7543 155.365 46.7488C156.747 46.732 158.132 46.7013 159.512 46.7795C160.542 46.8381 161.271 47.5167 161.316 48.5248C161.394 50.2758 161.338 52.0323 161.338 53.8251C160.997 53.8251 160.693 53.8251 160.291 53.8251C160.291 53.3113 160.291 52.8058 160.291 52.3032C160.291 51.2113 160.308 50.1194 160.283 49.0275C160.26 48.0864 159.903 47.6452 159.037 47.6005C157.929 47.5446 156.817 47.5865 155.639 47.5865C155.639 49.667 155.639 51.7056 155.639 53.8028C155.254 53.8028 154.938 53.8028 154.536 53.8028Z" fill="#221F20"/>
<path d="M119.447 46.7557C119.734 46.7557 120.019 46.7557 120.41 46.7557C120.41 46.9958 120.41 47.2304 120.41 47.465C120.41 48.825 120.393 50.1877 120.418 51.5477C120.438 52.5586 120.773 52.9272 121.781 52.9887C122.647 53.0417 123.521 53.0082 124.392 53.0138C124.856 53.0166 124.992 52.7737 124.99 52.3352C124.973 50.7295 124.984 49.1238 124.984 47.518C124.984 47.2779 124.984 47.0377 124.984 46.7613C125.358 46.7613 125.657 46.7613 126.031 46.7613C126.031 48.0821 126.031 49.3695 126.031 50.6569C126.031 51.3494 126.045 52.0392 126.023 52.7318C126 53.4131 125.674 53.8069 125.012 53.8264C123.741 53.8628 122.468 53.8767 121.2 53.8097C120.276 53.7622 119.511 53.1451 119.475 52.3157C119.394 50.4754 119.447 48.6295 119.447 46.7557Z" fill="#221F20"/>
<path d="M46.7157 53.8358C46.3108 53.8358 46.0093 53.8358 45.6239 53.8358C45.6239 51.0265 45.6239 48.2534 45.6239 45.4162C44.6382 45.4162 43.7335 45.4162 42.7812 45.4162C42.7812 45.1006 42.7812 44.8493 42.7812 44.5449C44.8951 44.5449 47.0229 44.5449 49.201 44.5449C49.201 44.7935 49.201 45.0476 49.201 45.3743C48.4051 45.3743 47.5925 45.3743 46.7157 45.3743C46.7157 48.2144 46.7157 50.9846 46.7157 53.8358Z" fill="#221F20"/>
<path d="M84.0864 46.7228C84.0864 47.0272 84.0864 47.259 84.0864 47.5662C83.1677 47.5662 82.2797 47.5438 81.3945 47.5745C80.9337 47.5913 80.4116 47.5969 80.0318 47.8091C79.599 48.0493 79.0573 48.4765 78.9847 48.8954C78.8255 49.8198 78.8506 50.7971 78.9595 51.7354C79.0461 52.4922 79.7079 52.8385 80.4116 52.9055C81.3414 52.9949 82.2825 52.9893 83.2179 53.0172C83.5698 53.0284 83.9188 53.02 84.307 53.02C84.3209 53.3132 84.3293 53.5283 84.3433 53.8718C82.7181 53.7796 81.1125 54.1035 79.5487 53.6428C78.563 53.3523 77.8817 52.6486 77.7616 51.593C77.6722 50.8027 77.6387 49.9817 77.7504 49.1998C77.9403 47.8398 78.7613 47.0886 80.1882 46.8122C80.5344 46.7451 80.8974 46.734 81.2549 46.7312C82.1847 46.7144 83.1174 46.7228 84.0864 46.7228Z" fill="#221F20"/>
<path d="M99.4406 53.0158C99.4406 53.3314 99.4406 53.5464 99.4406 53.7335C97.9327 53.7335 96.4332 53.8759 94.9728 53.6916C93.6073 53.5213 92.8869 52.4741 92.8115 51.0973C92.7864 50.6533 92.7891 50.2037 92.8059 49.7597C92.8701 48.0311 93.8279 46.928 95.5452 46.7828C96.7376 46.6823 97.9467 46.7633 99.22 46.7633C99.2312 46.9978 99.2423 47.2296 99.2591 47.5647C98.843 47.5647 98.4716 47.5647 98.1003 47.5647C97.4301 47.5675 96.7599 47.5396 96.0925 47.5787C94.6908 47.6625 94.0848 48.2461 93.9619 49.6396C93.9145 50.1897 93.9284 50.7538 93.9871 51.304C94.0932 52.2786 94.5735 52.7868 95.5648 52.9097C96.3355 53.0046 97.1229 52.9935 97.902 53.0158C98.3935 53.027 98.8821 53.0158 99.4406 53.0158Z" fill="#221F20"/>
<path d="M118.25 47.567C117.284 47.567 116.396 47.5614 115.51 47.567C113.734 47.5781 113.098 48.1702 112.986 49.9239C112.969 50.1892 112.958 50.4573 112.972 50.7254C113.07 52.3813 113.612 52.9343 115.284 53.0041C116.301 53.046 117.32 53.0125 118.37 53.0125C118.37 53.3169 118.37 53.5319 118.37 53.8586C116.809 53.786 115.228 54.1099 113.692 53.6352C112.71 53.3308 112.062 52.6159 111.953 51.5575C111.877 50.8343 111.836 50.0859 111.928 49.3682C112.126 47.7876 113.078 46.88 114.664 46.7739C115.818 46.6985 116.976 46.7599 118.211 46.7599C118.219 46.9861 118.23 47.2179 118.25 47.567Z" fill="#221F20"/>
<path d="M121.504 44.7704C121.504 44.5051 121.504 44.3208 121.504 44.0332C122.11 44.0918 122.702 44.0611 123.227 44.2343C123.54 44.3376 123.85 44.7202 123.972 45.0469C124.123 45.449 123.819 45.7227 123.422 45.8931C123.121 46.0243 122.855 46.2421 122.573 46.4208C122.487 46.3482 122.4 46.2728 122.314 46.2002C122.462 45.9461 122.612 45.692 122.755 45.4323C122.825 45.3066 122.948 45.153 122.92 45.0469C122.889 44.9324 122.713 44.7984 122.587 44.7844C122.241 44.7453 121.886 44.7704 121.504 44.7704Z" fill="#221F20"/>
<path d="M89.0623 44.0723C89.7576 44.6001 89.7687 44.7229 89.1907 45.1781C88.8249 45.4658 88.4451 45.7338 88.0905 46.0326C87.7945 46.2812 87.5264 46.2365 87.4008 45.9126C87.331 45.7394 87.3896 45.4015 87.5209 45.2814C88.0123 44.843 88.554 44.466 89.0623 44.0723Z" fill="#221F20"/>
<path d="M150.557 55.5542C150.116 55.5542 149.741 55.5542 149.309 55.5542C149.309 55.2023 149.309 54.8672 149.309 54.4902C149.73 54.4902 150.121 54.4902 150.557 54.4902C150.557 54.8477 150.557 55.1716 150.557 55.5542Z" fill="#221F20"/>
</g>
<defs>
<clipPath id="clip0_181_7165">
<rect width="160.56" height="54.98" fill="white" transform="translate(0.941406 0.574219)"/>
</clipPath>
</defs>
</svg>
