<svg width="32" height="40" viewBox="0 0 32 40" fill="none" xmlns="http://www.w3.org/2000/svg">
<g clip-path="url(#clip0_372_7749)">
<path d="M26.6812 0C28.2837 1.6513 29.8763 3.3026 31.4885 4.93435C31.8403 5.29588 31.9869 5.6574 31.9869 6.1655C31.9673 16.9331 31.9771 27.7008 31.9771 38.4684C31.9771 38.615 31.9771 38.7518 31.9771 38.8983C31.9576 39.5334 31.5569 39.9438 30.9121 39.9438C29.8177 39.9536 28.7234 39.9438 27.6388 39.9438C27.1698 39.9438 26.9157 39.7289 26.906 39.3673C26.8962 38.9863 27.1698 38.7713 27.6583 38.7713C28.567 38.7713 29.4757 38.7713 30.3942 38.7713C30.5212 38.7713 30.6482 38.7713 30.7948 38.7713C30.7948 27.945 30.7948 17.1579 30.7948 6.32183C30.6678 6.31206 30.531 6.30229 30.3942 6.30229C29.1631 6.30229 27.9221 6.30229 26.691 6.30229C26.0168 6.30229 25.8311 6.11664 25.8311 5.44244C25.8311 4.03542 25.8311 2.63817 25.8311 1.20183C17.6235 1.20183 9.42565 1.20183 1.17894 1.20183C1.17894 1.33863 1.17894 1.47542 1.17894 1.61221C1.17894 2.80427 1.17894 4.00611 1.17894 5.19817C1.17894 5.30565 1.17894 5.40336 1.17894 5.51084C1.15939 5.87237 0.924891 6.12641 0.602448 6.12641C0.280006 6.12641 0.0259601 5.88214 0.0161891 5.52061C-0.00335287 3.98656 -0.00335287 2.45252 0.00641812 0.918473C0.00641812 0.459237 0.358174 0.234504 0.700158 0C9.35725 0 18.0241 0 26.6812 0ZM27.0134 5.10046C28.0003 5.10046 28.9481 5.10046 29.8861 5.10046C29.9056 5.06137 29.935 5.03206 29.9545 4.99298C28.9579 4.0745 27.9514 3.14626 27.0134 2.27664C27.0134 3.13649 27.0134 4.11359 27.0134 5.10046Z" fill="white"/>
<path d="M1.17018 38.7809C1.3656 38.7809 1.52193 38.7809 1.67827 38.7809C8.79155 38.7809 15.9048 38.7809 23.0181 38.7809C23.1647 38.7809 23.3113 38.7712 23.448 38.7907C23.7509 38.8396 23.9464 39.0252 23.9561 39.3379C23.9659 39.6799 23.7705 39.8655 23.4578 39.9339C23.3406 39.9535 23.2233 39.9437 23.1061 39.9437C15.8071 39.9437 8.50819 39.9437 1.21903 39.9437C0.378726 39.9535 -0.00234289 39.5724 -0.00234289 38.7419C-0.00234289 29.2054 -0.00234289 19.6787 -0.00234289 10.1422C-0.00234289 10.0151 -0.0121139 9.87835 0.0171991 9.75133C0.0953671 9.43866 0.300558 9.25301 0.632772 9.28232C0.945444 9.31164 1.12132 9.50706 1.16041 9.80996C1.17995 9.94675 1.17018 10.0933 1.17018 10.2399C1.17018 19.5614 1.17018 28.8829 1.17018 38.2142C1.17018 38.3803 1.17018 38.5464 1.17018 38.7809Z" fill="white"/>
<path d="M11.6255 8.30461C9.37818 8.30461 7.13085 8.30461 4.87375 8.30461C3.93573 8.30461 3.59375 7.95285 3.59375 7.00507C3.59375 6.09636 3.59375 5.18766 3.59375 4.27896C3.59375 3.51682 3.98459 3.11621 4.73696 3.11621C9.33909 3.11621 13.9412 3.11621 18.5434 3.11621C19.286 3.11621 19.6768 3.49728 19.6768 4.23988C19.6866 5.21697 19.6768 6.19407 19.6768 7.1614C19.6768 7.92354 19.3055 8.30461 18.5238 8.30461C16.2276 8.30461 13.9217 8.30461 11.6255 8.30461ZM4.78581 7.10278C9.35863 7.10278 13.9119 7.10278 18.4847 7.10278C18.4847 6.15499 18.4847 5.24629 18.4847 4.31804C13.9119 4.31804 9.35863 4.31804 4.78581 4.31804C4.78581 5.25606 4.78581 6.16476 4.78581 7.10278Z" fill="white"/>
<path d="M19.7349 20.401C17.3898 20.401 15.0545 20.401 12.7095 20.401C12.5629 20.401 12.4261 20.401 12.2796 20.3815C11.9474 20.3424 11.7617 20.147 11.7617 19.8148C11.7617 19.4728 11.9571 19.2871 12.2894 19.2481C12.4164 19.2285 12.5532 19.2285 12.6802 19.2285C17.3703 19.2285 22.0701 19.2285 26.7602 19.2285C27.3855 19.2285 27.6884 19.4239 27.6787 19.8245C27.6787 20.2252 27.3855 20.4108 26.7504 20.4108C24.4249 20.401 22.0799 20.401 19.7349 20.401Z" fill="white"/>
<path d="M19.6937 12.4284C17.3486 12.4284 15.0134 12.4284 12.6683 12.4284C12.5218 12.4284 12.385 12.4382 12.2384 12.4088C11.9453 12.36 11.7792 12.1841 11.7596 11.8812C11.7401 11.5881 11.8769 11.3731 12.17 11.3047C12.3068 11.2656 12.4534 11.2559 12.5902 11.2559C17.3389 11.2559 22.0876 11.2559 26.8363 11.2559C26.9731 11.2559 27.1196 11.2656 27.2564 11.3047C27.5496 11.3829 27.6961 11.5978 27.6668 11.891C27.6473 12.1743 27.4812 12.3698 27.1783 12.4088C27.0415 12.4284 26.8949 12.4284 26.7483 12.4284C24.4033 12.4284 22.0485 12.4284 19.6937 12.4284Z" fill="white"/>
<path d="M19.7347 27.2119C22.0798 27.2119 24.415 27.2119 26.7601 27.2119C26.9066 27.2119 27.0434 27.2119 27.19 27.2315C27.4929 27.2705 27.659 27.466 27.6785 27.7493C27.6981 28.0327 27.5515 28.2574 27.2682 28.3356C27.1216 28.3747 26.9653 28.3844 26.8089 28.3844C22.0895 28.3844 17.3701 28.3844 12.641 28.3844C12.4846 28.3844 12.3283 28.3747 12.1817 28.3356C11.8886 28.2574 11.7518 28.0522 11.7714 27.7591C11.7909 27.466 11.957 27.2803 12.2501 27.2315C12.3869 27.2119 12.5335 27.2119 12.6801 27.2119C15.0349 27.2119 17.3799 27.2119 19.7347 27.2119Z" fill="white"/>
<path d="M9.36754 29.7616C9.36754 30.26 9.37731 30.7485 9.36754 31.2468C9.35777 31.8624 8.96693 32.2826 8.34158 32.2923C7.3254 32.3021 6.30922 32.3021 5.3028 32.2923C4.71654 32.2826 4.29639 31.8624 4.29639 31.2761C4.28662 30.26 4.28662 29.2438 4.29639 28.2374C4.30616 27.6413 4.70677 27.231 5.3028 27.231C6.32876 27.2212 7.35471 27.2212 8.38067 27.231C8.96693 27.2407 9.34799 27.6413 9.36754 28.2178C9.37731 28.7259 9.36754 29.2438 9.36754 29.7616ZM5.47868 31.0905C6.39715 31.0905 7.28631 31.0905 8.1657 31.0905C8.1657 30.172 8.1657 29.2926 8.1657 28.4035C7.257 28.4035 6.37761 28.4035 5.47868 28.4035C5.47868 29.3024 5.47868 30.1818 5.47868 31.0905Z" fill="white"/>
<path d="M18.212 16.3366C16.3751 16.3366 14.5479 16.3366 12.711 16.3366C12.5644 16.3366 12.4276 16.3366 12.2811 16.3268C11.9684 16.2877 11.7827 16.1118 11.7632 15.7992C11.7436 15.467 11.9195 15.2618 12.2517 15.2031C12.3788 15.1836 12.5058 15.1738 12.6426 15.1738C16.3556 15.1738 20.0783 15.1738 23.7913 15.1738C23.8597 15.1738 23.9183 15.1738 23.9867 15.1738C24.4459 15.1934 24.7 15.4181 24.6902 15.7894C24.6804 16.1412 24.4362 16.3463 23.9867 16.3463C22.0618 16.3366 20.1369 16.3366 18.212 16.3366Z" fill="white"/>
<path d="M18.212 23.1475C20.0685 23.1475 21.925 23.1475 23.7913 23.1475C23.9476 23.1475 24.1039 23.1475 24.2603 23.1768C24.5339 23.2354 24.7293 23.4406 24.6804 23.7044C24.6413 23.9096 24.4655 24.1148 24.2994 24.2614C24.2017 24.3493 23.9965 24.32 23.8499 24.32C20.1076 24.32 16.3653 24.32 12.623 24.32C12.5058 24.32 12.3885 24.3102 12.2713 24.2907C11.9391 24.2321 11.7632 24.0269 11.7827 23.6946C11.8023 23.382 11.9879 23.1963 12.3006 23.167C12.4374 23.1475 12.5839 23.1572 12.7305 23.1572C14.5479 23.1475 16.3751 23.1475 18.212 23.1475Z" fill="white"/>
<path d="M18.2473 31.1206C20.094 31.1206 21.9407 31.1206 23.7875 31.1206C23.9145 31.1206 24.0513 31.1108 24.1783 31.1304C24.4714 31.1695 24.6473 31.3453 24.6766 31.6385C24.7059 31.9511 24.5594 32.1661 24.2565 32.2443C24.1197 32.2834 23.9731 32.2834 23.8363 32.2834C20.094 32.2834 16.3517 32.2834 12.6094 32.2834C12.4824 32.2834 12.3456 32.2834 12.2284 32.254C11.9255 32.1759 11.7594 31.9805 11.7789 31.658C11.7984 31.3453 11.9841 31.1597 12.2968 31.1206C12.4238 31.1011 12.5606 31.1108 12.6876 31.1108C14.5343 31.1206 16.3908 31.1206 18.2473 31.1206Z" fill="white"/>
<path d="M17.0863 14.3726C15.6011 14.3726 14.1257 14.3726 12.6405 14.3726C12.4939 14.3726 12.3474 14.3824 12.2106 14.3531C11.937 14.2944 11.7318 14.1088 11.7807 13.845C11.8197 13.6398 11.9761 13.415 12.1422 13.2783C12.2497 13.1903 12.4646 13.2099 12.6307 13.2099C15.6304 13.2099 18.6301 13.2099 21.6298 13.2099C21.7862 13.2099 21.9425 13.2196 22.0891 13.2587C22.3724 13.3467 22.4994 13.5616 22.4799 13.8547C22.4604 14.1381 22.2942 14.314 22.0207 14.3628C21.8839 14.3824 21.7373 14.3824 21.5907 14.3824C20.0958 14.3824 18.591 14.3726 17.0863 14.3726Z" fill="white"/>
<path d="M17.1568 29.1664C18.6518 29.1664 20.1468 29.1664 21.6417 29.1664C21.7883 29.1664 21.9642 29.1273 22.0619 29.1957C22.2378 29.3227 22.4136 29.4986 22.482 29.6843C22.57 29.9383 22.4136 30.1728 22.1498 30.2705C21.9935 30.3291 21.8176 30.3389 21.6515 30.3389C18.642 30.3389 15.6228 30.3389 12.6133 30.3389C12.4863 30.3389 12.3495 30.3389 12.2323 30.3096C11.9294 30.2412 11.7633 30.036 11.7828 29.7233C11.8023 29.4107 11.988 29.225 12.3007 29.1859C12.4277 29.1664 12.5645 29.1762 12.6915 29.1762C14.1669 29.1664 15.6619 29.1664 17.1568 29.1664Z" fill="white"/>
<path d="M17.1167 22.3659C15.6316 22.3659 14.1561 22.3659 12.6709 22.3659C12.5048 22.3659 12.329 22.3659 12.1726 22.317C11.8795 22.2389 11.7525 22.0337 11.7622 21.7308C11.7818 21.4474 11.9283 21.2715 12.2019 21.2129C12.3387 21.1836 12.4853 21.1836 12.6319 21.1836C15.6218 21.1836 18.6019 21.1836 21.5919 21.1836C22.227 21.1836 22.5006 21.3692 22.4908 21.7894C22.481 22.19 22.2074 22.3561 21.6016 22.3561C20.1067 22.3659 18.6117 22.3659 17.1167 22.3659Z" fill="white"/>
<path d="M6.0468 14.9001C6.84803 13.8546 7.61993 12.8385 8.38207 11.8223C8.45047 11.7246 8.51887 11.6366 8.59703 11.5487C8.86085 11.2458 9.18329 11.1872 9.45688 11.3924C9.7207 11.5975 9.76955 11.9395 9.52528 12.262C8.94879 13.0339 8.36253 13.796 7.78604 14.5582C7.42451 15.0369 7.06299 15.5157 6.70146 15.9847C6.3497 16.4342 6.05657 16.4537 5.61688 16.0824C5.26512 15.7795 4.9036 15.4766 4.56161 15.1542C4.25871 14.8708 4.21963 14.5582 4.44436 14.2943C4.66909 14.0208 5.01108 14.0208 5.34329 14.2846C5.56802 14.4702 5.78299 14.6754 6.0468 14.9001Z" fill="white"/>
<path d="M6.04482 22.8643C6.86558 21.7894 7.64726 20.7537 8.42894 19.7278C8.51688 19.6105 8.60482 19.503 8.70253 19.4053C8.93703 19.1904 9.20085 19.1904 9.44512 19.376C9.67963 19.5519 9.72848 19.8059 9.60146 20.0697C9.55261 20.1772 9.48421 20.2749 9.41581 20.3629C8.51688 21.5452 7.62772 22.7177 6.72879 23.9C6.33795 24.4081 6.04482 24.4374 5.56604 24.0172C5.22406 23.7143 4.8723 23.4212 4.54009 23.1183C4.23719 22.8349 4.20788 22.5223 4.43261 22.2585C4.64757 22.0044 4.98955 21.9946 5.30223 22.2389C5.55627 22.4343 5.781 22.6493 6.04482 22.8643Z" fill="white"/>
</g>
<defs>
<clipPath id="clip0_372_7749">
<rect width="32" height="39.9536" fill="white"/>
</clipPath>
</defs>
</svg>
