<svg width="63" height="79" viewBox="0 0 63 79" fill="none" xmlns="http://www.w3.org/2000/svg">
<path d="M52.4771 0C55.6283 3.24732 58.7603 6.49463 61.9308 9.70352C62.6225 10.4145 62.9107 11.1254 62.9107 12.1246C62.8723 33.2994 62.8915 54.4742 62.8915 75.649C62.8915 75.9372 62.8915 76.2063 62.8915 76.4945C62.8531 77.7434 62.0653 78.5505 60.7971 78.5505C58.645 78.5697 56.493 78.5505 54.3601 78.5505C53.4378 78.5505 52.9382 78.1277 52.919 77.4168C52.8998 76.6674 53.4378 76.2447 54.3986 76.2447C56.1855 76.2447 57.9725 76.2447 59.7787 76.2447C60.0285 76.2447 60.2783 76.2447 60.5665 76.2447C60.5665 54.9546 60.5665 33.7413 60.5665 12.432C60.3167 12.4128 60.0477 12.3936 59.7787 12.3936C57.3577 12.3936 54.9174 12.3936 52.4963 12.3936C51.1705 12.3936 50.8054 12.0285 50.8054 10.7027C50.8054 7.93575 50.8054 5.18802 50.8054 2.36343C34.6649 2.36343 18.5436 2.36343 2.32622 2.36343C2.32622 2.63244 2.32622 2.90145 2.32622 3.17046C2.32622 5.51467 2.32622 7.8781 2.32622 10.2223C2.32622 10.4337 2.32622 10.6258 2.32622 10.8372C2.28779 11.5481 1.82663 12.0477 1.19254 12.0477C0.558451 12.0477 0.0588636 11.5674 0.0396488 10.8564C0.00121899 7.83967 0.00121899 4.82294 0.0204339 1.8062C0.0204339 0.9031 0.71217 0.461157 1.38469 0C18.4091 0 35.4527 0 52.4771 0ZM53.1304 10.0302C55.0711 10.0302 56.9349 10.0302 58.7795 10.0302C58.818 9.95331 58.8756 9.89567 58.9141 9.81881C56.9541 8.01261 54.975 6.18719 53.1304 4.47707C53.1304 6.16798 53.1304 8.08947 53.1304 10.0302Z" fill="white"/>
<path d="M2.30496 76.2639C2.68925 76.2639 2.99669 76.2639 3.30413 76.2639C17.2926 76.2639 31.281 76.2639 45.2695 76.2639C45.5577 76.2639 45.8459 76.2447 46.1149 76.2831C46.7106 76.3792 47.0949 76.7443 47.1141 77.3592C47.1333 78.0317 46.749 78.3968 46.1341 78.5313C45.9035 78.5697 45.673 78.5505 45.4424 78.5505C31.0889 78.5505 16.7353 78.5505 2.40103 78.5505C0.748549 78.5697 -0.000831867 77.8203 -0.000831867 76.187C-0.000831867 57.4333 -0.000831867 38.6988 -0.000831867 19.9451C-0.000831867 19.6953 -0.0200468 19.4263 0.0375979 19.1765C0.191317 18.5616 0.59483 18.1965 1.24814 18.2542C1.86301 18.3118 2.20888 18.6961 2.28574 19.2918C2.32417 19.5608 2.30496 19.849 2.30496 20.1372C2.30496 38.4682 2.30496 56.7992 2.30496 75.1494C2.30496 75.4761 2.30496 75.8027 2.30496 76.2639Z" fill="white"/>
<path d="M22.865 16.332C18.4455 16.332 14.0261 16.332 9.58746 16.332C7.74283 16.332 7.07031 15.6403 7.07031 13.7764C7.07031 11.9894 7.07031 10.2025 7.07031 8.41548C7.07031 6.91672 7.83891 6.12891 9.31845 6.12891C18.3687 6.12891 27.4189 6.12891 36.4691 6.12891C37.9294 6.12891 38.698 6.87829 38.698 8.33862C38.7172 10.2601 38.698 12.1816 38.698 14.0839C38.698 15.5826 37.9679 16.332 36.4307 16.332C31.9152 16.332 27.3804 16.332 22.865 16.332ZM9.41453 13.9686C18.4071 13.9686 27.3612 13.9686 36.3538 13.9686C36.3538 12.1047 36.3538 10.3178 36.3538 8.49234C27.3612 8.49234 18.4071 8.49234 9.41453 8.49234C9.41453 10.337 9.41453 12.124 9.41453 13.9686Z" fill="white"/>
<path d="M38.8122 40.1202C34.2006 40.1202 29.6082 40.1202 24.9967 40.1202C24.7084 40.1202 24.4394 40.1202 24.1512 40.0818C23.4979 40.005 23.1328 39.6207 23.1328 38.9673C23.1328 38.2948 23.5171 37.9297 24.1704 37.8529C24.4202 37.8145 24.6892 37.8145 24.939 37.8145C34.1622 37.8145 43.4045 37.8145 52.6277 37.8145C53.8574 37.8145 54.4531 38.1987 54.4339 38.9866C54.4339 39.7744 53.8574 40.1395 52.6085 40.1395C48.0353 40.1202 43.4238 40.1202 38.8122 40.1202Z" fill="white"/>
<path d="M38.735 24.4406C34.1234 24.4406 29.5311 24.4406 24.9195 24.4406C24.6313 24.4406 24.3623 24.4598 24.074 24.4021C23.4976 24.3061 23.1709 23.9602 23.1325 23.3645C23.0941 22.7881 23.3631 22.3653 23.9395 22.2308C24.2085 22.154 24.4968 22.1348 24.7658 22.1348C34.1042 22.1348 43.4426 22.1348 52.7811 22.1348C53.0501 22.1348 53.3383 22.154 53.6073 22.2308C54.1837 22.3846 54.472 22.8073 54.4143 23.3837C54.3759 23.941 54.0492 24.3253 53.4536 24.4021C53.1846 24.4406 52.8963 24.4406 52.6081 24.4406C47.9965 24.4406 43.3658 24.4406 38.735 24.4406Z" fill="white"/>
<path d="M38.8122 53.5135C43.4237 53.5135 48.0161 53.5135 52.6277 53.5135C52.9159 53.5135 53.1849 53.5136 53.4731 53.552C54.0688 53.6288 54.3954 54.0131 54.4339 54.5704C54.4723 55.1276 54.1841 55.5695 53.6269 55.7233C53.3386 55.8001 53.0312 55.8193 52.7237 55.8193C43.443 55.8193 34.1622 55.8193 24.8622 55.8193C24.5547 55.8193 24.2473 55.8001 23.9591 55.7233C23.3826 55.5695 23.1136 55.166 23.152 54.5896C23.1905 54.0131 23.5171 53.6481 24.0936 53.552C24.3626 53.5136 24.6508 53.5135 24.939 53.5135C29.5698 53.5135 34.1814 53.5135 38.8122 53.5135Z" fill="white"/>
<path d="M18.4283 58.5282C18.4283 59.5081 18.4476 60.4689 18.4283 61.4488C18.4091 62.6594 17.6405 63.4856 16.4108 63.5048C14.4124 63.524 12.4141 63.524 10.435 63.5048C9.28206 63.4856 8.45582 62.6594 8.45582 61.5065C8.4366 59.5081 8.4366 57.5098 8.45582 55.5306C8.47503 54.3585 9.26284 53.5515 10.435 53.5515C12.4525 53.5323 14.4701 53.5323 16.4876 53.5515C17.6405 53.5707 18.3899 54.3585 18.4283 55.4922C18.4476 56.4914 18.4283 57.5098 18.4283 58.5282ZM10.7808 61.1414C12.587 61.1414 14.3356 61.1414 16.0649 61.1414C16.0649 59.3352 16.0649 57.6059 16.0649 55.8573C14.2779 55.8573 12.5486 55.8573 10.7808 55.8573C10.7808 57.6251 10.7808 59.3544 10.7808 61.1414Z" fill="white"/>
<path d="M35.8175 32.1264C32.2051 32.1264 28.6119 32.1264 24.9995 32.1264C24.7113 32.1264 24.4423 32.1264 24.1541 32.1072C23.5392 32.0303 23.1741 31.6845 23.1357 31.0696C23.0973 30.4163 23.4431 30.0128 24.0964 29.8975C24.3462 29.8591 24.596 29.8398 24.865 29.8398C32.1667 29.8398 39.4876 29.8398 46.7892 29.8398C46.9237 29.8398 47.039 29.8398 47.1735 29.8398C48.0766 29.8783 48.5762 30.3202 48.557 31.0504C48.5378 31.7421 48.0574 32.1456 47.1735 32.1456C43.3882 32.1264 39.6029 32.1264 35.8175 32.1264Z" fill="white"/>
<path d="M35.8143 45.5195C39.4651 45.5195 43.1159 45.5195 46.786 45.5195C47.0934 45.5195 47.4008 45.5195 47.7083 45.5772C48.2463 45.6925 48.6306 46.096 48.5345 46.6148C48.4577 47.0183 48.1118 47.4218 47.7851 47.71C47.593 47.883 47.1895 47.8253 46.9013 47.8253C39.542 47.8253 32.1826 47.8253 24.8233 47.8253C24.5928 47.8253 24.3622 47.8061 24.1316 47.7677C23.4783 47.6524 23.1324 47.2489 23.1709 46.5956C23.2093 45.9807 23.5744 45.6156 24.1893 45.558C24.4583 45.5195 24.7465 45.5387 25.0347 45.5387C28.6087 45.5195 32.2019 45.5195 35.8143 45.5195Z" fill="white"/>
<path d="M35.8913 61.1998C39.5229 61.1998 43.1545 61.1998 46.7861 61.1998C47.0359 61.1998 47.3049 61.1806 47.5547 61.219C48.1312 61.2959 48.477 61.6417 48.5347 62.2182C48.5923 62.8331 48.3041 63.2558 47.7084 63.4095C47.4394 63.4864 47.1512 63.4864 46.8822 63.4864C39.5229 63.4864 32.1636 63.4864 24.8043 63.4864C24.5545 63.4864 24.2855 63.4864 24.0549 63.4287C23.4592 63.275 23.1326 62.8907 23.171 62.2566C23.2094 61.6417 23.5745 61.2767 24.1894 61.1998C24.4392 61.1614 24.7082 61.1806 24.958 61.1806C28.5896 61.1998 32.2405 61.1998 35.8913 61.1998Z" fill="white"/>
<path d="M33.6041 28.2648C30.6835 28.2648 27.782 28.2648 24.8614 28.2648C24.5731 28.2648 24.2849 28.284 24.0159 28.2264C23.4779 28.1111 23.0744 27.746 23.1704 27.2272C23.2473 26.8237 23.5547 26.3818 23.8814 26.1128C24.0928 25.9398 24.5155 25.9782 24.8421 25.9782C30.7411 25.9782 36.6401 25.9782 42.5391 25.9782C42.8465 25.9782 43.1539 25.9975 43.4422 26.0743C43.9994 26.2473 44.2492 26.67 44.2108 27.2464C44.1723 27.8037 43.8457 28.1495 43.3077 28.2456C43.0386 28.284 42.7504 28.284 42.4622 28.284C39.5223 28.284 36.5632 28.2648 33.6041 28.2648Z" fill="white"/>
<path d="M33.7392 57.3558C36.6791 57.3558 39.619 57.3558 42.5588 57.3558C42.8471 57.3558 43.1929 57.279 43.3851 57.4135C43.731 57.6633 44.0768 58.0092 44.2113 58.3742C44.3843 58.8738 44.0768 59.335 43.558 59.5271C43.2506 59.6424 42.9047 59.6617 42.5781 59.6617C36.6599 59.6617 30.7225 59.6617 24.8043 59.6617C24.5545 59.6617 24.2855 59.6617 24.0549 59.604C23.4592 59.4695 23.1326 59.066 23.171 58.4511C23.2094 57.8362 23.5745 57.4711 24.1894 57.3943C24.4392 57.3559 24.7082 57.3751 24.958 57.3751C27.8595 57.3558 30.7993 57.3558 33.7392 57.3558Z" fill="white"/>
<path d="M33.6636 43.9832C30.7429 43.9832 27.8415 43.9832 24.9208 43.9832C24.5942 43.9832 24.2483 43.9832 23.9409 43.8871C23.3644 43.7334 23.1146 43.3299 23.1338 42.7342C23.1723 42.177 23.4605 41.8311 23.9985 41.7158C24.2675 41.6582 24.5557 41.6582 24.844 41.6582C30.7237 41.6582 36.5843 41.6582 42.464 41.6582C43.713 41.6582 44.251 42.0233 44.2318 42.8495C44.2126 43.6373 43.6746 43.964 42.4832 43.964C39.5434 43.9832 36.6035 43.9832 33.6636 43.9832Z" fill="white"/>
<path d="M11.8945 29.3019C13.4702 27.2459 14.9881 25.2475 16.4869 23.2492C16.6214 23.057 16.7559 22.8841 16.9096 22.7111C17.4284 22.1155 18.0625 22.0002 18.6005 22.4037C19.1193 22.8072 19.2154 23.4797 18.735 24.1138C17.6014 25.6318 16.4485 27.1306 15.3148 28.6293C14.6038 29.5709 13.8929 30.5124 13.1819 31.4347C12.4902 32.3186 11.9137 32.357 11.0491 31.6269C10.3573 31.0312 9.64639 30.4355 8.97387 29.8014C8.37821 29.2442 8.30135 28.6293 8.74329 28.1105C9.18523 27.5725 9.85775 27.5725 10.5111 28.0913C10.953 28.4564 11.3757 28.8599 11.8945 29.3019Z" fill="white"/>
<path d="M11.894 44.9627C13.5081 42.849 15.0453 40.8122 16.5824 38.7947C16.7554 38.5641 16.9283 38.3527 17.1205 38.1606C17.5816 37.7379 18.1004 37.7379 18.5808 38.1029C19.042 38.4488 19.138 38.9484 18.8882 39.4672C18.7922 39.6786 18.6577 39.8707 18.5232 40.0436C16.7554 42.3686 15.0068 44.6744 13.2391 46.9994C12.4705 47.9986 11.894 48.0563 10.9525 47.23C10.28 46.6344 9.58823 46.0579 8.93493 45.4623C8.33926 44.905 8.28162 44.2901 8.72356 43.7713C9.14629 43.2718 9.81881 43.2525 10.4337 43.7329C10.9333 44.1172 11.3752 44.5399 11.894 44.9627Z" fill="white"/>
</svg>
