<svg width="32" height="33" viewBox="0 0 32 33" fill="none" xmlns="http://www.w3.org/2000/svg">
<g clip-path="url(#clip0_372_7771)">
<path d="M29.0842 0C29.2796 0.0509689 29.4665 0.101938 29.6619 0.161402C31.0635 0.611627 31.9725 1.86037 31.9895 3.41492C32.0065 5.07991 32.015 6.74489 31.9895 8.40138C31.964 10.3892 30.5369 11.8418 28.5576 11.7823C27.5637 11.7568 26.7736 12.0117 26.0176 12.6403C25.1596 13.3454 24.2337 13.9655 23.3332 14.6196C23.2568 14.6706 23.1803 14.7215 23.0614 14.8065C23.0614 13.7786 23.0614 12.7932 23.0614 11.7908C22.3988 11.6549 21.8042 11.4085 21.3115 10.9668C20.5894 10.3127 20.1986 9.50571 20.1901 8.5373C20.1732 7.45846 20.1901 6.37961 20.1901 5.27529C20.5129 5.27529 20.8103 5.27529 21.1416 5.27529C21.1416 5.72551 21.1416 6.15025 21.1416 6.58349C21.1416 7.18662 21.1416 7.78975 21.1416 8.39289C21.1501 9.80303 22.144 10.8139 23.5456 10.8564C23.6815 10.8564 23.8174 10.8564 23.9788 10.8564C23.9788 11.5445 23.9788 12.2071 23.9788 12.9461C24.1233 12.8527 24.2167 12.7932 24.3016 12.7337C25.0917 12.1561 25.8732 11.5784 26.6632 11.0178C26.7906 10.9243 26.969 10.8734 27.1219 10.8649C27.6061 10.8479 28.0988 10.8649 28.583 10.8564C29.9847 10.8309 30.9956 9.854 31.0211 8.46084C31.0465 6.75339 31.055 5.04593 31.0211 3.34696C30.9956 1.92833 29.9677 0.959915 28.5491 0.959915C26.9096 0.959915 25.2616 0.959915 23.6221 0.959915C22.144 0.959915 21.1331 1.97929 21.1331 3.45739C21.1331 3.72073 21.1331 3.98407 21.1331 4.2729C20.8103 4.2729 20.5129 4.2729 20.2156 4.2729C19.9438 2.18317 20.8527 0.747545 22.4838 0.169896C22.6706 0.101938 22.866 0.0594638 23.0529 0C25.0577 0 27.071 0 29.0842 0Z" fill="white"/>
<path d="M4.61269 31.6013C5.72551 31.6013 6.79586 31.6013 7.86621 31.6013C8.30794 31.6013 8.75816 31.5758 9.19989 31.6098C9.71808 31.6522 10.0324 31.5758 10.2787 30.9981C10.678 30.0552 11.536 29.6305 12.5553 29.7154C13.5662 29.8004 14.2628 30.3525 14.6111 31.3124C14.696 31.5418 14.7895 31.6267 15.0273 31.6098C15.3332 31.5843 15.639 31.6013 15.9703 31.6013C15.9703 31.9156 15.9703 32.2129 15.9703 32.5357C10.661 32.5357 5.35174 32.5357 0 32.5357C0.0339793 32.0345 0.0594638 31.5418 0.0934431 31.0491C0.220865 29.4351 0.331298 27.8126 0.47571 26.1986C0.543669 25.4765 0.72206 24.7799 1.07884 24.1428C1.60552 23.1914 2.47199 22.6392 3.4404 22.2655C5.28378 21.5519 7.14415 20.8808 9.00451 20.2097C9.25086 20.1163 9.3528 19.9888 9.36129 19.734C9.37828 19.3772 9.53969 18.961 9.41226 18.6721C9.29334 18.4088 8.87709 18.2814 8.59676 18.0775C7.10167 16.9987 6.00584 15.631 5.60658 13.7791C5.53862 13.4648 5.51314 13.125 5.51314 12.8022C5.50465 11.2732 5.50465 9.75258 5.51314 8.22351C5.52164 5.15688 7.82373 2.86328 10.8904 2.86328C13.5492 2.86328 16.2081 2.86328 18.867 2.86328C18.9689 2.86328 19.0794 2.86328 19.2323 2.86328C19.2323 2.9992 19.2323 3.12662 19.2323 3.24555C19.2323 6.31218 19.1983 9.37031 19.2408 12.4369C19.2663 14.2209 18.5952 15.6905 17.4229 16.9732C16.8622 17.5933 16.2166 18.103 15.4776 18.4938C15.3077 18.5872 15.2482 18.6891 15.2822 18.8675C15.3077 19.0034 15.3417 19.1479 15.3247 19.2753C15.2397 19.9549 15.622 20.1927 16.2081 20.3966C17.8561 20.9573 19.4871 21.5859 21.1266 22.1975C21.2031 22.223 21.2795 22.2655 21.3645 22.2994C23.0804 22.979 24.0743 24.2363 24.2442 26.0711C24.4481 28.2203 24.5925 30.378 24.7624 32.5527C22.7916 32.5527 20.8548 32.5527 18.8925 32.5527C18.8925 32.2554 18.8925 31.958 18.8925 31.6267C19.2917 31.6267 19.691 31.6267 20.1072 31.6267C20.1157 31.5078 20.1242 31.4144 20.1242 31.3209C20.1242 29.571 20.1242 27.8211 20.1242 26.0796C20.1242 25.5784 19.9798 25.4255 19.4871 25.4255C14.7385 25.4255 9.98991 25.4255 5.24131 25.4255C4.7656 25.4255 4.61269 25.5784 4.61269 26.0457C4.61269 27.8041 4.61269 29.5625 4.61269 31.3209C4.61269 31.3974 4.61269 31.4823 4.61269 31.6013ZM18.2724 12.1141C18.2724 11.9358 18.2724 11.7574 18.2724 11.5705C18.2724 10.8569 18.2724 10.8484 17.5758 10.7125C14.5856 10.1094 11.6039 9.51473 8.61375 8.91159C8.41837 8.86912 8.28245 8.9031 8.13804 9.05601C7.77276 9.44677 7.39899 9.85452 6.99124 10.1943C6.5665 10.5426 6.4051 10.9419 6.45607 11.4855C6.52402 12.2076 6.42209 12.9636 6.57499 13.6687C6.98275 15.4866 8.16353 16.7693 9.75206 17.6783C10.8734 18.3154 12.0881 18.5362 13.3709 18.2729C14.8829 17.9671 16.0722 17.1431 17.0236 15.9623C17.9411 14.8495 18.4338 13.5837 18.2724 12.1141ZM1.01938 31.5843C1.91983 31.5843 2.77781 31.5843 3.66127 31.5843C3.66127 31.4569 3.66127 31.3379 3.66127 31.2275C3.66127 29.503 3.66127 27.7701 3.66127 26.0457C3.66127 25.0263 4.23042 24.4571 5.2583 24.4571C9.98991 24.4571 14.73 24.4571 19.4616 24.4571C20.515 24.4571 21.0757 25.0178 21.0757 26.0626C21.0757 27.7871 21.0757 29.52 21.0757 31.2445C21.0757 31.3549 21.0757 31.4653 21.0757 31.5843C21.9761 31.5843 22.8341 31.5843 23.7091 31.5843C23.6751 31.1086 23.6496 30.6498 23.6156 30.1996C23.5137 28.8829 23.4117 27.5577 23.3013 26.241C23.1739 24.8054 22.4773 23.7605 21.1181 23.2339C19.6995 22.6817 18.2724 22.1635 16.8452 21.6283C16.361 21.45 15.8768 21.2801 15.3926 21.1017C14.9424 22.5203 14.0504 23.4038 12.5638 23.4802C10.8904 23.5652 9.86249 22.6562 9.34431 21.1017C8.18052 21.5264 7.03371 21.9342 5.89541 22.3674C4.98646 22.7157 4.07752 23.0555 3.19405 23.4632C2.27661 23.8795 1.71595 24.6355 1.55455 25.6294C1.42713 26.4194 1.34218 27.2264 1.27422 28.0249C1.17229 29.1887 1.10433 30.378 1.01938 31.5843ZM18.2639 3.83169C18.1619 3.8232 18.077 3.8232 17.992 3.8232C15.5795 3.8232 13.167 3.8147 10.746 3.8232C8.26546 3.84019 5.99734 5.89593 6.51553 9.34483C6.96575 8.89461 7.39899 8.46137 7.82373 8.01964C7.95115 7.88372 8.07008 7.84125 8.26546 7.87523C10.8734 8.4019 13.4898 8.92009 16.1062 9.44677C16.8198 9.59118 17.5333 9.7271 18.2639 9.87151C18.2639 7.84125 18.2639 5.85346 18.2639 3.83169ZM10.3977 18.9949C10.3467 19.4707 10.2957 19.9039 10.2702 20.3286C10.2108 21.3905 10.9753 22.3504 12.0032 22.5033C13.116 22.6732 14.1864 22.0361 14.3902 20.9573C14.5092 20.3371 14.4072 19.666 14.3987 18.978C13.0141 19.4367 11.7229 19.4452 10.3977 18.9949ZM13.6937 31.5928C13.4558 30.9642 12.9036 30.6074 12.275 30.6498C11.6974 30.6838 11.1792 31.0916 11.0772 31.5928C11.9352 31.5928 12.8017 31.5928 13.6937 31.5928Z" fill="white"/>
<path d="M26.1805 7.81447C25.8577 7.74651 25.5774 7.69554 25.2461 7.62758C25.4924 6.41282 25.7303 5.22355 25.9766 4.00879C26.2995 4.07675 26.5883 4.12772 26.9111 4.19568C26.6647 5.41043 26.4269 6.59971 26.1805 7.81447Z" fill="white"/>
<path d="M23.811 7.46643C23.2843 6.93975 22.7661 6.42157 22.2734 5.93737C22.7831 5.42768 23.3013 4.90949 23.8365 4.38281C23.9894 4.5612 24.1933 4.78207 24.4311 5.04541C24.1678 5.27477 23.845 5.5551 23.4882 5.86941C23.8705 6.22619 24.1848 6.50652 24.4991 6.80384C24.2357 7.05019 24.0234 7.26256 23.811 7.46643Z" fill="white"/>
<path d="M28.6435 5.89557C28.3037 5.57277 27.9979 5.29244 27.6836 4.99512C27.9299 4.76576 28.1593 4.56189 28.3547 4.375C28.8559 4.8677 29.3741 5.38588 29.8668 5.87858C29.3741 6.37978 28.8474 6.90646 28.3207 7.44163C28.1423 7.26324 27.9384 7.04238 27.6836 6.77904C27.9809 6.5072 28.2867 6.21838 28.6435 5.89557Z" fill="white"/>
<path d="M17.8894 32.5437C17.5751 32.5437 17.2863 32.5437 16.9805 32.5437C16.9805 32.2379 16.9805 31.9491 16.9805 31.6348C17.2778 31.6348 17.5751 31.6348 17.8894 31.6348C17.8894 31.9236 17.8894 32.2209 17.8894 32.5437Z" fill="white"/>
<path d="M15.394 5.70846C15.0797 5.70846 14.7909 5.70846 14.4766 5.70846C14.4766 5.40264 14.4766 5.10532 14.4766 4.79102C14.7739 4.79102 15.0797 4.79102 15.394 4.79102C15.394 5.08833 15.394 5.37716 15.394 5.70846Z" fill="white"/>
<path d="M17.3042 4.78223C17.3042 5.09653 17.3042 5.38536 17.3042 5.69966C16.9983 5.69966 16.701 5.69966 16.3867 5.69966C16.3867 5.39385 16.3867 5.09653 16.3867 4.78223C16.6925 4.78223 16.9814 4.78223 17.3042 4.78223Z" fill="white"/>
</g>
<defs>
<clipPath id="clip0_372_7771">
<rect width="32" height="32.5437" fill="white"/>
</clipPath>
</defs>
</svg>
