<svg width="282" height="108" viewBox="0 0 282 108" fill="none" xmlns="http://www.w3.org/2000/svg">
<path d="M37.4553 55.4661C46.5434 55.4661 53.9107 48.0965 53.9107 39.0055C53.9107 29.9146 46.5434 22.5449 37.4553 22.5449C28.3673 22.5449 21 29.9146 21 39.0055C21 48.0965 28.3673 55.4661 37.4553 55.4661Z" fill="#00C1FF"/>
<path d="M40.2763 14.2085C43.158 14.2085 45.4941 11.7827 45.4941 8.79031C45.4941 5.7979 43.158 3.37207 40.2763 3.37207C37.3947 3.37207 35.0586 5.7979 35.0586 8.79031C35.0586 11.7827 37.3947 14.2085 40.2763 14.2085Z" fill="#00C1FF"/>
<path d="M63.1334 20.3216C68.4538 20.3216 72.7668 15.8429 72.7668 10.318C72.7668 4.79321 68.4538 0.314453 63.1334 0.314453C57.813 0.314453 53.5 4.79321 53.5 10.318C53.5 15.8429 57.813 20.3216 63.1334 20.3216Z" fill="#00C1FF"/>
<path d="M75.5035 65.8566C80.3638 65.8566 84.3039 61.7652 84.3039 56.7181C84.3039 51.6711 80.3638 47.5796 75.5035 47.5796C70.6432 47.5796 66.7031 51.6711 66.7031 56.7181C66.7031 61.7652 70.6432 65.8566 75.5035 65.8566Z" fill="#00C1FF"/>
<path d="M13.3679 63.3923C16.9172 63.3923 19.7944 60.4045 19.7944 56.7188C19.7944 53.0332 16.9172 50.0454 13.3679 50.0454C9.81865 50.0454 6.94141 53.0332 6.94141 56.7188C6.94141 60.4045 9.81865 63.3923 13.3679 63.3923Z" fill="#00C1FF"/>
<path d="M40.2762 10.688H39.0703V25.4143H40.2762V10.688Z" fill="#00C1FF"/>
<path d="M26.3785 47.1845L25.6602 46.1787L14.2697 54.9512L14.9881 55.957L26.3785 47.1845Z" fill="#00C1FF"/>
<path d="M42.7734 8.16301V9.41528L56.9548 9.41528V8.16301H42.7734Z" fill="#00C1FF"/>
<path d="M58.3942 18.6594L57.6758 17.6536L46.2853 26.426L47.0037 27.4318L58.3942 18.6594Z" fill="#00C1FF"/>
<path d="M71.1732 55.7657L71.7266 54.5293L48.2032 43.1763L47.6499 44.4127L71.1732 55.7657Z" fill="#00C1FF"/>
<path d="M258.89 76.0397C259.4 75.3792 259.878 74.691 260.424 74.0641C262.821 71.3199 265.802 69.9522 269.384 69.9434C271.669 69.939 273.871 70.2722 275.879 71.4616C278.734 73.1523 280.105 75.9009 280.808 79.098C281.371 81.6581 281.358 84.2576 281.304 86.8615C281.27 88.5157 281.25 90.1698 281.225 91.8253C281.157 96.0585 281.09 100.293 281.019 104.526C281.015 104.817 280.998 105.114 280.946 105.399C280.828 106.039 280.492 106.477 279.819 106.48C277.264 106.49 274.707 106.506 272.151 106.474C271.273 106.464 270.747 105.855 270.682 104.934C270.663 104.643 270.671 104.35 270.671 104.057C270.671 98.2869 270.699 92.515 270.65 86.7446C270.637 85.3229 270.49 83.8762 270.196 82.4881C269.751 80.3927 268.562 78.8759 266.424 78.4492C264.239 78.0123 262.273 78.496 260.721 80.2495C259.304 81.851 258.729 83.8032 258.723 85.938C258.709 92.0986 258.719 98.2591 258.717 104.418C258.717 105.953 258.211 106.484 256.739 106.487C254.511 106.492 252.284 106.492 250.056 106.489C248.755 106.487 248.218 105.955 248.159 104.618C248.148 104.376 248.154 104.132 248.154 103.888C248.154 88.013 248.154 72.1367 248.154 56.2619C248.154 56.0428 248.15 55.8236 248.157 55.6044C248.197 54.1446 248.743 53.5952 250.155 53.5952C252.382 53.5937 254.61 53.5923 256.837 53.5952C258.118 53.5967 258.716 54.2235 258.716 55.5664C258.717 62.0922 258.717 68.6181 258.717 75.1425C258.717 75.4245 258.717 75.7065 258.717 75.9885C258.775 76.0105 258.833 76.0251 258.89 76.0397Z" fill="#002194"/>
<path d="M49.0522 107.512C46.1816 107.383 43.3842 107.022 40.7218 105.893C35.9713 103.879 32.8178 100.306 31.4135 95.1966C30.185 90.7252 30.2174 86.1866 31.5781 81.7533C33.1963 76.4811 36.6847 72.9552 41.6914 71.2017C46.7065 69.4453 51.8384 69.3533 56.869 71.1199C62.8593 73.2241 66.3392 77.7217 67.4564 84.1234C68.1811 88.2776 67.956 92.4348 66.4447 96.3948C64.2439 102.164 60.0562 105.565 54.2657 106.834C52.5574 107.206 50.7915 107.293 49.0522 107.512ZM41.2622 88.7043C41.3255 89.5518 41.3536 90.4037 41.4564 91.2454C41.9404 95.2185 43.6839 98.5048 48.2952 98.9651C52.0255 99.3362 55.1438 97.9071 56.33 93.7763C57.3151 90.3482 57.3362 86.869 56.3877 83.4293C55.8741 81.5706 54.8652 79.9662 53.102 79.1873C52.0087 78.7051 50.776 78.4158 49.5883 78.3442C46.6544 78.1674 44.0441 79.3466 42.5174 82.4766C41.5633 84.4346 41.3072 86.5417 41.2622 88.7043Z" fill="#002194"/>
<path d="M199.769 91.8007C196.745 91.8007 193.72 91.7978 190.696 91.8021C189.303 91.8036 188.567 92.8674 189 94.2585C189.92 97.2087 192.004 98.7634 194.824 99.3158C198.452 100.026 202.001 99.6314 205.439 98.2286C207.027 97.5813 208.038 98.2652 208.049 100.027C208.056 101.147 208.043 102.267 208.053 103.387C208.061 104.342 207.672 105.001 206.808 105.377C204.634 106.324 202.368 106.94 200.028 107.123C197.885 107.29 195.718 107.399 193.575 107.275C185.295 106.796 179.572 101.636 178.413 93.2605C177.799 88.8315 177.933 84.4361 179.731 80.3081C182.312 74.3828 186.768 70.9036 193.023 70.0985C196.544 69.6455 199.996 69.9889 203.221 71.6737C207.178 73.7414 209.381 77.2147 210.455 81.5662C211.161 84.4317 211.062 87.3571 211.015 90.2737C211.004 91.0072 210.572 91.4924 209.887 91.6736C209.552 91.7627 209.193 91.7919 208.845 91.7934C205.818 91.8036 202.793 91.8007 199.769 91.8007ZM195.035 85.082C196.324 85.082 197.613 85.082 198.902 85.082C198.926 85.082 198.949 85.082 198.973 85.082C200.691 85.0644 201.361 84.2593 201.074 82.5043C200.3 77.786 196.81 76.6974 193.668 77.5522C191.364 78.1776 190.058 80.0495 189.189 82.2501C188.509 83.9714 189.229 85.0644 191.029 85.0805C192.365 85.0907 193.7 85.0805 195.035 85.082Z" fill="#002194"/>
<path d="M168.097 87.4413C168.097 89.5601 168.035 91.6818 168.124 93.7962C168.166 94.7957 168.364 95.8361 168.722 96.7625C169.371 98.4458 171.184 99.4263 173.032 98.9558C175.161 98.4137 176.018 99.3956 175.852 101.46C175.763 102.572 175.841 103.699 175.835 104.82C175.829 105.828 175.424 106.407 174.486 106.69C172.276 107.356 170.011 107.429 167.734 107.346C166.012 107.282 164.344 106.95 162.775 106.166C159.881 104.716 158.45 102.172 157.905 99.0216C157.691 97.7839 157.607 96.5097 157.597 95.2501C157.562 90.5508 157.584 85.85 157.583 81.1507C157.583 79.5127 156.944 78.8405 155.379 78.8288C154.77 78.8244 154.159 78.8376 153.55 78.8244C152.659 78.804 152.012 78.2122 151.992 77.2975C151.956 75.6667 151.957 74.0345 151.989 72.4038C152.008 71.4935 152.639 70.8695 153.523 70.8301C154.225 70.7979 154.93 70.8198 155.634 70.8125C156.895 70.7994 157.577 70.0907 157.584 68.7683C157.591 67.3319 157.579 65.894 157.588 64.4576C157.595 63.4845 157.967 62.9467 158.848 62.6837C161.229 61.9721 163.612 61.2692 166 60.5854C167.143 60.2581 168.08 60.9901 168.09 62.2205C168.108 64.4123 168.093 66.6042 168.097 68.796C168.1 70.1111 168.775 70.8052 170.059 70.8111C171.395 70.8184 172.732 70.8023 174.069 70.8169C175.244 70.8301 175.828 71.454 175.832 72.6741C175.838 74.1354 175.839 75.5966 175.831 77.0578C175.825 78.1961 175.23 78.8186 174.144 78.8259C172.831 78.8347 171.516 78.8186 170.204 78.8318C168.739 78.8464 168.096 79.52 168.094 81.0148C168.096 83.1555 168.097 85.2977 168.097 87.4413Z" fill="#002194"/>
<path d="M232.218 107.292C228.792 107.433 225.484 106.875 222.481 105.08C217.696 102.221 214.933 97.9143 214.307 92.2067C213.846 88.0057 214.207 83.885 216.015 80.0347C218.552 74.6354 222.847 71.5537 228.43 70.4315C232.467 69.6205 236.533 69.6556 240.532 70.8289C241.966 71.2498 242.243 71.6838 242.243 73.2312C242.243 74.7158 242.249 76.2004 242.242 77.6865C242.233 79.2339 241.154 79.9689 239.768 79.3713C236.648 78.027 233.479 77.8458 230.344 79.1901C226.986 80.6294 225.367 83.451 224.946 87.0968C224.7 89.2273 224.843 91.3285 225.616 93.3348C226.881 96.6226 229.314 98.3614 232.621 98.886C235.123 99.2835 237.508 98.8392 239.818 97.8193C241.137 97.2363 242.229 97.999 242.24 99.4968C242.251 101.006 242.242 102.516 242.243 104.025C242.243 104.895 241.873 105.495 241.089 105.841C239.039 106.749 236.875 107.114 234.674 107.285C233.862 107.345 233.037 107.292 232.218 107.292Z" fill="#002194"/>
<path d="M18.2547 107.293C14.7537 107.426 11.3863 106.833 8.33703 104.953C3.78347 102.144 1.09861 98.0044 0.410504 92.5321C-0.0623017 88.7665 0.181137 85.0448 1.48417 81.4721C3.35006 76.3519 6.875 72.9151 11.8268 71.1704C16.5084 69.5221 21.3026 69.5601 26.101 70.6751C26.5091 70.77 26.9045 70.9337 27.2957 71.093C27.867 71.3253 28.2399 71.7651 28.2469 72.4095C28.2709 74.3077 28.3187 76.2073 28.2399 78.1025C28.1878 79.365 27.0635 79.9115 25.8379 79.3708C23.0855 78.1551 20.2627 77.9637 17.3935 78.8053C13.9291 79.8223 11.4623 82.9391 11.0543 86.6609C10.77 89.2444 10.8699 91.765 12.0322 94.1322C13.4352 96.9903 15.7725 98.4399 18.7641 98.8929C21.2477 99.2699 23.6075 98.8183 25.897 97.8115C27.1733 97.2504 28.2371 97.9328 28.2765 99.3692C28.3201 100.95 28.292 102.534 28.2849 104.117C28.2807 104.998 27.8515 105.543 27.0663 105.879C25.0274 106.751 22.8899 107.12 20.7116 107.282C19.8983 107.345 19.0751 107.293 18.2547 107.293Z" fill="#002194"/>
<path d="M150.011 85.6142C149.998 83.9703 149.883 82.3001 149.583 80.6884C148.653 75.6866 145.88 72.3608 141.074 70.9639C138.44 70.1982 135.751 70.1982 133.056 70.264C126.098 70.4364 119.141 70.6337 112.182 70.8061C110.65 70.8441 110.278 71.1626 109.99 72.7393C108.958 78.3899 106.791 90.0549 106.303 92.368C106.252 92.6047 106.268 92.8502 106.347 93.0782C106.628 93.8935 107.162 95.6032 107.162 95.6032C107.266 96.0766 106.919 96.5266 106.452 96.5266H104.305C103.846 96.5266 103.501 96.0912 103.592 95.6236C103.592 95.6236 104.084 93.8833 104.353 93.0782C104.43 92.8487 104.443 92.5813 104.392 92.3446C102.958 85.7019 101.502 79.0577 100.048 72.4193C99.7796 71.1904 99.3208 70.8149 98.0825 70.8119C95.9605 70.8076 93.8399 70.8061 91.7179 70.8119C90.7006 70.8149 89.814 71.5338 89.5664 72.5581C88.1241 78.5024 85.252 90.0549 84.6371 92.3446C84.5724 92.5843 84.5766 92.8414 84.6498 93.0782C84.9059 93.914 85.404 95.6032 85.404 95.6032C85.5081 96.0766 85.162 96.5266 84.6948 96.5266H82.5503C82.0916 96.5266 81.7468 96.0912 81.8369 95.6236C81.8369 95.6236 82.3294 93.8672 82.5911 93.0782C82.6643 92.856 82.684 92.5755 82.6446 92.3446C82.4715 91.3539 82.2562 90.3807 82.0634 89.3944C80.9504 83.7087 79.8401 78.0231 78.7158 72.3404C78.4864 71.1845 78.0389 70.8192 76.9259 70.8149C74.7687 70.8061 72.6087 70.866 70.4544 70.7929C68.9557 70.7433 68.4013 72.0043 68.7193 73.2127C71.5182 83.8213 74.2776 94.44 77.0511 105.056C77.3396 106.158 77.773 106.497 78.8495 106.497C81.3359 106.495 83.821 106.495 86.3074 106.497C87.7089 106.497 88.0635 106.201 88.3999 104.787C90.1729 97.3347 91.9473 89.8839 93.7246 82.4331C94.089 82.4316 94.0566 82.4331 94.4225 82.4316C94.4464 82.5178 94.4689 82.6026 94.4872 82.6903C96.0548 90.1119 97.6153 97.5364 99.1815 104.958C99.4235 106.106 99.9006 106.491 101.054 106.494C103.531 106.498 106.006 106.495 108.483 106.497C109.514 106.497 110.42 105.784 110.696 104.75C112.963 96.2709 115.23 87.7914 117.494 79.3104C117.914 77.7396 117.908 77.6622 119.438 77.6257C124.591 77.5029 129.744 77.3787 134.897 77.3758C137.574 77.3743 139.284 78.9174 139.898 81.5242C140.166 82.6669 139.615 83.6591 138.55 83.8256C136.792 84.1004 135.019 84.2757 133.266 84.5796C131.01 84.9698 128.723 85.281 126.531 85.9254C123.587 86.7905 121.208 88.5732 119.899 91.5731C118.928 93.7985 118.713 96.1511 118.983 98.5665C119.386 102.163 121.032 104.895 124.183 106.527C126.269 107.609 128.518 107.806 130.822 107.628C134.532 107.341 137.382 105.559 139.449 102.366L140.079 102.57C140.079 103.324 140.078 104.08 140.081 104.834C140.083 106.226 140.66 106.841 141.994 106.847C144.035 106.856 146.075 106.856 148.115 106.847C149.444 106.841 150.029 106.215 150.029 104.828C150.031 98.4233 150.059 92.0188 150.011 85.6142ZM137.307 98.6352C136.157 99.5616 134.828 99.962 133.292 99.9211C130.916 99.9255 129.23 98.8222 128.757 96.74C128.26 94.5496 128.975 92.6573 130.859 91.6082C132.216 90.8527 133.712 90.7329 135.188 90.5137C136.181 90.3661 137.179 90.2492 138.174 90.1119C139.084 89.9862 140.029 90.6759 140.089 91.6125C140.271 94.4166 139.521 96.8525 137.307 98.6352Z" fill="#002194"/>
</svg>
