<svg width="86" height="33" viewBox="0 0 86 33" fill="none" xmlns="http://www.w3.org/2000/svg">
<path d="M11.3876 16.8527C14.1646 16.8527 16.4158 14.6007 16.4158 11.8228C16.4158 9.04491 14.1646 6.79297 11.3876 6.79297C8.61059 6.79297 6.35938 9.04491 6.35938 11.8228C6.35938 14.6007 8.61059 16.8527 11.3876 16.8527Z" fill="#00C1FF"/>
<path d="M12.2467 4.24586C13.1273 4.24586 13.8411 3.5046 13.8411 2.59022C13.8411 1.67583 13.1273 0.93457 12.2467 0.93457C11.3662 0.93457 10.6523 1.67583 10.6523 2.59022C10.6523 3.5046 11.3662 4.24586 12.2467 4.24586Z" fill="#00C1FF"/>
<path d="M19.2327 6.11357C20.8585 6.11357 22.1764 4.745 22.1764 3.05678C22.1764 1.36857 20.8585 0 19.2327 0C17.607 0 16.2891 1.36857 16.2891 3.05678C16.2891 4.745 17.607 6.11357 19.2327 6.11357Z" fill="#00C1FF"/>
<path d="M23.0133 20.0273C24.4985 20.0273 25.7025 18.7771 25.7025 17.2348C25.7025 15.6926 24.4985 14.4424 23.0133 14.4424C21.5282 14.4424 20.3242 15.6926 20.3242 17.2348C20.3242 18.7771 21.5282 20.0273 23.0133 20.0273Z" fill="#00C1FF"/>
<path d="M4.02624 19.2747C5.11078 19.2747 5.98998 18.3617 5.98998 17.2355C5.98998 16.1093 5.11078 15.1963 4.02624 15.1963C2.9417 15.1963 2.0625 16.1093 2.0625 17.2355C2.0625 18.3617 2.9417 19.2747 4.02624 19.2747Z" fill="#00C1FF"/>
<path d="M12.2474 3.16992H11.8789V7.66981H12.2474V3.16992Z" fill="#00C1FF"/>
<path d="M8.00076 14.321L7.78125 14.0137L4.30068 16.6943L4.52019 17.0016L8.00076 14.321Z" fill="#00C1FF"/>
<path d="M13.0117 2.39859V2.78125L17.3451 2.78125V2.39859L13.0117 2.39859Z" fill="#00C1FF"/>
<path d="M17.7859 5.6052L17.5664 5.29785L14.0858 7.97844L14.3053 8.28579L17.7859 5.6052Z" fill="#00C1FF"/>
<path d="M21.6903 16.9442L21.8594 16.5664L14.6714 13.0973L14.5023 13.4751L21.6903 16.9442Z" fill="#00C1FF"/>
<path d="M79.0507 23.1391C79.2064 22.9373 79.3526 22.727 79.5194 22.5355C80.2517 21.6969 81.1628 21.279 82.2571 21.2763C82.9554 21.275 83.6284 21.3768 84.2419 21.7402C85.1144 22.2568 85.5332 23.0967 85.7482 24.0737C85.9202 24.8559 85.9163 25.6503 85.8995 26.446C85.8892 26.9514 85.8832 27.4568 85.8754 27.9627C85.8548 29.2563 85.8342 30.5502 85.8127 31.8438C85.8114 31.9326 85.8062 32.0233 85.7903 32.1103C85.7542 32.3059 85.6514 32.4399 85.4459 32.4407C84.665 32.4439 83.8838 32.4488 83.1029 32.439C82.8346 32.4358 82.6738 32.2496 82.654 31.9683C82.648 31.8795 82.6506 31.7897 82.6506 31.7004C82.6506 29.9372 82.6592 28.1735 82.6441 26.4102C82.6403 25.9758 82.5951 25.5337 82.5052 25.1096C82.3694 24.4693 82.006 24.0058 81.3529 23.8754C80.6851 23.7419 80.0844 23.8897 79.6101 24.4255C79.1772 24.9149 79.0013 25.5114 78.9996 26.1638C78.9953 28.0462 78.9983 29.9287 78.9979 31.8107C78.9979 32.2796 78.8431 32.4421 78.3933 32.443C77.7126 32.4443 77.032 32.4443 76.3513 32.4434C75.9536 32.443 75.7897 32.2805 75.7717 31.8719C75.7682 31.7978 75.77 31.7232 75.77 31.6486C75.77 26.7978 75.77 21.9465 75.77 17.0957C75.77 17.0287 75.7687 16.9617 75.7708 16.8947C75.7833 16.4487 75.9501 16.2808 76.3814 16.2808C77.0621 16.2803 77.7427 16.2799 78.4234 16.2808C78.8147 16.2812 78.9974 16.4728 78.9974 16.8831C78.9979 18.8772 78.9979 20.8713 78.9979 22.865C78.9979 22.9511 78.9979 23.0373 78.9979 23.1235C79.0155 23.1302 79.0331 23.1347 79.0507 23.1391Z" fill="#002194"/>
<path d="M14.9314 32.7568C14.0542 32.7175 13.1994 32.6072 12.3858 32.2621C10.9342 31.6468 9.97062 30.5551 9.5415 28.9936C9.16612 27.6273 9.17601 26.2405 9.5918 24.8858C10.0863 23.2748 11.1522 22.1974 12.6821 21.6616C14.2146 21.1249 15.7827 21.0967 17.3199 21.6366C19.1504 22.2795 20.2137 23.6539 20.5551 25.61C20.7766 26.8794 20.7078 28.1497 20.246 29.3598C19.5735 31.1226 18.2938 32.1621 16.5244 32.5496C16.0024 32.6635 15.4628 32.6898 14.9314 32.7568ZM12.551 27.0098C12.5703 27.2688 12.5789 27.5291 12.6103 27.7863C12.7582 29.0003 13.291 30.0045 14.7 30.1452C15.8399 30.2586 16.7928 29.8219 17.1552 28.5596C17.4562 27.5121 17.4627 26.449 17.1729 25.3979C17.0159 24.83 16.7076 24.3397 16.1688 24.1017C15.8347 23.9544 15.4581 23.866 15.0952 23.8441C14.1987 23.7901 13.401 24.1504 12.9345 25.1068C12.643 25.7051 12.5647 26.349 12.551 27.0098Z" fill="#002194"/>
<path d="M60.9863 27.9558C60.0622 27.9558 59.1378 27.9549 58.2137 27.9562C57.788 27.9566 57.5632 28.2817 57.6956 28.7068C57.9768 29.6083 58.6136 30.0834 59.4753 30.2521C60.5838 30.4691 61.6682 30.3486 62.7187 29.9199C63.2041 29.7221 63.5129 29.9311 63.5163 30.4696C63.5184 30.8116 63.5146 31.1541 63.5176 31.4961C63.5202 31.7881 63.4011 31.9895 63.137 32.1042C62.4727 32.3936 61.7804 32.582 61.0654 32.6378C60.4105 32.6887 59.7483 32.7222 59.0935 32.6843C56.5635 32.5378 54.8147 30.9612 54.4604 28.4018C54.2729 27.0485 54.3138 25.7054 54.8633 24.444C55.6519 22.6334 57.0136 21.5703 58.9249 21.3242C60.0007 21.1858 61.0555 21.2908 62.041 21.8056C63.2501 22.4374 63.9235 23.4987 64.2516 24.8284C64.4674 25.704 64.4369 26.5979 64.4227 27.4892C64.4193 27.7133 64.2873 27.8615 64.0779 27.9169C63.9755 27.9441 63.8659 27.9531 63.7597 27.9535C62.8348 27.9566 61.9103 27.9558 60.9863 27.9558ZM59.5398 25.9027C59.9337 25.9027 60.3275 25.9027 60.7214 25.9027C60.7287 25.9027 60.7356 25.9027 60.7429 25.9027C61.2679 25.8974 61.4726 25.6513 61.3849 25.1151C61.1484 23.6733 60.082 23.3407 59.1219 23.6019C58.418 23.793 58.0189 24.365 57.7532 25.0374C57.5455 25.5634 57.7657 25.8974 58.3156 25.9023C58.7237 25.9054 59.1317 25.9023 59.5398 25.9027Z" fill="#002194"/>
<path d="M51.3084 26.6237C51.3084 27.2712 51.2895 27.9195 51.3166 28.5656C51.3295 28.871 51.3901 29.1889 51.4993 29.472C51.6975 29.9864 52.2518 30.286 52.8164 30.1422C53.4669 29.9766 53.7288 30.2766 53.6781 30.9075C53.651 31.2473 53.6746 31.5916 53.6729 31.934C53.6712 32.2421 53.5473 32.419 53.2605 32.5056C52.5855 32.7092 51.8932 32.7315 51.1975 32.7061C50.6712 32.6864 50.1616 32.5851 49.6822 32.3453C48.7977 31.9023 48.3604 31.125 48.194 30.1623C48.1287 29.7841 48.1029 29.3948 48.0999 29.0099C48.0891 27.5739 48.096 26.1375 48.0956 24.7015C48.0956 24.201 47.9004 23.9956 47.4222 23.992C47.236 23.9907 47.0494 23.9947 46.8632 23.9907C46.591 23.9844 46.3933 23.8036 46.3872 23.5241C46.3761 23.0258 46.3765 22.5271 46.3864 22.0287C46.392 21.7506 46.585 21.5599 46.8551 21.5479C47.0696 21.538 47.285 21.5447 47.5 21.5425C47.8853 21.5385 48.0938 21.3219 48.096 20.9178C48.0981 20.4789 48.0943 20.0396 48.0973 19.6006C48.0994 19.3033 48.213 19.139 48.4821 19.0586C49.2097 18.8411 49.938 18.6264 50.6677 18.4174C51.0169 18.3174 51.3032 18.5411 51.3063 18.917C51.3118 19.5868 51.3071 20.2566 51.3084 20.9263C51.3093 21.3282 51.5157 21.5403 51.9078 21.5421C52.3163 21.5443 52.7248 21.5394 53.1333 21.5438C53.4923 21.5479 53.6707 21.7385 53.672 22.1114C53.6737 22.5579 53.6742 23.0044 53.6716 23.4509C53.6699 23.7987 53.488 23.9889 53.156 23.9911C52.7549 23.9938 52.3533 23.9889 51.9521 23.9929C51.5045 23.9974 51.308 24.2032 51.3075 24.66C51.308 25.3141 51.3084 25.9687 51.3084 26.6237Z" fill="#002194"/>
<path d="M70.9038 32.6898C69.8567 32.7326 68.8458 32.5621 67.9283 32.0138C66.4663 31.14 65.6218 29.8241 65.4305 28.08C65.2899 26.7963 65.4 25.5372 65.9525 24.3606C66.7277 22.7108 68.0401 21.7691 69.7462 21.4262C70.9799 21.1784 72.2221 21.1891 73.4441 21.5477C73.8823 21.6763 73.967 21.8089 73.967 22.2817C73.967 22.7354 73.9687 23.189 73.9665 23.6431C73.9639 24.116 73.6341 24.3406 73.2106 24.1579C72.2573 23.7472 71.289 23.6918 70.331 24.1026C69.3051 24.5424 68.8102 25.4046 68.6816 26.5186C68.6063 27.1696 68.6502 27.8117 68.8863 28.4247C69.2728 29.4294 70.0163 29.9607 71.0267 30.121C71.7912 30.2425 72.5201 30.1067 73.2261 29.7951C73.629 29.6169 73.9627 29.85 73.9661 30.3077C73.9695 30.7689 73.9665 31.2301 73.967 31.6914C73.967 31.9571 73.8539 32.1406 73.6144 32.2464C72.9879 32.5237 72.3266 32.6353 71.6541 32.6875C71.406 32.7058 71.154 32.6898 70.9038 32.6898Z" fill="#002194"/>
<path d="M5.52077 32.6894C4.45097 32.73 3.42202 32.5488 2.49024 31.9741C1.09882 31.1159 0.278405 29.851 0.0681431 28.1788C-0.0763317 27.0282 -0.00194436 25.8909 0.396221 24.7992C0.96638 23.2346 2.04349 22.1845 3.55661 21.6513C4.98716 21.1477 6.45212 21.1593 7.91837 21.5C8.04306 21.529 8.16389 21.579 8.28342 21.6277C8.458 21.6987 8.57194 21.8331 8.57409 22.03C8.5814 22.61 8.59602 23.1904 8.57194 23.7696C8.55603 24.1553 8.21248 24.3223 7.83796 24.1571C6.99691 23.7856 6.13436 23.7271 5.25762 23.9843C4.199 24.2951 3.44524 25.2475 3.32055 26.3847C3.23369 27.1742 3.26422 27.9444 3.61938 28.6677C4.04808 29.5411 4.76228 29.984 5.67643 30.1224C6.43535 30.2376 7.15644 30.0997 7.85602 29.792C8.24602 29.6206 8.57108 29.8291 8.58312 30.268C8.59645 30.7511 8.58785 31.2351 8.5857 31.7187C8.58441 31.988 8.45327 32.1545 8.21334 32.2572C7.59029 32.5238 6.93714 32.6363 6.27153 32.6858C6.023 32.705 5.77146 32.6894 5.52077 32.6894Z" fill="#002194"/>
<path d="M45.7807 26.0648C45.7768 25.5625 45.7416 25.0522 45.65 24.5597C45.3658 23.0313 44.5183 22.015 43.0499 21.5882C42.2449 21.3542 41.4232 21.3542 40.5998 21.3743C38.4735 21.427 36.3477 21.4873 34.2214 21.5399C33.7532 21.5515 33.6397 21.6489 33.5515 22.1307C33.2363 23.8573 32.5742 27.4218 32.4249 28.1286C32.4095 28.2009 32.4142 28.2759 32.4383 28.3456C32.5243 28.5947 32.6872 29.1172 32.6872 29.1172C32.7191 29.2618 32.6133 29.3993 32.4705 29.3993H31.8144C31.6742 29.3993 31.5689 29.2663 31.5964 29.1234C31.5964 29.1234 31.7469 28.5916 31.829 28.3456C31.8526 28.2755 31.8565 28.1938 31.841 28.1214C31.4029 26.0916 30.9578 24.0614 30.5137 22.0329C30.4315 21.6574 30.2914 21.5426 29.913 21.5417C29.2646 21.5404 28.6166 21.5399 27.9682 21.5417C27.6573 21.5426 27.3864 21.7623 27.3107 22.0753C26.87 23.8917 25.9924 27.4218 25.8045 28.1214C25.7847 28.1947 25.786 28.2733 25.8083 28.3456C25.8866 28.601 26.0388 29.1172 26.0388 29.1172C26.0706 29.2618 25.9649 29.3993 25.8221 29.3993H25.1668C25.0266 29.3993 24.9213 29.2663 24.9488 29.1234C24.9488 29.1234 25.0993 28.5867 25.1793 28.3456C25.2016 28.2777 25.2077 28.192 25.1956 28.1214C25.1427 27.8187 25.0769 27.5213 25.018 27.2199C24.6779 25.4826 24.3387 23.7452 23.9951 22.0088C23.925 21.6556 23.7883 21.544 23.4482 21.5426C22.789 21.5399 22.129 21.5582 21.4707 21.5359C21.0127 21.5207 20.8433 21.9061 20.9405 22.2753C21.7957 25.517 22.6389 28.7617 23.4864 32.0056C23.5746 32.3423 23.707 32.4459 24.036 32.4459C24.7957 32.4454 25.5551 32.4454 26.3149 32.4459C26.7431 32.4459 26.8515 32.3557 26.9543 31.9234C27.496 29.6463 28.0382 27.3695 28.5813 25.0928C28.6927 25.0923 28.6828 25.0928 28.7946 25.0923C28.8019 25.1187 28.8088 25.1446 28.8144 25.1714C29.2934 27.4392 29.7702 29.7079 30.2488 31.9757C30.3228 32.3266 30.4685 32.4441 30.8211 32.445C31.5779 32.4463 32.3342 32.4454 33.091 32.4459C33.4062 32.4459 33.6831 32.228 33.7674 31.9123C34.4601 29.3212 35.1528 26.7301 35.8446 24.1386C35.9727 23.6586 35.971 23.6349 36.4384 23.6238C38.013 23.5863 39.5876 23.5483 41.1622 23.5474C41.9805 23.547 42.5029 24.0185 42.6904 24.8151C42.7725 25.1642 42.604 25.4674 42.2785 25.5183C41.7414 25.6023 41.1996 25.6558 40.6639 25.7487C39.9746 25.8679 39.2759 25.963 38.606 26.1599C37.7064 26.4243 36.9793 26.969 36.5795 27.8857C36.2828 28.5657 36.217 29.2846 36.2995 30.0227C36.4225 31.1215 36.9256 31.9565 37.8883 32.4552C38.526 32.7856 39.2131 32.8459 39.917 32.7915C41.0509 32.7039 41.9216 32.1592 42.5532 31.1836L42.7459 31.2461C42.7459 31.4765 42.7454 31.7073 42.7463 31.9377C42.7472 32.3633 42.9234 32.5512 43.3311 32.553C43.9545 32.5557 44.578 32.5557 45.2015 32.553C45.6074 32.5512 45.7863 32.3597 45.7863 31.9359C45.7867 29.9789 45.7953 28.0219 45.7807 26.0648ZM41.8988 30.0437C41.5475 30.3267 41.1412 30.4491 40.672 30.4366C39.9458 30.4379 39.4307 30.1008 39.2862 29.4645C39.1344 28.7952 39.3529 28.217 39.9286 27.8964C40.3431 27.6656 40.8002 27.6289 41.2512 27.562C41.5548 27.5169 41.8597 27.4812 42.1637 27.4392C42.4419 27.4008 42.7304 27.6115 42.7489 27.8977C42.8043 28.7546 42.5752 29.4989 41.8988 30.0437Z" fill="#002194"/>
</svg>
