<svg width="248" height="95" viewBox="0 0 248 95" fill="none" xmlns="http://www.w3.org/2000/svg">
<path d="M33.5573 49.0064C41.5366 49.0064 48.0051 42.5357 48.0051 34.5538C48.0051 26.5719 41.5366 20.1013 33.5573 20.1013C25.5779 20.1013 19.1094 26.5719 19.1094 34.5538C19.1094 42.5357 25.5779 49.0064 33.5573 49.0064Z" fill="#00C1FF"/>
<path d="M36.0343 12.7818C38.5645 12.7818 40.6156 10.6519 40.6156 8.02458C40.6156 5.39723 38.5645 3.26733 36.0343 3.26733C33.5042 3.26733 31.4531 5.39723 31.4531 8.02458C31.4531 10.6519 33.5042 12.7818 36.0343 12.7818Z" fill="#00C1FF"/>
<path d="M56.1027 18.1494C60.7741 18.1494 64.5609 14.217 64.5609 9.36621C64.5609 4.51538 60.7741 0.583008 56.1027 0.583008C51.4314 0.583008 47.6445 4.51538 47.6445 9.36621C47.6445 14.217 51.4314 18.1494 56.1027 18.1494Z" fill="#00C1FF"/>
<path d="M66.9612 58.1304C71.2286 58.1304 74.688 54.5381 74.688 50.1067C74.688 45.6753 71.2286 42.083 66.9612 42.083C62.6938 42.083 59.2344 45.6753 59.2344 50.1067C59.2344 54.5381 62.6938 58.1304 66.9612 58.1304Z" fill="#00C1FF"/>
<path d="M12.4081 55.9664C15.5244 55.9664 18.0506 53.3431 18.0506 50.1071C18.0506 46.8711 15.5244 44.2478 12.4081 44.2478C9.29186 44.2478 6.76562 46.8711 6.76562 50.1071C6.76562 53.3431 9.29186 55.9664 12.4081 55.9664Z" fill="#00C1FF"/>
<path d="M36.0354 9.69116H34.9766V22.6209H36.0354V9.69116Z" fill="#00C1FF"/>
<path d="M23.83 41.7354L23.1992 40.8523L13.1983 48.5546L13.8291 49.4377L23.83 41.7354Z" fill="#00C1FF"/>
<path d="M38.2266 7.47374V8.57324H50.6779V7.47374L38.2266 7.47374Z" fill="#00C1FF"/>
<path d="M51.9432 16.6898L51.3125 15.8066L41.3116 23.5089L41.9423 24.392L51.9432 16.6898Z" fill="#00C1FF"/>
<path d="M63.1626 49.2704L63.6484 48.1848L42.9948 38.2168L42.5089 39.3023L63.1626 49.2704Z" fill="#00C1FF"/>
<path d="M227.979 67.0712C228.426 66.4913 228.846 65.887 229.326 65.3366C231.43 62.9272 234.048 61.7263 237.192 61.7186C239.198 61.7148 241.132 62.0073 242.895 63.0516C245.402 64.536 246.605 66.9493 247.223 69.7564C247.717 72.0042 247.706 74.2866 247.658 76.5728C247.628 78.0252 247.611 79.4775 247.589 80.9311C247.529 84.6479 247.47 88.3659 247.408 92.0827C247.405 92.338 247.39 92.5984 247.344 92.8486C247.24 93.4105 246.945 93.7954 246.354 93.798C244.111 93.807 241.866 93.8211 239.622 93.7929C238.851 93.7839 238.389 93.2489 238.332 92.4406C238.315 92.1853 238.322 91.9274 238.322 91.6708C238.322 86.6044 238.347 81.5366 238.304 76.4702C238.293 75.2219 238.163 73.9517 237.905 72.7329C237.514 70.8931 236.47 69.5614 234.594 69.1868C232.675 68.8032 230.949 69.2278 229.586 70.7674C228.342 72.1735 227.837 73.8876 227.832 75.762C227.819 81.171 227.828 86.58 227.827 91.9877C227.827 93.3348 227.382 93.8018 226.09 93.8044C224.134 93.8082 222.178 93.8082 220.222 93.8057C219.08 93.8044 218.609 93.3374 218.557 92.1635C218.547 91.9505 218.552 91.7363 218.552 91.522C218.552 77.5838 218.552 63.6444 218.552 49.7062C218.552 49.5137 218.548 49.3213 218.554 49.1288C218.59 47.8472 219.07 47.3648 220.309 47.3648C222.265 47.3635 224.22 47.3622 226.176 47.3648C227.301 47.366 227.826 47.9164 227.826 49.0955C227.827 54.8252 227.827 60.555 227.827 66.2834C227.827 66.531 227.827 66.7787 227.827 67.0263C227.878 67.0455 227.928 67.0583 227.979 67.0712Z" fill="#FDFDFD"/>
<path d="M43.741 94.7043C41.2206 94.5914 38.7645 94.2745 36.4269 93.2828C32.2559 91.5148 29.4871 88.378 28.2541 83.8914C27.1755 79.9655 27.2039 75.9806 28.3987 72.0881C29.8195 67.4592 32.8823 64.3634 37.2782 62.8238C41.6815 61.2817 46.1873 61.2008 50.6042 62.7519C55.8637 64.5994 58.9191 68.5484 59.9001 74.1691C60.5364 77.8166 60.3387 81.4666 59.0118 84.9435C57.0795 90.0086 53.4026 92.9954 48.3186 94.109C46.8187 94.4361 45.2681 94.5118 43.741 94.7043ZM36.9013 78.1912C36.9569 78.9353 36.9816 79.6833 37.0718 80.4223C37.4968 83.9107 39.0276 86.7961 43.0763 87.2002C46.3516 87.5261 49.0895 86.2713 50.131 82.6444C50.9959 79.6345 51.0144 76.5798 50.1817 73.5597C49.7307 71.9277 48.8449 70.519 47.2968 69.8352C46.3368 69.4118 45.2545 69.1578 44.2118 69.0949C41.6358 68.9397 39.3439 69.9751 38.0034 72.7232C37.1657 74.4424 36.9409 76.2924 36.9013 78.1912Z" fill="#FDFDFD"/>
<path d="M176.069 80.909C173.414 80.909 170.757 80.9064 168.102 80.9103C166.879 80.9116 166.233 81.8456 166.613 83.067C167.421 85.6573 169.251 87.0224 171.727 87.5073C174.912 88.1308 178.028 87.7844 181.047 86.5528C182.441 85.9844 183.329 86.5849 183.338 88.1321C183.345 89.1149 183.333 90.0989 183.342 91.0817C183.349 91.9207 183.007 92.4994 182.249 92.8291C180.34 93.6604 178.351 94.2019 176.296 94.3622C174.414 94.5085 172.512 94.6047 170.63 94.4957C163.36 94.0748 158.336 89.5447 157.318 82.1907C156.779 78.302 156.896 74.4428 158.475 70.8185C160.741 65.616 164.654 62.5613 170.146 61.8543C173.237 61.4566 176.268 61.7581 179.099 63.2374C182.574 65.0528 184.508 68.1024 185.451 71.9231C186.071 74.439 185.984 77.0075 185.943 79.5683C185.933 80.2124 185.554 80.6383 184.952 80.7974C184.658 80.8756 184.343 80.9013 184.038 80.9026C181.38 80.9116 178.724 80.909 176.069 80.909ZM171.913 75.0099C173.044 75.0099 174.176 75.0099 175.308 75.0099C175.329 75.0099 175.348 75.0099 175.369 75.0099C176.878 74.9945 177.466 74.2876 177.214 72.7468C176.535 68.604 173.47 67.6482 170.712 68.3988C168.689 68.9479 167.543 70.5914 166.779 72.5235C166.182 74.0349 166.815 74.9945 168.395 75.0086C169.568 75.0176 170.74 75.0086 171.913 75.0099Z" fill="#FDFDFD"/>
<path d="M148.262 77.0818C148.262 78.9421 148.207 80.805 148.285 82.6614C148.322 83.539 148.497 84.4525 148.81 85.2659C149.38 86.7439 150.973 87.6047 152.595 87.1916C154.464 86.7156 155.216 87.5778 155.071 89.3906C154.993 90.367 155.061 91.3561 155.056 92.3402C155.051 93.2254 154.695 93.7335 153.871 93.9824C151.931 94.5674 149.942 94.6315 147.943 94.5584C146.431 94.502 144.967 94.2107 143.589 93.5218C141.048 92.2491 139.791 90.0154 139.313 87.2493C139.125 86.1627 139.051 85.0439 139.043 83.938C139.012 79.812 139.031 75.6847 139.03 71.5586C139.03 70.1204 138.469 69.5303 137.095 69.52C136.56 69.5161 136.024 69.5277 135.489 69.5161C134.707 69.4982 134.139 68.9786 134.122 68.1754C134.089 66.7437 134.091 65.3106 134.119 63.8788C134.135 63.0795 134.69 62.5317 135.466 62.497C136.082 62.4688 136.701 62.488 137.319 62.4816C138.426 62.4701 139.025 61.8478 139.031 60.6868C139.038 59.4256 139.027 58.1632 139.035 56.902C139.041 56.0475 139.368 55.5754 140.141 55.3445C142.231 54.7197 144.324 54.1026 146.421 53.5021C147.424 53.2147 148.247 53.8575 148.256 54.9378C148.272 56.8622 148.258 58.7867 148.262 60.7111C148.264 61.8658 148.857 62.4752 149.984 62.4803C151.158 62.4868 152.332 62.4726 153.505 62.4855C154.537 62.497 155.05 63.0449 155.053 64.1161C155.058 65.3991 155.06 66.6821 155.052 67.965C155.047 68.9645 154.525 69.511 153.571 69.5174C152.418 69.5251 151.264 69.511 150.111 69.5226C148.825 69.5354 148.261 70.1268 148.259 71.4393C148.261 73.3189 148.262 75.1997 148.262 77.0818Z" fill="#FDFDFD"/>
<path d="M204.562 94.512C201.553 94.6351 198.649 94.1451 196.012 92.5696C191.812 90.0588 189.385 86.2779 188.835 81.2666C188.431 77.5781 188.747 73.9601 190.335 70.5795C192.563 65.8389 196.333 63.1331 201.236 62.1478C204.781 61.4358 208.35 61.4665 211.861 62.4968C213.12 62.8663 213.363 63.2473 213.363 64.606C213.363 65.9095 213.368 67.213 213.362 68.5177C213.355 69.8764 212.407 70.5217 211.19 69.997C208.451 68.8167 205.669 68.6576 202.916 69.8379C199.968 71.1016 198.546 73.5791 198.177 76.7801C197.961 78.6506 198.087 80.4956 198.765 82.2571C199.876 85.1437 202.012 86.6705 204.915 87.1311C207.112 87.48 209.206 87.09 211.235 86.1945C212.392 85.6826 213.351 86.3523 213.361 87.6673C213.371 88.9927 213.362 90.318 213.363 91.6433C213.363 92.4066 213.039 92.9339 212.35 93.238C210.55 94.0347 208.65 94.3555 206.718 94.5056C206.005 94.5582 205.281 94.512 204.562 94.512Z" fill="#FDFDFD"/>
<path d="M16.6991 94.5129C13.6251 94.6296 10.6686 94.1087 7.99128 92.4576C3.99322 89.9917 1.63589 86.357 1.03174 81.5523C0.61661 78.2461 0.830351 74.9784 1.97442 71.8415C3.61269 67.346 6.7076 64.3285 11.0553 62.7966C15.1658 61.3494 19.3751 61.3828 23.5882 62.3617C23.9465 62.4451 24.2936 62.5888 24.6371 62.7286C25.1387 62.9326 25.4661 63.3188 25.4723 63.8846C25.4933 65.5511 25.5353 67.219 25.4661 68.883C25.4204 69.9915 24.4333 70.4713 23.3571 69.9966C20.9405 68.9292 18.4621 68.7611 15.9429 69.5001C12.9011 70.3931 10.7353 73.1296 10.377 76.3974C10.1275 78.6656 10.2152 80.8788 11.2357 82.9572C12.4675 85.4667 14.5196 86.7394 17.1463 87.1371C19.327 87.4681 21.3989 87.0717 23.409 86.1877C24.5296 85.695 25.4637 86.2942 25.4983 87.5553C25.5366 88.9435 25.5118 90.3343 25.5057 91.7237C25.502 92.4973 25.1251 92.9759 24.4357 93.271C22.6455 94.0369 20.7688 94.3602 18.8562 94.5026C18.1421 94.5578 17.4193 94.5129 16.6991 94.5129Z" fill="#FDFDFD"/>
<path d="M132.38 75.4774C132.369 74.034 132.268 72.5676 132.005 71.1525C131.188 66.7609 128.753 63.8408 124.534 62.6143C122.221 61.942 119.86 61.942 117.494 61.9998C111.384 62.1512 105.276 62.3244 99.1664 62.4757C97.8209 62.5091 97.4948 62.7888 97.2415 64.1731C96.3359 69.1344 94.4332 79.3763 94.0045 81.4072C93.96 81.6151 93.9736 81.8306 94.0428 82.0308C94.2899 82.7467 94.7582 84.2477 94.7582 84.2477C94.8496 84.6634 94.5456 85.0586 94.1355 85.0586H92.2501C91.8473 85.0586 91.5446 84.6762 91.6237 84.2657C91.6237 84.2657 92.0561 82.7377 92.2921 82.0308C92.3601 81.8293 92.3712 81.5946 92.3267 81.3867C91.0677 75.5543 89.789 69.7207 88.5127 63.8921C88.2767 62.8132 87.874 62.4834 86.7867 62.4809C84.9236 62.477 83.0617 62.4757 81.1986 62.4809C80.3053 62.4834 79.527 63.1147 79.3095 64.014C78.0431 69.2331 75.5215 79.3763 74.9816 81.3867C74.9247 81.5971 74.9284 81.8229 74.9927 82.0308C75.2175 82.7646 75.6549 84.2477 75.6549 84.2477C75.7463 84.6634 75.4424 85.0586 75.0322 85.0586H73.1493C72.7466 85.0586 72.4439 84.6762 72.5229 84.2657C72.5229 84.2657 72.9554 82.7236 73.1852 82.0308C73.2494 81.8358 73.2667 81.5894 73.2321 81.3867C73.0801 80.5169 72.8911 79.6624 72.7219 78.7964C71.7446 73.8044 70.7698 68.8123 69.7826 63.8229C69.5812 62.808 69.1883 62.4873 68.2111 62.4834C66.317 62.4757 64.4206 62.5283 62.529 62.4642C61.2132 62.4206 60.7264 63.5278 61.0056 64.5888C63.463 73.9032 65.8858 83.2265 68.321 92.5473C68.5743 93.5146 68.9548 93.8123 69.9 93.8123C72.0831 93.811 74.265 93.811 76.4481 93.8123C77.6787 93.8123 77.99 93.5531 78.2853 92.3112C79.842 85.7681 81.4 79.2262 82.9604 72.6843C83.2804 72.683 83.252 72.6843 83.5732 72.683C83.5942 72.7587 83.614 72.8332 83.63 72.9101C85.0064 79.4263 86.3765 85.9451 87.7517 92.4613C87.9642 93.4697 88.383 93.8071 89.3961 93.8097C91.5706 93.8136 93.7438 93.811 95.9183 93.8123C96.8239 93.8123 97.6196 93.1862 97.8617 92.2791C99.8521 84.8341 101.842 77.389 103.83 69.9426C104.199 68.5634 104.194 68.4954 105.537 68.4634C110.061 68.3556 114.585 68.2465 119.11 68.244C121.461 68.2427 122.962 69.5975 123.501 71.8863C123.737 72.8896 123.252 73.7607 122.317 73.907C120.774 74.1482 119.217 74.3022 117.678 74.569C115.697 74.9116 113.69 75.1848 111.765 75.7506C109.18 76.5101 107.091 78.0754 105.942 80.7093C105.089 82.6633 104.9 84.7288 105.138 86.8496C105.491 90.007 106.936 92.4061 109.703 93.8392C111.535 94.7886 113.509 94.9618 115.532 94.8053C118.79 94.5538 121.292 92.9886 123.107 90.1853L123.66 90.3649C123.66 91.0269 123.659 91.6902 123.661 92.3523C123.664 93.5749 124.17 94.115 125.342 94.1202C127.133 94.1279 128.925 94.1279 130.716 94.1202C131.882 94.115 132.396 93.5647 132.396 92.3471C132.398 86.7239 132.422 81.1006 132.38 75.4774ZM121.226 86.9099C120.217 87.7233 119.049 88.0748 117.701 88.0389C115.615 88.0428 114.134 87.0741 113.719 85.2459C113.283 83.3227 113.911 81.6613 115.565 80.7401C116.756 80.0768 118.069 79.9716 119.366 79.7792C120.238 79.6496 121.114 79.5469 121.987 79.4263C122.787 79.316 123.616 79.9216 123.669 80.7439C123.828 83.206 123.17 85.3447 121.226 86.9099Z" fill="#FDFDFD"/>
</svg>
