<svg width="65" height="65" viewBox="0 0 65 65" fill="none" xmlns="http://www.w3.org/2000/svg">
<path d="M32.5874 48.8763C23.7546 48.8667 16.5955 41.7077 16.5859 32.8749V32.5549C16.762 23.7621 24.0026 16.7583 32.7954 16.8735C41.5914 16.9919 48.6432 24.1845 48.5856 32.9789C48.528 41.7749 41.3833 48.8763 32.5874 48.8763ZM32.5618 45.676H32.5874C35.9813 45.6726 39.235 44.3216 41.6331 41.9199C44.0312 39.5182 45.3774 36.2625 45.3757 32.8685C45.374 29.4745 44.0246 26.2202 41.6241 23.8209C39.2236 21.4216 35.9685 20.0738 32.5746 20.0738C29.1806 20.0738 25.9255 21.4216 23.5251 23.8209C21.1246 26.2202 19.7751 29.4745 19.7734 32.8685C19.7717 36.2625 21.1179 39.5182 23.516 41.9199C25.9141 44.3216 29.1678 45.6726 32.5618 45.676ZM37.3878 39.2755H34.1875V26.4743H37.3878V39.2755ZM30.9872 39.2755H27.7869V26.4743H30.9872V39.2755Z" fill="white"/>
<circle opacity="0.24" cx="32.5859" cy="32.874" r="32" fill="white"/>
</svg>
