<svg width="21" height="16" viewBox="0 0 21 16" fill="none" xmlns="http://www.w3.org/2000/svg">
<path d="M17.8672 0H3.86719C3.07154 0 2.30848 0.316071 1.74587 0.87868C1.18326 1.44129 0.867188 2.20435 0.867188 3V13C0.867188 13.7956 1.18326 14.5587 1.74587 15.1213C2.30848 15.6839 3.07154 16 3.86719 16H17.8672C18.6628 16 19.4259 15.6839 19.9885 15.1213C20.5511 14.5587 20.8672 13.7956 20.8672 13V3C20.8672 2.20435 20.5511 1.44129 19.9885 0.87868C19.4259 0.316071 18.6628 0 17.8672 0ZM17.1972 2L10.8672 6.75L4.53719 2H17.1972ZM17.8672 14H3.86719C3.60197 14 3.34762 13.8946 3.16008 13.7071C2.97254 13.5196 2.86719 13.2652 2.86719 13V3.25L10.2672 8.8C10.4403 8.92982 10.6508 9 10.8672 9C11.0836 9 11.2941 8.92982 11.4672 8.8L18.8672 3.25V13C18.8672 13.2652 18.7618 13.5196 18.5743 13.7071C18.3868 13.8946 18.1324 14 17.8672 14Z" fill="white"/>
</svg>
