<svg width="34" height="18" viewBox="0 0 34 18" fill="none" xmlns="http://www.w3.org/2000/svg">
<path fill-rule="evenodd" clip-rule="evenodd" d="M33.3231 9.58678C33.4865 9.42335 33.5783 9.20169 33.5783 8.97056C33.5783 8.73944 33.4865 8.51778 33.3231 8.35435L25.9285 0.959791C25.7651 0.796362 25.5435 0.704549 25.3123 0.704548C25.0812 0.704548 24.8595 0.796361 24.6961 0.959791C24.5327 1.12322 24.4409 1.34488 24.4409 1.57601C24.4409 1.80713 24.5327 2.02879 24.6961 2.19222L30.6031 8.09924L1.23217 8.098C1.11759 8.098 1.00412 8.12057 0.898258 8.16442C0.792394 8.20827 0.696204 8.27255 0.61518 8.35357C0.534155 8.43459 0.469882 8.53078 0.426032 8.63665C0.382182 8.74251 0.359615 8.85597 0.359615 8.97056C0.359614 9.08515 0.382183 9.19861 0.426032 9.30448C0.469883 9.41034 0.534156 9.50653 0.61518 9.58755C0.696205 9.66858 0.792394 9.73285 0.898257 9.7767C1.00412 9.82055 1.11759 9.84312 1.23217 9.84312L30.6031 9.84189L24.6961 15.7489C24.5327 15.9123 24.4409 16.134 24.4409 16.3651C24.4409 16.5962 24.5327 16.8179 24.6961 16.9813C24.8595 17.1448 25.0812 17.2366 25.3123 17.2366C25.5435 17.2366 25.7651 17.1448 25.9285 16.9813L33.3231 9.58678Z" fill="#1DA1F2"/>
</svg>
