<svg width="15" height="22" viewBox="0 0 15 22" fill="none" xmlns="http://www.w3.org/2000/svg">
<path fill-rule="evenodd" clip-rule="evenodd" d="M12.8672 22C13.3976 22 13.9063 21.7893 14.2814 21.4142C14.6565 21.0391 14.8672 20.5304 14.8672 20V2C14.8672 1.46957 14.6565 0.960859 14.2814 0.585786C13.9063 0.210714 13.3976 0 12.8672 0H2.86719C2.33675 0 1.82805 0.210714 1.45297 0.585786C1.0779 0.960859 0.867188 1.46957 0.867188 2V20C0.867188 20.5304 1.0779 21.0391 1.45297 21.4142C1.82805 21.7893 2.33675 22 2.86719 22H12.8672ZM6.86719 20H2.86719V2H12.8672V20H8.86719V18.969C8.86719 18.7038 8.76183 18.4494 8.57429 18.2619C8.38676 18.0744 8.1324 17.969 7.86719 17.969C7.60197 17.969 7.34762 18.0744 7.16008 18.2619C6.97254 18.4494 6.86719 18.7038 6.86719 18.969V20Z" fill="white"/>
</svg>
