<svg width="15" height="17" viewBox="0 0 15 17" fill="none" xmlns="http://www.w3.org/2000/svg">
<path d="M8.78781 15.5322L8.78781 3.67223L13.1478 7.30223C13.352 7.47197 13.6153 7.55363 13.8797 7.52925C14.1442 7.50487 14.3881 7.37644 14.5578 7.17223C14.7275 6.96801 14.8092 6.70473 14.7848 6.4403C14.7605 6.17588 14.632 5.93196 14.4278 5.76223L8.42781 0.762226C8.38009 0.728587 8.32995 0.698506 8.27781 0.672226C8.22781 0.672226 8.19781 0.672226 8.14781 0.602226C8.03315 0.5569 7.9111 0.533167 7.78781 0.532226C7.66452 0.533167 7.54247 0.5569 7.42781 0.602226C7.37781 0.602226 7.34781 0.602226 7.29781 0.672226C7.24567 0.698506 7.19553 0.728587 7.14781 0.762226L1.14781 5.76223C1.03493 5.85625 0.944148 5.97399 0.881926 6.10707C0.819705 6.24016 0.787572 6.38532 0.78781 6.53223C0.787353 6.76588 0.868728 6.99231 1.01781 7.17223C1.10176 7.27348 1.20486 7.35719 1.32121 7.41854C1.43756 7.47989 1.56486 7.51769 1.69584 7.52976C1.82681 7.54184 1.95889 7.52796 2.08449 7.48891C2.21009 7.44987 2.32676 7.38643 2.42781 7.30223L6.78781 3.67223L6.78781 15.5322C6.78781 15.7974 6.89317 16.0518 7.0807 16.2393C7.26824 16.4269 7.52259 16.5322 7.78781 16.5322C8.05303 16.5322 8.30738 16.4269 8.49492 16.2393C8.68245 16.0518 8.78781 15.7974 8.78781 15.5322Z" fill="white"/>
</svg>
