<svg width="35" height="24" viewBox="0 0 35 24" fill="none" xmlns="http://www.w3.org/2000/svg">
<path d="M0.949219 1.99967C0.949219 1.55765 1.12481 1.13372 1.43737 0.821163C1.74993 0.508603 2.17386 0.333008 2.61589 0.333008H32.6159C33.0579 0.333008 33.4818 0.508603 33.7944 0.821163C34.107 1.13372 34.2826 1.55765 34.2826 1.99967C34.2826 2.4417 34.107 2.86562 33.7944 3.17819C33.4818 3.49075 33.0579 3.66634 32.6159 3.66634H2.61589C2.17386 3.66634 1.74993 3.49075 1.43737 3.17819C1.12481 2.86562 0.949219 2.4417 0.949219 1.99967Z" fill="white"/>
<path d="M0.949219 12.0534C0.949219 11.6114 1.12481 11.1874 1.43737 10.8749C1.74993 10.5623 2.17386 10.3867 2.61589 10.3867H32.6159C33.0579 10.3867 33.4818 10.5623 33.7944 10.8749C34.107 11.1874 34.2826 11.6114 34.2826 12.0534C34.2826 12.4954 34.107 12.9193 33.7944 13.2319C33.4818 13.5445 33.0579 13.7201 32.6159 13.7201H2.61589C2.17386 13.7201 1.74993 13.5445 1.43737 13.2319C1.12481 12.9193 0.949219 12.4954 0.949219 12.0534Z" fill="white"/>
<path d="M2.61589 20.4395C2.17386 20.4395 1.74993 20.615 1.43737 20.9276C1.12481 21.2402 0.949219 21.6641 0.949219 22.1061C0.949219 22.5481 1.12481 22.9721 1.43737 23.2846C1.74993 23.5972 2.17386 23.7728 2.61589 23.7728H32.6159C33.0579 23.7728 33.4818 23.5972 33.7944 23.2846C34.107 22.9721 34.2826 22.5481 34.2826 22.1061C34.2826 21.6641 34.107 21.2402 33.7944 20.9276C33.4818 20.615 33.0579 20.4395 32.6159 20.4395H2.61589Z" fill="white"/>
</svg>
