<svg width="25" height="24" viewBox="0 0 25 24" fill="none" xmlns="http://www.w3.org/2000/svg">
<g opacity="0.68">
<path d="M5.36719 3V19.5H14.3672V3H5.36719ZM4.61719 1.5H15.1172C15.3161 1.5 15.5069 1.57902 15.6475 1.71967C15.7882 1.86032 15.8672 2.05109 15.8672 2.25V20.25C15.8672 20.4489 15.7882 20.6397 15.6475 20.7803C15.5069 20.921 15.3161 21 15.1172 21H4.61719C4.41828 21 4.22751 20.921 4.08686 20.7803C3.94621 20.6397 3.86719 20.4489 3.86719 20.25V2.25C3.86719 2.05109 3.94621 1.86032 4.08686 1.71967C4.22751 1.57902 4.41828 1.5 4.61719 1.5Z" fill="white"/>
<path d="M6.86719 6H12.8672V7.5H6.86719V6ZM6.86719 10.5H12.8672V12H6.86719V10.5ZM6.86719 15H12.8672V16.5H6.86719V15ZM15.8672 12H18.8672V13.5H15.8672V12ZM15.8672 15H18.8672V16.5H15.8672V15ZM2.36719 19.5H23.3672V21H2.36719V19.5Z" fill="white"/>
<path d="M15.8672 9V19.5H20.3672V9H15.8672ZM15.1172 7.5H21.1172C21.3161 7.5 21.5069 7.57902 21.6475 7.71967C21.7882 7.86032 21.8672 8.05109 21.8672 8.25V20.25C21.8672 20.4489 21.7882 20.6397 21.6475 20.7803C21.5069 20.921 21.3161 21 21.1172 21H15.1172C14.9183 21 14.7275 20.921 14.5869 20.7803C14.4462 20.6397 14.3672 20.4489 14.3672 20.25V8.25C14.3672 8.05109 14.4462 7.86032 14.5869 7.71967C14.7275 7.57902 14.9183 7.5 15.1172 7.5Z" fill="white"/>
</g>
</svg>
