<svg width="8" height="15" viewBox="0 0 8 15" fill="none" xmlns="http://www.w3.org/2000/svg">
<path d="M1.66251 0.817107C1.81191 0.816598 1.95952 0.849571 2.0945 0.913599C2.22948 0.977628 2.34839 1.07109 2.44251 1.18711L7.27251 7.18711C7.41959 7.36604 7.5 7.59048 7.5 7.82211C7.5 8.05373 7.41959 8.27817 7.27251 8.45711L2.27251 14.4571C2.10277 14.6613 1.85886 14.7897 1.59444 14.8141C1.33001 14.8385 1.06673 14.7568 0.862512 14.5871C0.658296 14.4174 0.529872 14.1735 0.505492 13.909C0.481112 13.6446 0.562773 13.3813 0.732512 13.1771L5.20251 7.81711L0.882514 2.45711C0.760231 2.31032 0.682553 2.13158 0.658674 1.94203C0.634794 1.75248 0.665711 1.56006 0.747767 1.38753C0.829823 1.215 0.959583 1.06959 1.12169 0.968502C1.2838 0.867412 1.47148 0.814875 1.66251 0.817107Z" fill="#1DA1F2"/>
</svg>
