<svg width="61" height="61" viewBox="0 0 61 61" fill="none" xmlns="http://www.w3.org/2000/svg">
<path d="M0.554688 22.0984C0.653291 21.7071 0.733113 21.308 0.853628 20.9245C1.98366 17.3106 4.42214 15.1679 8.1409 14.4715C8.25046 14.4511 8.35845 14.4229 8.48053 14.3525C6.48029 13.9675 4.84786 13.0065 3.69122 11.3334C2.53458 9.66179 2.15426 7.80241 2.60345 5.81625C3.38132 2.36983 6.56168 0.0315133 10.0175 0.321063C13.4827 0.612179 16.2593 3.41847 16.4799 6.85707C16.6975 10.2393 14.4437 13.6388 10.4323 14.3822C10.739 14.448 11.0474 14.5121 11.3541 14.5794C15.3562 15.4653 18.211 18.9806 18.2454 23.0813C18.2611 24.8749 18.2485 26.6686 18.2485 28.542H0.554688V22.0984Z" fill="white"/>
<path d="M31.4898 60.2913C35.1272 59.3772 37.0414 56.632 38.4985 53.508C39.3437 51.6971 39.9212 49.7626 40.6177 47.8829C40.6709 47.7389 40.7132 47.5902 40.7774 47.3867C44.5321 48.2742 48.0881 49.5763 51.4297 51.8114C50.3028 52.7395 49.2823 53.666 48.1758 54.4783C43.6196 57.8262 38.522 59.7513 32.875 60.1942C32.7232 60.2067 32.5761 60.2584 32.4258 60.2928H31.4883L31.4898 60.2913Z" fill="white"/>
<path d="M28.6802 60.2916C27.5643 60.1367 26.4405 60.0209 25.3324 59.8221C19.3912 58.7484 14.2559 56.0877 9.89704 51.9197C9.87044 51.8931 9.85479 51.8556 9.79688 51.7664C13.0023 49.6065 16.5489 48.2886 20.3068 47.3887C20.6855 48.5375 20.9782 49.6925 21.443 50.7756C22.1568 52.4362 22.8892 54.1031 23.7939 55.662C25.1133 57.9346 26.9555 59.6562 29.6162 60.2932H28.6787L28.6802 60.2916Z" fill="white"/>
<path d="M52.6425 14.3939C53.0572 14.4785 53.4767 14.5442 53.8852 14.6522C57.8622 15.7008 60.5448 19.1786 60.5542 23.2949C60.5589 25.0118 60.5542 26.7303 60.5542 28.4942H42.9292C42.9183 28.4786 42.876 28.4473 42.876 28.4176C42.9026 26.2326 42.7759 24.0336 42.995 21.869C43.3753 18.1268 46.54 15.0263 50.2619 14.4769C50.3918 14.4581 50.5202 14.4268 50.6657 14.3548C48.6467 13.9635 46.9986 12.9885 45.8467 11.2903C44.6963 9.59211 44.33 7.71708 44.8199 5.70901C45.6557 2.29388 48.8627 -0.0178242 52.2606 0.323375C55.7587 0.675531 58.4914 3.48495 58.6714 6.91103C58.8623 10.5781 56.4567 13.53 52.6425 14.3924V14.3939Z" fill="white"/>
<path d="M21.6797 28.5003C21.7689 26.0978 21.6233 23.7063 21.999 21.3993C22.6047 17.6774 25.569 15.0433 29.2972 14.4626C29.388 14.4485 29.4741 14.4157 29.5758 14.3484C27.5959 13.9696 25.976 13.0243 24.8178 11.3762C23.6471 9.71244 23.2605 7.85776 23.6831 5.86847C24.4108 2.43926 27.5709 0.0759038 31.0564 0.316935C34.5185 0.554835 37.353 3.39869 37.5752 6.85764C37.7896 10.2258 35.5515 13.6331 31.5275 14.3812C31.8359 14.447 32.1442 14.5111 32.4509 14.5785C36.4295 15.4596 39.2969 18.964 39.3391 23.0208C39.3579 24.8332 39.3422 26.6472 39.3422 28.5003H21.6797Z" fill="white"/>
<path d="M53.7374 49.1694C50.0452 46.5744 45.9571 45.0046 41.7422 43.9935C42.1585 40.0134 42.5701 36.0708 42.9865 32.0859H60.4612C60.0214 38.4967 57.7128 44.1359 53.739 49.1694H53.7374Z" fill="white"/>
<path d="M19.4598 43.9352C15.1604 44.951 11.041 46.4911 7.32688 49.1111C3.37179 44.0901 1.09451 38.4744 0.640625 32.084H18.2249C18.3705 34.0748 18.4675 36.0579 18.6726 38.0284C18.876 39.9832 19.1875 41.9256 19.4614 43.9336L19.4598 43.9352Z" fill="white"/>
<path d="M21.8008 32.0859H39.3006C39.2035 35.8579 38.8608 39.5704 38.1142 43.2939C33.0682 42.5223 28.0566 42.5332 22.995 43.2923C22.239 39.5861 21.9088 35.872 21.8023 32.0875L21.8008 32.0859Z" fill="white"/>
<path d="M37.2977 46.7272C36.3789 49.751 35.4133 52.6512 33.4177 55.0662C31.5349 57.3451 29.5643 57.3373 27.6737 55.0537C25.9755 53.0034 25.0395 50.5665 24.2241 48.0748C24.0864 47.6522 23.969 47.2233 23.8281 46.7491C28.3295 46.062 32.7666 46.0761 37.2961 46.7272H37.2977Z" fill="white"/>
</svg>
