<svg width="64" height="57" viewBox="0 0 64 57" fill="none" xmlns="http://www.w3.org/2000/svg">
<path d="M43.7788 49.6241C47.8562 49.6241 51.8765 49.6241 55.8969 49.6241C57.3522 49.6241 57.5998 49.8717 57.5998 51.3216C57.5998 52.4545 57.6052 53.5874 57.598 54.7221C57.5927 55.6377 57.2133 56.0243 56.3013 56.0243C40.1022 56.0278 23.9049 56.026 7.70587 56.0243C6.78673 56.0243 6.40553 55.6431 6.40018 54.7328C6.39306 53.5109 6.39662 52.2889 6.40018 51.0669C6.40197 49.9696 6.74041 49.6276 7.82522 49.6259C11.7138 49.6241 15.6023 49.6259 19.4909 49.6259H20.2355V43.2257H19.4624C13.4844 43.2257 7.50815 43.2257 1.53014 43.2257C0.30817 43.2257 7.70774e-06 42.9157 7.70774e-06 41.6902C7.70774e-06 28.4908 7.70774e-06 15.2933 7.70774e-06 2.09389C-0.00177358 0.864804 0.304607 0.556641 1.52835 0.556641C21.8368 0.556641 42.1453 0.556641 62.4556 0.556641C63.6883 0.556641 64 0.863023 64 2.07964C64 15.279 64 28.4766 64 41.676C64 42.93 63.6972 43.2257 62.4146 43.2257C56.4812 43.2257 50.5495 43.2257 44.616 43.2257H43.7788V49.6259V49.6241ZM2.16071 36.7774H61.8126V2.72447H2.16071V36.7774ZM22.4282 49.5778H41.545V43.2577H22.4282V49.5778Z" fill="white"/>
<path d="M7.43251 13.3729V11.2229C7.11187 11.2229 6.78946 11.2354 6.46705 11.2211C5.75631 11.189 5.34661 10.8007 5.33593 10.0953C5.31811 8.71839 5.31811 7.34146 5.33593 5.96274C5.34483 5.25022 5.74918 4.8334 6.45636 4.83162C9.9655 4.81915 13.4764 4.81915 16.9856 4.83162C17.6981 4.8334 18.1113 5.2431 18.122 5.94849C18.1416 7.32542 18.1416 8.70236 18.122 10.0811C18.1131 10.8185 17.6945 11.1997 16.9393 11.2247C16.6542 11.2336 16.3675 11.2247 16.0397 11.2247V13.3729C17.1512 13.1538 17.4291 13.9126 17.8014 14.7374C18.9503 17.2793 19.3333 19.9067 19.2282 22.6908C19.0964 26.1964 19.1979 29.7091 19.1961 33.22C19.1961 34.3565 18.863 34.6914 17.7337 34.6914C13.7133 34.6914 9.69118 34.6932 5.67081 34.6914C4.61985 34.6914 4.26359 34.3405 4.26359 33.3002C4.26181 28.5691 4.25824 23.8362 4.27071 19.1051C4.27071 18.7595 4.34909 18.3997 4.46488 18.072C4.85854 16.9408 5.31989 15.8329 5.68684 14.6946C5.9665 13.8254 6.34948 13.177 7.43251 13.3747V13.3729ZM17.0337 30.4715H6.45101V32.5218H17.0337V30.4715ZM6.91771 17.5803H16.5402C16.3176 16.9658 16.1395 16.3958 15.8936 15.856C15.8188 15.6904 15.5588 15.5087 15.3824 15.5069C12.942 15.4837 10.5017 15.4855 8.0613 15.5051C7.89564 15.5051 7.64626 15.6601 7.58213 15.8062C7.33275 16.369 7.14394 16.9569 6.91593 17.5803H6.91771ZM8.55828 22.9099H14.8747V20.8597H8.55828V22.9099ZM14.8997 25.1383H8.56006V27.1886H14.8997V25.1383ZM13.8345 11.2728H9.62706V13.3195H13.8345V11.2728Z" fill="white"/>
<path d="M31.9976 10.1399H21.3633V8.04685H31.9976C31.9976 7.34146 31.9905 6.70375 31.9994 6.06783C32.0118 5.23241 32.3948 4.82805 33.2178 4.82627C41.6379 4.82093 50.0563 4.82093 58.4765 4.82627C59.3404 4.82627 59.7252 5.2235 59.7287 6.10168C59.7358 8.10029 59.7376 10.1007 59.7287 12.0993C59.7252 12.9632 59.3297 13.3444 58.4533 13.3533C57.6321 13.3622 56.7183 13.5778 56.0129 13.291C55.3378 13.0166 54.8765 12.2151 54.3261 11.6415C49.3064 6.4045 40.701 6.96917 36.4205 12.8332C36.1409 13.2162 35.8755 13.3961 35.3945 13.3676C34.6642 13.323 33.9285 13.3676 33.1964 13.3533C32.4091 13.3373 32.0172 12.9436 32.0012 12.1545C31.9887 11.515 31.9994 10.8738 31.9994 10.1399H31.9976Z" fill="white"/>
<path d="M32.0004 31.4943H21.375V29.3764H32.0004C32.0004 28.6977 31.9933 28.0636 32.0004 27.4294C32.0111 26.553 32.3905 26.1772 33.2598 26.1576C33.2811 26.1576 33.3043 26.1576 33.3257 26.1576C34.1469 26.1576 35.0589 25.9385 35.766 26.2235C36.4216 26.4871 36.8562 27.294 37.3941 27.8569C42.4085 33.1028 51.0228 32.5506 55.2979 26.692C55.5989 26.2805 55.8928 26.1202 56.3863 26.1469C57.0952 26.1861 57.8077 26.1469 58.5185 26.1594C59.3111 26.1736 59.7244 26.5619 59.7298 27.3421C59.7422 29.3639 59.7404 31.3857 59.7315 33.4074C59.728 34.3284 59.3325 34.69 58.3493 34.69C53.44 34.6917 48.5308 34.69 43.6215 34.69C40.2228 34.69 36.8241 34.69 33.4254 34.69C32.3424 34.69 32.004 34.3444 32.0004 33.2489C31.9986 32.6949 32.0004 32.1409 32.0004 31.4926V31.4943Z" fill="white"/>
<path d="M45.8757 10.1572C51.111 10.1466 55.4395 14.4377 55.4627 19.664C55.4858 24.9954 51.2089 29.3382 45.9203 29.3524C40.5942 29.3667 36.2835 25.0916 36.2657 19.778C36.2479 14.4769 40.5515 10.1679 45.8757 10.1572ZM50.9115 14.3522C48.8095 12.1006 44.2387 11.2029 40.8614 14.2043C37.7798 16.9422 37.5464 21.7 40.3324 24.787C43.113 27.8668 47.8797 28.061 50.9685 25.1967C53.8506 22.5247 53.8737 18.2728 52.1975 16.1014C51.9464 16.39 51.7006 16.6714 51.4565 16.9564C49.8943 18.7769 48.3393 20.601 46.7717 22.4143C46.2284 23.0431 45.6762 23.1607 45.165 22.6726C44.0766 21.6323 43.0399 20.5386 41.9622 19.4449C42.4539 18.9586 42.9348 18.4848 43.5458 17.8809C44.2815 18.7003 45.0154 19.5144 45.7724 20.3551C47.5448 18.2835 49.2317 16.3152 50.9132 14.3504L50.9115 14.3522Z" fill="white"/>
<path d="M21.3612 20.8494V18.6922H31.999C31.999 17.9869 31.9901 17.3492 32.0008 16.7114C32.0151 15.8867 32.4052 15.5055 33.2406 15.4913C33.7714 15.4824 34.304 15.4913 34.9257 15.4913C33.8747 18.3413 33.864 21.1576 34.9292 24.0183C34.247 24.0183 33.6307 24.045 33.0161 24.0112C32.398 23.9773 32.024 23.5587 32.0044 22.9103C31.9848 22.2477 31.999 21.5833 31.999 20.8512H21.3594L21.3612 20.8494Z" fill="white"/>
<path d="M56.858 24.0184C57.8448 19.4547 57.8448 19.3336 56.8438 15.4984C57.4921 15.4984 58.1245 15.4628 58.7533 15.5091C59.3358 15.5519 59.7116 15.9295 59.717 16.512C59.7419 18.6656 59.7419 20.8174 59.7205 22.971C59.7152 23.5873 59.3322 23.9667 58.7177 24.0094C58.1031 24.0504 57.485 24.0184 56.8598 24.0184H56.858Z" fill="white"/>
</svg>
