<svg width="64" height="57" viewBox="0 0 64 57" fill="none" xmlns="http://www.w3.org/2000/svg">
<path d="M0 13.1572C0.414282 13.1773 0.826894 13.2157 1.24118 13.2157C3.44957 13.2224 5.65796 13.219 7.86635 13.219H8.57966V43.3664H7.86635C5.49091 43.3664 3.11547 43.3648 0.740029 43.3698C0.492796 43.3698 0.247233 43.4082 0 43.4282V13.1572H0Z" fill="white"/>
<path d="M27.222 15.3867C34.3617 15.3968 40.1416 21.1833 40.1283 28.3113C40.1149 35.4427 34.3233 41.2092 27.1836 41.1992C20.0472 41.1892 14.2657 35.3976 14.2774 28.2729C14.2891 21.1449 20.0823 15.3767 27.2203 15.3867H27.222ZM27.2304 32.5845C29.6075 32.5711 31.5169 30.6517 31.5102 28.2813C31.5052 25.9108 29.5874 24.0031 27.207 24.0015C24.8048 23.9998 22.8754 25.9392 22.8954 28.3347C22.9155 30.7018 24.8499 32.5978 27.2287 32.5845H27.2304Z" fill="white"/>
<path d="M63.9973 21.8201H58.6768V43.326H50.0403V21.8468H44.6914V13.2588H63.999V21.8217L63.9973 21.8201Z" fill="white"/>
<path d="M12.8113 8.47826C12.1632 7.58955 11.5017 6.68248 10.8418 5.77206C10.7951 5.70691 10.7633 5.63341 10.7266 5.56492C19.6771 -1.41441 34.0199 -1.8621 43.7088 5.5716C42.9938 6.55385 42.2788 7.5361 41.5939 8.47659C31.9803 2.33418 22.4434 2.33585 12.813 8.47659L12.8113 8.47826Z" fill="white"/>
<path d="M41.5927 48.1108C42.2726 49.0429 42.9793 50.0151 43.6875 50.9857C35.5522 57.519 21.2328 58.8955 10.6836 51.0341C11.3986 50.0519 12.1135 49.068 12.8118 48.1074C22.3938 54.2415 31.9289 54.2598 41.5927 48.1124V48.1108Z" fill="white"/>
<path d="M17.2777 14.6229C16.5226 13.5855 15.816 12.6133 15.1094 11.6411C21.6443 6.56109 32.0248 6.13177 39.3115 11.6227C38.5982 12.6033 37.8849 13.5855 37.1332 14.6196C34.1396 12.498 30.8371 11.4055 27.1971 11.4072C23.5721 11.4089 20.2846 12.4947 17.2777 14.6212V14.6229Z" fill="white"/>
<path d="M39.3131 44.9635C32.1668 50.3208 21.9484 50.1504 15.0977 44.9551C15.8143 43.9712 16.5309 42.9856 17.2409 42.0117C23.8911 46.2615 30.4862 46.2598 37.1665 42.0151C37.8581 42.9639 38.5764 43.9512 39.3131 44.9635Z" fill="white"/>
</svg>
