<svg width="64" height="65" viewBox="0 0 64 65" fill="none" xmlns="http://www.w3.org/2000/svg">
<path d="M45.3884 39.1587H43.483V34.606C45.1214 34.606 46.7788 34.5507 48.4286 34.6423C48.8863 34.6671 49.3861 35.0581 49.7504 35.4014C50.91 36.4942 52.0143 37.6462 53.1453 38.7715C53.7538 39.3762 55.3196 39.2884 55.8422 38.6285C57.5245 36.4981 60.5513 36.2501 62.5349 38.0811C64.467 39.8644 64.4689 42.9714 62.5387 44.7566C60.5532 46.5933 57.5245 46.3626 55.8594 44.2092C55.56 43.8221 55.2701 43.6981 54.8028 43.6943C53.7862 43.6847 52.68 43.8354 51.7759 43.4883C50.8795 43.1431 50.1871 42.2676 49.3555 41.5829C49.058 42.0769 48.7452 42.5957 48.3561 43.2441C48.9722 43.8182 49.5806 44.4171 50.2272 44.9683C50.3588 45.0809 50.662 45.0866 50.847 45.0256C52.8497 44.3637 54.5815 44.7452 56.073 46.2634C58.0585 48.2832 60.1222 50.2286 62.06 52.2923C65.7792 56.2519 63.8834 62.6909 58.6212 64.0374C56.1913 64.6592 53.9483 64.1423 52.1211 62.4315C49.882 60.3335 47.7248 58.1439 45.5963 55.9314C44.3108 54.5944 44.0781 52.9542 44.7151 51.2242C44.8639 50.8199 44.8162 50.5872 44.5168 50.2992C43.9694 49.7728 43.4658 49.2044 42.9318 48.6399C36.6644 52.8149 29.9813 53.986 22.8557 51.7755C17.1109 49.994 12.7566 46.374 9.77356 41.148C3.92771 30.9116 7.12052 17.6521 16.9659 11.03C27.5686 3.89866 42.6037 6.75006 49.4738 18.518C49.9335 18.0317 50.3702 17.572 50.8032 17.1086C51.3372 16.5345 51.9876 16.2522 52.7753 16.2865C53.0137 16.298 53.2521 16.2693 53.4886 16.2903C54.6483 16.3952 55.5485 16.1759 56.4564 15.2127C58.1787 13.3855 61.1483 13.6449 62.8191 15.5217C64.5128 17.4252 64.3468 20.3338 62.4491 21.9893C60.5113 23.6811 57.6732 23.4827 55.9929 21.5544C55.7335 21.2569 55.6191 20.7782 55.0374 20.8449C54.2897 20.9327 53.5325 20.6943 52.8917 21.4362C51.9304 22.55 50.8165 23.5323 49.7866 24.5889C49.2201 25.1688 48.5621 25.4453 47.7458 25.432C46.342 25.4091 44.9402 25.4262 43.4811 25.4262V20.8812H45.3884C42.7411 15.6266 35.6784 10.6867 27.1318 11.8959C18.4403 13.1261 11.7056 20.5741 11.4386 29.195C11.1544 38.3043 17.1338 45.9964 26.0542 47.8903C34.4024 49.6622 42.2013 45.1972 45.3884 39.1587Z" fill="white"/>
<path d="M0 7.14679C1.50294 7.14679 2.9048 7.15061 4.30666 7.14679C5.95074 7.14107 6.85099 6.23129 6.85671 4.57195C6.86052 3.17391 6.85671 1.77396 6.85671 0.328231C7.14089 0.31488 7.36977 0.293899 7.60055 0.293899C11.8138 0.291992 16.027 0.291992 20.2383 0.291992C21.9434 0.291992 22.8493 1.18651 22.8551 2.87065C22.8589 3.84527 22.8551 4.81799 22.8551 5.65911C21.0622 6.45826 19.2827 7.09339 17.6672 8.01842C16.006 8.96825 14.5164 10.2137 12.9295 11.3009C12.6244 11.5107 12.2257 11.6938 11.8672 11.6976C9.32093 11.7319 6.77469 11.7148 4.22846 11.7148C4.08541 11.7148 3.94237 11.7148 3.79932 11.7148C2.8247 11.7205 2.30019 12.1115 2.29066 12.8401C2.27921 13.5725 2.81516 13.9959 3.76881 13.9978C5.67228 14.0016 7.57576 13.9978 9.48114 13.9978C9.71764 13.9978 9.95415 13.9978 10.3184 13.9978C9.75388 14.7702 9.2618 15.4797 8.72394 16.1492C8.62477 16.2713 8.33676 16.2751 8.1365 16.277C6.66026 16.2865 5.18592 16.277 3.70968 16.2846C2.80944 16.2884 2.28875 16.7157 2.29066 17.429C2.29256 18.1404 2.81516 18.5638 3.7154 18.5676C4.88075 18.5734 6.04611 18.5676 7.30301 18.5676C6.99022 19.2886 6.72129 19.9638 6.39705 20.6103C6.3303 20.7439 6.05755 20.8354 5.87636 20.8411C5.11535 20.8659 4.35434 20.843 3.59143 20.8545C2.79799 20.8659 2.3021 21.3008 2.28875 21.9702C2.27349 22.6645 2.78655 23.1203 3.61622 23.1337C4.23037 23.1432 4.84642 23.1356 5.5216 23.1356C4.72626 26.1453 4.36388 29.1283 4.6843 32.2162C3.69442 32.2162 2.71598 32.3211 1.77187 32.1895C0.673273 32.0407 0.00572187 31.0547 0.00381458 29.8493C-0.00190729 25.8764 0.00190729 21.9035 0.00190729 17.9287C0.00190729 14.6215 0.00190729 11.3142 0.00190729 8.00698V7.14679H0Z" fill="white"/>
<path d="M18.2854 32.905C18.2854 28.7605 18.2721 24.7876 18.2931 20.8147C18.2988 19.5578 19.2658 18.5851 20.5227 18.5832C26.6394 18.566 32.758 18.566 38.8746 18.5832C40.1296 18.587 41.1214 19.5502 41.1271 20.7956C41.1481 25.5066 41.1329 30.2196 41.129 34.9306C41.129 34.9687 41.0928 35.0069 40.9917 35.2071C40.1239 34.2973 39.3 33.4238 38.4646 32.5636C37.8352 31.9151 37.1886 31.2819 36.5477 30.643C35.6723 29.7733 35.184 29.7694 34.3238 30.6277C33.1833 31.7664 32.0465 32.9107 30.8011 34.16C30.1164 33.4333 29.4965 32.7486 28.848 32.0906C27.5778 30.8032 26.2961 29.5253 25.0105 28.2531C24.2686 27.5188 23.7269 27.5188 22.9907 28.2474C21.6232 29.6054 20.2633 30.9729 18.8996 32.3347C18.7375 32.4969 18.5639 32.6475 18.2854 32.9069V32.905ZM30.8392 20.8586C28.9701 20.8662 27.4366 22.3959 27.429 24.2631C27.4194 26.1628 28.972 27.7172 30.8697 27.7096C32.7389 27.7019 34.2704 26.1723 34.28 24.3051C34.2895 22.4035 32.7408 20.8529 30.8392 20.8605V20.8586Z" fill="white"/>
<path d="M43.4628 32.281V27.7112H44.2143C47.7371 27.7112 51.2598 27.7054 54.7807 27.7188C55.2365 27.7188 55.5417 27.6291 55.8488 27.2267C57.4967 25.0638 60.5312 24.8178 62.5224 26.6412C64.464 28.4168 64.4793 31.5219 62.5567 33.3167C60.5598 35.1801 57.5024 34.9379 55.8316 32.7464C55.5455 32.3707 55.2613 32.2715 54.8265 32.2734C51.3037 32.2867 47.7809 32.281 44.2601 32.281H43.4609H43.4628Z" fill="white"/>
<path d="M23.9496 30.5186C27.6078 34.1748 31.1859 37.751 34.8135 41.3748C34.5942 41.392 34.3978 41.4187 34.2013 41.4187C29.7554 41.4206 25.3114 41.4225 20.8655 41.4187C19.1833 41.4187 18.4147 40.4956 18.2525 38.8115C18.0694 36.9232 18.6226 35.5347 20.1007 34.3198C21.4854 33.1811 22.6717 31.8003 23.9515 30.5186H23.9496Z" fill="white"/>
<path d="M32.5742 35.7713C33.5565 34.7891 34.5063 33.8392 35.5496 32.7979C36.0646 33.3395 36.61 33.927 37.1727 34.4972C38.2751 35.613 39.389 36.7154 40.499 37.8255C41.3096 38.6361 41.3516 39.6965 40.6096 40.5853C39.7399 41.6286 38.4582 41.6877 37.4988 40.7284C36.0035 39.233 34.5063 37.7377 33.0129 36.2424C32.8489 36.0784 32.6963 35.9029 32.5761 35.7713H32.5742Z" fill="white"/>
<path d="M4.5286 4.86161H0.273438C1.69437 3.44068 3.13628 1.99877 4.5286 0.606445V4.86161Z" fill="white"/>
</svg>
