<svg width="34" height="18" viewBox="0 0 34 18" fill="none" xmlns="http://www.w3.org/2000/svg">
<path fill-rule="evenodd" clip-rule="evenodd" d="M33.6161 9.38365C33.7795 9.22022 33.8713 8.99856 33.8713 8.76744C33.8713 8.53631 33.7795 8.31465 33.6161 8.15122L26.2215 0.756666C26.0581 0.593237 25.8364 0.501424 25.6053 0.501423C25.3742 0.501423 25.1525 0.593236 24.9891 0.756666C24.8257 0.920096 24.7338 1.14176 24.7338 1.37288C24.7338 1.60401 24.8257 1.82566 24.9891 1.98909L30.8961 7.89611L1.52514 7.89488C1.41056 7.89488 1.29709 7.91745 1.19123 7.9613C1.08536 8.00515 0.989173 8.06942 0.908148 8.15045C0.827124 8.23147 0.762851 8.32766 0.719001 8.43352C0.675151 8.53939 0.652583 8.65285 0.652584 8.76744C0.652583 8.88202 0.675152 8.99549 0.719001 9.10135C0.762851 9.20721 0.827125 9.3034 0.908149 9.38443C0.989174 9.46545 1.08536 9.52973 1.19123 9.57358C1.29709 9.61742 1.41055 9.63999 1.52514 9.63999L30.8961 9.63876L24.9891 15.5458C24.8257 15.7092 24.7338 15.9309 24.7338 16.162C24.7338 16.3931 24.8257 16.6148 24.9891 16.7782C25.1525 16.9416 25.3742 17.0335 25.6053 17.0335C25.8364 17.0335 26.0581 16.9416 26.2215 16.7782L33.6161 9.38365Z" fill="#1DA1F2"/>
</svg>
