<svg width="41" height="36" viewBox="0 0 41 36" fill="none" xmlns="http://www.w3.org/2000/svg">
<path d="M0.5 8.35535C0.758927 8.36788 1.01681 8.39189 1.27574 8.39189C2.65598 8.39606 4.03623 8.39398 5.41647 8.39398H5.86228V27.2361H5.41647C3.93182 27.2361 2.44717 27.2351 0.962518 27.2382C0.807997 27.2382 0.654521 27.2622 0.5 27.2747V8.35535H0.5Z" fill="white"/>
<path d="M17.5123 9.74903C21.9746 9.7553 25.587 13.3719 25.5787 17.8269C25.5703 22.284 21.9506 25.8881 17.4883 25.8818C13.0281 25.8756 9.41458 22.2558 9.42189 17.8029C9.42919 13.3479 13.05 9.74277 17.5113 9.74903H17.5123ZM17.5175 20.4976C19.0032 20.4893 20.1966 19.2896 20.1924 17.8081C20.1893 16.3266 18.9907 15.1343 17.5029 15.1332C16.0015 15.1322 14.7957 16.3443 14.8082 17.8415C14.8207 19.321 16.0297 20.506 17.5165 20.4976H17.5175Z" fill="white"/>
<path d="M40.4998 13.7696H37.1745V27.2108H31.7767V13.7863H28.4336V8.41882H40.5008V13.7707L40.4998 13.7696Z" fill="white"/>
<path d="M8.50611 5.43099C8.10101 4.87555 7.68757 4.30863 7.27517 3.73962C7.24593 3.6989 7.22609 3.65296 7.20312 3.61015C12.7972 -0.751925 21.7615 -1.03173 27.817 3.61433C27.3702 4.22824 26.9233 4.84214 26.4952 5.42995C20.4867 1.59094 14.5262 1.59199 8.50715 5.42995L8.50611 5.43099Z" fill="white"/>
<path d="M26.4979 30.2013C26.9228 30.7839 27.3645 31.3915 27.8072 31.9981C22.7226 36.0814 13.7729 36.9417 7.17969 32.0284C7.62654 31.4145 8.0734 30.7996 8.50982 30.1992C14.4985 34.033 20.458 34.0445 26.4979 30.2024V30.2013Z" fill="white"/>
<path d="M11.2966 9.27188C10.8247 8.62352 10.383 8.01587 9.94141 7.40823C14.0258 4.23325 20.5135 3.96493 25.0677 7.39675C24.6219 8.00961 24.1761 8.62352 23.7063 9.26979C21.8353 7.94383 19.7712 7.26102 17.4962 7.26206C15.2306 7.26311 13.1759 7.94175 11.2966 9.27083V9.27188Z" fill="white"/>
<path d="M25.0722 28.2345C20.6057 31.5828 14.2192 31.4763 9.9375 28.2293C10.3854 27.6143 10.8333 26.9983 11.277 26.3896C15.4334 29.0457 19.5554 29.0447 23.7306 26.3917C24.1628 26.9848 24.6117 27.6018 25.0722 28.2345Z" fill="white"/>
</svg>
