<svg width="40" height="41" viewBox="0 0 40 41" fill="none" xmlns="http://www.w3.org/2000/svg">
<path d="M28.3668 25.0212H27.1759V22.1758C28.1999 22.1758 29.2358 22.1412 30.2669 22.1984C30.553 22.2139 30.8653 22.4583 31.093 22.6729C31.8178 23.3559 32.508 24.0759 33.2149 24.7792C33.5951 25.1571 34.5738 25.1023 34.9004 24.6898C35.9518 23.3583 37.8436 23.2033 39.0833 24.3477C40.2909 25.4623 40.2921 27.4041 39.0857 28.5199C37.8448 29.6678 35.9518 29.5236 34.9111 28.1778C34.724 27.9358 34.5428 27.8583 34.2507 27.8559C33.6154 27.85 32.924 27.9441 32.359 27.7272C31.7987 27.5114 31.366 26.9643 30.8462 26.5363C30.6603 26.845 30.4648 27.1693 30.2216 27.5746C30.6066 27.9334 30.9869 28.3077 31.391 28.6522C31.4733 28.7225 31.6628 28.7261 31.7784 28.688C33.0301 28.2743 34.1125 28.5127 35.0447 29.4616C36.2856 30.724 37.5754 31.9399 38.7865 33.2297C41.111 35.7044 39.9261 39.7288 36.6372 40.5704C35.1186 40.959 33.7167 40.6359 32.5747 39.5667C31.1752 38.2554 29.827 36.8869 28.4967 35.5041C27.6932 34.6685 27.5478 33.6433 27.946 32.5621C28.0389 32.3094 28.0091 32.164 27.822 31.984C27.4799 31.655 27.1652 31.2998 26.8314 30.9469C22.9143 33.5563 18.7373 34.2882 14.2838 32.9067C10.6933 31.7933 7.97187 29.5308 6.1075 26.2645C2.45384 19.8668 4.44935 11.5796 10.6027 7.44076C17.2294 2.98366 26.6264 4.76578 30.9201 12.1208C31.2074 11.8168 31.4804 11.5295 31.751 11.2398C32.0848 10.881 32.4913 10.7046 32.9836 10.7261C33.1326 10.7332 33.2816 10.7153 33.4294 10.7284C34.1542 10.794 34.7168 10.6569 35.2843 10.0549C36.3607 8.91295 38.2167 9.07507 39.261 10.2481C40.3195 11.4377 40.2158 13.2556 39.0297 14.2903C37.8186 15.3477 36.0448 15.2237 34.9946 14.0185C34.8325 13.8326 34.761 13.5334 34.3974 13.5751C33.9301 13.6299 33.4568 13.4809 33.0563 13.9446C32.4555 14.6408 31.7594 15.2547 31.1156 15.9151C30.7616 16.2775 30.3503 16.4503 29.8401 16.442C28.9628 16.4277 28.0866 16.4384 27.1747 16.4384V13.5977H28.3668C26.7122 10.3136 22.298 7.22619 16.9564 7.98195C11.5242 8.75083 7.31505 13.4058 7.14816 18.7939C6.97054 24.4872 10.7076 29.2947 16.2829 30.4784C21.5005 31.5859 26.3748 28.7952 28.3668 25.0212Z" fill="white"/>
<path d="M0 5.01374C0.93934 5.01374 1.8155 5.01613 2.69166 5.01374C3.71922 5.01017 4.28187 4.44156 4.28544 3.40447C4.28783 2.53069 4.28544 1.65572 4.28544 0.752141C4.46306 0.743797 4.6061 0.730684 4.75034 0.730684C7.3836 0.729492 10.0168 0.729492 12.6489 0.729492C13.7146 0.729492 14.2808 1.28857 14.2844 2.34115C14.2868 2.95029 14.2844 3.55824 14.2844 4.08394C13.1639 4.58341 12.0517 4.98036 11.042 5.55851C10.0037 6.15216 9.07274 6.93057 8.08095 7.61004C7.89022 7.74117 7.64108 7.8556 7.41697 7.85799C5.82558 7.87945 4.23418 7.86872 2.64279 7.86872C2.55338 7.86872 2.46398 7.86872 2.37458 7.86872C1.76544 7.87229 1.43762 8.11666 1.43166 8.57203C1.42451 9.02978 1.75947 9.29442 2.3555 9.29561C3.54518 9.29799 4.73485 9.29561 5.92571 9.29561C6.07353 9.29561 6.22134 9.29561 6.44902 9.29561C6.09618 9.77839 5.78862 10.2218 5.45247 10.6402C5.39048 10.7165 5.21048 10.7189 5.08531 10.7201C4.16266 10.7261 3.2412 10.7201 2.31855 10.7249C1.7559 10.7273 1.43047 10.9943 1.43166 11.4401C1.43285 11.8848 1.75947 12.1494 2.32213 12.1518C3.05047 12.1554 3.77882 12.1518 4.56438 12.1518C4.36889 12.6024 4.20081 13.0244 3.99816 13.4285C3.95643 13.5119 3.78597 13.5691 3.67272 13.5727C3.19709 13.5882 2.72146 13.5739 2.24464 13.581C1.74875 13.5882 1.43881 13.86 1.43047 14.2784C1.42093 14.7123 1.74159 14.9972 2.26014 15.0056C2.64398 15.0115 3.02901 15.0067 3.451 15.0067C2.95392 16.8878 2.72742 18.7522 2.92769 20.6821C2.30901 20.6821 1.69749 20.7477 1.10742 20.6654C0.420796 20.5725 0.00357617 19.9562 0.00238411 19.2028C-0.00119206 16.7197 0.00119206 14.2367 0.00119206 11.7524C0.00119206 9.68541 0.00119206 7.61838 0.00119206 5.55136V5.01374H0Z" fill="white"/>
<path d="M11.4284 21.1126C11.4284 18.5223 11.4201 16.0392 11.4332 13.5562C11.4367 12.7706 12.0411 12.1627 12.8267 12.1615C16.6496 12.1508 20.4737 12.1508 24.2966 12.1615C25.081 12.1639 25.7009 12.7659 25.7045 13.5443C25.7176 16.4887 25.708 19.4342 25.7057 22.3786C25.7057 22.4024 25.683 22.4263 25.6198 22.5514C25.0774 21.9828 24.5625 21.4369 24.0404 20.8993C23.647 20.494 23.2429 20.0982 22.8423 19.6989C22.2952 19.1553 21.99 19.1529 21.4524 19.6893C20.7395 20.401 20.0291 21.1162 19.2507 21.897C18.8227 21.4428 18.4353 21.0149 18.03 20.6036C17.2361 19.799 16.435 19.0003 15.6316 18.2052C15.1679 17.7463 14.8293 17.7463 14.3692 18.2016C13.5145 19.0504 12.6646 19.9051 11.8122 20.7562C11.7109 20.8575 11.6024 20.9517 11.4284 21.1138V21.1126ZM19.2745 13.5836C18.1063 13.5884 17.1479 14.5444 17.1431 15.7114C17.1372 16.8987 18.1075 17.8702 19.2936 17.8655C20.4618 17.8607 21.419 16.9047 21.425 15.7377C21.4309 14.5492 20.463 13.58 19.2745 13.5848V13.5836Z" fill="white"/>
<path d="M27.1653 20.7229V17.8667H27.6349C29.8367 17.8667 32.0384 17.8631 34.2389 17.8715C34.5238 17.8715 34.7145 17.8155 34.9065 17.5639C35.9364 16.2121 37.833 16.0584 39.0775 17.198C40.291 18.3078 40.3005 20.2484 39.0989 21.3702C37.8508 22.5348 35.94 22.3834 34.8957 21.0137C34.7169 20.7789 34.5393 20.7169 34.2675 20.7181C32.0658 20.7265 29.8641 20.7229 27.6635 20.7229H27.1641H27.1653Z" fill="white"/>
<path d="M14.9685 19.6211C17.2549 21.9063 19.4912 24.1414 21.7585 26.4063C21.6214 26.417 21.4986 26.4337 21.3758 26.4337C18.5971 26.4349 15.8196 26.4361 13.041 26.4337C11.9896 26.4337 11.5092 25.8567 11.4078 24.8042C11.2934 23.624 11.6391 22.7562 12.5629 21.9969C13.4284 21.2852 14.1698 20.4222 14.9697 19.6211H14.9685Z" fill="white"/>
<path d="M20.3594 22.9043C20.9733 22.2904 21.5669 21.6968 22.219 21.0459C22.5408 21.3844 22.8818 21.7516 23.2334 22.108C23.9224 22.8054 24.6186 23.4944 25.3124 24.1882C25.819 24.6948 25.8452 25.3576 25.3815 25.9131C24.8379 26.5651 24.0369 26.6021 23.4373 26.0025C22.5027 25.0679 21.5669 24.1333 20.6335 23.1988C20.531 23.0962 20.4357 22.9866 20.3606 22.9043H20.3594Z" fill="white"/>
<path d="M2.83135 3.58526H0.171875C1.05996 2.69718 1.96115 1.79598 2.83135 0.925781V3.58526Z" fill="white"/>
</svg>
