<svg width="80" height="31" viewBox="0 0 80 31" fill="none" xmlns="http://www.w3.org/2000/svg">
<path d="M10.6043 16.2247C13.1904 16.2247 15.2868 14.0478 15.2868 11.3624C15.2868 8.67695 13.1904 6.5 10.6043 6.5C8.01828 6.5 5.92188 8.67695 5.92188 11.3624C5.92188 14.0478 8.01828 16.2247 10.6043 16.2247Z" fill="#1DA1F2"/>
<path d="M11.4066 4.12849C12.2266 4.12849 12.8913 3.43821 12.8913 2.58671C12.8913 1.7352 12.2266 1.04492 11.4066 1.04492C10.5866 1.04492 9.92188 1.7352 9.92188 2.58671C9.92188 3.43821 10.5866 4.12849 11.4066 4.12849Z" fill="#1DA1F2"/>
<path d="M17.9092 5.86793C19.4231 5.86793 20.6504 4.59348 20.6504 3.02137C20.6504 1.44926 19.4231 0.174805 17.9092 0.174805C16.3953 0.174805 15.168 1.44926 15.168 3.02137C15.168 4.59348 16.3953 5.86793 17.9092 5.86793Z" fill="#1DA1F2"/>
<path d="M21.43 18.8248C22.813 18.8248 23.9342 17.6606 23.9342 16.2244C23.9342 14.7883 22.813 13.624 21.43 13.624C20.0469 13.624 18.9258 14.7883 18.9258 16.2244C18.9258 17.6606 20.0469 18.8248 21.43 18.8248Z" fill="#1DA1F2"/>
<path d="M3.75057 18.1251C4.76052 18.1251 5.57926 17.2749 5.57926 16.2261C5.57926 15.1773 4.76052 14.3271 3.75057 14.3271C2.74061 14.3271 1.92188 15.1773 1.92188 16.2261C1.92188 17.2749 2.74061 18.1251 3.75057 18.1251Z" fill="#1DA1F2"/>
<path d="M11.4057 3.125H11.0625V7.31543H11.4057V3.125Z" fill="#1DA1F2"/>
<path d="M7.45051 13.5118L7.24609 13.2256L4.00488 15.7218L4.2093 16.008L7.45051 13.5118Z" fill="#1DA1F2"/>
<path d="M12.1172 2.40831V2.76465L16.1526 2.76465V2.40831L12.1172 2.40831Z" fill="#1DA1F2"/>
<path d="M16.5638 5.39461L16.3594 5.1084L13.1182 7.60464L13.3226 7.89085L16.5638 5.39461Z" fill="#1DA1F2"/>
<path d="M20.198 15.9534L20.3555 15.6016L13.6618 12.371L13.5043 12.7228L20.198 15.9534Z" fill="#1DA1F2"/>
<path d="M73.6142 21.7241C73.7591 21.5361 73.8952 21.3403 74.0506 21.1619C74.7325 20.381 75.581 19.9919 76.6 19.9894C77.2503 19.9881 77.877 20.0829 78.4483 20.4214C79.2608 20.9025 79.6508 21.6846 79.851 22.5943C80.0112 23.3228 80.0076 24.0625 79.9919 24.8035C79.9823 25.2742 79.9767 25.7449 79.9695 26.216C79.9503 27.4205 79.9311 28.6255 79.9111 29.8301C79.9099 29.9128 79.9051 29.9972 79.8902 30.0783C79.8566 30.2604 79.7609 30.3852 79.5695 30.386C78.8424 30.3889 78.1148 30.3935 77.3877 30.3844C77.1378 30.3814 76.988 30.2081 76.9696 29.9461C76.964 29.8634 76.9664 29.7798 76.9664 29.6966C76.9664 28.0546 76.9744 26.4122 76.9604 24.7702C76.9568 24.3657 76.9148 23.954 76.8311 23.559C76.7046 22.9627 76.3662 22.5311 75.758 22.4097C75.1361 22.2854 74.5767 22.423 74.1351 22.922C73.7319 23.3777 73.5681 23.9332 73.5665 24.5407C73.5625 26.2937 73.5653 28.0467 73.5649 29.7993C73.5649 30.2359 73.4208 30.3873 73.0019 30.3881C72.3681 30.3893 71.7342 30.3893 71.1004 30.3885C70.73 30.3881 70.5774 30.2367 70.5606 29.8563C70.5574 29.7873 70.559 29.7178 70.559 29.6484C70.559 25.1311 70.559 20.6135 70.559 16.0962C70.559 16.0339 70.5578 15.9715 70.5598 15.9091C70.5714 15.4937 70.7268 15.3374 71.1284 15.3374C71.7622 15.337 72.3961 15.3366 73.0299 15.3374C73.3943 15.3378 73.5645 15.5162 73.5645 15.8983C73.5649 17.7553 73.5649 19.6122 73.5649 21.4688C73.5649 21.549 73.5649 21.6293 73.5649 21.7095C73.5813 21.7158 73.5977 21.7199 73.6142 21.7241Z" fill="#1DA1F2"/>
<path d="M13.9053 30.681C13.0884 30.6444 12.2924 30.5417 11.5348 30.2202C10.183 29.6473 9.28569 28.6306 8.88607 27.1766C8.53651 25.9042 8.54572 24.6128 8.93292 23.3512C9.3934 21.851 10.386 20.8477 11.8107 20.3487C13.2378 19.849 14.6981 19.8228 16.1296 20.3255C17.8341 20.9242 18.8243 22.204 19.1423 24.0257C19.3485 25.2078 19.2844 26.3907 18.8544 27.5175C18.2281 29.1591 17.0365 30.1271 15.3888 30.488C14.9027 30.594 14.4002 30.6186 13.9053 30.681ZM11.6886 25.3292C11.7066 25.5704 11.7146 25.8128 11.7438 26.0523C11.8816 27.1828 12.3777 28.118 13.6898 28.2489C14.7513 28.3546 15.6387 27.9479 15.9762 26.7724C16.2565 25.797 16.2625 24.8069 15.9926 23.8282C15.8465 23.2993 15.5594 22.8427 15.0577 22.6211C14.7465 22.4839 14.3958 22.4015 14.0578 22.3812C13.223 22.3309 12.4802 22.6664 12.0457 23.5571C11.7743 24.1142 11.7014 24.7138 11.6886 25.3292Z" fill="#1DA1F2"/>
<path d="M56.7922 26.2088C55.9318 26.2088 55.0709 26.2079 54.2104 26.2092C53.814 26.2096 53.6046 26.5123 53.7279 26.9081C53.9898 27.7476 54.5828 28.19 55.3852 28.3472C56.4175 28.5493 57.4273 28.437 58.4055 28.0379C58.8576 27.8537 59.1451 28.0483 59.1483 28.5497C59.1503 28.8682 59.1467 29.1871 59.1495 29.5056C59.1519 29.7776 59.041 29.9651 58.7951 30.072C58.1765 30.3414 57.5318 30.5169 56.8659 30.5688C56.2561 30.6162 55.6395 30.6474 55.0296 30.6121C52.6736 30.4757 51.0451 29.0075 50.7152 26.6241C50.5406 25.3639 50.5786 24.1131 51.0904 22.9385C51.8247 21.2524 53.0928 20.2624 54.8727 20.0333C55.8745 19.9044 56.8567 20.0021 57.7745 20.4815C58.9004 21.0699 59.5275 22.0582 59.833 23.2965C60.034 24.1119 60.0056 24.9443 59.9924 25.7743C59.9892 25.983 59.8662 26.121 59.6712 26.1726C59.5759 26.198 59.4738 26.2063 59.3749 26.2067C58.5136 26.2096 57.6527 26.2088 56.7922 26.2088ZM55.4453 24.2969C55.812 24.2969 56.1788 24.2969 56.5456 24.2969C56.5524 24.2969 56.5588 24.2969 56.5656 24.2969C57.0545 24.2919 57.2451 24.0628 57.1634 23.5634C56.9432 22.2208 55.9502 21.9111 55.0561 22.1543C54.4006 22.3323 54.029 22.8649 53.7815 23.4911C53.5881 23.9809 53.7931 24.2919 54.3053 24.2965C54.6853 24.2994 55.0653 24.2965 55.4453 24.2969Z" fill="#1DA1F2"/>
<path d="M47.778 24.9689C47.778 25.5718 47.7604 26.1755 47.7856 26.7772C47.7976 27.0616 47.8541 27.3577 47.9558 27.6213C48.1404 28.1003 48.6565 28.3793 49.1822 28.2454C49.7881 28.0911 50.0319 28.3705 49.9847 28.9581C49.9595 29.2745 49.9815 29.5951 49.9799 29.914C49.9783 30.2009 49.863 30.3655 49.5959 30.4462C48.9672 30.6358 48.3226 30.6566 47.6747 30.6329C47.1846 30.6146 46.7101 30.5202 46.2636 30.2969C45.44 29.8845 45.0328 29.1606 44.8778 28.2641C44.8169 27.9119 44.7929 27.5493 44.7901 27.1909C44.7801 25.8537 44.7865 24.5161 44.7861 23.1789C44.7861 22.7128 44.6043 22.5215 44.1591 22.5182C43.9857 22.5169 43.8119 22.5207 43.6385 22.5169C43.3851 22.5111 43.2009 22.3427 43.1953 22.0824C43.1848 21.6184 43.1852 21.1539 43.1945 20.6899C43.1997 20.4308 43.3794 20.2533 43.6309 20.2421C43.8307 20.2329 44.0313 20.2392 44.2315 20.2371C44.5903 20.2333 44.7845 20.0317 44.7865 19.6554C44.7885 19.2466 44.7849 18.8375 44.7877 18.4288C44.7897 18.1518 44.8954 17.9988 45.1461 17.924C45.8236 17.7215 46.5019 17.5215 47.1814 17.3269C47.5065 17.2338 47.7732 17.4421 47.776 17.7922C47.7812 18.4159 47.7768 19.0396 47.778 19.6633C47.7788 20.0375 47.971 20.235 48.3362 20.2367C48.7166 20.2387 49.097 20.2342 49.4774 20.2383C49.8117 20.2421 49.9779 20.4196 49.9791 20.7668C49.9807 21.1826 49.9811 21.5984 49.9787 22.0142C49.9771 22.3381 49.8077 22.5152 49.4986 22.5173C49.125 22.5198 48.751 22.5152 48.3774 22.519C47.9606 22.5231 47.7776 22.7148 47.7772 23.1402C47.7776 23.7493 47.778 24.3589 47.778 24.9689Z" fill="#1DA1F2"/>
<path d="M66.0235 30.6164C65.0485 30.6563 64.1072 30.4975 63.2527 29.9869C61.8913 29.1732 61.1049 27.9478 60.9267 26.3237C60.7957 25.1283 60.8982 23.9557 61.4128 22.8601C62.1347 21.3237 63.3568 20.4468 64.9456 20.1275C66.0944 19.8967 67.2512 19.9067 68.3892 20.2406C68.7972 20.3603 68.8761 20.4838 68.8761 20.9241C68.8761 21.3466 68.8777 21.769 68.8757 22.1919C68.8733 22.6322 68.5662 22.8414 68.1718 22.6713C67.284 22.2888 66.3823 22.2372 65.4902 22.6198C64.5348 23.0293 64.0739 23.8322 63.9542 24.8696C63.8841 25.4759 63.925 26.0738 64.1448 26.6447C64.5048 27.5802 65.1971 28.0751 66.1381 28.2243C66.85 28.3374 67.5287 28.211 68.1862 27.9208C68.5614 27.7549 68.8721 27.9719 68.8753 28.3981C68.8785 28.8276 68.8757 29.2572 68.8761 29.6867C68.8761 29.9341 68.7708 30.105 68.5477 30.2035C67.9643 30.4617 67.3485 30.5657 66.7223 30.6143C66.4912 30.6314 66.2566 30.6164 66.0235 30.6164Z" fill="#1DA1F2"/>
<path d="M5.14111 30.6171C4.14488 30.6549 3.18669 30.4861 2.31899 29.9509C1.02325 29.1518 0.259259 27.9738 0.0634568 26.4166C-0.0710823 25.3451 -0.00181065 24.2861 0.368973 23.2695C0.899922 21.8125 1.90296 20.8345 3.31202 20.3381C4.64419 19.869 6.0084 19.8799 7.37381 20.1971C7.48993 20.2241 7.60245 20.2707 7.71377 20.316C7.87633 20.3821 7.98244 20.5073 7.98445 20.6907C7.99125 21.2308 8.00487 21.7713 7.98244 22.3106C7.96763 22.6699 7.6477 22.8254 7.29894 22.6715C6.51573 22.3256 5.7125 22.2711 4.89605 22.5106C3.91023 22.8 3.20831 23.6869 3.09219 24.746C3.0113 25.4811 3.03973 26.1983 3.37048 26.8719C3.76969 27.6852 4.43478 28.0977 5.28606 28.2266C5.99279 28.3339 6.66428 28.2054 7.31575 27.9189C7.67893 27.7593 7.98164 27.9534 7.99285 28.3622C8.00527 28.8121 7.99726 29.2628 7.99526 29.7131C7.99406 29.9638 7.87193 30.1189 7.6485 30.2146C7.0683 30.4628 6.46007 30.5676 5.84023 30.6137C5.60879 30.6316 5.37455 30.6171 5.14111 30.6171Z" fill="#1DA1F2"/>
<path d="M42.6331 24.4478C42.6295 23.98 42.5967 23.5047 42.5114 23.0461C42.2467 21.6228 41.4575 20.6765 40.0901 20.279C39.3405 20.0611 38.5753 20.0611 37.8085 20.0798C35.8285 20.1289 33.8488 20.185 31.8688 20.234C31.4327 20.2449 31.327 20.3355 31.2449 20.7842C30.9514 22.392 30.3348 25.7114 30.1958 26.3696C30.1814 26.4369 30.1858 26.5068 30.2082 26.5717C30.2883 26.8037 30.4401 27.2902 30.4401 27.2902C30.4697 27.4249 30.3712 27.553 30.2383 27.553H29.6272C29.4967 27.553 29.3986 27.429 29.4242 27.296C29.4242 27.296 29.5644 26.8008 29.6409 26.5717C29.6629 26.5064 29.6665 26.4303 29.6521 26.3629C29.2441 24.4727 28.8296 22.5821 28.416 20.6931C28.3395 20.3434 28.209 20.2365 27.8566 20.2357C27.2528 20.2345 26.6494 20.234 26.0455 20.2357C25.756 20.2365 25.5038 20.4411 25.4333 20.7326C25.0229 22.4241 24.2056 25.7114 24.0307 26.3629C24.0122 26.4311 24.0134 26.5043 24.0343 26.5717C24.1071 26.8095 24.2489 27.2902 24.2489 27.2902C24.2785 27.4249 24.18 27.553 24.0471 27.553H23.4368C23.3063 27.553 23.2082 27.429 23.2338 27.296C23.2338 27.296 23.374 26.7962 23.4485 26.5717C23.4693 26.5085 23.4749 26.4286 23.4637 26.3629C23.4144 26.081 23.3532 25.8041 23.2983 25.5234C22.9816 23.9056 22.6657 22.2877 22.3457 20.6706C22.2805 20.3417 22.1531 20.2378 21.8364 20.2365C21.2226 20.234 20.6079 20.2511 19.9949 20.2303C19.5684 20.2162 19.4107 20.575 19.5012 20.9189C20.2976 23.9376 21.0828 26.9592 21.872 29.98C21.9541 30.2935 22.0774 30.39 22.3838 30.39C23.0913 30.3895 23.7984 30.3895 24.506 30.39C24.9048 30.39 25.0057 30.306 25.1014 29.9035C25.6059 27.7829 26.1108 25.6627 26.6165 23.5426C26.7202 23.5421 26.711 23.5426 26.8151 23.5421C26.8219 23.5667 26.8284 23.5908 26.8336 23.6157C27.2796 25.7276 27.7237 27.8403 28.1693 29.9521C28.2382 30.2789 28.374 30.3883 28.7023 30.3891C29.407 30.3904 30.1114 30.3895 30.8161 30.39C31.1096 30.39 31.3674 30.187 31.4459 29.8931C32.091 27.4802 32.7361 25.0673 33.3803 22.654C33.4997 22.207 33.4981 22.185 33.9333 22.1746C35.3996 22.1397 36.8659 22.1043 38.3322 22.1035C39.0942 22.1031 39.5807 22.5422 39.7553 23.2839C39.8318 23.6091 39.6748 23.8914 39.3717 23.9388C38.8716 24.017 38.3671 24.0669 37.8682 24.1534C37.2263 24.2644 36.5756 24.353 35.9518 24.5363C35.1141 24.7825 34.437 25.2898 34.0646 26.1434C33.7884 26.7767 33.7271 27.4461 33.804 28.1334C33.9185 29.1567 34.387 29.9342 35.2835 30.3987C35.8773 30.7064 36.5172 30.7625 37.1727 30.7118C38.2285 30.6303 39.0394 30.123 39.6276 29.2145L39.807 29.2727C39.807 29.4873 39.8066 29.7022 39.8074 29.9168C39.8082 30.313 39.9723 30.4881 40.3519 30.4897C40.9325 30.4922 41.5131 30.4922 42.0937 30.4897C42.4717 30.4881 42.6383 30.3097 42.6383 29.9151C42.6387 28.0927 42.6467 26.2702 42.6331 24.4478ZM39.0182 28.153C38.691 28.4166 38.3126 28.5305 37.8758 28.5189C37.1995 28.5201 36.7198 28.2062 36.5852 27.6137C36.4439 26.9904 36.6473 26.4519 37.1835 26.1534C37.5695 25.9384 37.9951 25.9043 38.4151 25.8419C38.6978 25.7999 38.9817 25.7667 39.2648 25.7276C39.5239 25.6918 39.7926 25.8881 39.8098 26.1546C39.8614 26.9525 39.648 27.6457 39.0182 28.153Z" fill="#1DA1F2"/>
</svg>
