<svg width="41" height="36" viewBox="0 0 41 36" fill="none" xmlns="http://www.w3.org/2000/svg">
<path d="M27.8617 31.5314C30.4101 31.5314 32.9228 31.5314 35.4356 31.5314C36.3451 31.5314 36.4999 31.6862 36.4999 32.5924C36.4999 33.3004 36.5032 34.0085 36.4988 34.7177C36.4954 35.2899 36.2583 35.5315 35.6883 35.5315C25.5639 35.5337 15.4406 35.5326 5.31617 35.5315C4.7417 35.5315 4.50346 35.2933 4.50012 34.7244C4.49566 33.9606 4.49789 33.1969 4.50012 32.4332C4.50123 31.7474 4.71276 31.5336 5.39076 31.5325C7.82111 31.5314 10.2515 31.5325 12.6818 31.5325H13.1472V27.5324H12.664C8.92774 27.5324 5.19259 27.5324 1.45633 27.5324C0.692606 27.5324 0.500005 27.3387 0.500005 26.5727C0.500005 18.3231 0.500005 10.0746 0.500005 1.82504C0.498892 1.05686 0.69038 0.864258 1.45522 0.864258C14.148 0.864258 26.8408 0.864258 39.5348 0.864258C40.3052 0.864258 40.5 1.05575 40.5 1.81614C40.5 10.0657 40.5 18.3142 40.5 26.5638C40.5 27.3476 40.3107 27.5324 39.5092 27.5324C35.8007 27.5324 32.0934 27.5324 28.385 27.5324H27.8617V31.5325V31.5314ZM1.85045 23.5022H39.1329V2.21915H1.85045V23.5022ZM14.5176 31.5025H26.4657V27.5524H14.5176V31.5025Z" fill="white"/>
<path d="M5.1458 8.87442V7.53066C4.94541 7.53066 4.7439 7.53846 4.54239 7.52955C4.09818 7.50951 3.84212 7.26681 3.83544 6.82594C3.82431 5.96535 3.82431 5.10477 3.83544 4.24307C3.84101 3.79775 4.09373 3.53723 4.53571 3.53612C6.72893 3.52833 8.92325 3.52833 11.1165 3.53612C11.5618 3.53723 11.8201 3.79329 11.8268 4.23416C11.839 5.09475 11.839 5.95533 11.8268 6.81703C11.8212 7.27794 11.5596 7.51619 11.0875 7.53178C10.9094 7.53734 10.7302 7.53178 10.5253 7.53178V8.87442C11.22 8.73749 11.3937 9.21176 11.6264 9.72722C12.3444 11.3159 12.5838 12.958 12.5181 14.6981C12.4357 16.8891 12.4992 19.0846 12.4981 21.2789C12.4981 21.9892 12.2899 22.1985 11.5841 22.1985C9.07132 22.1985 6.55748 22.1996 4.04474 22.1985C3.38789 22.1985 3.16523 21.9792 3.16523 21.329C3.16412 18.372 3.16189 15.414 3.16968 12.457C3.16968 12.2411 3.21867 12.0162 3.29104 11.8113C3.53708 11.1044 3.82542 10.4119 4.05476 9.7005C4.22955 9.1572 4.46891 8.75196 5.1458 8.87554V8.87442ZM11.1465 19.5611H4.53237V20.8425H11.1465V19.5611ZM4.82406 11.5041H10.8381C10.699 11.12 10.5876 10.7637 10.434 10.4264C10.3873 10.3228 10.2247 10.2093 10.1145 10.2082C8.58926 10.1937 7.06403 10.1948 5.5388 10.2071C5.43526 10.2071 5.2794 10.3039 5.23932 10.3952C5.08346 10.747 4.96545 11.1144 4.82294 11.5041H4.82406ZM5.84941 14.8351H9.7972V13.5537H5.84941V14.8351ZM9.81279 16.2278H5.85053V17.5092H9.81279V16.2278ZM9.14703 7.56184H6.5174V8.84103H9.14703V7.56184Z" fill="white"/>
<path d="M20.498 6.85377H13.8516V5.54564H20.498C20.498 5.10477 20.4936 4.7062 20.4991 4.30875C20.5069 3.78661 20.7463 3.53389 21.2606 3.53278C26.5232 3.52944 31.7847 3.52944 37.0473 3.53278C37.5873 3.53278 37.8277 3.78105 37.83 4.32991C37.8344 5.57904 37.8355 6.82928 37.83 8.07841C37.8277 8.61836 37.5806 8.85661 37.0328 8.86218C36.5196 8.86774 35.9485 9.00245 35.5076 8.82321C35.0857 8.65176 34.7973 8.15077 34.4533 7.79229C31.316 4.51917 25.9376 4.87209 23.2623 8.53709C23.0876 8.77645 22.9217 8.8889 22.6211 8.87108C22.1646 8.84325 21.7048 8.87108 21.2473 8.86218C20.7552 8.85216 20.5103 8.60612 20.5002 8.11292C20.4924 7.71324 20.4991 7.31245 20.4991 6.85377H20.498Z" fill="white"/>
<path d="M20.5002 20.2003H13.8594V18.8766H20.5002C20.5002 18.4524 20.4958 18.0561 20.5002 17.6597C20.5069 17.112 20.7441 16.8771 21.2874 16.8648C21.3007 16.8648 21.3152 16.8648 21.3285 16.8648C21.8418 16.8648 22.4118 16.7279 22.8538 16.906C23.2635 17.0708 23.5351 17.5751 23.8713 17.9269C27.0053 21.2056 32.3892 20.8605 35.0612 17.1988C35.2493 16.9417 35.433 16.8415 35.7414 16.8582C36.1845 16.8827 36.6298 16.8582 37.074 16.866C37.5695 16.8749 37.8278 17.1176 37.8311 17.6052C37.8389 18.8688 37.8378 20.1324 37.8322 21.396C37.83 21.9716 37.5828 22.1976 36.9683 22.1976C33.9 22.1987 30.8317 22.1976 27.7635 22.1976C25.6393 22.1976 23.5151 22.1976 21.3909 22.1976C20.714 22.1976 20.5025 21.9816 20.5002 21.2969C20.4991 20.9507 20.5002 20.6044 20.5002 20.1992V20.2003Z" fill="white"/>
<path d="M29.1743 6.86427C32.4463 6.85759 35.1516 9.53955 35.1661 12.806C35.1806 16.1381 32.5075 18.8524 29.2021 18.8613C25.8733 18.8702 23.1791 16.1982 23.168 12.8772C23.1569 9.56404 25.8466 6.87095 29.1743 6.86427ZM32.3216 9.48611C31.0079 8.07889 28.1512 7.51778 26.0403 9.3937C24.1143 11.1049 23.9685 14.0785 25.7097 16.0079C27.4476 17.9328 30.4268 18.0541 32.3572 16.2639C34.1586 14.594 34.173 11.9365 33.1254 10.5794C32.9684 10.7597 32.8148 10.9356 32.6623 11.1138C31.6859 12.2516 30.714 13.3916 29.7343 14.5249C29.3947 14.9179 29.0496 14.9914 28.7301 14.6864C28.0499 14.0362 27.4019 13.3526 26.7284 12.6691C27.0356 12.3651 27.3362 12.069 27.7181 11.6916C28.1779 12.2037 28.6366 12.7125 29.1097 13.238C30.2175 11.9432 31.2718 10.713 32.3227 9.48499L32.3216 9.48611Z" fill="white"/>
<path d="M13.8527 13.5476V12.1994H20.5013C20.5013 11.7585 20.4958 11.3599 20.5025 10.9614C20.5114 10.4459 20.7552 10.2077 21.2773 10.1988C21.6091 10.1932 21.942 10.1988 22.3305 10.1988C21.6737 11.9801 21.667 13.7402 22.3327 15.5282C21.9063 15.5282 21.5211 15.5449 21.137 15.5237C20.7507 15.5026 20.5169 15.2409 20.5047 14.8357C20.4924 14.4215 20.5013 14.0063 20.5013 13.5487H13.8516L13.8527 13.5476Z" fill="white"/>
<path d="M36.0362 15.5275C36.653 12.6752 36.653 12.5995 36.0273 10.2025C36.4326 10.2025 36.8278 10.1802 37.2208 10.2092C37.5849 10.2359 37.8198 10.4719 37.8231 10.836C37.8387 12.182 37.8387 13.5268 37.8253 14.8728C37.822 15.258 37.5826 15.4952 37.1985 15.5219C36.8145 15.5475 36.4281 15.5275 36.0374 15.5275H36.0362Z" fill="white"/>
</svg>
