<svg width="40" height="41" viewBox="0 0 40 41" fill="none" xmlns="http://www.w3.org/2000/svg">
<path d="M0 15.0714C0.0657357 14.8106 0.11895 14.5445 0.199294 14.2889C0.952646 11.8796 2.5783 10.4512 5.05748 9.98683C5.13052 9.97326 5.20251 9.95448 5.2839 9.90753C3.9504 9.65085 2.86211 9.01019 2.09102 7.89477C1.31993 6.78039 1.06638 5.5408 1.36584 4.2167C1.88442 1.91908 4.00466 0.360202 6.30854 0.553235C8.61868 0.747312 10.4697 2.61817 10.6168 4.91057C10.7619 7.16541 9.25934 9.43173 6.58505 9.92735C6.78956 9.97118 6.99511 10.014 7.19962 10.0588C9.86766 10.6494 11.7709 12.9929 11.7938 15.7267C11.8043 16.9225 11.7959 18.1182 11.7959 19.3672H0V15.0714Z" fill="white"/>
<path d="M20.626 40.5327C23.051 39.9234 24.3271 38.0932 25.2985 36.0105C25.8619 34.8033 26.247 33.5136 26.7113 32.2605C26.7468 32.1645 26.7749 32.0653 26.8177 31.9297C29.3209 32.5213 31.6916 33.3894 33.9193 34.8794C33.168 35.4982 32.4877 36.1159 31.75 36.6574C28.7126 38.8893 25.3141 40.1727 21.5495 40.468C21.4483 40.4764 21.3502 40.5108 21.25 40.5338H20.625L20.626 40.5327Z" fill="white"/>
<path d="M18.7491 40.5336C18.0051 40.4303 17.2559 40.3531 16.5172 40.2206C12.5563 39.5048 9.13287 37.731 6.22694 34.9524C6.2092 34.9346 6.19876 34.9096 6.16016 34.8501C8.29709 33.4102 10.6615 32.5316 13.1667 31.9316C13.4193 32.6975 13.6144 33.4676 13.9243 34.1896C14.4001 35.2967 14.8884 36.4079 15.4915 37.4472C16.3711 38.9622 17.5992 40.11 19.373 40.5347H18.748L18.7491 40.5336Z" fill="white"/>
<path d="M34.7226 9.93483C34.9991 9.99117 35.2787 10.035 35.5511 10.107C38.2024 10.8061 39.9908 13.1246 39.9971 15.8688C40.0002 17.0134 39.9971 18.1591 39.9971 19.335H28.2471C28.2398 19.3246 28.2116 19.3037 28.2116 19.2839C28.2294 17.8273 28.1448 16.3613 28.2909 14.9182C28.5445 12.4234 30.6543 10.3564 33.1355 9.99013C33.2221 9.97761 33.3077 9.95674 33.4047 9.90874C32.0587 9.64789 30.96 8.99784 30.192 7.86572C29.4251 6.73361 29.181 5.48358 29.5076 4.14487C30.0647 1.86812 32.2027 0.326984 34.468 0.554451C36.8 0.789221 38.6219 2.66217 38.7419 4.94622C38.8692 7.39096 37.2654 9.35886 34.7226 9.93379V9.93483Z" fill="white"/>
<path d="M14.082 19.3393C14.1415 17.7376 14.0445 16.1432 14.2949 14.6052C14.6987 12.124 16.6749 10.3679 19.1604 9.98078C19.2209 9.97139 19.2783 9.94948 19.3461 9.90461C18.0262 9.65211 16.9462 9.02188 16.1741 7.92315C15.3936 6.81399 15.1359 5.57754 15.4176 4.25134C15.9028 1.9652 18.0095 0.389632 20.3332 0.55032C22.6412 0.70892 24.5309 2.60482 24.679 4.91079C24.822 7.15624 23.3299 9.42777 20.6473 9.92653C20.8528 9.97035 21.0584 10.0131 21.2629 10.058C23.9153 10.6454 25.8268 12.9817 25.855 15.6862C25.8675 16.8945 25.8571 18.1038 25.8571 19.3393H14.082Z" fill="white"/>
<path d="M35.4538 33.1185C32.9924 31.3885 30.267 30.3419 27.457 29.6679C27.7346 27.0144 28.009 24.386 28.2866 21.7295H39.9364C39.6432 26.0034 38.1041 29.7628 35.4549 33.1185H35.4538Z" fill="white"/>
<path d="M12.6047 29.6293C9.73843 30.3065 6.99214 31.3332 4.5161 33.0799C1.87937 29.7326 0.361187 25.9888 0.0585938 21.7285H11.7815C11.8785 23.0558 11.9432 24.3778 12.0799 25.6914C12.2155 26.9947 12.4232 28.2896 12.6058 29.6283L12.6047 29.6293Z" fill="white"/>
<path d="M14.1641 21.7295H25.8306C25.7659 24.2441 25.5374 26.7191 25.0397 29.2015C21.6757 28.687 18.3346 28.6943 14.9602 29.2004C14.4562 26.7296 14.2361 24.2535 14.1651 21.7305L14.1641 21.7295Z" fill="white"/>
<path d="M24.4953 31.4903C23.8828 33.5062 23.239 35.4397 21.9087 37.0497C20.6534 38.5689 19.3398 38.5637 18.0793 37.0413C16.9472 35.6745 16.3232 34.0499 15.7796 32.3887C15.6878 32.107 15.6095 31.8211 15.5156 31.5049C18.5165 31.0469 21.4746 31.0563 24.4943 31.4903H24.4953Z" fill="white"/>
</svg>
