<svg width="56" height="56" viewBox="0 0 56 56" fill="none" xmlns="http://www.w3.org/2000/svg">
<circle cx="28" cy="28" r="28" fill="white" fill-opacity="0.25"/>
<path d="M13.7557 27.2166C13.3814 27.1882 13.0593 27.4488 13.0072 27.8136C12.9551 28.1783 13.1919 28.5194 13.552 28.6C16.1529 29.1685 18.498 29.4243 20.6346 29.4243C30.7398 29.4243 35.9701 23.6398 39.6891 17.4999L41.9394 18.8501C42.1716 18.9922 42.47 18.9827 42.6927 18.8264C42.9201 18.6701 43.0338 18.4 42.9912 18.13L41.5462 9.58343C41.5083 9.37024 41.3804 9.19021 41.1909 9.08599C41.0014 8.98176 40.7787 8.97229 40.5798 9.05756L32.9286 12.3028C32.6775 12.4118 32.507 12.6534 32.5022 12.9281C32.4975 13.2029 32.6491 13.4588 32.8954 13.5772L35.2026 14.7047C29.0485 28.2541 14.3905 27.2687 13.7604 27.2214L13.7557 27.2166ZM36.7518 14.6384C36.8939 14.2973 36.7518 13.8993 36.4154 13.7383L34.8852 12.9945L40.305 10.6968L41.3472 16.8698L39.8028 15.9412C39.6417 15.8465 39.4522 15.8181 39.2674 15.8654C39.0874 15.9128 38.9311 16.0265 38.8363 16.1876C35.0842 22.5643 30.1761 28.2305 20.1656 28.0315C25.5712 26.8802 32.957 23.635 36.7518 14.6431V14.6384Z" fill="white"/>
<path d="M16.0052 36.1504C14.655 36.1504 13.5938 37.4722 13.5938 39.1587V44.4269C13.5938 46.1135 14.655 47.4353 16.0052 47.4353H19.3025C20.6527 47.4353 21.7139 46.1135 21.7139 44.4269V39.1587C21.7139 37.4722 20.6527 36.1504 19.3025 36.1504H16.0052ZM20.3116 39.1587V44.4269C20.3116 45.2797 19.8378 46.0329 19.3025 46.0329H16.0052C15.4651 46.0329 14.9961 45.2844 14.9961 44.4269V39.1587C14.9961 38.306 15.4698 37.5527 16.0052 37.5527H19.3025C19.8426 37.5527 20.3116 38.3012 20.3116 39.1587Z" fill="white"/>
<path d="M25.9739 31.2148C24.6237 31.2148 23.5625 32.5366 23.5625 34.2232V44.4326C23.5625 46.1192 24.6237 47.441 25.9739 47.441H29.2713C30.6215 47.441 31.6827 46.1192 31.6827 44.4326V34.2232C31.6827 32.5366 30.6215 31.2148 29.2713 31.2148H25.9739ZM30.2804 34.2232V44.4326C30.2804 45.2854 29.8066 46.0387 29.2713 46.0387H25.9739C25.4338 46.0387 24.9648 45.2901 24.9648 44.4326V34.2232C24.9648 33.3704 25.4386 32.6172 25.9739 32.6172H29.2713C29.8113 32.6172 30.2804 33.3657 30.2804 34.2232Z" fill="white"/>
<path d="M40.2244 25.2891H36.927C35.5768 25.2891 34.5156 26.6108 34.5156 28.2974V44.4335C34.5156 46.1201 35.5768 47.4419 36.927 47.4419H40.2244C41.5746 47.4419 42.6358 46.1201 42.6358 44.4335V28.2974C42.6358 26.6108 41.5746 25.2891 40.2244 25.2891ZM41.2335 44.4335C41.2335 45.2863 40.7597 46.0396 40.2244 46.0396H36.927C36.387 46.0396 35.9179 45.291 35.9179 44.4335V28.2974C35.9179 27.4399 36.3917 26.6914 36.927 26.6914H40.2244C40.7645 26.6914 41.2335 27.4399 41.2335 28.2974V44.4335Z" fill="white"/>
</svg>
