<svg width="56" height="56" viewBox="0 0 56 56" fill="none" xmlns="http://www.w3.org/2000/svg">
<g clip-path="url(#clip0_347_3584)">
<path d="M17.6981 40.5782C19.6769 42.1005 21.929 43.1177 24.4001 43.6066V45.6386C24.4001 46.9141 25.4393 47.951 26.7171 47.951H29.5833C30.8611 47.951 31.9003 46.9141 31.9003 45.6386V43.61C34.0424 43.2173 35.9412 42.484 37.5538 41.4274C40.4374 39.5205 41.9318 36.8559 41.9967 33.509C42.0396 31.3901 41.4383 29.562 40.2057 28.0721C38.3822 25.8964 35.5902 24.4807 31.9003 23.8586V20.4074C32.1459 20.5777 32.3869 20.7654 32.6232 20.9716C33.1469 21.4049 33.7586 21.6262 34.4398 21.6296C35.0028 21.6459 35.6388 21.325 35.735 21.2751C35.7674 21.2612 35.7987 21.2439 35.8288 21.2253L39.0425 19.2084C39.872 18.6847 40.055 18.0035 40.0632 17.5239C40.0724 16.9771 39.8535 16.4778 39.4306 16.0769C37.4577 13.8456 34.9263 12.3882 31.8991 11.7395V9.31818C31.8991 8.04034 30.86 7 29.5821 7H26.716C25.4381 7 24.399 8.03918 24.399 9.31818V11.6352C23.098 11.8646 21.8966 12.2295 20.8203 12.7219C16.6879 14.6033 14.6269 17.4868 14.6988 21.2914C14.7324 23.1612 15.3023 24.8422 16.3925 26.2834C18.0828 28.5494 20.7751 30.0358 24.4001 30.7054V35.6719C23.2613 35.0973 22.1607 34.2389 21.1181 33.1128C20.6605 32.5347 20.0256 32.23 19.2772 32.23C18.874 32.23 18.333 32.4478 18.1187 32.5416C18.1013 32.5486 18.0851 32.5567 18.07 32.5648C18.0596 32.5706 18.0411 32.5799 18.0318 32.5857L15.1112 34.2991C14.1798 34.8378 13.9932 35.5804 14.0002 36.111C14.0095 36.5872 14.1786 37.0204 14.5053 37.3981C15.307 38.508 16.3809 39.5784 17.6981 40.5782ZM15.8677 35.5978L18.7535 33.9052C18.9343 33.8287 19.1949 33.7407 19.2772 33.7337C19.5738 33.7337 19.7742 33.8311 19.9491 34.0593C19.963 34.0767 19.9769 34.094 19.992 34.1103C21.512 35.7588 23.1628 36.9057 24.9006 37.5198C25.1311 37.6009 25.386 37.5661 25.5853 37.4248C25.7845 37.2834 25.9027 37.0552 25.9027 36.8107V30.0717C25.9027 29.701 25.6316 29.3859 25.2655 29.3291C21.7205 28.7823 19.1393 27.4558 17.5927 25.3821C16.6833 24.1795 16.228 22.8333 16.2002 21.2659C16.14 18.0707 17.8557 15.7236 21.4448 14.0889C22.5662 13.5757 23.8475 13.2166 25.2539 13.0219C25.6258 12.9698 25.9027 12.6524 25.9027 12.277V9.31818C25.9027 8.86867 26.2676 8.50374 26.7171 8.50374H29.5833C30.0328 8.50374 30.3966 8.86867 30.3966 9.31818V12.3569C30.3966 12.723 30.6595 13.0347 31.0187 13.0972C33.9903 13.6151 36.4498 14.9601 38.3277 17.0964C38.3462 17.1173 38.3648 17.137 38.3856 17.1555C38.5432 17.2991 38.5629 17.408 38.5606 17.4961C38.5594 17.5737 38.5559 17.7347 38.2408 17.934L35.063 19.9278C34.8916 20.0124 34.5834 20.1247 34.4455 20.1247C34.1154 20.1236 33.8327 20.0216 33.594 19.8235C32.9302 19.2466 32.2143 18.7762 31.4682 18.4241C31.2353 18.314 30.9631 18.3314 30.7453 18.4692C30.5275 18.6071 30.3966 18.8469 30.3966 19.1041V24.5016C30.3966 24.8769 30.6723 25.1944 31.0442 25.2454C34.6761 25.7539 37.3719 27.0283 39.0506 29.0325C40.0574 30.2501 40.53 31.704 40.493 33.4777C40.4374 36.3416 39.2047 38.5323 36.7267 40.1716C35.1407 41.2108 33.2256 41.9024 31.0372 42.2291C30.6688 42.2835 30.3966 42.5998 30.3966 42.9717V45.6374C30.3966 46.0835 30.0316 46.4472 29.5833 46.4472H26.7171C26.2676 46.4472 25.9027 46.0835 25.9027 45.6374V42.9763C25.9027 42.6068 25.6339 42.2917 25.269 42.2337C22.7979 41.841 20.5597 40.8829 18.6099 39.3826C17.3981 38.4616 16.4203 37.4885 15.7044 36.491C15.6881 36.469 15.6708 36.4481 15.6534 36.4273C15.5225 36.2813 15.5039 36.1713 15.5016 36.0844C15.5005 35.9882 15.497 35.8086 15.8665 35.5955L15.8677 35.5978Z" fill="white"/>
<path d="M25.9023 18.957C25.9023 18.7091 25.7795 18.4774 25.5744 18.3372C25.3694 18.197 25.1099 18.1669 24.8782 18.2572L24.658 18.343C24.6407 18.3499 24.6233 18.3569 24.6059 18.365C22.8624 19.1979 22.5032 20.4202 22.5079 21.2995V21.3018C22.5171 22.3224 22.9353 23.6953 24.8805 24.4437C24.9674 24.4773 25.0589 24.4935 25.1504 24.4935C25.2999 24.4935 25.4482 24.4483 25.5756 24.3614C25.7795 24.2212 25.9011 23.9895 25.9011 23.7416V18.9558L25.9023 18.957ZM24.3997 22.3908C24.0765 22.027 24.0139 21.632 24.0116 21.2902C24.0104 21.0203 24.0626 20.6681 24.3997 20.3078V22.3908Z" fill="white"/>
<path d="M30.7437 37.3395C30.8665 37.4183 31.0078 37.4588 31.1503 37.4588C31.2569 37.4588 31.3635 37.4368 31.4631 37.3905C31.6809 37.2908 31.9358 37.1692 32.1698 37.0209C33.4998 36.21 34.2088 34.9982 34.2215 33.5153C34.2296 32.3591 33.7431 30.8229 31.3762 30.0768C31.148 30.005 30.8989 30.0455 30.7054 30.1869C30.512 30.3282 30.3984 30.553 30.3984 30.7928V36.7058C30.3984 36.9618 30.5282 37.2005 30.7437 37.3383V37.3395ZM31.901 31.9548C32.6123 32.4286 32.7212 33.0102 32.7178 33.5025C32.7108 34.2671 32.4502 34.8684 31.901 35.3585V31.9536V31.9548Z" fill="white"/>
</g>
<circle cx="28" cy="28" r="28" fill="white" fill-opacity="0.25"/>
<defs>
<clipPath id="clip0_347_3584">
<rect width="28" height="40.951" fill="white" transform="translate(14 7)"/>
</clipPath>
</defs>
</svg>
