<svg width="56" height="56" viewBox="0 0 56 56" fill="none" xmlns="http://www.w3.org/2000/svg">
<circle cx="28" cy="28" r="28" fill="white" fill-opacity="0.25"/>
<path d="M22.5316 25.1498C17.278 25.1498 13 29.4233 13 34.6814C13 39.9394 17.2736 44.213 22.5316 44.213C26.6844 44.213 30.2285 41.5415 31.5263 37.8228C32.1706 37.8496 32.7569 37.8586 33.2402 37.8586C36.1668 37.8586 42.9732 37.5498 42.9732 34.6814C42.9732 34.6724 42.9732 34.6635 42.9732 34.6545C42.9732 34.6456 42.9732 34.6411 42.9732 34.6322V30.8016C42.9911 30.7166 43 30.6316 43 30.5376C43 30.4526 42.9911 30.372 42.9732 30.2915V27.1411C42.9911 27.0561 43 26.9666 43 26.8771C43 26.7921 42.9911 26.7115 42.9732 26.631V23.1226C42.9911 23.0376 43 22.9526 43 22.8586C43 22.7064 42.9687 22.5677 42.9195 22.4335C42.9508 22.3082 42.9687 22.1784 42.9687 22.0397C42.9687 22.0307 42.9687 22.0218 42.9687 22.0128C42.9687 22.0039 42.9687 21.9994 42.9687 21.9905V18.1599C42.9866 18.0749 42.9955 17.9854 42.9955 17.8959C42.9955 17.8109 42.9866 17.7303 42.9687 17.6498V14.1459C42.9866 14.0609 42.9955 13.9714 42.9955 13.8819C42.9955 13.7252 42.9642 13.5776 42.9105 13.4388C42.8255 13.1435 42.642 12.8974 42.3959 12.7452C40.409 11.0582 34.0725 11 33.2312 11C32.3899 11 26.0579 11.0582 24.0665 12.7452C23.8204 12.9019 23.6369 13.1435 23.5519 13.4388C23.4982 13.5776 23.4669 13.7252 23.4669 13.8819C23.4669 13.9714 23.4758 14.0609 23.4937 14.1459V17.6542C23.4758 17.7348 23.4669 17.8153 23.4669 17.9004C23.4669 17.9899 23.4758 18.0794 23.4937 18.1644V22.0397C23.4937 22.1784 23.5161 22.3082 23.543 22.4335C23.4937 22.5677 23.4669 22.7109 23.4669 22.8586C23.4669 22.9481 23.4758 23.0376 23.4937 23.1226V25.199C23.1715 25.1677 22.8449 25.1498 22.5182 25.1498H22.5316ZM41.8634 34.6008C41.8634 34.6232 41.8634 34.6501 41.8634 34.668C41.8634 34.6769 41.8634 34.6903 41.8634 34.6993C41.8097 35.7688 37.9612 36.6325 33.2446 36.6325C32.7748 36.6325 32.3183 36.6235 31.8663 36.6056C31.9961 35.9836 32.0632 35.3392 32.0632 34.6769C32.0632 34.5069 32.0588 34.3413 32.0498 34.1757C32.4884 34.1891 32.8956 34.1936 33.2402 34.1936C35.4329 34.1936 39.8094 34.0191 41.8634 32.7214V34.5964V34.6008ZM41.8634 30.9403C41.8634 30.9627 41.8634 30.9896 41.8634 31.0119C41.8634 31.0209 41.8634 31.0298 41.8634 31.0433C41.8097 32.1128 37.9612 32.9764 33.2446 32.9764C32.7882 32.9764 32.3407 32.9675 31.9066 32.9496C31.7187 31.9383 31.3786 30.9851 30.8998 30.1125C31.7903 30.1662 32.6137 30.1796 33.2491 30.1796C35.4418 30.1796 39.8183 30.0051 41.8723 28.7073V30.9403H41.8634ZM41.8634 21.9636C41.8634 21.986 41.8634 22.0128 41.8634 22.0307C41.8634 22.0397 41.8634 22.0531 41.8634 22.0621C41.8097 23.1316 37.9612 23.9952 33.2446 23.9952C28.528 23.9952 24.6796 23.1316 24.6214 22.0621C24.6214 22.0397 24.6214 22.0218 24.6214 21.9994C24.6214 21.986 24.6214 21.9726 24.6214 21.9591V19.7261C26.6709 21.0239 31.0474 21.1984 33.2446 21.1984C35.4418 21.1984 39.8138 21.0239 41.8678 19.7306V21.9636H41.8634ZM33.2402 12.4096C38.1357 12.4096 41.1653 13.318 41.6799 13.8863C41.1698 14.4547 38.1357 15.3631 33.2402 15.3631C28.3446 15.3631 25.3106 14.4547 24.8004 13.8863C25.3106 13.318 28.3446 12.4096 33.2402 12.4096ZM33.2402 16.7682C34.0143 16.7682 39.4559 16.719 41.8634 15.3899V17.9496C41.8634 17.972 41.8634 17.9988 41.8634 18.0167C41.8634 18.0257 41.8634 18.0391 41.8634 18.048C41.8097 19.1175 37.9612 19.9812 33.2446 19.9812C28.528 19.9812 24.6796 19.1131 24.6214 18.048C24.6214 18.0257 24.6214 18.0078 24.6214 17.9899C24.6214 17.9764 24.6214 17.963 24.6214 17.9496V15.3899C27.0245 16.719 32.466 16.7682 33.2446 16.7682H33.2402ZM33.2402 25.7449C34.0143 25.7449 39.4559 25.6957 41.8634 24.3667V26.9263C41.8634 26.9487 41.8634 26.9755 41.8634 26.9934C41.8634 27.0024 41.8634 27.0158 41.8634 27.0248C41.8097 28.0943 37.9612 28.9579 33.2446 28.9579C32.1125 28.9579 31.0295 28.9087 30.0406 28.8147C28.707 27.1098 26.8052 25.8702 24.6214 25.3825V24.3622C27.0245 25.6912 32.4705 25.7405 33.2446 25.7405L33.2402 25.7449ZM30.8416 34.6814C30.8416 39.2637 27.114 42.9914 22.5316 42.9914C17.9493 42.9914 14.2217 39.2637 14.2217 34.6814C14.2217 30.0991 17.9493 26.3714 22.5316 26.3714C27.114 26.3714 30.8416 30.0991 30.8416 34.6814Z" fill="white"/>
<path d="M16.1133 34.6774C16.1133 38.2171 18.9951 41.0989 22.5348 41.0989C26.0745 41.0989 28.9564 38.2171 28.9564 34.6774C28.9564 31.1377 26.0745 28.2559 22.5348 28.2559C18.9951 28.2559 16.1133 31.1377 16.1133 34.6774ZM28.1419 34.6774C28.1419 37.7696 25.627 40.2845 22.5348 40.2845C19.4426 40.2845 16.9277 37.7696 16.9277 34.6774C16.9277 31.5852 19.4426 29.0703 22.5348 29.0703C25.627 29.0703 28.1419 31.5852 28.1419 34.6774Z" fill="white"/>
<path d="M21.7482 30.6271V31.3162C21.4126 31.4415 21.1217 31.634 20.889 31.8801C20.531 32.2605 20.3341 32.7661 20.3341 33.3031C20.3341 33.5895 20.3878 33.858 20.4952 34.0997C20.6429 34.4353 20.889 34.7262 21.2381 34.9768C21.5066 35.1647 21.8377 35.3392 22.2807 35.5093C22.6432 35.6569 22.7953 35.7778 22.8535 35.8359C22.8983 35.8807 22.9117 35.912 22.9206 35.9299C22.9296 35.9523 22.9385 35.9791 22.9385 36.0328C22.9385 36.1134 22.9162 36.1626 22.858 36.2074C22.773 36.279 22.6253 36.3192 22.4552 36.3192C22.0525 36.3371 21.6766 36.1671 21.4618 36.0239L21.2202 35.8628C21.1172 35.7957 20.9875 35.7778 20.8666 35.8136C20.7458 35.8538 20.6518 35.9433 20.6116 36.0642L20.2312 37.1247C20.1685 37.2948 20.2312 37.4872 20.3789 37.5946L20.5176 37.693C20.7413 37.8541 21.0188 37.9794 21.341 38.0734C21.4529 38.1047 21.5647 38.1316 21.6811 38.154V38.7581C21.6811 38.9818 21.8646 39.1653 22.0883 39.1653H23.131C23.3547 39.1653 23.5382 38.9818 23.5382 38.7581V38.0421C23.9141 37.8989 24.2363 37.6796 24.4824 37.3977C24.827 37.0039 25.0149 36.4982 25.0149 35.9702C25.0149 35.6927 24.9702 35.4287 24.8851 35.1915C24.7598 34.838 24.5316 34.5248 24.2139 34.2608C23.9499 34.0415 23.6232 33.858 23.1891 33.679C23.1757 33.6745 23.1623 33.6656 23.1489 33.6611C22.7103 33.4821 22.5358 33.3658 22.4597 33.3031C22.4329 33.2807 22.415 33.2584 22.406 33.2449C22.406 33.2449 22.4015 33.227 22.4015 33.1912C22.4015 33.1644 22.406 33.1286 22.4374 33.1017C22.491 33.048 22.6074 33.0212 22.764 33.0167C22.9564 33.0167 23.1354 33.0436 23.3055 33.1017C23.4442 33.1465 23.5471 33.2047 23.6322 33.2494L23.8604 33.3792C23.9633 33.4374 24.0886 33.4508 24.2005 33.4105C24.3124 33.3702 24.4018 33.2807 24.4421 33.1733L24.8359 32.1307C24.9075 31.9472 24.8359 31.7369 24.6614 31.634L24.4958 31.5355C24.2228 31.3744 23.9186 31.2625 23.5919 31.1909V30.6182C23.5919 30.3944 23.4084 30.2109 23.1847 30.2109H22.1554C21.9317 30.2109 21.7482 30.3944 21.7482 30.6182V30.6271ZM22.5626 31.6161V31.0343H22.7819V31.5489C22.7819 31.7593 22.9385 31.9338 23.1489 31.9562C23.4442 31.983 23.7127 32.0591 23.9543 32.1754L23.8514 32.4529C23.7664 32.4126 23.6769 32.3723 23.5695 32.3365C23.3189 32.2515 23.0504 32.2112 22.7685 32.2112C22.3926 32.2112 22.0928 32.3186 21.878 32.5245C21.699 32.699 21.5961 32.9407 21.5961 33.1957C21.5961 33.3523 21.6229 33.4776 21.6811 33.5985C21.7348 33.7193 21.8153 33.8222 21.9317 33.9207C22.1152 34.0818 22.4015 34.2384 22.8669 34.4308C23.2339 34.583 23.4979 34.7306 23.7038 34.8962C23.9051 35.0618 24.0483 35.2542 24.1244 35.4735C24.1781 35.6211 24.2049 35.7912 24.2049 35.9747C24.2049 36.3058 24.0886 36.6235 23.8738 36.8697C23.6724 37.1023 23.3816 37.2724 23.0415 37.3574C22.858 37.4022 22.7327 37.5633 22.7327 37.7512V38.3598H22.5045V37.8094C22.5045 37.5991 22.3434 37.4245 22.133 37.4022C21.9451 37.3843 21.7572 37.3485 21.5782 37.2992C21.3992 37.25 21.2425 37.1829 21.1128 37.1068L21.2157 36.8249C21.5916 37.0263 22.0391 37.1381 22.4597 37.1381C22.8356 37.1471 23.1533 37.0352 23.3905 36.8339C23.6277 36.6325 23.7575 36.3595 23.7619 36.0373C23.7619 35.8807 23.7351 35.7464 23.6769 35.6167C23.6232 35.4914 23.5471 35.375 23.4397 35.2676C23.2563 35.0797 22.9743 34.9141 22.5895 34.7575C22.2091 34.6098 21.9317 34.4666 21.7214 34.3189C21.4931 34.1578 21.341 33.9788 21.2515 33.7819C21.1888 33.6432 21.1575 33.4821 21.1575 33.3121C21.1575 32.9809 21.2739 32.6766 21.4931 32.4439C21.6856 32.2426 21.9496 32.0949 22.2583 32.0188C22.4418 31.9741 22.5716 31.813 22.5716 31.625L22.5626 31.6161Z" fill="white"/>
</svg>
