<svg width="10" height="20" viewBox="0 0 10 20" fill="none" xmlns="http://www.w3.org/2000/svg">
<path d="M1.56043 19.3334C1.75963 19.3341 1.95644 19.2901 2.13641 19.2047C2.31638 19.1193 2.47494 18.9947 2.60043 18.84L9.04043 10.84C9.23654 10.6015 9.34375 10.3022 9.34375 9.99338C9.34375 9.68454 9.23654 9.38529 9.04043 9.14671L2.37377 1.14671C2.14745 0.87442 1.82223 0.703187 1.46967 0.670681C1.1171 0.638175 0.766055 0.747057 0.493767 0.973375C0.221478 1.19969 0.0502462 1.52491 0.0177393 1.87748C-0.0147667 2.23005 0.0941153 2.58109 0.320434 2.85338L6.28043 10L0.520434 17.1467C0.357389 17.3424 0.25382 17.5807 0.221981 17.8335C0.190142 18.0862 0.231364 18.3428 0.340772 18.5728C0.45018 18.8028 0.623193 18.9967 0.83934 19.1315C1.05549 19.2663 1.30572 19.3364 1.56043 19.3334Z" fill="#ACABAB"/>
</svg>
