<svg width="32" height="32" viewBox="0 0 32 32" fill="none" xmlns="http://www.w3.org/2000/svg">
<circle cx="16" cy="16" r="16" fill="#1877F2"/>
<path fill-rule="evenodd" clip-rule="evenodd" d="M5 16.2491C5 16.0501 5.07902 15.8594 5.21967 15.7187C5.36032 15.5781 5.55109 15.4991 5.75 15.4991L23.4395 15.4991L18.719 10.7801C18.5782 10.6392 18.4991 10.4482 18.4991 10.2491C18.4991 10.0499 18.5782 9.85888 18.719 9.71805C18.8598 9.57722 19.0508 9.49811 19.25 9.49811C19.4492 9.49811 19.6402 9.57722 19.781 9.71805L25.781 15.7181C25.8508 15.7877 25.9063 15.8705 25.9441 15.9616C25.9819 16.0527 26.0013 16.1504 26.0013 16.2491C26.0013 16.3477 25.9819 16.4454 25.9441 16.5365C25.9063 16.6276 25.8508 16.7104 25.781 16.7801L19.781 22.7801C19.6402 22.9209 19.4492 23 19.25 23C19.0508 23 18.8598 22.9209 18.719 22.7801C18.5782 22.6392 18.4991 22.4482 18.4991 22.2491C18.4991 22.0499 18.5782 21.8589 18.719 21.7181L23.4395 16.9991L5.75 16.9991C5.55109 16.9991 5.36032 16.92 5.21967 16.7794C5.07902 16.6387 5 16.448 5 16.2491Z" fill="white"/>
</svg>
