<svg width="26" height="25" viewBox="0 0 26 25" fill="none" xmlns="http://www.w3.org/2000/svg">
<path d="M13 24.6831C6.37237 24.6831 1 19.3107 1 12.6831C1 6.05547 6.37237 0.683105 13 0.683105C19.6276 0.683105 25 6.05547 25 12.6831C25 19.3107 19.6276 24.6831 13 24.6831Z" stroke="#1DA1F2" stroke-width="0.4321" stroke-miterlimit="10"/>
<path d="M7.33203 16.7322C8.36001 17.3935 9.58429 17.7757 10.8964 17.7757C15.2149 17.7757 17.6532 14.1287 17.5085 10.8536C17.9631 10.5282 18.3557 10.1149 18.6708 9.65003C18.2524 9.83599 17.803 9.95997 17.3329 10.0168C17.8133 9.72751 18.1801 9.27293 18.3557 8.73053C17.9063 8.99915 17.4104 9.19028 16.8783 9.29359C16.4547 8.83901 15.8503 8.56006 15.1788 8.56006C13.6756 8.56006 12.5753 9.95997 12.911 11.4167C10.979 11.3186 9.26401 10.3939 8.11722 8.98364C7.50766 10.0271 7.80211 11.396 8.83525 12.0883C8.45299 12.0779 8.09656 11.9694 7.78145 11.799C7.75562 12.8786 8.53048 13.8859 9.64628 14.1081C9.32084 14.1959 8.95924 14.2165 8.59763 14.1494C8.89208 15.074 9.75475 15.7456 10.7724 15.7663C9.79608 16.5359 8.56664 16.8769 7.33203 16.7322Z" fill="#1DA1F2"/>
</svg>
