<svg width="24" height="25" viewBox="0 0 24 25" fill="none" xmlns="http://www.w3.org/2000/svg">
<g opacity="0.68">
<path d="M4.5 3.74023V20.2402H13.5V3.74023H4.5ZM3.75 2.24023H14.25C14.4489 2.24023 14.6397 2.31925 14.7803 2.4599C14.921 2.60056 15 2.79132 15 2.99023V20.9902C15 21.1891 14.921 21.3799 14.7803 21.5206C14.6397 21.6612 14.4489 21.7402 14.25 21.7402H3.75C3.55109 21.7402 3.36032 21.6612 3.21967 21.5206C3.07902 21.3799 3 21.1891 3 20.9902V2.99023C3 2.79132 3.07902 2.60056 3.21967 2.4599C3.36032 2.31925 3.55109 2.24023 3.75 2.24023Z" fill="#434343"/>
<path d="M6 6.74023H12V8.24023H6V6.74023ZM6 11.2402H12V12.7402H6V11.2402ZM6 15.7402H12V17.2402H6V15.7402ZM15 12.7402H18V14.2402H15V12.7402ZM15 15.7402H18V17.2402H15V15.7402ZM1.5 20.2402H22.5V21.7402H1.5V20.2402Z" fill="#434343"/>
<path d="M15 9.74023V20.2402H19.5V9.74023H15ZM14.25 8.24023H20.25C20.4489 8.24023 20.6397 8.31925 20.7803 8.4599C20.921 8.60056 21 8.79132 21 8.99023V20.9902C21 21.1891 20.921 21.3799 20.7803 21.5206C20.6397 21.6612 20.4489 21.7402 20.25 21.7402H14.25C14.0511 21.7402 13.8603 21.6612 13.7197 21.5206C13.579 21.3799 13.5 21.1891 13.5 20.9902V8.99023C13.5 8.79132 13.579 8.60056 13.7197 8.4599C13.8603 8.31925 14.0511 8.24023 14.25 8.24023Z" fill="#434343"/>
</g>
</svg>
