<svg width="26" height="25" viewBox="0 0 26 25" fill="none" xmlns="http://www.w3.org/2000/svg">
<path d="M13 24.6831C6.37237 24.6831 1 19.3107 1 12.6831C1 6.05546 6.37237 0.683105 13 0.683105C19.6276 0.683105 25 6.05546 25 12.6831C25 19.3107 19.6276 24.6831 13 24.6831Z" stroke="#1DA1F2" stroke-width="0.4321" stroke-miterlimit="10"/>
<path d="M7.07077 12.6837C7.07077 15.9588 9.72596 18.6088 12.9959 18.6088C13.3781 18.6088 13.7449 18.5726 14.1065 18.5055C14.6282 18.8206 15.2378 19.0014 15.8938 19.0014C17.8052 19.0014 19.3549 17.4517 19.3549 15.5403C19.3549 14.8688 19.1638 14.2437 18.8331 13.7168C18.89 13.3811 18.9261 13.035 18.9261 12.6837C18.9261 9.40862 16.2709 6.7586 13.001 6.7586C12.6291 6.7586 12.2623 6.79476 11.9111 6.86192C11.3893 6.54164 10.7746 6.36084 10.1134 6.36084C8.20206 6.36084 6.65234 7.91057 6.65234 9.82189C6.65234 10.4883 6.84348 11.1081 7.16892 11.635C7.10176 11.976 7.07077 12.3273 7.07077 12.6837ZM13.0579 8.47362C14.9692 8.58727 16.0901 9.42413 16.1986 10.2093C16.2503 10.7207 15.9093 11.1236 15.3204 11.1236C14.4578 11.1236 14.37 9.97168 12.8771 9.97168C12.2055 9.97168 11.6373 10.2506 11.6373 10.855C11.6373 12.1206 16.4104 11.3871 16.4104 14.1714C16.4104 15.778 15.1241 16.8318 13.2077 16.8318C11.5185 16.8318 9.82411 16.0672 9.82927 14.75C9.83444 14.3522 10.1289 13.9855 10.5215 13.9855C11.5133 13.9855 11.5081 15.4629 13.0888 15.4629C14.1995 15.4629 14.5766 14.8585 14.5766 14.4349C14.5766 12.911 9.77761 13.846 9.77761 10.979C9.78278 9.42929 11.0587 8.35481 13.0579 8.47362Z" fill="#1DA1F2"/>
</svg>
