<svg width="14" height="23" viewBox="0 0 14 23" fill="none" xmlns="http://www.w3.org/2000/svg">
<path fill-rule="evenodd" clip-rule="evenodd" d="M12 22.7402C12.5304 22.7402 13.0391 22.5295 13.4142 22.1544C13.7893 21.7794 14 21.2707 14 20.7402V2.74023C14 2.2098 13.7893 1.70109 13.4142 1.32602C13.0391 0.950948 12.5304 0.740234 12 0.740234H2C1.46957 0.740234 0.960859 0.950948 0.585786 1.32602C0.210714 1.70109 0 2.2098 0 2.74023V20.7402C0 21.2707 0.210714 21.7794 0.585786 22.1544C0.960859 22.5295 1.46957 22.7402 2 22.7402H12ZM6 20.7402H2V2.74023H12V20.7402H8V19.7092C8 19.444 7.89464 19.1897 7.70711 19.0021C7.51957 18.8146 7.26522 18.7092 7 18.7092C6.73478 18.7092 6.48043 18.8146 6.29289 19.0021C6.10536 19.1897 6 19.444 6 19.7092V20.7402Z" fill="#434343"/>
</svg>
