<svg width="26" height="25" viewBox="0 0 26 25" fill="none" xmlns="http://www.w3.org/2000/svg">
<path d="M13 24.6832C6.37237 24.6832 1 19.3108 1 12.6832C1 6.05556 6.37237 0.683197 13 0.683197C19.6276 0.683197 25 6.05556 25 12.6832C25 19.3108 19.6276 24.6832 13 24.6832Z" stroke="#1DA1F2" stroke-width="0.4321" stroke-miterlimit="10"/>
<path d="M10.0756 10.3026H7.875V17.4158H10.0756V10.3026Z" fill="#1DA1F2"/>
<path d="M8.96584 9.37209C9.68387 9.37209 10.2676 8.7832 10.2676 8.06C10.2676 7.33679 9.68387 6.74789 8.96584 6.74789C8.2478 6.74789 7.66406 7.33679 7.66406 8.06C7.66406 8.7832 8.2478 9.37209 8.96584 9.37209Z" fill="#1DA1F2"/>
<path d="M13.6011 13.687C13.6011 12.6848 14.0608 12.0908 14.9442 12.0908C15.7552 12.0908 16.1426 12.6642 16.1426 13.687C16.1426 14.7098 16.1426 17.4218 16.1426 17.4218H18.3329C18.3329 17.4218 18.3329 14.8235 18.3329 12.9173C18.3329 11.0111 17.2533 10.0916 15.7449 10.0916C14.2365 10.0916 13.6011 11.2694 13.6011 11.2694V10.3086H11.4883V17.4218H13.6011C13.6011 17.4218 13.6011 14.7821 13.6011 13.687Z" fill="#1DA1F2"/>
</svg>
