<svg width="15" height="17" viewBox="0 0 15 17" fill="none" xmlns="http://www.w3.org/2000/svg">
<path d="M14.383 8.12715C14.5004 8.24564 14.5662 8.40568 14.5662 8.57246C14.5662 8.73924 14.5004 8.89928 14.383 9.01777L7.96897 15.4162C7.14846 16.2367 6.0356 16.6977 4.87522 16.6977C3.71484 16.6977 2.60199 16.2367 1.78147 15.4162C0.96096 14.5957 0.5 13.4828 0.5 12.3225C0.5 11.1621 0.96096 10.0492 1.78147 9.22871L9.53928 1.36933C9.82631 1.06669 10.171 0.824566 10.5531 0.657241C10.9352 0.489916 11.3469 0.400773 11.764 0.395068C12.181 0.389362 12.595 0.467209 12.9815 0.624021C13.3681 0.780832 13.7193 1.01343 14.0145 1.30811C14.3097 1.60279 14.5429 1.95359 14.7004 2.33983C14.8579 2.72606 14.9365 3.13991 14.9315 3.557C14.9265 3.97408 14.8381 4.38594 14.6715 4.76832C14.5048 5.15069 14.2633 5.49583 13.9612 5.7834L6.20335 13.6428C6.02994 13.8189 5.82317 13.9586 5.59513 14.0538C5.36709 14.1491 5.12235 14.1979 4.87522 14.1975C4.50371 14.1984 4.14031 14.0889 3.83112 13.8829C3.52193 13.677 3.28089 13.3838 3.1386 13.0406C2.9963 12.6974 2.95916 12.3197 3.03189 11.9554C3.10462 11.5911 3.28394 11.2566 3.5471 10.9943L10.0549 4.38496C10.1112 4.32179 10.1798 4.27072 10.2564 4.23484C10.3331 4.19896 10.4162 4.17901 10.5008 4.17622C10.5853 4.17342 10.6696 4.18783 10.7485 4.21857C10.8273 4.2493 10.8991 4.29573 10.9594 4.35504C11.0198 4.41435 11.0675 4.48529 11.0996 4.56358C11.1318 4.64187 11.1477 4.72586 11.1464 4.81048C11.1451 4.89509 11.1266 4.97856 11.0921 5.05582C11.0575 5.13309 11.0077 5.20254 10.9455 5.25996L4.43772 11.8771C4.37848 11.9352 4.33139 12.0045 4.2992 12.081C4.26701 12.1574 4.25036 12.2395 4.25022 12.3225C4.24928 12.4887 4.31383 12.6487 4.42991 12.7678C4.54988 12.8824 4.70926 12.9468 4.87522 12.9475C5.0415 12.9484 5.20147 12.8838 5.32053 12.7678L13.0705 4.90058C13.2466 4.72718 13.3864 4.52041 13.4816 4.29237C13.5768 4.06433 13.6257 3.81959 13.6252 3.57246C13.6261 3.20095 13.5167 2.83754 13.3107 2.52835C13.1047 2.21916 12.8116 1.97813 12.4684 1.83583C12.1252 1.69354 11.7475 1.6564 11.3832 1.72913C11.0188 1.80186 10.6843 1.98118 10.4221 2.24433L2.6721 10.1115C2.36945 10.3986 2.12733 10.7433 1.96001 11.1253C1.79268 11.5074 1.70354 11.9191 1.69783 12.3362C1.69213 12.7533 1.76997 13.1673 1.92678 13.5538C2.0836 13.9403 2.3162 14.2915 2.61088 14.5867C2.90556 14.8819 3.25636 15.1151 3.64259 15.2726C4.02882 15.4301 4.44268 15.5087 4.85976 15.5037C5.27684 15.4988 5.68871 15.4103 6.07108 15.2437C6.45345 15.077 6.79859 14.8355 7.08616 14.5334L13.4924 8.12715C13.6109 8.00978 13.7709 7.94394 13.9377 7.94394C14.1045 7.94394 14.2645 8.00978 14.383 8.12715Z" fill="#1DA1F2"/>
</svg>
