<svg width="26" height="25" viewBox="0 0 26 25" fill="none" xmlns="http://www.w3.org/2000/svg">
<path d="M13 24.6831C6.37237 24.6831 1 19.3107 1 12.6831C1 6.05547 6.37237 0.683105 13 0.683105C19.6276 0.683105 25 6.05547 25 12.6831C25 19.3107 19.6276 24.6831 13 24.6831Z" stroke="#1DA1F2" stroke-width="0.4321" stroke-miterlimit="10"/>
<path d="M11.3795 19.1148H13.9675V12.6267H15.7755L15.9667 10.4571H13.9675C13.9675 10.4571 13.9675 9.64604 13.9675 9.22245C13.9675 8.71105 14.0709 8.50958 14.5668 8.50958C14.9645 8.50958 15.9667 8.50958 15.9667 8.50958V6.25732C15.9667 6.25732 14.4893 6.25732 14.1742 6.25732C12.2473 6.25732 11.3795 7.1045 11.3795 8.73171C11.3795 10.1471 11.3795 10.4622 11.3795 10.4622H10.0312V12.6628H11.3795V19.1148Z" fill="#1DA1F2"/>
</svg>
