<svg width="20" height="17" viewBox="0 0 20 17" fill="none" xmlns="http://www.w3.org/2000/svg">
<path d="M17 0.740234H3C2.20435 0.740234 1.44129 1.0563 0.87868 1.61891C0.316071 2.18152 0 2.94458 0 3.74023V13.7402C0 14.5359 0.316071 15.2989 0.87868 15.8616C1.44129 16.4242 2.20435 16.7402 3 16.7402H17C17.7956 16.7402 18.5587 16.4242 19.1213 15.8616C19.6839 15.2989 20 14.5359 20 13.7402V3.74023C20 2.94458 19.6839 2.18152 19.1213 1.61891C18.5587 1.0563 17.7956 0.740234 17 0.740234ZM16.33 2.74023L10 7.49023L3.67 2.74023H16.33ZM17 14.7402H3C2.73478 14.7402 2.48043 14.6349 2.29289 14.4473C2.10536 14.2598 2 14.0055 2 13.7402V3.99023L9.4 9.54023C9.5731 9.67006 9.78363 9.74023 10 9.74023C10.2164 9.74023 10.4269 9.67006 10.6 9.54023L18 3.99023V13.7402C18 14.0055 17.8946 14.2598 17.7071 14.4473C17.5196 14.6349 17.2652 14.7402 17 14.7402Z" fill="#434343"/>
</svg>
