<svg width="40" height="40" viewBox="0 0 40 40" fill="none" xmlns="http://www.w3.org/2000/svg">
<circle cx="20" cy="20" r="19.5" fill="white" stroke="#1DA1F2"/>
<path d="M14.1135 14.261C14.046 14.086 13.8796 13.9707 13.6942 13.9707C13.6942 13.9707 13.6942 13.9707 13.6941 13.9707C13.5088 13.9707 13.3423 14.0858 13.2748 14.2609L11.9452 17.7057C11.8545 17.9405 11.9688 18.2054 12.2004 18.2973C12.2543 18.3186 12.3098 18.3288 12.3644 18.3288C12.5444 18.3288 12.7143 18.2187 12.7838 18.0385L13.0094 17.4543H14.3779L14.6031 18.0384C14.6936 18.2732 14.9549 18.3892 15.1864 18.2973C15.4181 18.2055 15.5324 17.9407 15.4419 17.7059L14.1135 14.261ZM13.3618 16.5412L13.694 15.6806L14.0258 16.5412H13.3618Z" fill="#0063AA"/>
<path d="M16.6026 18.3277C16.8513 18.3277 17.0529 18.1233 17.0529 17.8711V14.4263C17.0529 14.1741 16.8513 13.9697 16.6026 13.9697C16.354 13.9697 16.1523 14.1741 16.1523 14.4263V17.8711C16.1523 18.1233 16.354 18.3277 16.6026 18.3277Z" fill="#0063AA"/>
<path d="M29.956 19.8163C29.2645 19.8163 28.6782 20.2821 28.4854 20.9208H27.5053L27.1322 19.284C27.0856 19.0797 26.9001 18.9303 26.6935 18.9303H25.7983C25.9773 18.3773 26.0995 17.7567 26.1353 17.037L28.6097 17.0375C28.8026 17.6755 29.3887 18.1408 30.0802 18.1408C30.9282 18.1408 31.618 17.4411 31.618 16.581C31.618 15.7202 30.9282 15.0199 30.0802 15.0199C29.3887 15.0199 28.8025 15.4857 28.6096 16.1244L26.1338 16.1239C26.0996 15.4626 25.9915 14.829 25.812 14.2305H26.6934C26.9001 14.2305 27.0854 14.0811 27.1321 13.8767L27.5052 12.2399H28.4854C28.6783 12.8779 29.2646 13.3432 29.9559 13.3432C30.8046 13.3432 31.495 12.6435 31.495 11.7834C31.495 10.9233 30.8046 10.2236 29.9559 10.2236C29.2646 10.2236 28.6784 10.6888 28.4854 11.3269H27.1471C26.9415 11.3269 26.7684 11.4667 26.7145 11.6576C26.7123 11.6647 26.7103 11.6723 26.7084 11.6806L26.3353 13.3174H25.4705C25.16 12.6324 24.7452 12.0055 24.2304 11.4502C24.0601 11.2664 23.7752 11.2575 23.5939 11.4302C23.4127 11.6029 23.4038 11.8918 23.5742 12.0755C23.9236 12.4524 24.2201 12.8683 24.4622 13.3174H23.029C22.7803 13.3174 22.5787 13.5218 22.5787 13.7739C22.5787 14.0261 22.7803 14.2305 23.029 14.2305H24.8634C25.069 14.8215 25.1929 15.4558 25.2319 16.1238L22.4498 16.1232C22.4498 16.1232 22.4498 16.1232 22.4498 16.1232C22.2011 16.1232 21.9995 16.3276 21.9995 16.5797C21.9994 16.8318 22.201 17.0362 22.4497 17.0363L25.2327 17.0368C25.1912 17.7697 25.0483 18.3848 24.8401 18.9303H23.029C22.7804 18.9303 22.5787 19.1347 22.5787 19.3868C22.5787 19.639 22.7804 19.8434 23.029 19.8434H24.4052C24.1264 20.333 23.8025 20.7807 23.4717 21.2373C22.7666 22.2105 22.0398 23.2146 21.7426 24.6768H16.4167C16.2568 23.8911 15.9762 23.2478 15.6669 22.7015C16.0555 22.5977 16.3432 22.2394 16.3432 21.8132V21.6822C16.7036 21.5737 17.0507 21.4275 17.381 21.2452L17.4731 21.3387C17.644 21.5121 17.8717 21.6076 18.1142 21.6076C18.3567 21.6076 18.5844 21.5121 18.7553 21.3387L19.659 20.4218C20.0123 20.0635 20.0123 19.4803 19.659 19.1219L19.5666 19.0281C19.7463 18.693 19.8905 18.3406 19.9975 17.9749H20.1263C20.6262 17.9749 21.0329 17.5624 21.0329 17.0554V15.7593C21.0329 15.2523 20.6262 14.8398 20.1263 14.8398H19.9975C19.8905 14.4741 19.7463 14.1217 19.5666 13.7865L19.659 13.6928C20.0123 13.3344 20.0123 12.7513 19.659 12.3928L18.7553 11.476C18.5844 11.3026 18.3567 11.2072 18.1142 11.2072C17.8717 11.2072 17.644 11.3026 17.4731 11.476L17.381 11.5695C17.0507 11.3872 16.7036 11.241 16.3432 11.1325V11.0015C16.3432 10.9245 16.3328 10.8501 16.3151 10.7786C17.1781 10.3447 18.1238 10.1236 19.0744 10.1373C19.0785 10.1374 19.0826 10.1374 19.0867 10.1373C19.5281 10.1315 19.9707 10.176 20.4034 10.27C20.6466 10.3227 20.886 10.1658 20.9381 9.91921C20.9901 9.67268 20.8353 9.42998 20.5921 9.37716C20.0955 9.26928 19.587 9.21769 19.0808 9.22427C17.8851 9.20779 16.7008 9.5128 15.64 10.1062C15.5744 10.0909 15.5066 10.082 15.4366 10.082H14.1589C13.659 10.082 13.2523 10.4944 13.2523 11.0014V11.1325C12.8919 11.241 12.5448 11.3871 12.2145 11.5694L12.1224 11.476C11.9514 11.3026 11.7238 11.2072 11.4813 11.2072C11.2388 11.2072 11.0111 11.3026 10.8402 11.476L9.93646 12.393C9.5832 12.7514 9.5832 13.3345 9.93646 13.693L10.0289 13.7867C9.84915 14.1219 9.70501 14.4742 9.59797 14.84H9.46919C8.96921 14.8399 8.5625 15.2524 8.5625 15.7594V17.0555C8.5625 17.5625 8.96921 17.975 9.46914 17.975H9.59793C9.70496 18.3407 9.84911 18.6931 10.0289 19.0283L9.93642 19.122C9.58311 19.4804 9.58311 20.0636 9.93642 20.422L10.8401 21.3388C11.0111 21.5122 11.2387 21.6076 11.4812 21.6076C11.7237 21.6076 11.9514 21.5122 12.1223 21.3388L12.2145 21.2453C12.5447 21.4276 12.8918 21.5738 13.2522 21.6823V21.8133C13.2522 22.3203 13.6589 22.7328 14.1589 22.7328H14.6289C15.0057 23.3177 15.3809 24.0306 15.5536 24.9568C15.1917 25.2235 14.9558 25.6557 14.9558 26.1429C14.9558 26.5342 15.1079 26.89 15.355 27.1534C15.1079 27.4165 14.9558 27.7719 14.9558 28.163C14.9558 28.8494 15.4239 29.4269 16.0535 29.5856V30.4981C16.0535 31.4802 16.8411 32.2791 17.8093 32.2791H20.3507C21.3195 32.2791 22.1078 31.4802 22.1078 30.4981V29.5855C22.7367 29.4267 23.2042 28.8493 23.2042 28.163C23.2042 27.772 23.0522 27.4165 22.8053 27.1534C23.0522 26.89 23.2042 26.5342 23.2042 26.1429C23.2042 25.6553 22.9681 25.2229 22.6061 24.9562C22.851 23.637 23.5061 22.7323 24.1975 21.7779C24.6332 21.1765 25.0753 20.5655 25.4282 19.8434H26.3353L26.7084 21.4802C26.755 21.6847 26.9404 21.834 27.1471 21.834H28.4855C28.6784 22.472 29.2646 22.9373 29.956 22.9373C30.8047 22.9373 31.4951 22.2375 31.4951 21.3775C31.4951 20.5166 30.8047 19.8163 29.956 19.8163ZM30.0802 15.933C30.4316 15.933 30.7174 16.2237 30.7174 16.581C30.7174 16.9377 30.4315 17.2278 30.0802 17.2278C29.7289 17.2278 29.443 16.9377 29.443 16.581C29.443 16.2237 29.7288 15.933 30.0802 15.933ZM29.956 11.1367C30.308 11.1367 30.5945 11.4268 30.5945 11.7834C30.5945 12.1401 30.3081 12.4302 29.956 12.4302C29.6046 12.4302 29.3188 12.1401 29.3188 11.7834C29.3187 11.4268 29.6046 11.1367 29.956 11.1367ZM15.4426 21.3298V21.8133C15.4426 21.8159 15.4387 21.8197 15.4366 21.8197H14.8691C14.8681 21.8197 14.8671 21.8197 14.8661 21.8197H14.1589C14.1568 21.8197 14.1529 21.8159 14.1529 21.8133V21.3298C14.1529 21.1163 14.007 20.9314 13.8016 20.8844C13.2973 20.7692 12.8202 20.5683 12.3836 20.2873C12.3094 20.2395 12.2257 20.2162 12.1425 20.2162C12.0261 20.2162 11.9107 20.2618 11.8238 20.35L11.4854 20.6933C11.4834 20.6953 11.4791 20.6953 11.4772 20.6933L10.5735 19.7764C10.5718 19.7747 10.5718 19.7691 10.5735 19.7674L10.9119 19.424C11.0609 19.2729 11.0865 19.0373 10.9737 18.8569C10.6967 18.4138 10.4986 17.9298 10.385 17.4181C10.3388 17.2098 10.1563 17.0618 9.9457 17.0618H9.46914C9.46702 17.0618 9.46311 17.0581 9.46311 17.0555V15.7593C9.46311 15.7566 9.46702 15.7529 9.46914 15.7529H9.9457C10.1563 15.7529 10.3388 15.6049 10.385 15.3966C10.4986 14.885 10.6967 14.4009 10.9737 13.9579C11.0865 13.7774 11.0609 13.5418 10.9119 13.3907L10.5735 13.0474C10.5717 13.0456 10.5717 13.0401 10.5735 13.0383L11.4772 12.1215C11.4791 12.1195 11.4834 12.1196 11.4854 12.1215L11.8238 12.4648C11.973 12.6161 12.2056 12.6421 12.3837 12.5276C12.8203 12.2466 13.2974 12.0456 13.8016 11.9304C14.007 11.8835 14.1529 11.6985 14.1529 11.485V11.0016C14.1529 10.9989 14.1568 10.9952 14.159 10.9952H15.4366C15.4387 10.9952 15.4426 10.9989 15.4426 11.0016V11.485C15.4426 11.6985 15.5885 11.8835 15.794 11.9304C16.2982 12.0456 16.7753 12.2465 17.2119 12.5276C17.3898 12.6421 17.6226 12.6161 17.7717 12.4648L18.1102 12.1215C18.1121 12.1195 18.1164 12.1196 18.1184 12.1215L19.0221 13.0383C19.0239 13.0401 19.0239 13.0457 19.0221 13.0474L18.6836 13.3907C18.5347 13.5418 18.509 13.7775 18.6219 13.9579C18.8988 14.4009 19.0969 14.885 19.2105 15.3966C19.2568 15.6049 19.4393 15.7529 19.6499 15.7529H20.1264C20.1285 15.7529 20.1325 15.7566 20.1325 15.7593V17.0555C20.1325 17.0581 20.1285 17.0618 20.1264 17.0618H19.6499C19.4393 17.0618 19.2568 17.2098 19.2105 17.4181C19.0969 17.9298 18.8988 18.4138 18.6219 18.8569C18.509 19.0373 18.5347 19.2729 18.6836 19.424L19.0221 19.7674C19.0238 19.7691 19.0238 19.7747 19.0221 19.7764L18.1184 20.6932C18.1164 20.6952 18.1121 20.6952 18.1102 20.6932L17.7717 20.3499C17.6226 20.1986 17.3899 20.1726 17.2119 20.2872C16.7753 20.5682 16.2982 20.7691 15.7939 20.8843C15.5885 20.9314 15.4426 21.1163 15.4426 21.3298ZM21.2072 30.4981C21.2072 30.9766 20.823 31.366 20.3507 31.366H17.8093C17.3377 31.366 16.9541 30.9767 16.9541 30.4981V29.6289H21.2072V30.4981H21.2072ZM21.7589 28.7158H16.4025C16.1014 28.7158 15.8565 28.4678 15.8565 28.1629C15.8565 27.8581 16.1014 27.6101 16.4025 27.6101H21.7589C22.0593 27.6101 22.3037 27.8581 22.3037 28.1629C22.3036 28.4678 22.0593 28.7158 21.7589 28.7158ZM21.7589 26.697H16.4025C16.1014 26.697 15.8565 26.4484 15.8565 26.1429C15.8565 25.838 16.1014 25.59 16.4025 25.59H21.7589C22.0593 25.59 22.3037 25.838 22.3037 26.1429C22.3036 26.4484 22.0593 26.697 21.7589 26.697ZM29.956 22.0241C29.6046 22.0241 29.3188 21.734 29.3188 21.3774C29.3188 21.02 29.6047 20.7294 29.956 20.7294C30.308 20.7294 30.5945 21.0201 30.5945 21.3774C30.5945 21.734 30.308 22.0241 29.956 22.0241Z" fill="#0063AA"/>
<path d="M22.1358 10.9344L22.1383 10.9357C22.2028 10.9684 22.2712 10.9838 22.3386 10.9838C22.5035 10.9838 22.6622 10.891 22.7412 10.7308C22.8524 10.5053 22.7609 10.2304 22.5385 10.1176C22.3161 10.0049 22.0455 10.0963 21.9344 10.3218C21.8231 10.5474 21.9133 10.8216 22.1358 10.9344Z" fill="#0063AA"/>
</svg>
