<svg width="85" height="85" viewBox="0 0 85 85" fill="none" xmlns="http://www.w3.org/2000/svg">
<circle cx="42.5" cy="42.5" r="40.9844" fill="white" stroke="#1DA1F2" stroke-width="3.03117"/>
<path d="M29.9903 30.3033C29.8469 29.9314 29.4932 29.6865 29.0992 29.6864C29.0992 29.6864 29.0992 29.6864 29.0991 29.6864C28.7052 29.6864 28.3514 29.9311 28.2079 30.303L25.3825 37.6233C25.1899 38.1223 25.4327 38.6851 25.9248 38.8804C26.0394 38.9258 26.1574 38.9473 26.2733 38.9473C26.6558 38.9473 27.0169 38.7133 27.1647 38.3305L27.6439 37.089H30.552L31.0306 38.3302C31.223 38.8292 31.7782 39.0757 32.2702 38.8805C32.7625 38.6854 33.0055 38.1227 32.813 37.6236L29.9903 30.3033ZM28.3929 35.1486L29.0987 33.3199L29.8039 35.1486H28.3929Z" fill="#0063AA"/>
<path d="M35.2811 38.947C35.8095 38.947 36.238 38.5127 36.238 37.9769V30.6565C36.238 30.1207 35.8095 29.6864 35.2811 29.6864C34.7527 29.6864 34.3242 30.1207 34.3242 30.6565V37.9769C34.3242 38.5127 34.7527 38.947 35.2811 38.947Z" fill="#0063AA"/>
<path d="M63.6604 42.1098C62.1909 42.1098 60.9451 43.0997 60.5354 44.457H58.4526L57.6598 40.9789C57.5608 40.5445 57.1667 40.2271 56.7275 40.2271H54.8253C55.2057 39.0519 55.4653 37.7331 55.5413 36.2039L60.7996 36.2049C61.2095 37.5607 62.455 38.5495 63.9243 38.5495C65.7262 38.5495 67.1922 37.0626 67.1922 35.2348C67.1922 33.4056 65.7262 31.9175 63.9243 31.9175C62.4548 31.9175 61.2091 32.9073 60.7994 34.2646L55.5383 34.2636C55.4655 32.8583 55.2359 31.5119 54.8544 30.24H56.7273C57.1666 30.24 57.5604 29.9226 57.6596 29.4883L58.4524 26.0101H60.5355C60.9454 27.3659 62.1911 28.3547 63.6603 28.3547C65.4637 28.3547 66.9309 26.8677 66.9309 25.04C66.9309 23.2122 65.4637 21.7254 63.6603 21.7254C62.1911 21.7254 60.9455 22.714 60.5355 24.0698H57.6915C57.2547 24.0698 56.8868 24.367 56.7723 24.7726C56.7676 24.7877 56.7632 24.8038 56.7592 24.8216L55.9664 28.2997H54.1288C53.469 26.844 52.5874 25.5118 51.4935 24.3318C51.1317 23.9414 50.5262 23.9224 50.1409 24.2894C49.7559 24.6564 49.737 25.2703 50.099 25.6607C50.8416 26.4616 51.4716 27.3454 51.9861 28.2997H48.9405C48.4121 28.2997 47.9836 28.7341 47.9836 29.2699C47.9836 29.8057 48.4121 30.24 48.9405 30.24H52.8387C53.2755 31.4959 53.5388 32.8438 53.6217 34.2632L47.7098 34.2621C47.7097 34.2621 47.7097 34.2621 47.7096 34.2621C47.1812 34.2621 46.7528 34.6963 46.7527 35.232C46.7526 35.7678 47.181 36.2022 47.7094 36.2023L53.6233 36.2035C53.5353 37.7608 53.2316 39.068 52.789 40.2271H48.9406C48.4122 40.2271 47.9837 40.6614 47.9837 41.1972C47.9837 41.733 48.4122 42.1674 48.9406 42.1674H51.8649C51.2724 43.208 50.5841 44.1592 49.8812 45.1294C48.3829 47.1976 46.8384 49.3313 46.207 52.4385H34.8895C34.5497 50.7689 33.9532 49.4017 33.2961 48.2409C34.1217 48.0204 34.7332 47.259 34.7332 46.3534V46.0749C35.499 45.8443 36.2367 45.5337 36.9385 45.1464L37.1342 45.3451C37.4975 45.7134 37.9813 45.9163 38.4966 45.9163C39.0119 45.9163 39.4957 45.7134 39.8589 45.345L41.7793 43.3966C42.5301 42.6351 42.5301 41.3958 41.7793 40.6343L41.5828 40.435C41.9648 39.7228 42.2711 38.974 42.4986 38.1969H42.7723C43.8346 38.1969 44.6989 37.3203 44.6989 36.243V33.4887C44.6989 32.4113 43.8346 31.5348 42.7723 31.5348H42.4986C42.2711 30.7576 41.9648 30.0089 41.5828 29.2967L41.7793 29.0974C42.53 28.3358 42.53 27.0967 41.7793 26.335L39.8589 24.3867C39.4957 24.0183 39.0119 23.8154 38.4966 23.8154C37.9813 23.8154 37.4975 24.0183 37.1342 24.3868L36.9385 24.5853C36.2366 24.198 35.499 23.8874 34.7332 23.6568V23.3784C34.7332 23.2148 34.7111 23.0567 34.6736 22.9047C36.5074 21.9828 38.517 21.5128 40.537 21.5421C40.5458 21.5422 40.5545 21.5422 40.5632 21.5421C41.501 21.5297 42.4416 21.6242 43.3612 21.824C43.8778 21.936 44.3866 21.6025 44.4973 21.0786C44.608 20.5547 44.2789 20.039 43.7621 19.9267C42.7068 19.6975 41.6262 19.5878 40.5506 19.6018C38.0098 19.5668 35.4931 20.2149 33.2388 21.4758C33.0996 21.4433 32.9554 21.4244 32.8066 21.4244H30.0916C29.0292 21.4244 28.165 22.3009 28.165 23.3783V23.6567C27.3992 23.8873 26.6616 24.1979 25.9597 24.5852L25.7639 24.3867C25.4007 24.0183 24.9169 23.8154 24.4016 23.8154C23.8863 23.8154 23.4025 24.0183 23.0393 24.3868L21.1189 26.3354C20.3682 27.097 20.3682 28.3361 21.1189 29.0978L21.3153 29.297C20.9334 30.0093 20.6271 30.758 20.3996 31.5352H20.1259C19.0635 31.5351 18.1992 32.4116 18.1992 33.4889V36.2433C18.1992 37.3206 19.0635 38.1972 20.1258 38.1972H20.3995C20.627 38.9743 20.9333 39.7231 21.3152 40.4353L21.1188 40.6345C20.368 41.3961 20.368 42.6354 21.1188 43.3969L23.0392 45.3453C23.4024 45.7136 23.8862 45.9165 24.4015 45.9165C24.9168 45.9165 25.4006 45.7136 25.7638 45.3452L25.9596 45.1466C26.6614 45.5339 27.3991 45.8445 28.1649 46.0751V46.3535C28.1649 47.4309 29.0292 48.3074 30.0915 48.3074H31.0904C31.891 49.5503 32.6882 51.0653 33.0554 53.0335C32.2862 53.6002 31.7849 54.5186 31.7849 55.5538C31.7849 56.3855 32.1082 57.1416 32.6333 57.7011C32.1082 58.2602 31.7849 59.0156 31.7849 59.8466C31.7849 61.3053 32.7796 62.5325 34.1175 62.8696V64.8088C34.1175 66.8957 35.7913 68.5934 37.8487 68.5934H43.2491C45.3079 68.5934 46.983 66.8957 46.983 64.8088V62.8694C48.3195 62.5321 49.3129 61.305 49.3129 59.8466C49.3129 59.0157 48.9899 58.2603 48.4652 57.7011C48.9899 57.1416 49.3129 56.3855 49.3129 55.5538C49.3129 54.5178 48.8112 53.5989 48.0419 53.0322C48.5622 50.2288 49.9543 48.3064 51.4236 46.2783C52.3494 45.0004 53.2889 43.7019 54.0389 42.1676H55.9665L56.7593 45.6457C56.8583 46.0802 57.2523 46.3975 57.6916 46.3975H60.5356C60.9455 47.7533 62.1912 48.7419 63.6604 48.7419C65.4638 48.7419 66.931 47.255 66.931 45.4274C66.931 43.5979 65.4638 42.1098 63.6604 42.1098ZM63.9243 33.8579C64.671 33.8579 65.2784 34.4757 65.2784 35.2349C65.2784 35.9928 64.6709 36.6093 63.9243 36.6093C63.1777 36.6093 62.5703 35.9928 62.5703 35.2349C62.5702 34.4757 63.1776 33.8579 63.9243 33.8579ZM63.6604 23.6657C64.4085 23.6657 65.0172 24.2823 65.0172 25.0401C65.0172 25.7979 64.4086 26.4145 63.6604 26.4145C62.9137 26.4145 62.3063 25.7979 62.3063 25.0401C62.3062 24.2823 62.9137 23.6657 63.6604 23.6657ZM32.8194 45.3261V46.3534C32.8194 46.3591 32.8111 46.367 32.8066 46.367H31.6007C31.5986 46.367 31.5965 46.367 31.5943 46.367H30.0916C30.0871 46.367 30.0788 46.3591 30.0788 46.3534V45.3261C30.0788 44.8724 29.7687 44.4794 29.3323 44.3797C28.2607 44.1348 27.2468 43.7079 26.3191 43.1107C26.1614 43.0092 25.9835 42.9596 25.8066 42.9596C25.5594 42.9596 25.3142 43.0566 25.1295 43.2439L24.4103 43.9735C24.4062 43.9778 24.397 43.9777 24.3929 43.9735L22.4725 42.0252C22.4689 42.0215 22.4689 42.0096 22.4725 42.0059L23.1917 41.2763C23.5083 40.9552 23.5628 40.4545 23.323 40.0711C22.7344 39.1297 22.3135 38.1011 22.0721 37.0138C21.9738 36.5711 21.586 36.2567 21.1385 36.2567H20.1258C20.1213 36.2567 20.113 36.2487 20.113 36.2431V33.4888C20.113 33.4831 20.1213 33.4752 20.1258 33.4752H21.1385C21.586 33.4752 21.9738 33.1607 22.0721 32.7181C22.3135 31.6308 22.7344 30.6022 23.323 29.6608C23.5628 29.2773 23.5083 28.7766 23.1917 28.4555L22.4725 27.726C22.4688 27.7222 22.4688 27.7104 22.4725 27.7067L24.3929 25.7584C24.397 25.7543 24.4062 25.7544 24.4103 25.7584L25.1295 26.488C25.4464 26.8094 25.9409 26.8647 26.3192 26.6213C27.247 26.0242 28.2609 25.5972 29.3323 25.3523C29.7688 25.2526 30.0789 24.8595 30.0789 24.406V23.3786C30.0789 23.373 30.0872 23.365 30.0917 23.365H32.8067C32.8112 23.365 32.8195 23.373 32.8195 23.3786V24.406C32.8195 24.8596 33.1295 25.2527 33.5661 25.3523C34.6375 25.5971 35.6513 26.0241 36.5791 26.6213C36.9573 26.8648 37.4519 26.8095 37.7688 26.488L38.488 25.7584C38.4922 25.7543 38.5014 25.7544 38.5055 25.7584L40.4259 27.7067C40.4296 27.7105 40.4296 27.7223 40.4259 27.726L39.7067 28.4555C39.3901 28.7767 39.3356 29.2774 39.5754 29.6608C40.164 30.6022 40.5849 31.6308 40.8263 32.7181C40.9246 33.1607 41.3123 33.4752 41.7599 33.4752H42.7725C42.777 33.4752 42.7854 33.4831 42.7854 33.4888V36.2431C42.7854 36.2487 42.777 36.2567 42.7725 36.2567H41.7599C41.3123 36.2567 40.9246 36.5711 40.8263 37.0138C40.5849 38.1011 40.164 39.1297 39.5754 40.0711C39.3356 40.4545 39.3901 40.9552 39.7067 41.2763L40.4259 42.0059C40.4295 42.0096 40.4295 42.0215 40.4259 42.0252L38.5055 43.9734C38.5014 43.9776 38.4922 43.9776 38.488 43.9734L37.7688 43.2437C37.4519 42.9223 36.9574 42.8669 36.5791 43.1105C35.6514 43.7076 34.6376 44.1345 33.566 44.3794C33.1294 44.4794 32.8194 44.8724 32.8194 45.3261ZM45.0693 64.8087C45.0693 65.8256 44.2529 66.653 43.2492 66.653H37.8487C36.8466 66.653 36.0314 65.8257 36.0314 64.8087V62.9616H45.0692V64.8087H45.0693ZM46.2417 61.0214H34.8591C34.2193 61.0214 33.6989 60.4943 33.6989 59.8465C33.6989 59.1987 34.2193 58.6717 34.8591 58.6717H46.2417C46.8799 58.6717 47.3992 59.1987 47.3992 59.8465C47.3991 60.4943 46.8799 61.0214 46.2417 61.0214ZM46.2417 56.7314H34.8591C34.2193 56.7314 33.6989 56.2031 33.6989 55.5538C33.6989 54.906 34.2193 54.379 34.8591 54.379H46.2417C46.8799 54.379 47.3992 54.906 47.3992 55.5538C47.3991 56.203 46.8799 56.7314 46.2417 56.7314ZM63.6604 46.8015C62.9137 46.8015 62.3063 46.1849 62.3063 45.4272C62.3063 44.6678 62.9138 44.0501 63.6604 44.0501C64.4085 44.0501 65.0172 44.6679 65.0172 45.4272C65.0172 46.1849 64.4085 46.8015 63.6604 46.8015Z" fill="#0063AA"/>
<path d="M47.041 23.2356L47.0464 23.2383C47.1835 23.3077 47.3288 23.3406 47.472 23.3406C47.8225 23.3406 48.1597 23.1433 48.3274 22.803C48.5638 22.3237 48.3694 21.7396 47.8967 21.5C47.4241 21.2604 46.8492 21.4546 46.613 21.9338C46.3766 22.4133 46.5682 22.9959 47.041 23.2356Z" fill="#0063AA"/>
</svg>
