<svg width="107" height="22" viewBox="0 0 107 22" fill="none" xmlns="http://www.w3.org/2000/svg">
<path d="M98.3803 9.18907C98.574 8.9379 98.7559 8.67618 98.9636 8.4378C99.8749 7.39425 101.009 6.87414 102.371 6.87081C103.24 6.86914 104.077 6.99583 104.841 7.44815C105.926 8.09106 106.448 9.13628 106.715 10.3521C106.929 11.3256 106.924 12.3142 106.904 13.3044C106.891 13.9334 106.883 14.5624 106.874 15.192C106.848 16.8018 106.822 18.4121 106.795 20.0219C106.794 20.1325 106.787 20.2453 106.768 20.3536C106.723 20.597 106.595 20.7637 106.339 20.7648C105.367 20.7687 104.395 20.7748 103.423 20.7626C103.089 20.7587 102.889 20.527 102.865 20.1769C102.857 20.0663 102.86 19.9546 102.86 19.8435C102.86 17.6492 102.871 15.4543 102.852 13.2599C102.847 12.7192 102.791 12.1691 102.679 11.6412C102.51 10.8444 102.058 10.2676 101.245 10.1054C100.414 9.93922 99.6667 10.1231 99.0765 10.79C98.5376 11.399 98.3188 12.1413 98.3166 12.9532C98.3113 15.2959 98.315 17.6386 98.3145 19.9808C98.3145 20.5642 98.1218 20.7665 97.5621 20.7676C96.715 20.7693 95.868 20.7693 95.0209 20.7681C94.5259 20.7676 94.322 20.5653 94.2995 20.0569C94.2953 19.9646 94.2974 19.8718 94.2974 19.779C94.2974 13.7422 94.2974 7.70487 94.2974 1.66806C94.2974 1.58471 94.2958 1.50136 94.2985 1.41801C94.314 0.862894 94.5216 0.653962 95.0583 0.653962C95.9054 0.653406 96.7525 0.652851 97.5996 0.653962C98.0865 0.654518 98.3139 0.8929 98.3139 1.40356C98.3145 3.88519 98.3145 6.36682 98.3145 8.84789C98.3145 8.95513 98.3145 9.06238 98.3145 9.16962C98.3364 9.17796 98.3584 9.18351 98.3803 9.18907Z" fill="white"/>
<path d="M18.5812 21.1572C17.4896 21.1083 16.4258 20.971 15.4134 20.5415C13.6068 19.7758 12.4077 18.4172 11.8736 16.474C11.4065 14.7736 11.4188 13.0477 11.9362 11.3618C12.5516 9.35696 13.8781 8.01612 15.7821 7.34932C17.6892 6.6814 19.6407 6.64639 21.5537 7.3182C23.8317 8.11836 25.155 9.82872 25.5799 12.2631C25.8555 13.8429 25.7699 15.4238 25.1952 16.9296C24.3583 19.1234 22.7658 20.417 20.5638 20.8994C19.9142 21.041 19.2426 21.0738 18.5812 21.1572ZM15.6188 14.0051C15.6429 14.3274 15.6536 14.6514 15.6927 14.9715C15.8768 16.4823 16.5398 17.732 18.2933 17.9071C19.7119 18.0482 20.8977 17.5048 21.3488 15.9339C21.7234 14.6303 21.7314 13.3072 21.3707 11.9992C21.1754 11.2924 20.7917 10.6822 20.1213 10.3861C19.7055 10.2027 19.2367 10.0927 18.7851 10.0654C17.6694 9.9982 16.6768 10.4466 16.0962 11.6369C15.7334 12.3815 15.636 13.1828 15.6188 14.0051Z" fill="white"/>
<path d="M75.8955 15.1835C74.7456 15.1835 73.5951 15.1823 72.4451 15.184C71.9154 15.1846 71.6355 15.5891 71.8003 16.1181C72.1503 17.24 72.9428 17.8312 74.0151 18.0413C75.3946 18.3113 76.7442 18.1613 78.0515 17.6279C78.6556 17.3817 79.0398 17.6417 79.0441 18.3119C79.0468 18.7375 79.042 19.1637 79.0457 19.5894C79.0489 19.9528 78.9007 20.2034 78.5721 20.3462C77.7454 20.7063 76.8839 20.9408 75.994 21.0102C75.179 21.0736 74.3549 21.1152 73.54 21.068C70.3914 20.8858 68.2151 18.9237 67.7742 15.7386C67.5409 14.0543 67.5917 12.3829 68.2756 10.8131C69.2569 8.55986 70.9516 7.23681 73.3302 6.93063C74.669 6.75837 75.9817 6.88896 77.2081 7.52965C78.7129 8.31592 79.5508 9.63675 79.9591 11.2915C80.2278 12.3812 80.1898 13.4937 80.1721 14.6028C80.1678 14.8817 80.0035 15.0662 79.7429 15.1351C79.6156 15.169 79.4791 15.1801 79.347 15.1807C78.1959 15.1846 77.0455 15.1835 75.8955 15.1835ZM74.0954 12.6285C74.5856 12.6285 75.0757 12.6285 75.5659 12.6285C75.575 12.6285 75.5835 12.6285 75.5926 12.6285C76.246 12.6218 76.5007 12.3156 76.3916 11.6483C76.0972 9.85402 74.7702 9.44004 73.5753 9.76511C72.6993 10.0029 72.2027 10.7148 71.872 11.5516C71.6136 12.2062 71.8875 12.6218 72.5719 12.6279C73.0798 12.6318 73.5876 12.6279 74.0954 12.6285Z" fill="white"/>
<path d="M63.8495 13.5246C63.8495 14.3303 63.826 15.1371 63.8597 15.9412C63.8758 16.3213 63.9512 16.7169 64.0871 17.0692C64.3338 17.7093 65.0236 18.0822 65.7262 17.9033C66.5358 17.6971 66.8617 18.0705 66.7985 18.8557C66.7648 19.2786 66.7942 19.707 66.7921 20.1332C66.79 20.5166 66.6359 20.7366 66.2789 20.8444C65.4388 21.0978 64.5773 21.1256 63.7115 21.0939C63.0565 21.0695 62.4224 20.9433 61.8258 20.645C60.725 20.0937 60.1808 19.1263 59.9737 17.9283C59.8924 17.4576 59.8603 16.9731 59.8566 16.4941C59.8432 14.7071 59.8517 12.9195 59.8512 11.1324C59.8512 10.5095 59.6083 10.2539 59.0132 10.2495C58.7815 10.2478 58.5493 10.2528 58.3176 10.2478C57.9789 10.24 57.7327 10.015 57.7252 9.66712C57.7113 9.04699 57.7118 8.4263 57.7241 7.80618C57.7311 7.45999 57.9714 7.22272 58.3074 7.20772C58.5744 7.19549 58.8425 7.20383 59.1101 7.20105C59.5895 7.19605 59.8491 6.92655 59.8517 6.42367C59.8544 5.87744 59.8496 5.33066 59.8533 4.78444C59.856 4.41436 59.9973 4.20987 60.3323 4.10985C61.2377 3.83924 62.1441 3.57196 63.0522 3.31191C63.4867 3.18744 63.8431 3.46583 63.8469 3.9337C63.8538 4.76721 63.8479 5.60072 63.8495 6.43422C63.8506 6.93433 64.1075 7.19827 64.5955 7.20049C65.1038 7.20327 65.6122 7.19716 66.1205 7.20272C66.5674 7.20772 66.7894 7.44499 66.791 7.90898C66.7932 8.46465 66.7937 9.02032 66.7905 9.57599C66.7884 10.0089 66.562 10.2456 66.1489 10.2483C65.6496 10.2517 65.1499 10.2456 64.6506 10.2506C64.0935 10.2561 63.849 10.5123 63.8485 11.0807C63.849 11.8948 63.8495 12.7094 63.8495 13.5246Z" fill="white"/>
<path d="M88.232 21.0738C86.929 21.1272 85.671 20.9149 84.5291 20.2326C82.7097 19.1451 81.6587 17.5075 81.4206 15.3371C81.2456 13.7395 81.3826 12.1725 82.0702 10.7084C83.035 8.65515 84.6682 7.48324 86.7915 7.05649C88.3267 6.74809 89.8727 6.76143 91.3934 7.20763C91.9387 7.36766 92.0441 7.5327 92.0441 8.12115C92.0441 8.68571 92.0463 9.25027 92.0436 9.81539C92.0404 10.4038 91.63 10.6834 91.1029 10.4561C89.9165 9.94487 88.7115 9.87596 87.5192 10.3872C86.2425 10.9345 85.6266 12.0075 85.4666 13.3939C85.3729 14.2041 85.4275 15.0031 85.7213 15.7661C86.2023 17.0163 87.1276 17.6776 88.3851 17.8771C89.3365 18.0282 90.2435 17.8593 91.1221 17.4714C91.6235 17.2497 92.0388 17.5398 92.0431 18.1093C92.0473 18.6833 92.0436 19.2574 92.0441 19.8314C92.0441 20.162 91.9034 20.3904 91.6053 20.5221C90.8257 20.8671 90.0027 21.006 89.1658 21.0711C88.857 21.0938 88.5435 21.0738 88.232 21.0738Z" fill="white"/>
<path d="M6.87053 21.0734C5.53918 21.124 4.25866 20.8984 3.09908 20.1832C1.36746 19.1152 0.346472 17.541 0.0848031 15.46C-0.0949937 14.028 -0.00241973 12.6127 0.493092 11.2541C1.20265 9.30705 2.5431 8.00012 4.42615 7.33665C6.20646 6.70985 8.02958 6.7243 9.8543 7.14827C10.0095 7.18439 10.1598 7.24663 10.3086 7.3072C10.5259 7.39555 10.6677 7.5628 10.6703 7.80786C10.6794 8.52967 10.6976 9.25204 10.6677 9.97275C10.6479 10.4528 10.2203 10.6607 9.75423 10.4551C8.70756 9.99276 7.63413 9.91996 6.54304 10.24C5.2256 10.6268 4.28755 11.812 4.13237 13.2273C4.02428 14.2097 4.06227 15.1683 4.50427 16.0685C5.03778 17.1554 5.92659 17.7066 7.06424 17.8788C8.00871 18.0222 8.90608 17.8505 9.77671 17.4676C10.2621 17.2543 10.6666 17.5138 10.6816 18.06C10.6982 18.6612 10.6875 19.2636 10.6848 19.8654C10.6832 20.2004 10.52 20.4077 10.2214 20.5355C9.44601 20.8672 8.63318 21.0073 7.80483 21.0689C7.49554 21.0928 7.1825 21.0734 6.87053 21.0734Z" fill="white"/>
<path d="M56.9735 12.8308C56.9687 12.2056 56.9248 11.5705 56.8108 10.9576C56.4571 9.05554 55.4024 7.79083 53.575 7.25961C52.5733 6.96844 51.5507 6.96844 50.526 6.99345C47.8799 7.05902 45.2343 7.13403 42.5882 7.1996C42.0054 7.21405 41.8642 7.33519 41.7545 7.93476C41.3622 10.0835 40.5382 14.5195 40.3525 15.3991C40.3332 15.4891 40.3391 15.5825 40.3691 15.6691C40.4761 15.9792 40.6789 16.6293 40.6789 16.6293C40.7185 16.8094 40.5869 16.9805 40.4092 16.9805H39.5926C39.4182 16.9805 39.2871 16.8149 39.3213 16.6371C39.3213 16.6371 39.5086 15.9753 39.6108 15.6691C39.6403 15.5819 39.6451 15.4802 39.6258 15.3902C39.0805 12.8641 38.5267 10.3375 37.9739 7.81306C37.8717 7.34574 37.6973 7.20294 37.2264 7.20182C36.4194 7.20016 35.613 7.1996 34.8061 7.20182C34.4192 7.20294 34.0821 7.47633 33.9879 7.86585C33.4394 10.1263 32.3472 14.5195 32.1134 15.3902C32.0888 15.4813 32.0904 15.5791 32.1182 15.6691C32.2156 15.987 32.405 16.6293 32.405 16.6293C32.4446 16.8094 32.313 16.9805 32.1353 16.9805H31.3198C31.1454 16.9805 31.0143 16.8149 31.0485 16.6371C31.0485 16.6371 31.2358 15.9692 31.3354 15.6691C31.3632 15.5847 31.3707 15.478 31.3557 15.3902C31.2899 15.0134 31.208 14.6434 31.1347 14.2683C30.7114 12.1062 30.2892 9.94406 29.8617 7.78306C29.7744 7.34352 29.6043 7.2046 29.181 7.20294C28.3607 7.1996 27.5393 7.22238 26.72 7.1946C26.1501 7.17571 25.9393 7.65525 26.0602 8.11479C27.1246 12.149 28.1739 16.187 29.2286 20.224C29.3383 20.6429 29.5031 20.7719 29.9125 20.7719C30.858 20.7713 31.803 20.7713 32.7486 20.7719C33.2815 20.7719 33.4164 20.6596 33.5443 20.1217C34.2185 17.2878 34.8933 14.4544 35.5691 11.6211C35.7077 11.6205 35.6954 11.6211 35.8346 11.6205C35.8436 11.6533 35.8522 11.6855 35.8592 11.7189C36.4553 14.5411 37.0487 17.3645 37.6443 20.1867C37.7363 20.6235 37.9177 20.7696 38.3565 20.7708C39.2983 20.7724 40.2396 20.7713 41.1814 20.7719C41.5736 20.7719 41.9182 20.5007 42.0231 20.1078C42.8852 16.8833 43.7472 13.6587 44.6082 10.4336C44.7677 9.83626 44.7655 9.80681 45.3472 9.79292C47.3068 9.74624 49.2663 9.69901 51.2259 9.6979C52.2442 9.69734 52.8944 10.2841 53.1277 11.2754C53.2299 11.71 53.0201 12.0873 52.6151 12.1506C51.9467 12.2551 51.2725 12.3218 50.6057 12.4374C49.7479 12.5857 48.8784 12.7041 48.0447 12.9491C46.9252 13.2781 46.0204 13.956 45.5227 15.0968C45.1535 15.9431 45.0716 16.8377 45.1744 17.7562C45.3274 19.1237 45.9535 20.1628 47.1516 20.7835C47.9452 21.1947 48.8003 21.2697 49.6762 21.202C51.0873 21.093 52.1709 20.4151 52.957 19.201L53.1967 19.2788C53.1967 19.5655 53.1962 19.8528 53.1973 20.1395C53.1983 20.6691 53.4177 20.903 53.925 20.9052C54.7009 20.9086 55.4768 20.9086 56.2527 20.9052C56.7579 20.903 56.9805 20.6646 56.9805 20.1373C56.981 17.7018 56.9917 15.2663 56.9735 12.8308ZM52.1425 17.7824C51.7054 18.1347 51.1997 18.2869 50.6159 18.2713C49.7121 18.273 49.071 17.8535 48.8912 17.0617C48.7023 16.2287 48.9742 15.5091 49.6907 15.1101C50.2065 14.8229 50.7753 14.7773 51.3367 14.6939C51.7145 14.6378 52.0939 14.5934 52.4722 14.5411C52.8184 14.4933 53.1775 14.7556 53.2005 15.1118C53.2695 16.1781 52.9843 17.1044 52.1425 17.7824Z" fill="white"/>
</svg>
