<svg width="491" height="95" viewBox="0 0 491 95" fill="none" xmlns="http://www.w3.org/2000/svg">
<path d="M451.812 39.2012C452.702 38.0477 453.537 36.8457 454.491 35.7509C458.676 30.9583 463.884 28.5697 470.138 28.5544C474.129 28.5467 477.975 29.1286 481.482 31.2059C486.468 34.1585 488.862 38.9588 490.091 44.5425C491.074 49.0135 491.052 53.5535 490.956 58.1011C490.897 60.9899 490.862 63.8788 490.818 66.7702C490.7 74.1632 490.582 81.5588 490.459 88.9519C490.452 89.4597 490.422 89.9778 490.332 90.4754C490.125 91.5932 489.538 92.3588 488.363 92.3639C483.9 92.3817 479.435 92.4098 474.972 92.3537C473.438 92.3358 472.519 91.2716 472.406 89.6639C472.372 89.156 472.387 88.6431 472.387 88.1327C472.387 78.055 472.436 67.9747 472.35 57.897C472.328 55.4139 472.07 52.8874 471.556 50.4631C470.779 46.8035 468.703 44.1546 464.97 43.4094C461.153 42.6464 457.72 43.4911 455.009 46.5534C452.535 49.3504 451.529 52.7598 451.52 56.4883C451.495 67.2474 451.512 78.0065 451.51 88.763C451.51 91.4426 450.625 92.3715 448.055 92.3766C444.164 92.3843 440.274 92.3843 436.384 92.3792C434.11 92.3766 433.174 91.4477 433.071 89.1127C433.051 88.689 433.061 88.2628 433.061 87.8367C433.061 60.1121 433.061 32.3849 433.061 4.66029C433.061 4.2775 433.054 3.8947 433.066 3.51191C433.137 0.962488 434.091 0.00294676 436.556 0.00294676C440.446 0.000394791 444.336 -0.00215718 448.227 0.00294676C450.463 0.00549873 451.507 1.10029 451.507 3.44555C451.51 14.8427 451.51 26.2398 451.51 37.6343C451.51 38.1268 451.51 38.6194 451.51 39.1119C451.611 39.1502 451.711 39.1757 451.812 39.2012Z" fill="white"/>
<path d="M85.3401 94.1674C80.3267 93.9428 75.4412 93.3125 70.7915 91.3398C62.4948 87.8232 56.9875 81.5836 54.5349 72.6594C52.3894 64.8503 52.446 56.9239 54.8224 49.1812C57.6486 39.9737 63.7408 33.8158 72.4847 30.7535C81.2434 27.686 90.2061 27.5252 98.9918 30.6105C109.454 34.2854 115.531 42.1403 117.482 53.3205C118.748 60.5758 118.355 67.8361 115.715 74.752C111.872 84.8272 104.558 90.7681 94.4453 92.9832C91.4619 93.634 88.3777 93.7846 85.3401 94.1674ZM71.7352 61.321C71.8458 62.8011 71.8949 64.2889 72.0743 65.7588C72.9197 72.6976 75.9646 78.437 84.018 79.2409C90.5329 79.8891 95.9788 77.3933 98.0505 70.1788C99.7708 64.1919 99.8077 58.1157 98.1513 52.1083C97.2543 48.8622 95.4922 46.0602 92.4129 44.7C90.5034 43.8578 88.3506 43.3525 86.2765 43.2275C81.1525 42.9187 76.5937 44.9781 73.9273 50.4445C72.2611 53.8641 71.8138 57.544 71.7352 61.321Z" fill="white"/>
<path d="M348.559 66.727C343.278 66.727 337.994 66.7219 332.713 66.7295C330.28 66.7321 328.995 68.5899 329.752 71.0194C331.359 76.1718 334.998 78.8871 339.923 79.8518C346.259 81.092 352.457 80.403 358.46 77.9531C361.235 76.8226 363 78.0169 363.019 81.0946C363.032 83.0494 363.009 85.0068 363.027 86.9616C363.041 88.6306 362.361 89.7815 360.852 90.4374C357.055 92.091 353.098 93.168 349.011 93.487C345.268 93.7779 341.484 93.9693 337.741 93.7524C323.281 92.9153 313.286 83.9043 311.261 69.2764C310.189 61.5414 310.423 53.8651 313.564 46.6557C318.071 36.3075 325.854 30.2313 336.778 28.8251C342.926 28.034 348.955 28.6337 354.587 31.5761C361.498 35.1872 365.347 41.2532 367.222 48.853C368.455 53.8574 368.281 58.9665 368.2 64.0602C368.18 65.3413 367.426 66.1885 366.229 66.505C365.644 66.6606 365.017 66.7117 364.41 66.7142C359.124 66.7321 353.84 66.727 348.559 66.727ZM340.292 54.993C342.543 54.993 344.794 54.993 347.045 54.993C347.087 54.993 347.126 54.993 347.168 54.993C350.169 54.9624 351.339 53.5563 350.837 50.4913C349.486 42.251 343.391 40.3498 337.903 41.8427C333.88 42.935 331.6 46.204 330.081 50.0473C328.894 53.0535 330.152 54.9624 333.295 54.9905C335.627 55.0083 337.96 54.9905 340.292 54.993Z" fill="white"/>
<path d="M293.244 59.1144C293.244 62.8148 293.136 66.5202 293.291 70.2129C293.365 71.9585 293.711 73.7755 294.336 75.3934C295.469 78.3333 298.636 80.0457 301.863 79.224C305.581 78.2772 307.078 79.9921 306.788 83.598C306.633 85.5401 306.768 87.5077 306.758 89.465C306.749 91.2259 306.041 92.2365 304.402 92.7315C300.543 93.8952 296.587 94.0228 292.61 93.8774C289.602 93.7651 286.69 93.1858 283.95 91.8154C278.895 89.2838 276.396 84.8408 275.444 79.3388C275.071 77.1773 274.924 74.952 274.906 72.7522C274.845 64.545 274.884 56.3353 274.882 48.1282C274.882 45.2674 273.766 44.0935 271.033 44.0731C269.969 44.0655 268.903 44.0884 267.838 44.0654C266.283 44.0297 265.152 42.9962 265.118 41.3986C265.054 38.5506 265.056 35.7001 265.113 32.8521C265.145 31.2622 266.248 30.1725 267.792 30.1036C269.018 30.0475 270.249 30.0858 271.478 30.073C273.68 30.05 274.872 28.8123 274.884 26.5028C274.896 23.9942 274.874 21.4831 274.892 18.9745C274.904 17.2749 275.553 16.3357 277.091 15.8764C281.249 14.6336 285.412 13.4061 289.583 12.2118C291.578 11.6401 293.215 12.9187 293.232 15.0674C293.264 18.8954 293.237 22.7233 293.244 26.5513C293.249 28.8481 294.429 30.0602 296.67 30.0704C299.005 30.0832 301.34 30.0551 303.674 30.0807C305.726 30.1036 306.746 31.1933 306.754 33.3242C306.763 35.8762 306.766 38.4282 306.751 40.9801C306.741 42.9681 305.702 44.0552 303.805 44.068C301.512 44.0833 299.216 44.0553 296.923 44.0782C294.365 44.1037 293.242 45.2802 293.24 47.8909C293.242 51.6295 293.244 55.3707 293.244 59.1144Z" fill="white"/>
<path d="M405.232 93.7815C399.248 94.0265 393.47 93.0517 388.226 89.9179C379.87 84.9236 375.044 77.403 373.95 67.435C373.146 60.0981 373.775 52.9015 376.933 46.1771C381.364 36.7476 388.865 31.3655 398.616 29.4055C405.667 27.9892 412.767 28.0504 419.751 30.0997C422.255 30.8346 422.739 31.5926 422.739 34.2951C422.739 36.8879 422.749 39.4807 422.737 42.0761C422.722 44.7786 420.837 46.0623 418.417 45.0185C412.968 42.6707 407.434 42.3542 401.958 44.702C396.095 47.2157 393.266 52.1436 392.531 58.5108C392.101 62.2315 392.352 65.9013 393.701 69.4051C395.91 75.1471 400.16 78.1839 405.935 79.1001C410.304 79.7942 414.47 79.0184 418.505 77.2371C420.808 76.2189 422.715 77.551 422.735 80.1668C422.754 82.803 422.737 85.4392 422.739 88.0753C422.739 89.5938 422.093 90.6426 420.724 91.2474C417.144 92.8322 413.364 93.4702 409.52 93.7688C408.102 93.8734 406.662 93.7815 405.232 93.7815Z" fill="white"/>
<path d="M31.5535 93.7834C25.4392 94.0156 19.5583 92.9795 14.2328 89.6951C6.28019 84.7902 1.5912 77.5605 0.389466 68.0034C-0.436267 61.4269 -0.0111129 54.9271 2.26457 48.6875C5.52327 39.7454 11.6794 33.7432 20.3275 30.6961C28.5037 27.8175 36.8766 27.8838 45.2568 29.831C45.9695 29.9969 46.66 30.2827 47.3432 30.5609C48.341 30.9666 48.9922 31.7348 49.0045 32.8602C49.0463 36.1752 49.1299 39.4927 48.9922 42.8026C48.9013 45.0076 46.9377 45.962 44.7972 45.0178C39.9903 42.8945 35.0604 42.5602 30.0495 44.0301C23.9991 45.8063 19.691 51.2497 18.9783 57.7495C18.4819 62.2614 18.6564 66.6636 20.6863 70.7978C23.1365 75.7894 27.2184 78.321 32.4432 79.1121C36.7807 79.7705 40.902 78.9819 44.9004 77.2236C47.1294 76.2437 48.9873 77.4355 49.0561 79.944C49.1323 82.7053 49.0832 85.4716 49.0709 88.2354C49.0635 89.7742 48.314 90.7261 46.9426 91.3131C43.3817 92.8366 39.6487 93.4797 35.8444 93.763C34.4239 93.8727 32.9863 93.7834 31.5535 93.7834Z" fill="white"/>
<path d="M261.658 55.9239C261.636 53.053 261.435 50.1361 260.911 47.3212C259.287 38.5858 254.443 32.7776 246.05 30.3379C241.45 29.0006 236.754 29.0007 232.047 29.1155C219.895 29.4166 207.745 29.7611 195.592 30.0623C192.916 30.1286 192.267 30.685 191.763 33.4385C189.962 43.307 186.177 63.6794 185.325 67.7191C185.236 68.1326 185.263 68.5613 185.401 68.9594C185.892 70.3834 186.824 73.3692 186.824 73.3692C187.006 74.196 186.401 74.982 185.585 74.982H181.835C181.034 74.982 180.432 74.2216 180.589 73.4049C180.589 73.4049 181.449 70.3655 181.919 68.9594C182.054 68.5587 182.076 68.0917 181.987 67.6783C179.483 56.0771 176.94 44.4732 174.401 32.8796C173.932 30.7334 173.13 30.0776 170.968 30.0725C167.262 30.0648 163.558 30.0623 159.852 30.0725C158.075 30.0776 156.527 31.3331 156.095 33.1221C153.576 43.5035 148.56 63.6794 147.486 67.6783C147.373 68.0968 147.38 68.546 147.508 68.9594C147.955 70.4191 148.825 73.3692 148.825 73.3692C149.007 74.196 148.403 74.982 147.587 74.982H143.841C143.04 74.982 142.438 74.2216 142.595 73.4049C142.595 73.4049 143.456 70.3375 143.913 68.9594C144.04 68.5715 144.075 68.0815 144.006 67.6783C143.704 65.9481 143.328 64.2485 142.991 62.5259C141.047 52.5962 139.108 42.6665 137.145 32.7418C136.744 30.7232 135.963 30.0852 134.019 30.0776C130.251 30.0623 126.479 30.1669 122.716 30.0393C120.099 29.9525 119.131 32.1549 119.686 34.2654C124.574 52.7927 129.394 71.3378 134.237 89.8779C134.741 91.8021 135.498 92.3941 137.378 92.3941C141.721 92.3916 146.061 92.3916 150.403 92.3941C152.851 92.3941 153.47 91.8787 154.057 89.4083C157.154 76.3933 160.253 63.3808 163.357 50.3683C163.993 50.3657 163.937 50.3683 164.576 50.3657C164.617 50.5163 164.657 50.6643 164.689 50.8174C167.426 63.7789 170.152 76.7455 172.887 89.7069C173.31 91.7128 174.143 92.3839 176.158 92.389C180.483 92.3967 184.806 92.3916 189.131 92.3941C190.933 92.3941 192.515 91.1488 192.997 89.3445C196.956 74.5355 200.915 59.7264 204.869 44.9147C205.602 42.1714 205.592 42.0361 208.263 41.9723C217.263 41.758 226.262 41.541 235.262 41.5359C239.939 41.5334 242.925 44.2283 243.996 48.781C244.465 50.7766 243.502 52.5094 241.642 52.8003C238.572 53.2801 235.476 53.5863 232.414 54.1171C228.474 54.7985 224.481 55.3421 220.652 56.4675C215.511 57.9783 211.355 61.0917 209.069 66.3309C207.374 70.2175 206.998 74.3262 207.47 78.5446C208.172 84.825 211.048 89.5972 216.55 92.4477C220.195 94.3362 224.122 94.6807 228.145 94.3694C234.625 93.8692 239.602 90.7558 243.212 85.1797L244.313 85.537C244.313 86.8538 244.311 88.1732 244.315 89.49C244.32 91.922 245.328 92.9964 247.658 93.0066C251.221 93.0219 254.785 93.0219 258.348 93.0066C260.668 92.9964 261.69 91.9016 261.69 89.4798C261.693 78.2945 261.742 67.1092 261.658 55.9239ZM239.472 78.6645C237.464 80.2825 235.141 80.9817 232.46 80.9103C228.31 80.9179 225.365 78.9912 224.54 75.3546C223.672 71.5292 224.921 68.2244 228.211 66.3921C230.58 65.0728 233.193 64.8635 235.771 64.4807C237.506 64.2229 239.248 64.0188 240.986 63.7789C242.576 63.5594 244.225 64.764 244.33 66.3998C244.647 71.297 243.337 75.5511 239.472 78.6645Z" fill="white"/>
</svg>
