<svg width="7" height="16" viewBox="0 0 7 16" fill="none" xmlns="http://www.w3.org/2000/svg">
<path d="M1.16251 0.322945C1.31191 0.322376 1.45952 0.359294 1.5945 0.430987C1.72948 0.502679 1.84839 0.607324 1.94251 0.737231L6.77251 7.45537C6.91959 7.65572 7 7.90702 7 8.16637C7 8.42572 6.91959 8.67702 6.77251 8.87737L1.77251 15.5955C1.60277 15.8242 1.35886 15.968 1.09444 15.9953C0.83001 16.0226 0.566729 15.9311 0.362512 15.7411C0.158296 15.551 0.0298715 15.2779 0.00549181 14.9818C-0.0188879 14.6858 0.0627734 14.391 0.232512 14.1623L4.70251 8.16077L0.382514 2.15924C0.260231 1.99488 0.182553 1.79475 0.158674 1.58251C0.134794 1.37028 0.165711 1.15482 0.247767 0.961644C0.329823 0.768466 0.459583 0.60565 0.621693 0.492462C0.783804 0.379272 0.97148 0.320446 1.16251 0.322945Z" fill="#00459D"/>
</svg>
