<svg width="73" height="73" viewBox="0 0 73 73" fill="none" xmlns="http://www.w3.org/2000/svg">
<g clip-path="url(#clip0_347_742)">
<path d="M0.5 31.5549C0.662089 30.7445 0.79176 29.9016 1.0511 29.1236C2.21814 24.9741 4.74674 21.9268 8.57204 19.9493C8.83138 19.8197 9.12314 19.4955 9.18798 19.2037C10.355 12.3312 17.1952 8.18167 23.8084 10.3537C24.0029 10.4185 24.1974 10.4833 24.3271 10.5158C25.1375 9.34871 25.8183 8.18167 26.6612 7.1443C31.7508 0.887659 40.3415 -1.18708 47.7976 1.95745C48.3811 2.21679 48.8674 2.50855 48.7701 3.22174C48.7053 3.93493 47.9921 4.25911 47.2141 4.03219C45.9822 3.64317 44.7503 3.15691 43.4536 2.89756C36.2893 1.56843 29.1249 5.3289 26.0777 11.9746C25.5266 13.1416 25.17 13.2713 24.0029 12.7526C18.3298 10.1267 11.749 13.8872 11.1979 20.1114C11.133 20.857 10.8413 21.2461 10.1929 21.5378C6.17312 23.3208 3.70936 26.3681 2.83408 30.6472C1.4077 37.6495 6.56213 44.6193 13.6616 45.3001C14.7314 45.3973 15.8012 45.3973 16.9358 45.4622C16.9683 45.0732 16.9683 44.7814 16.9683 44.4896C16.9683 37.9088 16.9683 31.328 16.9683 24.7472C16.9683 21.5054 18.6216 18.9768 21.4743 18.0043C22.2848 17.7125 23.2249 17.6153 24.1002 17.6153C32.3019 17.5828 40.536 17.5828 48.7377 17.6153C53.0169 17.6153 55.8697 20.468 55.8697 24.7472C55.8697 31.2956 55.8697 37.844 55.8697 44.4248C55.8697 44.7166 55.8697 45.0407 55.8697 45.3973C57.3933 45.527 58.8521 45.3649 60.2785 44.9759C66.4703 43.355 70.6522 37.5198 70.2308 31.1659C69.8742 24.8444 65.0115 19.6576 58.6576 18.7823C56.8422 18.523 56.8098 18.523 56.5828 16.7076C56.0317 12.5257 54.1515 9.08937 50.9746 6.33385C50.2938 5.75033 50.1641 5.16681 50.618 4.64813C51.0394 4.16186 51.6229 4.12944 52.2389 4.61571C54.8323 6.75529 56.7125 9.44596 57.8147 12.6553C58.2037 13.7575 58.4307 14.9246 58.6576 16.0592C58.7548 16.5131 58.8845 16.6751 59.3384 16.74C63.423 17.3559 66.762 19.301 69.2258 22.5752C72.8242 27.373 73.5374 32.6571 71.1384 38.1357C68.7395 43.6144 64.3631 46.694 58.3982 47.3748C58.0092 47.4072 57.6202 47.4397 57.1988 47.4721C56.8422 47.4721 56.4532 47.4721 55.9669 47.4721C55.9669 47.8287 55.9669 48.1204 55.9669 48.4122C55.9669 53.9556 55.9669 59.4991 55.9669 65.0425C55.9669 68.3492 54.2488 70.9102 51.3312 71.8179C50.5855 72.0448 49.7751 72.1745 48.9971 72.1745C40.6981 72.2069 32.3667 72.2069 24.0678 72.1745C20.0479 72.1745 17.1628 69.3541 17.0655 65.3019C17.0007 62.8057 17.0655 60.342 17.0655 57.8458C17.0655 57.3595 17.1628 56.8732 17.6814 56.6787C17.9732 56.5815 18.4919 56.5491 18.654 56.7436C18.9457 57.0353 19.1403 57.5216 19.1727 57.943C19.2051 60.342 19.1727 62.7733 19.2051 65.1722C19.2375 67.4415 20.4694 69.192 22.5117 69.808C23.0304 69.97 23.6139 70.0349 24.165 70.0349C32.4316 70.0349 40.6981 70.0349 48.9647 70.0349C51.9471 70.0349 53.9246 68.0898 53.9246 65.1398C53.9246 51.5891 53.9246 38.0385 53.9246 24.4878C53.9246 21.5378 51.9471 19.6252 48.9971 19.6252C40.7305 19.6252 32.464 19.6252 24.1974 19.6252C21.1177 19.6252 19.2051 21.5378 19.2051 24.6175C19.2051 33.9538 19.2051 43.2902 19.2051 52.6265C19.2051 52.9183 19.2051 53.1776 19.1727 53.4694C19.1078 54.0853 18.7512 54.4095 18.1677 54.4419C17.5842 54.4419 17.1952 54.1177 17.1303 53.5018C17.0979 53.21 17.0979 52.9507 17.0979 52.6589C17.0979 50.9408 17.0979 49.2551 17.0979 47.4072C16.5144 47.4072 15.9633 47.4072 15.4122 47.4072C11.6517 47.4072 8.34511 46.2078 5.52476 43.7116C2.83408 41.3127 1.24561 38.3302 0.759343 34.7319C0.726925 34.5374 0.662089 34.3753 0.629671 34.2132C0.5 33.4352 0.5 32.495 0.5 31.5549Z" fill="white"/>
<path d="M22.707 43.0633C22.707 36.8715 22.707 30.6473 22.707 24.4555C22.707 23.1912 22.9988 22.8994 24.2955 22.8994C32.4324 22.8994 40.5368 22.8994 48.6737 22.8994C49.938 22.8994 50.2298 23.2236 50.2298 24.4879C50.2298 36.9039 50.2298 49.2875 50.2298 61.7036C50.2298 63.0003 49.938 63.292 48.6089 63.292C40.5044 63.292 32.4 63.292 24.2955 63.292C22.9664 63.292 22.707 63.0003 22.707 61.6711C22.707 55.4793 22.707 49.2875 22.707 43.0633ZM48.0902 25.0714C40.3099 25.0714 32.5621 25.0714 24.8466 25.0714C24.8466 37.1308 24.8466 49.1254 24.8466 61.12C32.6269 61.12 40.3423 61.12 48.0902 61.12C48.0902 49.093 48.0902 37.0984 48.0902 25.0714Z" fill="white"/>
<path d="M36.4834 65.2697C37.2939 65.2697 37.9422 65.9181 37.9422 66.7609C37.9422 67.5714 37.2614 68.2197 36.451 68.2197C35.6405 68.2197 34.9922 67.539 34.9922 66.7285C34.9922 65.8857 35.6405 65.2373 36.4834 65.2697Z" fill="white"/>
<path d="M36.4207 52.8211C34.5081 52.8211 32.5954 52.8211 30.6504 52.8211C28.5756 52.8211 27.3438 51.5568 27.3438 49.4821C27.3438 46.9211 27.3438 44.3925 27.3438 41.8315C27.3438 39.7892 28.5756 38.5573 30.618 38.5249C32.0768 38.4924 32.0768 38.4924 32.4982 37.1633C32.8872 35.8666 33.6976 35.1858 35.0268 35.121C35.9993 35.0886 36.9394 35.0886 37.912 35.121C39.2411 35.1858 40.0515 35.8666 40.4406 37.1633C40.473 37.3254 40.5378 37.4875 40.5702 37.6496C40.6675 38.3628 41.0241 38.6221 41.7373 38.5573C42.3532 38.5249 43.034 38.5573 43.5851 38.7518C44.8494 39.2056 45.5301 40.2106 45.5301 41.5721C45.5626 44.2952 45.5626 47.0508 45.5301 49.7739C45.4977 51.5568 44.2334 52.7887 42.418 52.8211C40.4406 52.8535 38.4306 52.8211 36.4207 52.8211ZM36.4532 50.714C38.3982 50.714 40.3433 50.714 42.2884 50.714C43.0988 50.714 43.4554 50.4222 43.4878 49.7414C43.5202 47.0183 43.5202 44.2952 43.4878 41.6046C43.4878 40.9886 43.0988 40.6644 42.4829 40.6644C42.029 40.6644 41.6076 40.6644 41.1537 40.6644C39.8894 40.632 39.1114 40.0161 38.7548 38.8166C38.6576 38.5249 38.5603 38.2331 38.4955 37.9413C38.3982 37.4227 38.1065 37.2606 37.6202 37.2606C37.0043 37.2606 36.3559 37.3254 35.74 37.2606C34.9619 37.1957 34.6053 37.4875 34.4108 38.2331C33.8921 40.243 33.3086 40.6969 31.2015 40.6969C31.0718 40.6969 30.9097 40.6969 30.78 40.6969C29.8075 40.7293 29.5157 41.021 29.5157 41.9612C29.5157 44.4573 29.5157 46.9859 29.5157 49.4821C29.5157 50.487 29.8075 50.7788 30.8125 50.7788C32.6603 50.714 34.5405 50.714 36.4532 50.714Z" fill="white"/>
<path d="M40.242 44.8142C40.242 46.8889 38.5563 48.6071 36.4491 48.6395C34.3744 48.6395 32.6562 46.9213 32.6562 44.8466C32.6562 42.7394 34.342 41.0537 36.4491 41.0537C38.5563 41.0537 40.242 42.7394 40.242 44.8142ZM34.7634 44.8466C34.7634 45.7867 35.5414 46.5323 36.4816 46.4999C37.4217 46.4675 38.1673 45.6895 38.1349 44.7818C38.1025 43.8741 37.3893 43.1609 36.4491 43.1609C35.509 43.1609 34.7634 43.9065 34.7634 44.8466Z" fill="white"/>
</g>
<defs>
<clipPath id="clip0_347_742">
<rect width="72" height="71.7731" fill="white" transform="translate(0.5 0.499023)"/>
</clipPath>
</defs>
</svg>
