<svg width="56" height="57" viewBox="0 0 56 57" fill="none" xmlns="http://www.w3.org/2000/svg">
<circle cx="28" cy="28.9053" r="28" fill="#0063AA" fill-opacity="0.1"/>
<g clip-path="url(#clip0_347_685)">
<path d="M41.9238 11.9756H13.0762C11.38 11.9756 10 13.3556 10 15.0518V43.7627C10 45.4589 11.38 46.8389 13.0762 46.8389H41.9238C43.62 46.8389 45 45.4589 45 43.7627V15.0518C45 13.3556 43.62 11.9756 41.9238 11.9756ZM13.0762 14.0264H41.9238C42.4892 14.0264 42.9492 14.4864 42.9492 15.0518V20.1787H12.0508V15.0518C12.0508 14.4864 12.5108 14.0264 13.0762 14.0264ZM41.9238 44.7881H13.0762C12.5108 44.7881 12.0508 44.3281 12.0508 43.7627V22.2295H42.9492V43.7627C42.9492 44.3281 42.4892 44.7881 41.9238 44.7881Z" fill="#0A62ED"/>
<path d="M30.9804 25.3869C30.4599 25.1638 29.857 25.4049 29.634 25.9254L23.4816 40.2809C23.2585 40.8014 23.4997 41.4042 24.0202 41.6273C24.5409 41.8504 25.1436 41.6091 25.3666 41.0887L31.5189 26.7333C31.742 26.2127 31.5009 25.6099 30.9804 25.3869Z" fill="#0A62ED"/>
<path d="M22.1481 28.7628C21.7943 28.3206 21.1489 28.2489 20.7069 28.6027L15.5799 32.7042C15.0673 33.1142 15.0669 33.8953 15.5799 34.3056L20.7069 38.4072C21.1491 38.761 21.7945 38.6892 22.1481 38.2471C22.5018 37.8049 22.4302 37.1596 21.9879 36.8059L17.8619 33.5049L21.9879 30.2041C22.4302 29.8503 22.5018 29.2051 22.1481 28.7628Z" fill="#0A62ED"/>
<path d="M39.4179 32.7043L34.291 28.6027C33.8487 28.2489 33.2034 28.3206 32.8497 28.7628C32.496 29.205 32.5676 29.8503 33.0099 30.204L37.1359 33.505L33.0099 36.8058C32.5676 37.1596 32.496 37.8048 32.8497 38.247C33.204 38.6897 33.8494 38.7606 34.291 38.4071L39.4179 34.3056C39.9305 33.8956 39.9309 33.1146 39.4179 32.7043Z" fill="#0A62ED"/>
<path d="M15.1973 18.1279C15.7636 18.1279 16.2227 17.6688 16.2227 17.1025C16.2227 16.5362 15.7636 16.0771 15.1973 16.0771C14.631 16.0771 14.1719 16.5362 14.1719 17.1025C14.1719 17.6688 14.631 18.1279 15.1973 18.1279Z" fill="#0A62ED"/>
<path d="M19.2988 18.1279C19.8651 18.1279 20.3242 17.6688 20.3242 17.1025C20.3242 16.5362 19.8651 16.0771 19.2988 16.0771C18.7325 16.0771 18.2734 16.5362 18.2734 17.1025C18.2734 17.6688 18.7325 18.1279 19.2988 18.1279Z" fill="#0A62ED"/>
<path d="M23.4004 18.1279C23.9667 18.1279 24.4258 17.6688 24.4258 17.1025C24.4258 16.5362 23.9667 16.0771 23.4004 16.0771C22.8341 16.0771 22.375 16.5362 22.375 17.1025C22.375 17.6688 22.8341 18.1279 23.4004 18.1279Z" fill="#0A62ED"/>
<path d="M33.6504 18.1279H39.8027C40.369 18.1279 40.8281 17.6688 40.8281 17.1025C40.8281 16.5362 40.369 16.0771 39.8027 16.0771H33.6504C33.0841 16.0771 32.625 16.5362 32.625 17.1025C32.625 17.6688 33.0841 18.1279 33.6504 18.1279Z" fill="#0A62ED"/>
</g>
<defs>
<clipPath id="clip0_347_685">
<rect width="35" height="35" fill="white" transform="translate(10 11.9053)"/>
</clipPath>
</defs>
</svg>
