<svg width="56" height="57" viewBox="0 0 56 57" fill="none" xmlns="http://www.w3.org/2000/svg">
<circle cx="28" cy="28.9053" r="28" fill="#0063AA" fill-opacity="0.1"/>
<g clip-path="url(#clip0_347_612)">
<path d="M24.4341 44.3663L24.3166 44.9403L24.4298 44.3657C24.1124 44.3031 23.8042 44.5097 23.7416 44.8271C23.6791 45.1448 23.8857 45.4527 24.2034 45.5153C24.2043 45.5156 24.2131 45.5171 24.214 45.5174C24.2513 45.5244 24.2882 45.5281 24.3248 45.5281C24.6004 45.5281 24.8461 45.3328 24.8995 45.052C24.9605 44.734 24.7521 44.427 24.4341 44.3663Z" fill="#0A62ED"/>
<path d="M28.9145 44.5539L28.9728 45.1368L28.9126 44.5542C28.5907 44.5872 28.3566 44.8749 28.3899 45.1969C28.4207 45.4984 28.6752 45.723 28.9718 45.723C28.992 45.723 29.0124 45.7218 29.0326 45.72L29.0487 45.7181C29.3692 45.6806 29.5965 45.3916 29.5608 45.0712C29.5248 44.751 29.2349 44.5203 28.9145 44.5539Z" fill="#0A62ED"/>
<path d="M26.6711 44.6249C26.6711 44.6249 26.6629 44.6246 26.6626 44.6246C26.3397 44.61 26.0699 44.8608 26.0553 45.184C26.0409 45.5072 26.2948 45.7809 26.618 45.7956C26.6272 45.7962 26.636 45.7962 26.6452 45.7962C26.9565 45.7962 27.2159 45.5511 27.2299 45.2368C27.2445 44.9136 26.9946 44.6396 26.6711 44.6249Z" fill="#0A62ED"/>
<path d="M22.2719 43.7706L22.2646 43.7679C21.96 43.6586 21.628 43.8179 21.5187 44.1225C21.4091 44.427 21.5709 44.764 21.8755 44.8735C21.9411 44.897 22.0079 44.908 22.0735 44.908C22.3137 44.908 22.5392 44.7594 22.625 44.5201C22.7345 44.2155 22.5764 43.8799 22.2719 43.7706Z" fill="#0A62ED"/>
<path d="M31.1255 44.1431L31.2698 44.711L31.1236 44.1437C30.8102 44.2243 30.6216 44.5438 30.7022 44.8572C30.7703 45.1215 31.0083 45.2973 31.2692 45.2973C31.3177 45.2973 31.3669 45.2912 31.416 45.2784C31.4184 45.2777 31.4288 45.275 31.4316 45.2744C31.7425 45.1895 31.9244 44.87 31.8414 44.5584C31.7584 44.2472 31.4377 44.0619 31.1255 44.1431Z" fill="#0A62ED"/>
<path d="M33.2446 43.4043L33.4768 43.942L33.2428 43.4049C32.9461 43.5343 32.8103 43.8795 32.9394 44.1761C33.0356 44.3967 33.251 44.5283 33.4771 44.5283C33.555 44.5283 33.6346 44.5124 33.7106 44.4794C33.713 44.4782 33.7225 44.4742 33.725 44.473C34.0188 44.3403 34.1485 43.996 34.0173 43.7015C33.8861 43.4067 33.54 43.2746 33.2446 43.4043Z" fill="#0A62ED"/>
<path d="M20.0336 16.6952C20.1276 16.6952 20.2231 16.6726 20.3113 16.6256C20.597 16.4733 20.7047 16.1184 20.5524 15.8327C20.4001 15.5474 20.0455 15.4391 19.7599 15.5916L19.7529 15.5953C19.4675 15.7476 19.3628 16.1007 19.5151 16.3863C19.6201 16.5835 19.824 16.6952 20.0336 16.6952Z" fill="#0A62ED"/>
<path d="M13.2553 23.24C13.3422 23.2855 13.4353 23.3072 13.5272 23.3072C13.738 23.3072 13.9419 23.193 14.0466 22.9932L14.057 22.9727C14.1998 22.6822 14.0801 22.3309 13.7896 22.1884C13.5012 22.0462 13.1527 22.1634 13.0081 22.4499C12.8585 22.7362 12.969 23.0899 13.2553 23.24Z" fill="#0A62ED"/>
<path d="M12.4296 25.4437C12.4919 25.4648 12.555 25.4749 12.6176 25.4749C12.8618 25.4749 13.0897 25.3207 13.1724 25.0766L13.18 25.0534C13.2753 24.7443 13.1016 24.4162 12.7922 24.3213C12.4855 24.2267 12.1598 24.397 12.0619 24.7022C11.959 25.0082 12.1235 25.3403 12.4296 25.4437Z" fill="#0A62ED"/>
<path d="M14.4092 21.1891C14.5133 21.2648 14.6338 21.3014 14.7534 21.3014C14.9344 21.3014 15.1133 21.2175 15.2277 21.06L15.2353 21.0497C15.4233 20.7866 15.362 20.4216 15.0995 20.2336C14.8368 20.0453 14.4706 20.1057 14.282 20.3682L14.7541 20.7155L14.2801 20.3706C14.0897 20.6325 14.1477 20.999 14.4092 21.1891Z" fill="#0A62ED"/>
<path d="M18.0432 17.9582C18.1661 17.9582 18.29 17.9195 18.3959 17.8389C18.6572 17.6479 18.7136 17.2813 18.5226 17.0201C18.3312 16.7589 17.9647 16.7024 17.7038 16.8935L17.6892 16.9041C17.4316 17.0998 17.3803 17.4681 17.5759 17.726C17.6913 17.878 17.8662 17.9582 18.0432 17.9582Z" fill="#0A62ED"/>
<path d="M11.9034 34.3276C11.9809 34.5793 12.2123 34.7408 12.4625 34.7408C12.5196 34.7408 12.5779 34.7322 12.6352 34.7145C12.9429 34.6202 13.1165 34.2943 13.0243 33.9861C12.9361 33.6785 12.6172 33.4978 12.3069 33.5823C11.9947 33.6675 11.8107 33.9897 11.8958 34.3019C11.8976 34.308 11.9016 34.3215 11.9034 34.3276Z" fill="#0A62ED"/>
<path d="M16.2735 19.5034C16.4258 19.5034 16.5781 19.4445 16.6931 19.3274C16.9217 19.0985 16.9217 18.7274 16.6931 18.4988C16.4642 18.2699 16.0932 18.2699 15.8643 18.4988L15.8545 18.5086C15.6281 18.7396 15.6326 19.1101 15.8637 19.3365C15.9775 19.4482 16.1255 19.5034 16.2735 19.5034Z" fill="#0A62ED"/>
<path d="M12.5539 31.7751C12.5127 31.4568 12.2219 31.2309 11.9033 31.2688C11.5822 31.3072 11.3527 31.5987 11.3909 31.92L11.3942 31.9435C11.4369 32.2347 11.6869 32.4434 11.9728 32.4434C12.0009 32.4434 12.0296 32.4413 12.0586 32.437C12.3775 32.3906 12.5987 32.094 12.5539 31.7751Z" fill="#0A62ED"/>
<path d="M11.8184 30.0965C11.8246 30.0965 11.8303 30.0968 11.8361 30.0968C12.1517 30.0968 12.4123 29.8456 12.4215 29.528L12.4221 29.5029C12.4221 29.1791 12.1596 28.917 11.8361 28.917C11.5148 28.917 11.2542 29.1752 11.2502 29.4953C11.2417 29.8182 11.4959 30.087 11.8184 30.0965Z" fill="#0A62ED"/>
<path d="M11.9437 27.7478C11.9788 27.7539 12.0133 27.7569 12.0478 27.7569C12.3261 27.7569 12.573 27.5577 12.624 27.2741C12.6255 27.2656 12.6267 27.2571 12.6279 27.2485C12.6752 26.9284 12.454 26.6305 12.1335 26.5835C11.8171 26.5365 11.5207 26.7541 11.4698 27.0697C11.4142 27.3877 11.626 27.6907 11.9437 27.7478Z" fill="#0A62ED"/>
<path d="M39.5849 21.3735C39.6984 21.5383 39.8809 21.6265 40.0671 21.6265C40.1815 21.6265 40.2975 21.593 40.3988 21.5231C40.6652 21.34 40.7327 20.975 40.5496 20.7082L40.0625 21.0342L40.5477 20.7055C40.3658 20.4376 40.0015 20.3677 39.7338 20.5492C39.4659 20.7308 39.396 21.0952 39.5776 21.3632L39.5849 21.3735Z" fill="#0A62ED"/>
<path d="M42.579 27.2693C42.2574 27.3053 42.026 27.5956 42.0623 27.9172L42.0654 27.9426C42.1072 28.2346 42.3581 28.4455 42.6449 28.4455C42.6724 28.4455 42.7005 28.4437 42.7285 28.4397C43.0462 28.3942 43.2678 28.1015 43.2266 27.7842C43.1897 27.4634 42.8985 27.2333 42.579 27.2693Z" fill="#0A62ED"/>
<path d="M41.5864 25.6178L41.5889 25.6255C41.664 25.8809 41.8974 26.0463 42.1507 26.0463C42.2053 26.0463 42.2609 26.0387 42.3161 26.0222C42.6268 25.9309 42.8044 25.6053 42.7131 25.2946L42.7107 25.287C42.6195 24.9763 42.2938 24.7987 41.9832 24.8903C41.6728 24.9815 41.4952 25.3072 41.5864 25.6178Z" fill="#0A62ED"/>
<path d="M40.7633 23.4253C40.8655 23.6331 41.0745 23.7543 41.2918 23.7543C41.3782 23.7543 41.4661 23.7351 41.5488 23.6942C41.839 23.5513 41.9595 23.2022 41.8164 22.9117L41.2854 23.1592L41.8158 22.9105C41.6785 22.6175 41.3297 22.4915 41.0367 22.6288C40.7437 22.7661 40.6174 23.1149 40.7547 23.4079L40.7633 23.4253Z" fill="#0A62ED"/>
<path d="M38.1106 19.544C38.2254 19.6612 38.377 19.7198 38.529 19.7198C38.677 19.7198 38.825 19.6642 38.9392 19.5522C39.1687 19.3276 39.1739 18.9605 38.9526 18.7292C38.7332 18.4926 38.3633 18.4783 38.1259 18.6974C37.8881 18.9168 37.8735 19.2876 38.0929 19.5254L38.1106 19.544Z" fill="#0A62ED"/>
<path d="M42.7674 29.718C42.4454 29.7097 42.176 29.9621 42.1647 30.2841C42.15 30.6048 42.3963 30.8779 42.7174 30.896C42.7286 30.8966 42.7393 30.8969 42.7506 30.8969C43.0591 30.8969 43.3176 30.6555 43.335 30.3433L43.3359 30.3192C43.3451 29.996 43.0906 29.7274 42.7674 29.718Z" fill="#0A62ED"/>
<path d="M34.363 16.6691L34.377 16.6768C34.4643 16.7231 34.558 16.7451 34.6501 16.7451C34.8586 16.7451 35.0603 16.6328 35.1662 16.436C35.3188 16.1519 35.2114 15.7966 34.9282 15.6428L34.6446 16.1555L34.9263 15.6416C34.6425 15.486 34.2864 15.59 34.1307 15.8738C33.9754 16.1574 34.0792 16.5138 34.363 16.6691Z" fill="#0A62ED"/>
<path d="M36.3464 17.9522L36.3556 17.9593C36.4615 18.0395 36.5857 18.0783 36.7093 18.0783C36.8863 18.0783 37.0611 17.9983 37.1765 17.8463C37.3721 17.5885 37.3215 17.221 37.0639 17.0254L37.0599 17.0227C36.8033 16.8255 36.4355 16.8738 36.2384 17.1304C36.0412 17.3871 36.0898 17.7551 36.3464 17.9522Z" fill="#0A62ED"/>
<path d="M47.6384 38.5873L44.8878 35.8318C44.6537 35.5975 44.3428 35.4684 44.0117 35.4684C43.6808 35.4684 43.3696 35.5975 43.1358 35.8318L43.072 35.8956L42.8914 35.715C42.6683 35.4913 42.4955 35.231 42.3784 34.9474C42.368 34.9099 42.3542 34.8733 42.3365 34.8388C42.2468 34.5867 42.2001 34.3185 42.2001 34.0429V33.2635C42.2535 33.2916 42.3118 33.312 42.3744 33.3227C42.408 33.3285 42.4412 33.3312 42.4742 33.3312C42.7522 33.3312 42.9982 33.1329 43.0497 32.8509C43.1123 32.5341 42.9069 32.2262 42.5898 32.1627C42.4504 32.1349 42.3124 32.1591 42.1965 32.2219C42.1605 31.3894 41.8202 30.6118 41.2281 30.0186L38.5597 27.3455C37.9609 26.7458 37.1647 26.4156 36.3179 26.4156C35.6624 26.4156 35.038 26.6143 34.5112 26.9821L34.228 26.6973V19.9957C34.228 19.1879 33.9348 18.4084 33.4025 17.8015C33.0238 17.3699 32.8154 16.8157 32.8154 16.2408V15.7498H32.8557C33.5386 15.7498 34.0944 15.194 34.0944 14.5107V10.613C34.0944 9.92975 33.5386 9.37402 32.8557 9.37402H21.9105C21.2275 9.37402 20.6718 9.92975 20.6718 10.613V14.5107C20.6718 15.194 21.2275 15.7498 21.9105 15.7498H22.0009V16.0067C22.0009 16.6384 21.7552 17.2323 21.3093 17.6788L20.128 18.8622C19.5012 19.4903 19.156 20.325 19.156 21.213V24.9932C19.156 25.5068 19.2793 25.9918 19.4963 26.4214C18.7193 26.4663 17.9951 26.7901 17.4403 27.3455L14.7719 30.0186C14.145 30.6466 13.7999 31.4816 13.7999 32.3693V34.0429C13.7999 34.6746 13.5545 35.2685 13.1086 35.715L12.9301 35.8938C12.9292 35.8944 12.9286 35.895 12.928 35.8956L12.8645 35.8318C12.6304 35.5975 12.3195 35.4684 11.9883 35.4684C11.6575 35.4684 11.3463 35.5975 11.1125 35.8318L8.36163 38.5873C7.87946 39.0704 7.87946 39.8565 8.36163 40.3396L9.30371 41.2829C9.53229 41.5121 9.90338 41.5124 10.1323 41.2838C10.3611 41.0549 10.3618 40.6841 10.1329 40.455L9.1911 39.5114C9.16455 39.4848 9.16455 39.4418 9.1911 39.4152L11.942 36.6598C11.9676 36.6342 12.0094 36.6339 12.035 36.6598L12.5132 37.1389H12.5135L19.0434 43.6801L19.7749 44.4131C19.8015 44.4396 19.8015 44.4827 19.7749 44.5092L17.0244 47.2646C16.9984 47.2906 16.9566 47.2906 16.931 47.2646L11.7918 42.1166C11.5632 41.8875 11.1921 41.8871 10.9633 42.1157C10.7341 42.3446 10.7338 42.7154 10.9623 42.9446L16.1018 48.0926C16.3356 48.327 16.6469 48.4561 16.978 48.4561C17.3088 48.4561 17.6198 48.327 17.8538 48.0926L20.6044 45.3372C21.0865 44.8544 21.0865 44.0682 20.6044 43.5851L20.5745 43.5552L20.9214 43.2076C21.3267 42.8015 21.8651 42.5573 22.4373 42.5204C23.2426 42.4682 24.0004 42.1246 24.5707 41.553L27.0976 39.0206C27.8264 38.8293 28.3937 38.2357 28.5478 37.4923C28.8075 37.6159 29.0977 37.6855 29.4041 37.6855C30.5061 37.6855 31.4027 36.788 31.4027 35.6844V34.2932C31.6548 34.4082 31.9346 34.4729 32.2294 34.4729C33.3314 34.4729 34.2277 33.5754 34.2277 32.4719V28.3587L36.0301 30.1699C36.1445 30.285 36.295 30.3423 36.4454 30.3423C36.595 30.3423 36.7445 30.2856 36.8589 30.1718C37.0881 29.9435 37.0891 29.5727 36.8608 29.3432L35.3581 27.8332C35.6489 27.673 35.9767 27.5875 36.3179 27.5875C36.8513 27.5875 37.353 27.7957 37.7302 28.1738L40.3987 30.8465C40.8046 31.2533 41.0283 31.7941 41.0283 32.3693V34.0429C41.0283 34.9874 41.3954 35.8752 42.0619 36.5429L42.2438 36.7251L41.3939 37.5765L36.2535 42.7258L35.9669 42.4386C35.9639 42.4359 35.9611 42.4328 35.9581 42.4301L35.9077 42.3794C35.301 41.7718 34.4951 41.4065 33.6387 41.351C33.1178 41.3171 32.6277 41.0949 32.2569 40.7238L30.3315 38.8088C30.1021 38.5806 29.731 38.5815 29.5027 38.811C29.2747 39.0405 29.2756 39.4116 29.5051 39.6395L31.4293 41.553C31.9996 42.1246 32.7574 42.4682 33.563 42.5204C34.1349 42.5573 34.6733 42.8015 35.0786 43.2073L35.1069 43.2357C35.1222 43.2531 35.1384 43.2693 35.1555 43.2845L35.4255 43.5549L35.3956 43.5851C34.9135 44.0682 34.9135 44.8541 35.3956 45.3372L38.1462 48.0926C38.3802 48.327 38.6912 48.4561 39.0223 48.4561C39.3531 48.4561 39.6644 48.327 39.8985 48.0926L47.6384 40.3393C48.1205 39.8562 48.1205 39.0704 47.6384 38.5873ZM42.5929 32.7609L42.5819 32.759L42.4751 32.7374L42.5929 32.7609ZM23.7413 40.725C23.3723 41.0949 22.8822 41.3171 22.3616 41.351C21.5049 41.4065 20.699 41.7718 20.0923 42.3794L19.7465 42.7258L19.4352 42.4139C19.4313 42.4099 19.4273 42.4056 19.4233 42.402L13.7562 36.7251L13.9381 36.5429C14.6046 35.8752 14.9717 34.9874 14.9717 34.0429V32.3693C14.9717 31.7941 15.1951 31.2533 15.6013 30.8465L18.2698 28.1738C18.647 27.7957 19.1487 27.5875 19.6821 27.5875C20.0242 27.5875 20.3532 27.6736 20.645 27.835L19.1398 29.3426C18.9113 29.5715 18.9116 29.9426 19.1404 30.1711C19.2549 30.2853 19.4047 30.3423 19.5546 30.3423C19.7047 30.3423 19.8549 30.285 19.9693 30.1705L21.7671 28.3694V35.6844C21.7671 36.788 22.6637 37.6855 23.7657 37.6855C24.0764 37.6855 24.3705 37.6141 24.633 37.4871C24.752 38.0679 25.1231 38.5574 25.626 38.8363L23.7413 40.725ZM33.0562 32.4722C33.0562 32.9293 32.6851 33.3013 32.2294 33.3013C31.7735 33.3013 31.4027 32.9293 31.4027 32.4722V25.9362C31.4027 25.6127 31.1406 25.3503 30.8168 25.3503C30.493 25.3503 30.2308 25.6127 30.2308 25.9362V35.6848C30.2308 36.1419 29.86 36.5136 29.4041 36.5136C28.9949 36.5136 28.6552 36.2139 28.5896 35.8218V25.9295C28.5896 25.6057 28.3275 25.3436 28.0037 25.3436C27.8996 25.3436 27.8016 25.371 27.7168 25.4186C27.5316 25.5172 27.4055 25.7119 27.4055 25.9362V35.6844C27.4055 35.7589 27.4098 35.8318 27.4177 35.9042V37.0849C27.4177 37.5421 27.0469 37.9141 26.591 37.9141C26.1354 37.9141 25.7646 37.5421 25.7646 37.0849V25.9225C25.7646 25.599 25.5021 25.3365 25.1786 25.3365C24.8549 25.3365 24.5924 25.599 24.5924 25.9225V35.6844C24.5924 36.1416 24.2216 36.5136 23.766 36.5136C23.3101 36.5136 22.9393 36.1416 22.9393 35.6844V24.7851C22.9393 24.4613 22.6768 24.1989 22.3533 24.1989C22.0295 24.1989 21.7674 24.4613 21.7674 24.7851V26.8011C21.7183 26.817 21.6707 26.8392 21.6264 26.8685C20.8687 26.5838 20.3279 25.8508 20.3279 24.9932V21.213C20.3279 20.6378 20.5516 20.097 20.9575 19.6902L22.1388 18.5067C22.8056 17.839 23.1727 16.9512 23.1727 16.0067V15.7498H24.3507C24.6745 15.7498 24.9366 15.4873 24.9366 15.1638C24.9366 14.84 24.6745 14.5779 24.3507 14.5779H21.9105C21.8736 14.5779 21.8437 14.5477 21.8437 14.5107V10.613C21.8437 10.5761 21.8736 10.5459 21.9105 10.5459H32.8553C32.8926 10.5459 32.9225 10.5761 32.9225 10.613V14.5107C32.9225 14.548 32.8926 14.5779 32.8553 14.5779H27.1016C26.7781 14.5779 26.5156 14.84 26.5156 15.1638C26.5156 15.4873 26.7781 15.7498 27.1016 15.7498H31.6435V16.2408C31.6435 17.1002 31.9551 17.9287 32.5212 18.5745C32.866 18.9675 33.0562 19.4723 33.0562 19.9957V32.4722ZM46.8089 39.5114L39.069 47.2646C39.0562 47.2778 39.0406 47.2842 39.0223 47.2842C39.0043 47.2842 38.9888 47.2778 38.9756 47.2646L36.2251 44.5092C36.1985 44.4827 36.1985 44.4396 36.2251 44.4131L36.6679 43.9694L36.6682 43.9691L41.1613 39.4683L43.965 36.6598C43.9906 36.6339 44.0324 36.6339 44.058 36.6598L46.8089 39.4152C46.8354 39.4418 46.8354 39.4848 46.8089 39.5114Z" fill="#0A62ED"/>
<path d="M23.7644 11.9375C23.4205 11.9375 23.1406 12.218 23.1406 12.5625C23.1406 12.9073 23.4205 13.1875 23.7644 13.1875C24.1086 13.1875 24.3885 12.9073 24.3885 12.5625C24.3885 12.218 24.1086 11.9375 23.7644 11.9375Z" fill="#0A62ED"/>
<path d="M44.2022 38.6475C43.858 38.6475 43.5781 38.9279 43.5781 39.2725C43.5781 39.617 43.858 39.8975 44.2022 39.8975C44.5461 39.8975 44.826 39.617 44.826 39.2725C44.826 38.9279 44.5461 38.6475 44.2022 38.6475Z" fill="#0A62ED"/>
<path d="M17.7635 44.624C17.7635 44.2795 17.4836 43.999 17.1397 43.999C16.7955 43.999 16.5156 44.2795 16.5156 44.624C16.5156 44.9686 16.7955 45.249 17.1397 45.249C17.4836 45.249 17.7635 44.9686 17.7635 44.624Z" fill="#0A62ED"/>
</g>
<defs>
<clipPath id="clip0_347_612">
<rect width="40" height="40" fill="white" transform="translate(8 8.90527)"/>
</clipPath>
</defs>
</svg>
