<svg width="79" height="79" viewBox="0 0 79 79" fill="none" xmlns="http://www.w3.org/2000/svg">
<path d="M37.7216 15.2823C37.3402 15.2823 37.0262 15.2823 36.7345 15.2823C33.5715 15.2823 30.4084 15.2823 27.2453 15.2823C26.1237 15.2823 25.6526 14.8336 25.6301 13.7344C25.6301 11.6257 25.6301 9.53941 25.6301 7.4307C25.6301 6.37634 26.1012 5.88281 27.1556 5.88281C31.0365 5.88281 34.9399 5.88281 38.8208 5.88281C39.92 5.88281 40.3911 6.35391 40.3911 7.47556C40.3911 11.0649 40.3911 14.6317 40.4136 18.221C40.4136 18.6024 40.5482 19.0511 40.7725 19.3651C43.3523 23.1788 45.977 26.9924 48.5792 30.806C48.8933 31.2547 49.2074 31.4117 49.7458 31.4117C56.7673 31.3893 63.7889 31.3893 70.8329 31.3893C72.1116 31.3893 72.4032 31.5912 72.7846 32.7577C74.4895 37.85 76.172 42.9199 77.8545 48.0122C78.348 49.4704 77.8096 50.1882 76.2393 50.1882C75.5439 50.1882 74.8484 50.1882 74.0857 50.1882C74.0857 58.6904 74.0857 67.1477 74.0857 75.7171C74.8933 75.7171 75.7233 75.7171 76.5534 75.7171C77.4955 75.7396 78.0564 76.2331 78.0564 77.0407C78.0564 77.8483 77.4955 78.3643 76.5758 78.3867C76.3739 78.3867 76.1944 78.3867 75.9925 78.3867C51.3834 78.3867 26.7967 78.3867 2.1875 78.3867C1.98561 78.3867 1.80614 78.3867 1.60424 78.3867C0.684484 78.3643 0.123655 77.8483 0.146088 77.0183C0.168522 76.2331 0.706917 75.7171 1.58181 75.7171C2.41184 75.6947 3.24186 75.7171 4.13919 75.7171C4.13919 67.1926 4.13919 58.7353 4.13919 50.1882C3.33159 50.1882 2.54643 50.1882 1.78371 50.1882C0.37042 50.1882 -0.190409 49.4255 0.280687 48.0571C1.78371 43.5256 3.28673 38.9941 4.81218 34.4851C5.01408 33.8569 5.23841 33.2064 5.44031 32.5782C5.70951 31.7482 6.22547 31.3893 7.12279 31.3893C14.2117 31.4117 21.2781 31.3893 28.367 31.4117C28.9951 31.4117 29.3765 31.2323 29.7354 30.6939C32.203 27.0373 34.6931 23.3807 37.2056 19.7465C37.6543 19.1184 37.8786 18.4902 37.8113 17.7275C37.6767 16.9872 37.7216 16.2021 37.7216 15.2823ZM32.3376 75.7396C32.3376 75.3582 32.3376 75.0666 32.3376 74.775C32.3376 70.7146 32.3376 66.6542 32.3376 62.5938C32.3376 61.4272 32.7863 60.9786 33.9528 60.9786C37.3402 60.9786 40.7276 60.9786 44.115 60.9786C45.3264 60.9786 45.7527 61.4272 45.7527 62.6611C45.7527 66.7215 45.7527 70.7819 45.7527 74.8422C45.7527 75.1339 45.7527 75.4255 45.7527 75.7171C46.2462 75.7171 46.6275 75.7171 47.0986 75.7171C47.0986 75.4255 47.0986 75.2012 47.0986 74.9544C47.0986 61.3599 47.0986 47.7655 47.0762 34.1486C47.0762 33.7672 46.9416 33.3185 46.7173 33.0045C44.3842 29.5498 42.0288 26.1175 39.6733 22.6852C39.4714 22.3936 39.2695 22.102 39.0227 21.7655C38.776 22.102 38.5965 22.3487 38.417 22.5955C36.084 26.0053 33.7285 29.4152 31.4179 32.8474C31.1487 33.2512 30.9468 33.8121 30.9468 34.3056C30.9244 47.8328 30.9244 61.3375 30.9244 74.8647C30.9244 75.1563 30.9244 75.4479 30.9244 75.762C31.4852 75.7396 31.8441 75.7396 32.3376 75.7396ZM74.7138 47.4963C74.6914 47.3168 74.6914 47.1822 74.6465 47.07C73.2557 42.9199 71.8648 38.7698 70.4964 34.5972C70.3169 34.0813 70.0253 34.0813 69.6215 34.0813C63.2505 34.0813 56.8571 34.0813 50.486 34.0813C50.2841 34.0813 50.0598 34.1261 49.8579 34.1261C49.8579 38.6127 49.8579 43.0545 49.8579 47.4738C58.1806 47.4963 66.436 47.4963 74.7138 47.4963ZM28.2548 47.4963C28.2548 42.9872 28.2548 38.5454 28.2548 34.0813C28.0305 34.0813 27.8734 34.0813 27.694 34.0813C21.2781 34.0813 14.8847 34.0813 8.46878 34.0588C7.90795 34.0588 7.70606 34.2607 7.54902 34.7542C6.2479 38.7473 4.90191 42.7404 3.57836 46.756C3.51106 46.9803 3.44376 47.2271 3.37646 47.4963C11.7216 47.4963 19.9545 47.4963 28.2548 47.4963ZM28.2772 50.278C21.0986 50.278 13.9649 50.278 6.87603 50.278C6.87603 58.8026 6.87603 67.2598 6.87603 75.7171C14.0322 75.7171 21.1435 75.7171 28.2772 75.7171C28.2772 67.215 28.2772 58.7801 28.2772 50.278ZM71.2816 50.278C64.103 50.278 56.9692 50.278 49.8804 50.278C49.8804 58.8026 49.8804 67.2598 49.8804 75.7171C57.0365 75.7171 64.1478 75.7171 71.2816 75.7171C71.2816 67.215 71.2816 58.7801 71.2816 50.278ZM35.0521 75.6947C37.7665 75.6947 40.4136 75.6947 43.0382 75.6947C43.0382 71.6792 43.0382 67.7085 43.0382 63.7154C40.3687 63.7154 37.7216 63.7154 35.0521 63.7154C35.0521 67.7085 35.0521 71.6792 35.0521 75.6947ZM28.367 8.59722C28.367 9.96564 28.367 11.2668 28.367 12.523C31.5076 12.523 34.6034 12.523 37.6767 12.523C37.6767 11.177 37.6767 9.89834 37.6767 8.59722C34.5585 8.59722 31.5076 8.59722 28.367 8.59722Z" fill="white"/>
<path d="M78.0081 21.1149C78.0081 21.3168 78.0081 21.4962 78.0081 21.6981C77.9857 22.6403 77.5146 23.2012 76.6846 23.2012C75.877 23.2236 75.3386 22.6628 75.3162 21.743C75.2264 19.1408 74.8002 16.6283 73.6561 14.2728C70.336 7.36338 64.795 3.70678 57.1678 3.19081C56.8088 3.16838 56.4275 3.16838 56.1134 3.03378C55.5077 2.76459 55.2385 2.22619 55.3955 1.59806C55.5526 0.902635 56.0461 0.521272 56.7864 0.521272C59.4111 0.498839 61.9684 0.969935 64.3912 1.97943C71.9063 5.12006 76.3481 10.7283 77.7838 18.7145C77.9184 19.4997 77.9409 20.3297 78.0306 21.1373C78.0306 21.1149 78.0306 21.1149 78.0081 21.1149Z" fill="white"/>
<path d="M57.0366 6.06152C64.9555 6.26342 71.5957 12.455 72.336 20.172C72.3808 20.6431 72.4481 21.1142 72.4481 21.5853C72.4706 22.5723 71.9546 23.1556 71.1246 23.2004C70.317 23.2229 69.8459 22.7069 69.7113 21.7647C69.5318 20.486 69.4645 19.1849 69.1056 17.9735C67.6026 12.8812 62.9814 9.24703 57.7096 8.86567C57.3955 8.84323 57.1039 8.8208 56.7898 8.79837C55.8701 8.70863 55.3092 8.12537 55.3765 7.36265C55.4214 6.59992 56.0495 6.10639 56.9693 6.08396C57.0366 6.06152 57.1263 6.06152 57.0366 6.06152Z" fill="white"/>
<path d="M56.5656 26.3635C54.0755 26.3411 52.1239 24.2773 52.1687 21.7199C52.1912 19.2522 54.2774 17.2557 56.8124 17.3005C59.3025 17.3454 61.2766 19.4093 61.2317 21.9442C61.1869 24.4343 59.123 26.386 56.5656 26.3635ZM58.5173 21.832C58.5173 20.8674 57.6648 20.015 56.7002 19.9925C55.7132 19.9701 54.8158 20.8898 54.8383 21.8769C54.8607 22.8415 55.7356 23.6716 56.7002 23.6716C57.6648 23.6716 58.5173 22.7967 58.5173 21.832Z" fill="white"/>
<path d="M66.7935 21.4305C66.8383 22.5521 66.4345 23.1354 65.6045 23.2027C64.7072 23.27 64.1464 22.6867 64.1015 21.61C63.9669 18.3123 61.7684 15.5081 58.6278 14.6781C58.0894 14.5435 57.5286 14.4762 56.9678 14.4313C56.0031 14.364 55.375 13.8481 55.375 13.0629C55.375 12.2553 56.0031 11.7618 56.9902 11.7618C62.1049 11.7394 66.614 16.2036 66.7935 21.4305Z" fill="white"/>
<path d="M39.022 44.8262C35.3205 44.8262 32.3594 41.8201 32.3594 38.0962C32.3594 34.3723 35.343 31.4111 39.0669 31.4111C42.8356 31.4111 45.7968 34.3947 45.7744 38.1859C45.7744 41.8874 42.7459 44.8486 39.022 44.8262ZM35.0289 38.1186C35.0289 40.3171 36.9133 42.1791 39.1117 42.1566C41.2429 42.1342 43.06 40.3171 43.0824 38.1859C43.1048 35.9875 41.2429 34.1031 39.0444 34.1031C36.8684 34.1031 35.0513 35.9426 35.0289 38.1186Z" fill="white"/>
<path d="M16.208 67.753C16.208 68.5831 16.2305 69.4355 16.208 70.2656C16.1856 71.2077 15.6921 71.7013 14.7499 71.7013C13.045 71.7237 11.3401 71.7237 9.63514 71.7013C8.67051 71.7013 8.17698 71.2077 8.17698 70.2656C8.15455 68.5382 8.15455 66.7884 8.17698 65.0611C8.17698 64.1637 8.69294 63.6702 9.59027 63.6702C11.3176 63.6478 13.0674 63.6478 14.7948 63.6702C15.6921 63.6702 16.1856 64.1637 16.208 65.0611C16.2305 65.9584 16.208 66.8557 16.208 67.753ZM13.4936 69.0093C13.4936 68.0895 13.4936 67.2371 13.4936 66.3846C12.5963 66.3846 11.7439 66.3846 10.9138 66.3846C10.9138 67.3044 10.9138 68.1344 10.9138 69.0093C11.7887 69.0093 12.5963 69.0093 13.4936 69.0093Z" fill="white"/>
<path d="M22.9825 63.6467C23.8574 63.6467 24.7098 63.6243 25.5847 63.6467C26.4372 63.6691 26.9307 64.1627 26.9531 65.0151C26.9756 66.7873 26.9756 68.5371 26.9531 70.3093C26.9531 71.2067 26.4372 71.7002 25.5174 71.7002C23.7901 71.7226 22.0403 71.7226 20.3129 71.7002C19.4156 71.7002 18.9221 71.1842 18.8996 70.2869C18.8772 68.5595 18.8772 66.8098 18.8996 65.0824C18.8996 64.1402 19.4156 63.6691 20.3802 63.6467C21.2551 63.6467 22.13 63.6467 22.9825 63.6467ZM24.2387 68.9858C24.2387 68.066 24.2387 67.236 24.2387 66.3835C23.3414 66.3835 22.4889 66.3835 21.6589 66.3835C21.6589 67.2809 21.6589 68.1333 21.6589 68.9858C22.5338 68.9858 23.3638 68.9858 24.2387 68.9858Z" fill="white"/>
<path d="M8.1545 55.5265C8.1545 54.6517 8.13207 53.7992 8.1545 52.9243C8.17693 52.0718 8.67046 51.5783 9.52292 51.5559C11.2951 51.5335 13.0449 51.5335 14.8171 51.5559C15.7145 51.5559 16.1856 52.0718 16.208 52.9916C16.2304 54.719 16.2304 56.4687 16.208 58.1961C16.208 59.0934 15.692 59.5869 14.7947 59.6094C13.0674 59.6318 11.3176 59.6318 9.59022 59.6094C8.64803 59.6094 8.17693 59.0934 8.1545 58.1288C8.1545 57.2763 8.1545 56.4014 8.1545 55.5265ZM13.4936 54.2927C12.5738 54.2927 11.7438 54.2927 10.8913 54.2927C10.8913 55.1901 10.8913 56.0425 10.8913 56.8725C11.7887 56.8725 12.6411 56.8725 13.4936 56.8725C13.4936 55.9976 13.4936 55.1676 13.4936 54.2927Z" fill="white"/>
<path d="M23.0059 51.5578C23.8808 51.5578 24.7333 51.5354 25.6082 51.5578C26.4606 51.5803 26.9541 52.0738 26.9766 52.9262C26.999 54.6984 26.999 56.4482 26.9766 58.2204C26.9766 59.1178 26.4606 59.5889 25.5409 59.6113C23.8135 59.6337 22.0637 59.6337 20.3364 59.6113C19.439 59.6113 18.9455 59.0953 18.9231 58.198C18.9006 56.4707 18.9006 54.7209 18.9231 52.9935C18.9231 52.0513 19.439 51.5803 20.4037 51.5578C21.2561 51.5578 22.131 51.5578 23.0059 51.5578ZM21.6599 54.2722C21.6599 55.2144 21.6599 56.0444 21.6599 56.8969C22.5572 56.8969 23.3873 56.8969 24.2397 56.8969C24.2397 55.9996 24.2397 55.1471 24.2397 54.2722C23.3648 54.2722 22.5348 54.2722 21.6599 54.2722Z" fill="white"/>
<path d="M55.2178 63.6467C56.0927 63.6467 56.9452 63.6243 57.8201 63.6467C58.6725 63.6691 59.1885 64.1627 59.1885 64.9927C59.2109 66.7873 59.2109 68.582 59.1885 70.3766C59.1885 71.1842 58.6725 71.6778 57.8649 71.7002C56.0703 71.7226 54.2756 71.7226 52.481 71.7002C51.6734 71.7002 51.1574 71.1842 51.1574 70.3766C51.135 68.582 51.135 66.7873 51.1574 64.9927C51.1574 64.1402 51.6734 63.6467 52.5259 63.6467C53.4232 63.6467 54.3205 63.6467 55.2178 63.6467ZM53.8719 68.9633C54.7916 68.9633 55.6441 68.9633 56.4965 68.9633C56.4965 68.066 56.4965 67.236 56.4965 66.3835C55.5992 66.3835 54.7692 66.3835 53.8719 66.3835C53.8719 67.2584 53.8719 68.0885 53.8719 68.9633Z" fill="white"/>
<path d="M69.9581 67.753C69.9581 68.583 69.9805 69.4355 69.9581 70.2655C69.9356 71.2077 69.4421 71.7012 68.4999 71.7012C66.795 71.7236 65.0901 71.7236 63.3851 71.7012C62.4205 71.7012 61.927 71.2077 61.927 70.2655C61.9045 68.5381 61.9045 66.7883 61.927 65.061C61.927 64.1637 62.4429 63.6701 63.3403 63.6701C65.0676 63.6477 66.8174 63.6477 68.5448 63.6701C69.4421 63.6701 69.9356 64.1637 69.9581 65.061C69.9805 65.9583 69.9581 66.8556 69.9581 67.753ZM67.2436 66.3846C66.3463 66.3846 65.5163 66.3846 64.6414 66.3846C64.6414 67.2819 64.6414 68.1343 64.6414 68.9644C65.5387 68.9644 66.3912 68.9644 67.2436 68.9644C67.2436 68.067 67.2436 67.237 67.2436 66.3846Z" fill="white"/>
<path d="M51.1584 55.549C51.1584 54.6741 51.136 53.8217 51.1584 52.9468C51.1808 52.0943 51.6744 51.6008 52.5268 51.5783C54.299 51.5559 56.0488 51.5559 57.821 51.5783C58.7184 51.5783 59.2119 52.0943 59.2119 53.0141C59.2343 54.7414 59.2343 56.4912 59.2119 58.2186C59.2119 59.1159 58.6959 59.6319 57.7986 59.6319C56.0712 59.6543 54.3215 59.6543 52.5941 59.6319C51.6519 59.6319 51.1808 59.1159 51.1584 58.1513C51.136 57.2764 51.1584 56.4015 51.1584 55.549ZM53.8952 54.2703C53.8952 55.2125 53.8952 56.065 53.8952 56.895C54.7926 56.895 55.6226 56.895 56.475 56.895C56.475 55.9977 56.475 55.1452 56.475 54.2703C55.6002 54.2703 54.7701 54.2703 53.8952 54.2703Z" fill="white"/>
<path d="M65.8528 59.6094C65.0228 59.6094 64.1703 59.6318 63.3403 59.6094C62.4205 59.587 61.927 59.1159 61.927 58.2185C61.9045 56.4463 61.9045 54.6965 61.927 52.9243C61.927 52.0719 62.4429 51.5783 63.2954 51.5783C65.0676 51.5559 66.8174 51.5559 68.5896 51.5783C69.4421 51.5783 69.9581 52.0943 69.9581 52.9243C69.9805 54.719 69.9805 56.5136 69.9581 58.3083C69.9581 59.1159 69.4421 59.6094 68.6345 59.6318C67.6923 59.6318 66.7725 59.6094 65.8528 59.6094ZM64.6414 54.2928C64.6414 55.1901 64.6414 56.0425 64.6414 56.8726C65.5387 56.8726 66.3912 56.8726 67.2436 56.8726C67.2436 55.9752 67.2436 55.1452 67.2436 54.2928C66.3688 54.2928 65.5387 54.2928 64.6414 54.2928Z" fill="white"/>
<path d="M40.3895 37.4906C40.3895 37.7149 40.4119 37.9393 40.3895 38.1636C40.3222 38.9488 39.7838 39.4647 39.0211 39.4423C38.3032 39.4198 37.7648 38.9263 37.7199 38.186C37.6975 37.7149 37.6975 37.2438 37.7199 36.7503C37.7648 35.9427 38.2808 35.4268 39.0435 35.4268C39.8062 35.4268 40.3446 35.9427 40.3895 36.7279C40.4119 36.9971 40.3895 37.2438 40.3895 37.4906Z" fill="white"/>
</svg>
