<svg width="56" height="57" viewBox="0 0 56 57" fill="none" xmlns="http://www.w3.org/2000/svg">
<circle cx="28" cy="28.9053" r="28" fill="#0063AA" fill-opacity="0.1"/>
<g clip-path="url(#clip0_347_597)">
<path d="M28.5205 27.7341C28.4465 27.7181 28.3706 27.7152 28.2956 27.7264C27.5444 27.639 26.9776 27.0033 26.9764 26.2473C26.9764 25.8849 26.6826 25.5912 26.3202 25.5912C25.9579 25.5912 25.6641 25.8849 25.6641 26.2473C25.6661 27.5098 26.5105 28.6158 27.7279 28.9499V29.606C27.7279 29.9684 28.0217 30.2621 28.3841 30.2621C28.7464 30.2621 29.0402 29.9684 29.0402 29.606V28.9896C30.4453 28.6955 31.4003 27.3868 31.2526 25.9589C31.1046 24.5311 29.9016 23.446 28.4661 23.4456C27.6434 23.4456 26.9764 22.7786 26.9764 21.9559C26.9764 21.1332 27.6434 20.4662 28.4661 20.4662C29.2888 20.4662 29.9558 21.1332 29.9558 21.9559C29.9558 22.3183 30.2496 22.612 30.6119 22.612C30.9742 22.612 31.268 22.3183 31.268 21.9559C31.2661 20.6302 30.3373 19.4868 29.0402 19.2132V18.6161C29.0402 18.2537 28.7464 17.96 28.3841 17.96C28.0217 17.96 27.7279 18.2537 27.7279 18.6161V19.2533C26.3741 19.623 25.5027 20.9375 25.6891 22.3285C25.8756 23.7196 27.0625 24.7579 28.4661 24.7576C29.2779 24.7576 29.9401 25.4076 29.9548 26.2191C29.9699 27.0306 29.3317 27.7046 28.5205 27.7341Z" fill="#0A62ED"/>
<path d="M18.9531 24.154C18.9531 29.4087 23.2128 33.6683 28.4674 33.6683C33.7221 33.6683 37.9818 29.4087 37.9818 24.154C37.9818 18.8993 33.7221 14.6396 28.4674 14.6396C23.2153 14.6454 18.9592 18.9018 18.9531 24.154ZM28.4674 15.9519C32.9975 15.9519 36.6695 19.624 36.6695 24.154C36.6695 28.684 32.9975 32.3561 28.4674 32.3561C23.9374 32.3561 20.2654 28.684 20.2654 24.154C20.2705 19.6262 23.9397 15.957 28.4674 15.9519Z" fill="#0A62ED"/>
<path d="M41.2165 35.285L36.0769 37.7134C35.3673 36.3935 34.006 35.5535 32.508 35.5112L27.7633 35.3808C27.012 35.3594 26.2749 35.1691 25.6069 34.824L25.1241 34.5738C22.6521 33.2853 19.7057 33.2885 17.2363 34.5821L17.2664 33.4884C17.2763 33.1261 16.9909 32.8243 16.6286 32.8144L11.4258 32.6711C11.0634 32.6612 10.762 32.9467 10.752 33.309L10.4378 44.7263C10.4278 45.0886 10.7133 45.3904 11.0756 45.4004L16.2784 45.5436H16.2963C16.6519 45.5436 16.9428 45.2607 16.9525 44.9054L16.9675 44.3592L18.3191 43.6354C18.8497 43.35 19.4699 43.2821 20.0495 43.4461L28.1208 45.7114C28.1349 45.7156 28.149 45.7188 28.1634 45.722C28.7468 45.8441 29.3414 45.9053 29.9373 45.9049C31.1996 45.9056 32.4471 45.6336 33.5943 45.1069C33.6225 45.0941 33.6498 45.079 33.6757 45.0621L45.3785 37.4924C45.67 37.3037 45.7642 36.9208 45.5934 36.6184C44.7246 35.0768 42.7976 34.4896 41.2165 35.285ZM11.7676 44.1067L12.0457 34.001L15.9366 34.108L15.6585 44.214L11.7676 44.1067ZM33.0033 43.935C31.5779 44.5783 29.986 44.7558 28.454 44.4428L20.4044 42.1832C19.4984 41.9272 18.5287 42.0333 17.6999 42.4789L17.0092 42.8489L17.194 36.1299C19.3828 34.6741 22.1898 34.5245 24.5208 35.739L25.0036 35.9892C25.8475 36.4249 26.7782 36.6652 27.7274 36.6927L32.4724 36.8231C33.8051 36.8616 34.937 37.8105 35.2074 39.1163L28.1397 38.9212C27.7774 38.9113 27.4759 39.1971 27.4657 39.5591C27.4557 39.9214 27.7415 40.2232 28.1035 40.2331L35.9032 40.4478H35.9215C36.2768 40.4475 36.5674 40.1646 36.577 39.8096C36.585 39.5245 36.5638 39.239 36.5135 38.9584L41.7852 36.4675C41.7903 36.4653 41.7955 36.4627 41.8006 36.4602C42.5483 36.0818 43.4524 36.2083 44.0675 36.7776L33.0033 43.935Z" fill="#0A62ED"/>
<path d="M29.1247 12.7945V6.56139C29.1247 6.19905 28.831 5.90527 28.4686 5.90527C28.1063 5.90527 27.8125 6.19905 27.8125 6.56139V12.7945C27.8125 13.1568 28.1063 13.4506 28.4686 13.4506C28.831 13.4506 29.1247 13.1568 29.1247 12.7945Z" fill="#0A62ED"/>
<path d="M34.0466 12.7952V9.84264C34.0466 9.4803 33.7528 9.18652 33.3905 9.18652C33.0282 9.18652 32.7344 9.4803 32.7344 9.84264V12.7952C32.7344 13.1575 33.0282 13.4513 33.3905 13.4513C33.7528 13.4513 34.0466 13.1575 34.0466 12.7952Z" fill="#0A62ED"/>
<path d="M24.2029 12.7952V9.84264C24.2029 9.4803 23.9091 9.18652 23.5467 9.18652C23.1844 9.18652 22.8906 9.4803 22.8906 9.84264V12.7952C22.8906 13.1575 23.1844 13.4513 23.5467 13.4513C23.9091 13.4513 24.2029 13.1575 24.2029 12.7952Z" fill="#0A62ED"/>
</g>
<defs>
<clipPath id="clip0_347_597">
<rect width="40" height="40" fill="white" transform="translate(8 5.90527)"/>
</clipPath>
</defs>
</svg>
