<svg width="56" height="57" viewBox="0 0 56 57" fill="none" xmlns="http://www.w3.org/2000/svg">
<circle cx="28" cy="28.9053" r="28" fill="#0063AA" fill-opacity="0.1"/>
<g clip-path="url(#clip0_347_647)">
<path d="M15.2504 14.6015C16.0993 14.6015 16.79 13.9109 16.79 13.062C16.79 12.2131 16.0994 11.5225 15.2504 11.5225C14.4015 11.5225 13.7109 12.2131 13.7109 13.062C13.7109 13.9109 14.4015 14.6015 15.2504 14.6015ZM15.2504 12.548C15.5339 12.548 15.7645 12.7785 15.7645 13.062C15.7645 13.3455 15.5339 13.5761 15.2504 13.5761C14.9669 13.5761 14.7364 13.3455 14.7364 13.062C14.7364 12.7785 14.9669 12.548 15.2504 12.548Z" fill="#0A62ED"/>
<path d="M18.5161 14.6015C19.3649 14.6015 20.0556 13.9109 20.0556 13.062C20.0556 12.2131 19.365 11.5225 18.5161 11.5225C17.6672 11.5225 16.9766 12.2131 16.9766 13.062C16.9766 13.9109 17.6672 14.6015 18.5161 14.6015ZM18.5161 12.548C18.7995 12.548 19.0302 12.7785 19.0302 13.062C19.0302 13.3455 18.7996 13.5761 18.5161 13.5761C18.2326 13.5761 18.002 13.3455 18.002 13.062C18.002 12.7785 18.2326 12.548 18.5161 12.548Z" fill="#0A62ED"/>
<path d="M16.9673 23.1406C17.4229 22.8877 17.7059 22.4017 17.7059 21.8723V18.1836C17.7059 17.9005 17.4764 17.6709 17.1932 17.6709C16.9101 17.6709 16.6805 17.9005 16.6805 18.1836V21.8723C16.6805 22.0294 16.5997 22.1718 16.4696 22.244C16.2233 22.3809 15.946 22.1236 15.9276 22.1061C15.7278 21.9086 15.4057 21.9089 15.206 22.1072C15.0052 22.3069 15.0041 22.6314 15.2037 22.8324C15.4177 23.0478 15.832 23.3138 16.3153 23.3138C16.5233 23.3138 16.7442 23.2645 16.9673 23.1406Z" fill="#0A62ED"/>
<path d="M25.1963 23.3115H25.1986C25.1986 23.3115 26.4313 23.306 26.771 23.306C27.7387 23.306 28.526 22.5187 28.526 21.551C28.526 20.9787 28.2506 20.4697 27.8254 20.1491C28.0054 19.8931 28.1115 19.5816 28.1115 19.2455C28.1115 18.3773 27.4051 17.6709 26.5369 17.6709H25.1963C24.9132 17.6709 24.6836 17.9005 24.6836 18.1836V22.7988C24.6836 22.9352 24.7379 23.0659 24.8345 23.1621C24.9307 23.2578 25.0607 23.3115 25.1963 23.3115ZM26.771 22.2806C26.5766 22.2806 26.0905 22.2824 25.709 22.2839V20.8227C25.8212 20.8222 25.9404 20.8218 26.0544 20.8214H26.7711C27.1733 20.8214 27.5006 21.1487 27.5006 21.551C27.5006 21.9533 27.1733 22.2806 26.771 22.2806ZM26.5369 18.6963C26.8397 18.6963 27.0861 18.9427 27.0861 19.2455C27.0861 19.5484 26.8397 19.7948 26.5369 19.7948C26.4391 19.7948 26.2556 19.7954 26.0551 19.7961H25.709V18.6963H26.5369Z" fill="#0A62ED"/>
<path d="M18.375 20.4912C18.375 22.0463 19.6402 23.3115 21.1953 23.3115C22.7504 23.3115 24.0156 22.0463 24.0156 20.4912C24.0156 18.936 22.7504 17.6709 21.1953 17.6709C19.6402 17.6709 18.375 18.9361 18.375 20.4912ZM21.1953 18.6963C22.185 18.6963 22.9902 19.5015 22.9902 20.4912C22.9902 21.4809 22.185 22.2861 21.1953 22.2861C20.2056 22.2861 19.4004 21.4809 19.4004 20.4912C19.4004 19.5015 20.2056 18.6963 21.1953 18.6963Z" fill="#0A62ED"/>
<path d="M45.3209 39.0765L43.4417 37.1974L43.5985 37.0405C44.2839 36.3551 44.2839 35.2399 43.5985 34.5544C43.2445 34.2004 42.7759 34.0298 42.3111 34.0414C42.6092 32.9647 42.667 31.8336 42.4742 30.7145C42.2066 29.1614 41.4741 27.7493 40.3558 26.6309C40.2171 26.4922 40.0739 26.3597 39.9267 26.2331V13.4163C39.9267 11.4049 38.2902 9.76855 36.2789 9.76855H14.6478C12.6364 9.76855 11 11.4049 11 13.4163V33.2207C11 35.2322 12.6364 36.8685 14.6478 36.8685H29.1114C29.2624 37.0502 29.4223 37.2261 29.5914 37.3953C30.7097 38.5136 32.1217 39.2462 33.6749 39.5138C34.1099 39.5888 34.5467 39.626 34.9815 39.626C35.6651 39.626 36.3436 39.5337 37.0017 39.3516C36.9903 39.8162 37.1609 40.2845 37.5147 40.6383C37.8467 40.9703 38.2882 41.1532 38.7578 41.1532C39.2273 41.1532 39.6688 40.9703 40.0008 40.6383L40.1574 40.4817L42.0366 42.3609C42.4894 42.8137 43.084 43.0401 43.6788 43.0401C44.2735 43.0401 44.8682 42.8137 45.321 42.3609C46.2263 41.4555 46.2263 39.9821 45.3209 39.0765ZM14.6478 35.8431C13.2018 35.8431 12.0254 34.6667 12.0254 33.2207V13.4163C12.0254 11.9704 13.2018 10.794 14.6478 10.794H36.2788C37.7248 10.794 38.9012 11.9704 38.9012 13.4163V25.4901C38.53 25.2657 38.1415 25.0744 37.739 24.9177V16.6522C37.739 15.8889 37.1177 15.2679 36.354 15.2679H20.5248C20.2417 15.2679 20.0121 15.4975 20.0121 15.7806C20.0121 16.0638 20.2417 16.2933 20.5248 16.2933H36.354C36.5523 16.2933 36.7136 16.4543 36.7136 16.6522V24.6009C36.1498 24.4698 35.567 24.4019 34.9737 24.4019C32.9405 24.4019 31.029 25.1937 29.5914 26.6314C28.1537 28.069 27.3621 29.9805 27.3621 32.0135C27.3621 32.5724 27.4223 33.122 27.539 33.6552H14.5726C14.3743 33.6552 14.213 33.4939 14.213 33.2956V16.6522C14.213 16.4543 14.3743 16.2933 14.5726 16.2933H18.474C18.7571 16.2933 18.9867 16.0638 18.9867 15.7806C18.9867 15.4975 18.7571 15.2679 18.474 15.2679H14.5726C13.8089 15.2679 13.1876 15.8889 13.1876 16.6522V33.2956C13.1876 34.0593 13.8088 34.6806 14.5726 34.6806H27.8411C27.9912 35.0826 28.1756 35.4713 28.3928 35.8431H14.6478ZM30.3164 36.6702C29.0726 35.4264 28.3875 33.7726 28.3875 32.0135C28.3875 30.2544 29.0725 28.6004 30.3164 27.3565C31.5604 26.1126 33.2144 25.4274 34.9737 25.4274C36.733 25.4273 38.3868 26.1123 39.6307 27.3561C41.5428 29.2682 42.0883 32.194 41.0032 34.6637L37.6237 38.0432C35.1541 39.128 32.2285 38.5823 30.3164 36.6702ZM38.7578 40.1277C38.5621 40.1277 38.3781 40.0515 38.2398 39.9132C37.9542 39.6275 37.9542 39.1628 38.2398 38.8773L41.8375 35.2795C42.1231 34.9938 42.5878 34.9939 42.8733 35.2795C43.159 35.5651 43.159 36.0299 42.8733 36.3155L39.2757 39.9132C39.1374 40.0515 38.9534 40.1277 38.7578 40.1277ZM44.5958 41.6359C44.0901 42.1416 43.2672 42.1416 42.7616 41.6359L40.8824 39.7567L42.7166 37.9225L44.5958 39.8017C45.1015 40.3073 45.1015 41.1301 44.5958 41.6359Z" fill="#0A62ED"/>
<path d="M39.505 34.4206C39.6381 34.1706 39.5433 33.8601 39.2933 33.7271C39.0433 33.5941 38.7328 33.6889 38.5998 33.9389C38.409 34.2974 38.1656 34.6258 37.8764 34.9151C37.101 35.6905 36.0701 36.1174 34.9737 36.1174C33.8772 36.1174 32.8466 35.6905 32.0715 34.9151C31.2962 34.1397 30.8692 33.1088 30.8692 32.0123C30.8692 30.9158 31.2962 29.8849 32.0716 29.1095C32.8466 28.3342 33.8772 27.9072 34.9737 27.9072C36.0701 27.9072 37.101 28.3342 37.8764 29.1095C38.687 29.9202 39.1238 31.0419 39.0748 32.1869C39.0627 32.4698 39.2822 32.709 39.5651 32.7211C39.8482 32.7344 40.0871 32.5137 40.0992 32.2308C40.1605 30.7995 39.6146 29.3976 38.6014 28.3845C37.6324 27.4155 36.3441 26.8818 34.9737 26.8818C33.6033 26.8818 32.3151 27.4155 31.3465 28.3845C30.3775 29.3535 29.8438 30.6419 29.8438 32.0123C29.8438 33.3828 30.3775 34.6712 31.3464 35.6401C32.3151 36.6092 33.6033 37.1428 34.9737 37.1428C36.3441 37.1428 37.6324 36.6092 38.6014 35.6401C38.9626 35.2791 39.2665 34.8687 39.505 34.4206Z" fill="#0A62ED"/>
<path d="M22.9107 25.7256H16.0908C15.8077 25.7256 15.5781 25.9551 15.5781 26.2383C15.5781 26.5215 15.8077 26.751 16.0908 26.751H22.9107C23.1939 26.751 23.4235 26.5215 23.4235 26.2383C23.4235 25.9551 23.1939 25.7256 22.9107 25.7256Z" fill="#0A62ED"/>
<path d="M22.9107 27.9092H16.0908C15.8077 27.9092 15.5781 28.1387 15.5781 28.4219C15.5781 28.7051 15.8077 28.9346 16.0908 28.9346H22.9107C23.1939 28.9346 23.4235 28.7051 23.4235 28.4219C23.4235 28.1387 23.1939 27.9092 22.9107 27.9092Z" fill="#0A62ED"/>
<path d="M22.9107 30.0889H16.0908C15.8077 30.0889 15.5781 30.3184 15.5781 30.6016C15.5781 30.8847 15.8077 31.1143 16.0908 31.1143H22.9107C23.1939 31.1143 23.4235 30.8847 23.4235 30.6016C23.4235 30.3184 23.1939 30.0889 22.9107 30.0889Z" fill="#0A62ED"/>
</g>
<defs>
<clipPath id="clip0_347_647">
<rect width="35" height="35" fill="white" transform="translate(11 8.90527)"/>
</clipPath>
</defs>
</svg>
