<svg width="73" height="73" viewBox="0 0 73 73" fill="none" xmlns="http://www.w3.org/2000/svg">
<g clip-path="url(#clip0_347_774)">
<path d="M70.4067 58.8599H69.25V21.632C69.25 17.8265 66.154 14.7305 62.3484 14.7305H58.6017C58.0182 14.7305 57.5454 15.2032 57.5454 15.7867C57.5454 16.3702 58.0182 16.843 58.6017 16.843H62.3484C64.9891 16.843 67.1375 18.9914 67.1375 21.632V58.86H43.5266C42.8056 58.86 42.1332 59.2158 41.728 59.8115L41.4112 60.2769C41.117 60.7094 40.6289 60.9676 40.1057 60.9676H31.8625C31.3395 60.9676 30.8515 60.7094 30.5572 60.2769L30.2406 59.8116C29.8352 59.2159 29.1629 58.86 28.442 58.86H17.1881C16.6046 58.86 16.1318 59.3328 16.1318 59.9163C16.1318 60.4997 16.6046 60.9725 17.1881 60.9725H28.442C28.4628 60.9725 28.4823 60.9826 28.4941 61L28.8108 61.4654C29.4989 62.4765 30.6397 63.0801 31.8625 63.0801H40.1057C41.3289 63.0801 42.4697 62.4765 43.1577 61.4653L43.4744 60.9998C43.4861 60.9826 43.5056 60.9725 43.5264 60.9725H69.9421V62.1154C69.9421 64.9264 67.6551 67.2134 64.8441 67.2134H7.26517C4.45415 67.2134 2.16717 64.9264 2.16717 62.1154V60.9725H12.6866C13.2701 60.9725 13.7429 60.4997 13.7429 59.9163C13.7429 59.3328 13.2701 58.86 12.6866 58.86H4.97185V21.632C4.97185 18.9914 7.12025 16.843 9.761 16.843H12.8758C13.4593 16.843 13.932 16.3702 13.932 15.7867C13.932 15.2032 13.4593 14.7305 12.8758 14.7305H9.761C5.95556 14.7305 2.85936 17.8264 2.85936 21.632V58.86H1.70271C0.794057 58.8599 0.0546875 59.5993 0.0546875 60.508V62.1154C0.0546875 66.0912 3.28933 69.3258 7.26517 69.3258H64.8442C68.82 69.3258 72.0547 66.0912 72.0547 62.1154V60.508C72.0547 59.5993 71.3153 58.8599 70.4067 58.8599Z" fill="white"/>
<path d="M9.76204 21.3488H16.565C17.1484 21.3488 17.6212 20.876 17.6212 20.2926C17.6212 19.7091 17.1484 19.2363 16.565 19.2363H9.76204C8.44146 19.2363 7.36719 20.3107 7.36719 21.6313V55.409C7.36719 55.9925 7.83996 56.4652 8.42343 56.4652H63.6883C64.2718 56.4652 64.7446 55.9925 64.7446 55.409V46.4705C64.7446 45.887 64.2718 45.4143 63.6883 45.4143C63.1049 45.4143 62.6321 45.887 62.6321 46.4705V54.3527H9.47967V21.6313C9.47967 21.4754 9.60628 21.3488 9.76204 21.3488Z" fill="white"/>
<path d="M64.7434 21.6313C64.7434 20.3107 63.669 19.2363 62.3484 19.2363H58.9273C58.3439 19.2363 57.8711 19.7091 57.8711 20.2926C57.8711 20.876 58.3439 21.3488 58.9273 21.3488H62.3484C62.5042 21.3488 62.6309 21.4754 62.6309 21.6313V41.9691C62.6309 42.5525 63.1037 43.0253 63.6872 43.0253C64.2707 43.0253 64.7434 42.5525 64.7434 41.9691V21.6313Z" fill="white"/>
<path d="M17.7136 17.6947L20.2059 19.0329V28.8699C20.2059 32.4706 23.1354 35.3999 26.736 35.3999H45.3683C48.9689 35.3999 51.8984 32.4706 51.8984 28.8699V18.9574L53.4291 18.1355V36.941C51.8246 37.4011 50.6465 38.8804 50.6465 40.6308C50.6465 42.7475 52.3686 44.4696 54.4854 44.4696C56.6021 44.4696 58.3242 42.7475 58.3242 40.6308C58.3242 38.8804 57.1461 37.401 55.5416 36.941V15.5352C55.5416 15.5352 55.5416 15.5351 55.5416 15.5349C55.5416 14.6306 55.0466 13.8034 54.2499 13.3755L37.1416 4.18919C36.4156 3.79894 35.5483 3.79894 34.8222 4.18905L17.7136 13.3755C16.9168 13.8034 16.4217 14.6309 16.4219 15.5353C16.4219 16.4396 16.9169 17.2672 17.7136 17.6947ZM56.2118 40.6308C56.2118 41.5827 55.4374 42.3572 54.4855 42.3572C53.5336 42.3572 52.7592 41.5827 52.7592 40.6308C52.7592 39.679 53.5336 38.9045 54.4855 38.9045C55.4374 38.9045 56.2118 39.6791 56.2118 40.6308ZM18.7129 15.2366L35.8218 6.05015C35.9221 5.99649 36.0415 5.99635 36.1419 6.05029L53.2505 15.2366C53.406 15.3202 53.4291 15.4596 53.4291 15.5352C53.4291 15.6108 53.406 15.7501 53.2505 15.8336L36.1418 25.0201C36.0417 25.0741 35.9218 25.0741 35.8215 25.0201L30.9742 22.4174C30.4603 22.1412 29.8201 22.3343 29.5441 22.8484C29.268 23.3624 29.461 24.0026 29.975 24.2785L34.8222 26.8812C35.1853 27.0763 35.5835 27.1737 35.9818 27.1737C36.3801 27.1737 36.7783 27.0763 37.1413 26.8812L49.7859 20.0917V28.8699C49.7859 31.3058 47.8043 33.2874 45.3683 33.2874H26.7362C24.3002 33.2874 22.3185 31.3058 22.3185 28.8699V20.1672L25.883 22.0811C26.397 22.3574 27.0375 22.1642 27.3131 21.6502C27.5892 21.1363 27.3962 20.4959 26.8822 20.22L18.7129 15.8335C18.5575 15.7501 18.5344 15.6108 18.5344 15.5352C18.5344 15.4596 18.5575 15.3202 18.7129 15.2366Z" fill="white"/>
</g>
<defs>
<clipPath id="clip0_347_774">
<rect width="72" height="72" fill="white" transform="translate(0.0546875 0.608398)"/>
</clipPath>
</defs>
</svg>
