<svg width="56" height="57" viewBox="0 0 56 57" fill="none" xmlns="http://www.w3.org/2000/svg">
<circle cx="28" cy="28.9053" r="28" fill="#0063AA" fill-opacity="0.1"/>
<path d="M8.78125 43.3171H15.5C15.9314 43.3171 16.2812 42.9673 16.2812 42.5358V41.7723C18.8068 41.8878 20.4797 42.5567 22.2411 43.2612C24.2302 44.0569 26.287 44.8796 29.5625 44.8796C31.0013 44.8796 33.1368 44.3957 35.9098 43.4415C36.3178 43.3011 36.5347 42.8566 36.3943 42.4486C36.2538 42.0406 35.8091 41.8236 35.4013 41.9641C32.7923 42.8618 30.8279 43.3171 29.5625 43.3171C26.588 43.3171 24.7584 42.5853 22.8214 41.8104C20.9954 41.08 19.1116 40.3273 16.2812 40.2087V32.2711C16.782 32.1415 17.2866 31.9119 17.8102 31.6729C19.3502 30.9701 21.0956 30.1733 23.488 31.519L27.2595 33.6408C27.6094 33.8379 28.007 33.9421 28.4094 33.9421H33.4688C34.3303 33.9421 35.0312 34.643 35.0312 35.5046C35.0312 36.1444 34.6309 36.7296 34.0323 36.9615C33.8534 37.0315 33.6638 37.0671 33.4688 37.0671H25.5266C25.0952 37.0671 24.7453 37.4168 24.7453 37.8483C24.7453 38.2798 25.0952 38.6296 25.5266 38.6296H33.4688C33.8487 38.6296 34.2195 38.5612 34.5692 38.4285C34.5755 38.4264 34.5818 38.4249 34.588 38.4226C34.588 38.4226 44.3055 34.8304 44.3095 34.8288C44.4898 34.7588 44.68 34.7233 44.875 34.7233C45.7366 34.7233 46.4375 35.4242 46.4375 36.2858C46.4375 36.8868 46.0863 37.4417 45.5446 37.6984C45.4109 37.7629 45.277 37.8278 45.0185 37.9509L44.7925 37.4989C44.5995 37.1129 44.1299 36.9565 43.7444 37.1495C43.3584 37.3425 43.202 37.8118 43.3949 38.1977L43.6024 38.6128C43.091 38.8475 42.5097 39.1099 41.8741 39.3896C41.4791 39.5634 41.2998 40.0244 41.4737 40.4193C41.6478 40.8149 42.1091 40.9932 42.5035 40.8197C44.0404 40.1433 45.0574 39.6636 46.2119 39.1114C47.2981 38.5966 48 37.4875 48 36.2858C48 34.5627 46.5981 33.1608 44.875 33.1608C44.488 33.1608 44.1095 33.2311 43.7501 33.37L36.5475 36.0324C36.5776 35.8597 36.5938 35.6833 36.5938 35.5046C36.5938 33.7815 35.1919 32.3796 33.4688 32.3796H28.4094C28.2752 32.3796 28.1427 32.345 28.026 32.2792L24.2541 30.1572C21.1695 28.4222 18.8529 29.4796 17.1615 30.2515C16.4965 30.555 15.9223 30.8171 15.5 30.8171H8.78125C8.34984 30.8171 8 31.1669 8 31.5983V42.5358C8 42.9673 8.34984 43.3171 8.78125 43.3171ZM9.5625 32.3796H14.7188V41.7546H9.5625V32.3796Z" fill="#0A62ED"/>
<path d="M33.828 29.1275C33.9584 29.2132 34.1078 29.2561 34.2575 29.2561C34.407 29.2561 34.5566 29.2132 34.6868 29.1275C46.1468 21.5875 46.5243 16.0086 45.7293 13.3541C44.8593 10.4488 42.05 8.92871 39.7246 8.92871C36.9778 8.92871 35.1625 10.4985 34.2575 11.5448C33.3527 10.4985 31.5375 8.92871 28.7911 8.92871C26.4683 8.92871 23.6608 10.4514 22.7893 13.3617C21.9947 16.0143 22.3725 21.59 33.828 29.1275ZM24.286 13.81C24.9315 11.6544 27.0889 10.4913 28.791 10.4913C31.9069 10.4913 33.5134 13.1274 33.5842 13.2462C33.7246 13.4847 33.9807 13.6311 34.2575 13.6311C34.535 13.6311 34.7917 13.4839 34.9318 13.2443C34.9479 13.2168 36.5786 10.4913 39.7246 10.4913C41.4293 10.4913 43.5885 11.6518 44.2325 13.8024C44.765 15.5807 44.8365 20.4475 34.2575 27.5371C23.6827 20.45 23.7539 15.5868 24.286 13.81Z" fill="#0A62ED"/>
<path d="M31.125 19.8818H33.4688V22.2256C33.4688 22.6571 33.8186 23.0068 34.25 23.0068C34.6814 23.0068 35.0312 22.6571 35.0312 22.2256V19.8818H37.375C37.8064 19.8818 38.1562 19.5321 38.1562 19.1006C38.1562 18.6691 37.8064 18.3193 37.375 18.3193H35.0312V15.9756C35.0312 15.5441 34.6814 15.1943 34.25 15.1943C33.8186 15.1943 33.4688 15.5441 33.4688 15.9756V18.3193H31.125C30.6936 18.3193 30.3438 18.6691 30.3438 19.1006C30.3438 19.5321 30.6936 19.8818 31.125 19.8818Z" fill="#0A62ED"/>
<path d="M38.9375 42.2256C39.369 42.2256 39.7188 41.8758 39.7188 41.4443C39.7188 41.0129 39.369 40.6631 38.9375 40.6631C38.506 40.6631 38.1562 41.0129 38.1562 41.4443C38.1562 41.8758 38.506 42.2256 38.9375 42.2256Z" fill="#0A62ED"/>
</svg>
