<svg width="81" height="81" viewBox="0 0 81 81" fill="none" xmlns="http://www.w3.org/2000/svg">
<g clip-path="url(#clip0_347_751)">
<path d="M0.497434 79.0225C0.831376 78.3964 1.35316 78.2086 2.04192 78.2086C3.69076 78.2503 5.36047 78.2294 7.11366 78.2294C7.11366 77.812 7.11366 77.4781 7.11366 77.1441C7.11366 63.1394 7.11366 49.1347 7.11366 35.13C7.11366 34.9004 7.11366 34.6709 7.11366 34.4204C7.15541 33.3977 7.53109 33.022 8.55379 33.0011C9.17993 32.9803 9.80607 32.9803 10.4322 32.9803C10.474 32.9803 10.5157 32.9385 10.6618 32.8759C10.6618 31.4358 10.6618 29.9539 10.6618 28.4721C10.6618 27.1154 10.9957 26.7815 12.3733 26.7815C13.8134 26.7815 15.2326 26.7815 16.6728 26.7815C17.7163 26.7815 18.1755 27.1572 18.1964 27.9294C18.1964 28.7225 17.6955 29.1191 16.631 29.1191C15.4622 29.1191 14.2934 29.1191 13.062 29.1191C13.062 30.4131 13.062 31.6445 13.062 32.9385C18.2172 32.9385 23.3516 32.9385 28.5486 32.9385C28.5486 31.6862 28.5486 30.4548 28.5486 29.1191C27.0667 29.1191 25.6057 29.1191 24.1656 29.1191C23.8316 29.1191 23.4768 29.1399 23.1429 29.0982C22.3915 29.0147 21.9741 28.5764 22.0158 27.8668C22.0576 27.1363 22.4959 26.7815 23.1846 26.7815C24.7291 26.7606 26.2527 26.7815 27.7972 26.7606C28.0268 26.7606 28.2564 26.7397 28.5903 26.7189C28.5903 26.4058 28.5903 26.1345 28.5903 25.8631C28.5903 23.6925 28.5903 21.5428 28.5903 19.3721C28.5903 18.3494 28.9869 17.9111 29.9887 17.9111C37.0015 17.9111 43.9934 17.9111 51.0062 17.9111C51.9871 17.9111 52.3837 18.3494 52.3837 19.3721C52.3837 24.2352 52.3837 29.0982 52.3837 33.9821C52.3837 34.2952 52.3837 34.5874 52.3837 34.9839C52.7803 34.9839 53.0933 34.9839 53.3855 34.9839C58.3738 34.9839 63.3829 34.9839 68.3712 34.9839C69.7904 34.9839 70.1244 35.3179 70.1244 36.7162C70.1244 38.1772 70.1244 39.6174 70.1244 41.2036C70.8131 41.2036 71.4393 41.2036 72.0863 41.2036C73.5055 41.2036 73.8395 41.5375 73.8395 42.9568C73.8395 54.3317 73.8395 65.7066 73.8395 77.0815C73.8395 77.4154 73.8395 77.7494 73.8395 78.1877C75.2796 78.1877 76.6571 78.1877 78.0138 78.1877C78.4103 78.1877 78.786 78.1877 79.1826 78.1877C79.767 78.1877 80.2053 78.4173 80.3931 78.9808C80.5809 79.5443 80.3722 80.0035 79.9131 80.3374C79.8296 80.4001 79.767 80.4627 79.6835 80.5253C53.2812 80.5253 26.8789 80.5253 0.476562 80.5253C0.497434 80.0661 0.497434 79.5443 0.497434 79.0225ZM71.4601 78.2086C71.4601 66.6667 71.4601 55.1665 71.4601 43.6455C65.0944 43.6455 58.7912 43.6455 52.3837 43.6455C52.3837 44.0004 52.3837 44.2926 52.3837 44.6056C52.3837 49.8443 52.3837 55.0622 52.3837 60.3009C52.3837 60.5514 52.4046 60.8227 52.3628 61.0732C52.2793 61.7202 51.8828 62.0541 51.2775 62.0959C50.6931 62.1167 50.2548 61.8454 50.1296 61.261C50.0461 60.9479 50.0461 60.5931 50.0461 60.2592C50.0461 47.298 50.0461 34.3369 50.0461 21.3549C50.0461 21.021 50.0461 20.687 50.0461 20.3531C43.6386 20.3531 37.3354 20.3531 31.0114 20.3531C31.0114 29.0565 31.0114 37.6972 31.0114 46.4006C32.7855 46.4006 34.4969 46.4006 36.2292 46.4006C37.7111 46.4006 38.0033 46.7136 38.0033 48.1746C38.0033 57.8798 38.0033 67.6059 38.0033 77.3111C38.0033 77.6033 38.0033 77.9164 38.0033 78.2086C42.0732 78.2086 46.0179 78.2086 50.0461 78.2086C50.0461 77.8955 50.0461 77.6242 50.0461 77.332C50.0461 74.0343 50.0461 70.7157 50.0461 67.4181C50.0461 67.0841 50.0252 66.7293 50.1087 66.4162C50.2757 65.7901 50.714 65.5396 51.3401 65.5814C51.9454 65.644 52.2793 65.9988 52.3628 66.5832C52.4046 66.8337 52.3837 67.105 52.3837 67.3554C52.3837 70.6949 52.3837 74.0134 52.3837 77.3528C52.3837 77.6242 52.3837 77.8955 52.3837 78.2086C58.7912 78.2086 65.0735 78.2086 71.4601 78.2086ZM28.5694 35.4222C22.1828 35.4222 15.8588 35.4222 9.51387 35.4222C9.51387 49.7191 9.51387 63.9325 9.51387 78.1877C13.5003 78.1877 17.445 78.1877 21.4314 78.1877C21.4314 75.537 21.4314 72.9281 21.4314 70.34C21.4314 62.8681 21.4314 55.3961 21.4314 47.9242C21.4314 46.7554 21.8071 46.3797 22.9759 46.3797C23.8943 46.3797 24.7917 46.3797 25.7101 46.3797C26.6702 46.3797 27.6094 46.3797 28.5903 46.3797C28.5694 42.6855 28.5694 39.0956 28.5694 35.4222ZM35.6031 78.1877C35.6031 68.3364 35.6031 58.5477 35.6031 48.7799C31.6375 48.7799 27.7346 48.7799 23.8108 48.7799C23.8108 58.6103 23.8108 68.3781 23.8108 78.1877C27.7346 78.1877 31.6375 78.1877 35.6031 78.1877ZM67.7659 37.4467C62.6315 37.4467 57.5181 37.4467 52.4254 37.4467C52.4254 38.7408 52.4254 39.9513 52.4254 41.1827C57.5598 41.1827 62.6733 41.1827 67.7659 41.1827C67.7659 39.8887 67.7659 38.6782 67.7659 37.4467Z" fill="white"/>
<path d="M40.6329 0.608398C44.348 0.691884 47.6874 1.98591 50.4633 4.65745C51.2147 5.38794 51.1103 6.28541 50.2755 6.70284C49.6285 7.01591 49.1902 6.68197 48.7519 6.26454C47.0822 4.67832 45.1411 3.65562 42.887 3.21732C38.9215 2.46595 35.4151 3.44691 32.3887 6.09757C32.2217 6.24367 32.0965 6.38977 31.9295 6.515C31.366 6.9533 30.8025 6.91156 30.3224 6.43151C29.8633 5.95147 29.8007 5.26272 30.3433 4.84529C31.6582 3.84346 32.9731 2.79989 34.4132 2.00678C36.2917 0.963212 38.3997 0.62927 40.6329 0.608398Z" fill="white"/>
<path d="M40.4893 5.5127C43.0565 5.55444 45.3106 6.43104 47.2099 8.2051C47.6899 8.66427 47.7943 9.16519 47.4812 9.74959C47.2099 10.2505 46.7507 10.4175 46.2289 10.2714C45.9993 10.2088 45.7697 10.0418 45.5819 9.87481C42.3468 7.16153 38.6735 7.16153 35.4593 9.87481C34.7914 10.4383 34.1653 10.4592 33.6643 9.93743C33.1426 9.3739 33.2052 8.74776 33.9148 8.12162C35.7515 6.38929 37.9638 5.55444 40.4893 5.5127Z" fill="white"/>
<path d="M40.4646 10.126C41.8421 10.1677 43.0735 10.5851 44.0544 11.5661C44.618 12.1088 44.6388 12.6932 44.1797 13.2149C43.7205 13.7159 43.0943 13.7576 42.5099 13.2984C41.0281 12.1505 39.9845 12.1714 38.44 13.3193C37.8556 13.7576 37.2086 13.695 36.7703 13.1941C36.332 12.6723 36.3529 12.1296 36.8747 11.587C37.8765 10.606 39.087 10.1677 40.4646 10.126Z" fill="white"/>
<path d="M45.3272 49.2599C45.3272 56.7736 45.3272 64.3082 45.3272 71.8219C45.3272 72.0515 45.3481 72.302 45.3272 72.5315C45.2646 73.1994 44.7637 73.6795 44.1375 73.6377C43.4697 73.596 43.094 73.2203 42.9896 72.5733C42.9688 72.3646 42.9688 72.1559 42.9688 71.9471C42.9688 56.8363 42.9688 41.7045 42.9688 26.5936C42.9688 26.4058 42.9688 26.2179 42.9688 26.051C43.0314 25.3622 43.4697 24.9239 44.1167 24.903C44.7637 24.8822 45.2229 25.3413 45.3063 26.0092C45.3272 26.2388 45.3063 26.4684 45.3063 26.7188C45.3272 34.2117 45.3272 41.7462 45.3272 49.2599Z" fill="white"/>
<path d="M35.6445 33.4808C35.6445 31.1224 35.6445 28.743 35.6445 26.3846C35.6445 25.4036 36.062 24.8818 36.8342 24.8818C37.5856 24.8818 37.9821 25.4036 38.003 26.4054C38.003 31.1641 38.003 35.9228 38.003 40.6815C38.003 41.6624 37.5856 42.1842 36.8133 42.1842C36.062 42.1842 35.6654 41.6624 35.6654 40.6606C35.6445 38.2604 35.6445 35.8811 35.6445 33.4808Z" fill="white"/>
<path d="M61.672 65.4346C62.966 65.4346 64.2809 65.4346 65.5749 65.4346C66.4932 65.4346 66.9942 65.8729 66.9733 66.6451C66.9524 67.3756 66.4724 67.7722 65.5958 67.7722C62.9451 67.7722 60.2944 67.7722 57.6438 67.7722C56.7254 67.7722 56.2454 67.3339 56.2663 66.5616C56.2871 65.8311 56.7463 65.4346 57.6438 65.4346C58.9587 65.4346 60.3153 65.4346 61.672 65.4346Z" fill="white"/>
<path d="M61.5859 53.7051C62.9217 53.7051 64.2366 53.7051 65.5723 53.7051C66.4698 53.7051 66.929 54.1016 66.9499 54.8321C66.9707 55.5835 66.4698 56.0427 65.5723 56.0427C62.9217 56.0427 60.271 56.0427 57.6204 56.0427C56.702 56.0427 56.222 55.5835 56.2428 54.8321C56.2637 54.1016 56.7229 53.7051 57.6204 53.7051C58.9353 53.7051 60.2501 53.7051 61.5859 53.7051Z" fill="white"/>
<path d="M61.5435 50.1775C60.2286 50.1775 58.8929 50.1984 57.578 50.1775C56.6805 50.1566 56.2422 49.76 56.2422 49.0087C56.2422 48.2782 56.7014 47.8399 57.5988 47.8399C60.2704 47.819 62.9419 47.819 65.6343 47.8399C66.5109 47.8399 66.9701 48.2782 66.9701 49.0087C66.9701 49.7392 66.5109 50.1566 65.6134 50.1566C64.2359 50.1983 62.9002 50.1775 61.5435 50.1775Z" fill="white"/>
<path d="M61.6114 61.9079C60.2965 61.9079 58.9607 61.9288 57.6458 61.9079C56.6857 61.8871 56.2266 61.4905 56.2266 60.7391C56.2266 59.9878 56.6857 59.5912 57.6667 59.5703C60.2965 59.5495 62.9054 59.5495 65.5352 59.5703C66.4744 59.5703 66.9545 59.9878 66.9545 60.7391C66.9545 61.4905 66.4744 61.8871 65.5144 61.8871C64.2203 61.9288 62.9263 61.9079 61.6114 61.9079Z" fill="white"/>
<path d="M61.6068 73.6579C60.2502 73.6579 58.9144 73.6788 57.5578 73.6579C56.6812 73.6371 56.222 73.1987 56.2429 72.4682C56.2637 71.7586 56.6812 71.3621 57.5369 71.3203C57.7247 71.3203 57.8917 71.3203 58.0795 71.3203C59.6866 71.3203 61.2937 71.3203 62.9008 71.3203C63.6522 71.3203 64.4036 71.3203 65.1549 71.3203C66.4489 71.3203 66.9707 71.6543 66.9499 72.51C66.929 73.324 66.4281 73.6579 65.1967 73.6579C63.9861 73.6579 62.7965 73.6579 61.6068 73.6579Z" fill="white"/>
<path d="M14.314 71.2583C14.314 70.653 14.2931 70.0686 14.314 69.4633C14.3557 68.7328 14.8775 68.2528 15.5245 68.2945C16.1298 68.3154 16.6098 68.7954 16.6307 69.4842C16.6516 70.6739 16.6724 71.8844 16.6307 73.0741C16.6098 73.8254 16.1924 74.2011 15.5245 74.222C14.8357 74.2429 14.3766 73.8254 14.3348 73.0741C14.2931 72.4688 14.314 71.8635 14.314 71.2583Z" fill="white"/>
<path d="M14.314 43.1857C14.314 42.6221 14.2931 42.0377 14.314 41.4742C14.3557 40.7228 14.794 40.2845 15.4619 40.2637C16.1298 40.2637 16.6098 40.6811 16.6307 41.4533C16.6724 42.643 16.6516 43.8327 16.6307 45.0223C16.6098 45.732 16.2133 46.1285 15.5245 46.1911C14.8775 46.2538 14.3766 45.7737 14.314 45.0432C14.2931 44.4379 14.314 43.8118 14.314 43.1857Z" fill="white"/>
<path d="M16.6319 52.5577C16.6319 53.1839 16.6736 53.81 16.6319 54.4362C16.5901 55.1249 16.0892 55.5841 15.4631 55.5423C14.816 55.5006 14.3569 55.1458 14.336 54.4779C14.2943 53.2047 14.2943 51.9316 14.336 50.6584C14.3569 49.9906 14.816 49.6357 15.4839 49.6357C16.1518 49.6566 16.5484 50.0323 16.611 50.7002C16.6736 51.3055 16.6319 51.9316 16.6319 52.5577Z" fill="white"/>
<path d="M16.6514 61.9284C16.6514 62.5336 16.6723 63.118 16.6514 63.7233C16.6096 64.4538 16.1922 64.8504 15.5243 64.8712C14.8564 64.8921 14.3764 64.4956 14.3555 63.7859C14.3138 62.5337 14.3138 61.2814 14.3555 60.05C14.3764 59.3612 14.9191 58.9229 15.5452 58.9647C16.2131 59.0064 16.6096 59.3821 16.6514 60.05C16.6723 60.6761 16.6305 61.3022 16.6514 61.9284C16.6305 61.9284 16.6514 61.9284 16.6514 61.9284Z" fill="white"/>
<path d="M29.6136 55.9799C28.9874 55.9799 28.3613 56.0216 27.756 55.9799C27.0255 55.9381 26.5664 55.4372 26.6081 54.7693C26.6707 54.0597 27.0673 53.684 27.7769 53.6631C29.0292 53.6422 30.2606 53.6422 31.5129 53.6631C32.2225 53.684 32.6608 54.1432 32.6608 54.7693C32.6817 55.4163 32.2225 55.8755 31.492 55.959C31.4503 55.959 31.3876 55.959 31.3459 55.959C30.7615 56.0007 30.1771 56.0007 29.6136 55.9799Z" fill="white"/>
<path d="M29.7198 59.5913C30.325 59.5913 30.9094 59.5704 31.5147 59.5913C32.3078 59.633 32.7044 60.0505 32.7044 60.7392C32.7044 61.428 32.3078 61.8871 31.5356 61.908C30.3042 61.9498 29.0519 61.9498 27.7996 61.908C27.1109 61.8871 26.7143 61.4697 26.6726 60.7601C26.6517 60.1131 27.1109 59.633 27.8622 59.5913C28.4675 59.5704 29.0936 59.6122 29.7198 59.5913Z" fill="white"/>
<path d="M29.8396 71.4878C30.4658 71.4878 31.0919 71.4669 31.6972 71.4878C32.3651 71.5087 32.7408 71.9261 32.8034 72.5731C32.866 73.1993 32.4277 73.7628 31.7389 73.7837C30.424 73.8254 29.0883 73.8254 27.7734 73.7837C27.1055 73.7628 26.7507 73.3036 26.7507 72.6357C26.7298 72.0096 27.189 71.5504 27.8777 71.5087C28.5456 71.4669 29.1926 71.4878 29.8396 71.4878Z" fill="white"/>
<path d="M29.7391 65.5606C30.3652 65.5606 30.9914 65.5397 31.6175 65.5606C32.2854 65.5814 32.682 65.9571 32.7446 66.625C32.8072 67.272 32.4106 67.8147 31.7219 67.8564C30.407 67.919 29.0712 67.919 27.7355 67.8564C27.0258 67.8147 26.671 67.2929 26.7336 66.625C26.7962 65.9363 27.2137 65.6232 27.8607 65.5814C27.9024 65.5814 27.965 65.5814 28.0068 65.5814C28.5912 65.5397 29.1756 65.5397 29.7391 65.5606C29.7391 65.5397 29.7391 65.5397 29.7391 65.5606Z" fill="white"/>
</g>
<defs>
<clipPath id="clip0_347_751">
<rect width="80" height="79.9791" fill="white" transform="translate(0.5 0.608398)"/>
</clipPath>
</defs>
</svg>
