<svg width="56" height="57" viewBox="0 0 56 57" fill="none" xmlns="http://www.w3.org/2000/svg">
<circle cx="28" cy="28.9053" r="28" fill="#0063AA" fill-opacity="0.1"/>
<g clip-path="url(#clip0_347_675)">
<path d="M16.3594 23.7491C16.3594 30.2109 21.6163 35.4679 28.0781 35.4679C34.5399 35.4679 39.7969 30.2109 39.7969 23.7491C39.7969 17.2873 34.5399 12.0303 28.0781 12.0303C21.6163 12.0303 16.3594 17.2873 16.3594 23.7491ZM28.0781 13.5928C33.6784 13.5928 38.2344 18.1488 38.2344 23.7491C38.2344 29.3494 33.6784 33.9054 28.0781 33.9054C22.4779 33.9054 17.9219 29.3494 17.9219 23.7491C17.9219 18.1488 22.4779 13.5928 28.0781 13.5928Z" fill="#0A62ED"/>
<path d="M20.8424 22.3545L23.8706 25.3382L23.1739 29.5316C23.1254 29.8237 23.2459 30.1179 23.4855 30.2918C23.7248 30.4658 24.0418 30.4893 24.3046 30.3532L28.0775 28.3939L31.8501 30.3532C32.1107 30.4884 32.4278 30.4673 32.6692 30.2918C32.9087 30.1179 33.0293 29.8237 32.9808 29.5316L32.284 25.3382L35.3123 22.3545C35.5232 22.147 35.5986 21.8381 35.507 21.5565C35.4154 21.2751 35.1728 21.0697 34.8802 21.0255L30.6776 20.3928L28.776 16.59C28.6439 16.3254 28.3732 16.1582 28.0775 16.1582C27.7815 16.1582 27.5111 16.3254 27.3786 16.59L25.4771 20.3928L21.2745 21.0255C20.9818 21.0694 20.7392 21.2751 20.6477 21.5565C20.5561 21.8381 20.6318 22.147 20.8424 22.3545ZM26.1109 21.8775C26.3624 21.8397 26.5797 21.6819 26.6935 21.4545L28.0775 18.6863L29.4615 21.4545C29.5753 21.6819 29.7926 21.8397 30.044 21.8775L33.1028 22.338L30.8985 24.5094C30.7176 24.6879 30.6346 24.9433 30.6761 25.1942L31.1833 28.2462L28.4373 26.8205C28.3247 26.7619 28.2011 26.7326 28.0775 26.7326C27.9539 26.7326 27.8303 26.7619 27.7174 26.8205L24.9714 28.2462L25.4786 25.1942C25.5204 24.9433 25.4374 24.6879 25.2561 24.5094L23.0521 22.338L26.1109 21.8775Z" fill="#0A62ED"/>
<path d="M28.8594 9.68652C28.8594 10.118 28.5096 10.4678 28.0781 10.4678C27.6466 10.4678 27.2969 10.118 27.2969 9.68652C27.2969 9.25501 27.6466 8.90527 28.0781 8.90527C28.5096 8.90527 28.8594 9.25501 28.8594 9.68652Z" fill="#0A62ED"/>
<path d="M24.3962 9.36727C17.8242 11.0448 13.2344 16.9594 13.2344 23.7505C13.2344 27.9684 15.0078 31.9427 18.1209 34.7573L13.4141 43.0523C13.2628 43.3193 13.2817 43.6501 13.4623 43.8979C13.643 44.1461 13.9518 44.2654 14.2524 44.2028L19.5976 43.0929L21.4763 48.3868C21.5782 48.6749 21.8391 48.8766 22.1437 48.9038C22.4483 48.9309 22.7403 48.7774 22.8914 48.5116L28.0781 39.3929L33.2646 48.5116C33.4044 48.7573 33.6644 48.9065 33.9433 48.9065C33.9662 48.9065 33.9894 48.9056 34.0123 48.9038C34.3169 48.8766 34.5778 48.6746 34.68 48.3868L36.5584 43.0929L41.9035 44.2028C42.2038 44.2651 42.513 44.1458 42.6936 43.8979C42.8746 43.6501 42.8932 43.3193 42.7419 43.0523L38.0351 34.7573C41.1482 31.9427 42.9216 27.9684 42.9216 23.7505C42.9216 16.9594 38.3318 11.0448 31.7601 9.36727C31.3417 9.26046 30.9166 9.51284 30.8098 9.93093C30.703 10.349 30.9553 10.7744 31.3734 10.8813C37.253 12.3821 41.3594 17.6742 41.3594 23.7505C41.3594 31.1459 35.3532 37.0318 28.0781 37.0318C20.7979 37.0318 14.7969 31.141 14.7969 23.7505C14.7969 17.6742 18.903 12.3821 24.7825 10.8813C25.2006 10.7744 25.453 10.349 25.3465 9.93093C25.2397 9.51284 24.8146 9.26046 24.3962 9.36727ZM22.3778 46.2548L20.8424 41.9283C20.7118 41.5603 20.3297 41.3451 19.9473 41.4245L15.6251 42.322L19.3501 35.7571C21.522 37.3361 24.0938 38.298 26.768 38.536L22.3778 46.2548ZM36.2087 41.4245C35.8266 41.3451 35.4442 41.5603 35.3136 41.9283L33.7785 46.2548L29.388 38.536C32.0625 38.298 34.6339 37.3361 36.8062 35.7571L40.5312 42.322L36.2087 41.4245Z" fill="#0A62ED"/>
</g>
<defs>
<clipPath id="clip0_347_675">
<rect width="40" height="40" fill="white" transform="translate(8 8.90527)"/>
</clipPath>
</defs>
</svg>
