<svg width="81" height="81" viewBox="0 0 81 81" fill="none" xmlns="http://www.w3.org/2000/svg">
<g clip-path="url(#clip0_347_783)">
<path d="M0.50268 22.1685C0.79488 21.4172 1.00359 20.6241 1.42102 19.9562C2.58982 18.0777 4.34301 17.2011 6.53451 17.2011C12.5663 17.2011 18.619 17.2011 24.6509 17.2011C24.9639 17.2011 25.277 17.2011 25.6944 17.2011C25.6944 16.8672 25.6944 16.5959 25.6944 16.3245C25.6944 13.5904 25.6944 10.8562 25.6944 8.1221C25.7153 3.61388 28.7417 0.608398 33.2081 0.608398C38.0712 0.608398 42.9551 0.608398 47.8181 0.608398C52.2637 0.608398 55.29 3.61388 55.29 8.03861C55.3109 12.526 55.2692 16.9924 55.2692 21.4798C55.2692 21.5841 55.2901 21.6885 55.3109 21.8763C55.624 21.8763 55.9371 21.8763 56.2293 21.8763C62.0315 21.8763 67.8546 21.8763 73.6569 21.8763C75.264 21.8763 75.8275 22.4399 75.8275 24.0261C75.8275 36.6324 75.8275 49.2387 75.8275 61.8242C75.8275 63.473 75.2848 64.0157 73.6151 64.0157C51.5541 64.0157 29.493 64.0157 7.43198 64.0157C5.72052 64.0157 5.19874 63.4939 5.17787 61.7824C5.17787 60.6554 5.17787 59.5492 5.17787 58.4221C5.17787 57.4412 5.5953 56.8776 6.32579 56.8776C7.07716 56.8568 7.51546 57.4412 7.51546 58.4639C7.51546 59.5074 7.51546 60.5301 7.51546 61.6154C10.0409 61.6154 12.5037 61.6154 15.0709 61.6154C15.0918 61.3232 15.1126 61.031 15.1126 60.7388C15.1126 57.3577 15.1126 53.9765 15.1126 50.5745C15.1126 46.0663 17.4085 42.9147 21.6871 41.4954C25.1935 40.3266 28.679 39.137 32.1854 37.9473C33.2707 37.5716 33.4168 37.2377 33.5421 36.1315C33.709 34.6079 33.2707 33.6269 31.8932 32.7295C29.0339 30.8719 27.2598 28.0751 26.2997 24.7983C26.1953 24.4018 26.0701 24.1931 25.5901 24.1931C19.7043 24.2139 13.8186 24.2139 7.93289 24.2139C7.82853 24.2139 7.72418 24.2348 7.53633 24.2557C7.53633 24.5687 7.53633 24.8818 7.53633 25.174C7.53633 34.0861 7.53633 42.9773 7.53633 51.8894C7.53633 52.1398 7.55721 52.4112 7.51546 52.6616C7.41111 53.3086 7.03542 53.7052 6.36754 53.7052C5.69965 53.7052 5.32397 53.3086 5.19874 52.6616C5.157 52.432 5.17787 52.2025 5.17787 51.952C5.17787 42.6642 5.17787 33.3556 5.17787 24.0678C5.17787 22.3564 5.69965 21.8346 7.41111 21.8346C13.1925 21.8346 18.9738 21.8346 24.7552 21.8346C25.0683 21.8346 25.3605 21.8346 25.6736 21.8346C25.6736 21.0206 25.6736 20.311 25.6736 19.497C25.3396 19.497 25.0683 19.497 24.7761 19.497C18.7651 19.497 12.7542 19.497 6.72235 19.497C4.23866 19.497 2.8194 20.9371 2.8194 23.4417C2.8194 36.4446 2.8194 49.4266 2.8194 62.4294C2.8194 64.9131 4.23866 66.3532 6.74322 66.3532C29.2217 66.3532 51.7002 66.3532 74.1578 66.3532C76.7041 66.3532 78.1233 64.9549 78.1233 62.3877C78.1233 49.4266 78.1233 36.4446 78.1233 23.4834C78.1233 20.9163 76.725 19.5179 74.1786 19.5179C69.5243 19.5179 64.8491 19.5179 60.1948 19.5179C59.9444 19.5179 59.673 19.5387 59.4226 19.497C58.8382 19.4135 58.4834 19.0587 58.4208 18.4743C58.3581 17.8482 58.6712 17.4099 59.2765 17.2429C59.5269 17.1803 59.7983 17.1803 60.0487 17.1803C64.7865 17.1803 69.5243 17.1803 74.2621 17.1803C77.9981 17.1803 80.4818 19.664 80.4818 23.3999C80.4818 36.4237 80.4818 49.4474 80.4818 62.4503C80.4818 66.1863 77.9981 68.6908 74.2621 68.6908C65.2457 68.6908 56.2501 68.6908 47.2337 68.6908C46.9206 68.6908 46.6284 68.6908 46.2736 68.6908C46.2736 70.3397 46.2736 71.905 46.2736 73.4913C47.1293 73.5539 47.9642 73.533 48.7782 73.7C51.1993 74.1591 52.9524 76.2254 53.0777 78.6882C53.1403 79.6274 52.6603 80.191 51.8671 80.5875C44.27 80.5875 36.6519 80.5875 29.0547 80.5875C28.2407 80.1701 27.7816 79.5648 27.8651 78.6048C28.0946 75.7454 30.3696 73.5956 33.229 73.5539C33.709 73.5539 34.1891 73.5539 34.6483 73.5539C34.6483 71.8633 34.6483 70.2979 34.6483 68.6908C32.2689 68.6908 29.9522 68.6908 27.6355 68.6908C20.5809 68.6908 13.5473 68.6908 6.49277 68.6908C3.5499 68.6908 1.31666 66.9168 0.607037 64.0783C0.586166 63.953 0.523552 63.8487 0.460938 63.7235C0.50268 49.8857 0.50268 36.0271 0.50268 22.1685ZM24.5882 43.019C23.7743 43.2904 23.0646 43.4991 22.355 43.7495C19.1617 44.8349 17.492 47.1307 17.492 50.491C17.4711 53.9557 17.492 57.4203 17.492 60.8849C17.492 61.1354 17.5337 61.3859 17.5546 61.6363C32.9159 61.6363 48.1938 61.6363 63.4925 61.6363C63.5134 61.4276 63.5551 61.2398 63.5551 61.0728C63.5551 57.462 63.5551 53.8304 63.5551 50.2197C63.5551 49.7605 63.5134 49.2805 63.409 48.8213C62.6785 45.5445 60.3409 44.0417 57.4189 43.3739C57.3354 45.2314 57.252 47.1098 57.1685 49.1135C57.2102 49.1344 57.4398 49.2387 57.6694 49.3431C59.8609 50.4075 61.0923 52.8495 60.6331 55.1662C60.0696 57.8586 57.8155 59.6327 55.0605 59.5283C52.4307 59.424 50.3227 57.3994 49.9887 54.6861C49.6756 52.2025 51.3662 49.7605 53.9125 49.03C54.3717 48.9048 54.6013 48.6961 54.7265 48.2369C55.1857 46.4628 55.2274 44.6888 54.6222 42.9356C54.5178 42.6225 54.1839 42.2885 53.8917 42.1842C52.3889 41.6207 50.8444 41.1406 49.3208 40.598C48.8617 40.431 48.5695 40.5145 48.2355 40.8484C46.3154 42.7895 44.3743 44.7305 42.4333 46.6507C41.2019 47.8821 40.0957 47.8612 38.8434 46.6298C36.8815 44.6888 34.9405 42.7268 32.9994 40.7649C32.6863 40.4519 32.4359 40.3475 31.9767 40.5145C30.5992 41.0154 29.2008 41.4119 27.8442 41.9337C27.552 42.0381 27.218 42.3929 27.1346 42.706C26.738 44.1461 26.7171 45.628 27.0093 47.1098C27.1137 47.6107 27.3015 47.8403 27.8233 47.9656C30.14 48.55 31.9767 50.5327 32.1854 52.8286C32.3315 54.4774 32.2689 56.168 32.2272 57.8169C32.2063 58.7143 31.4549 59.424 30.5575 59.5074C30.0774 59.5492 29.5765 59.5492 29.0756 59.5283C28.4286 59.4866 28.0738 59.0691 28.032 58.4639C27.9903 57.8377 28.3242 57.4203 28.9504 57.2742C29.2426 57.2116 29.5556 57.1907 29.8896 57.149C29.8896 55.8967 29.9313 54.6653 29.8896 53.4547C29.8061 51.6807 28.3242 50.2197 26.5502 50.1362C24.63 50.0318 22.8977 51.3259 22.7307 53.1834C22.6055 54.4983 22.7098 55.8341 22.7098 57.1907C23.002 57.2116 23.2525 57.2116 23.5029 57.2533C24.1708 57.3577 24.63 57.8795 24.5465 58.4847C24.463 59.1317 24.0873 59.5283 23.4195 59.5492C23.0855 59.57 22.7516 59.57 22.3968 59.5492C21.0819 59.5074 20.3305 58.7561 20.3305 57.4203C20.3096 56.1471 20.3096 54.874 20.3305 53.6008C20.3722 51.6807 21.1862 50.1362 22.7098 48.9883C23.2942 48.55 24.0039 48.2369 24.5882 47.9238C24.5882 46.3167 24.5882 44.7096 24.5882 43.019ZM73.4481 24.2557C67.2493 24.2557 61.1132 24.2557 54.977 24.2557C54.9352 24.3392 54.8935 24.4018 54.8726 24.4644C54.8309 24.6105 54.7891 24.7566 54.7474 24.9027C53.7873 28.2212 51.9298 30.9763 49.0495 32.8547C47.8181 33.6687 47.3381 34.4827 47.4841 35.9019C47.6302 37.3003 47.7137 37.5925 49.0495 38.0308C52.4933 39.1787 55.9579 40.3266 59.4017 41.5163C63.6386 42.9564 65.8927 46.108 65.8927 50.5745C65.8927 53.9556 65.8927 57.3368 65.8927 60.7388C65.8927 61.031 65.9136 61.3441 65.9344 61.6154C68.5016 61.6154 70.9645 61.6154 73.4481 61.6154C73.4481 49.1761 73.4481 36.7576 73.4481 24.2557ZM28.1364 17.1177C28.1364 18.85 28.032 20.4362 28.1573 22.0224C28.7417 29.3065 35.9214 34.6914 43.0385 33.0217C50.9071 31.185 53.7873 24.6105 52.8481 17.0759C49.2165 16.6376 46.1901 15.0514 43.769 12.2338C38.9686 15.281 33.7508 16.8881 28.1364 17.1177ZM52.9107 14.6966C52.9107 12.1294 53.0359 9.64571 52.869 7.20375C52.702 4.65745 50.6566 2.96686 48.0477 2.96686C43.0177 2.96686 38.0085 2.96686 32.9785 2.96686C30.0983 2.96686 28.0738 4.97052 28.0529 7.87164C28.032 9.95878 28.0529 12.025 28.0529 14.1122C28.0529 14.3209 28.1155 14.5296 28.1364 14.7592C33.3125 14.5505 38.0085 13.0895 42.308 10.3971C43.8943 9.41612 44.5204 9.49961 45.7101 10.8771C47.6094 13.0477 49.9678 14.3209 52.9107 14.6966ZM40.534 44.9601C42.4541 43.0399 44.3534 41.1197 46.2736 39.1996C45.0213 38.1351 45.1257 36.5698 45.1257 34.9209C42.0159 35.8393 38.9686 35.8602 35.8588 34.9001C35.9214 36.5489 35.9214 38.0725 34.7735 39.1996C36.7563 41.1824 38.6764 43.0817 40.534 44.9601ZM50.594 78.2291C50.3435 76.9142 49.2373 75.975 47.839 75.9332C46.858 75.8915 45.8562 75.9123 44.8752 75.9123C41.0558 75.9123 37.2363 75.9123 33.4168 75.9123C31.8515 75.9123 30.7036 76.8098 30.4114 78.2291C37.1528 78.2291 43.8734 78.2291 50.594 78.2291ZM43.8525 73.533C43.8525 71.8842 43.8525 70.3188 43.8525 68.7535C41.5775 68.7535 39.3861 68.7535 37.1528 68.7535C37.1528 70.3606 37.1528 71.9259 37.1528 73.533C39.4069 73.533 41.5984 73.533 43.8525 73.533ZM55.3318 57.1907C57.0224 57.1698 58.3373 55.8341 58.3164 54.1435C58.2955 52.4738 56.9389 51.138 55.2692 51.1589C53.5995 51.1798 52.2428 52.5573 52.2637 54.2061C52.2846 55.8967 53.6621 57.2116 55.3318 57.1907Z" fill="white"/>
</g>
<defs>
<clipPath id="clip0_347_783">
<rect width="80" height="80" fill="white" transform="translate(0.5 0.608398)"/>
</clipPath>
</defs>
</svg>
