<svg width="73" height="73" viewBox="0 0 73 73" fill="none" xmlns="http://www.w3.org/2000/svg">
<g clip-path="url(#clip0_347_707)">
<path d="M72.5008 34.1323C72.5008 35.7661 72.5008 37.4187 72.5008 39.0525C72.4445 39.4656 72.3881 39.8788 72.3318 40.2919C71.5806 46.9774 69.252 53.0431 65.1205 58.3577C59.4304 65.7004 52.0125 70.2825 42.8482 71.9539C41.59 72.1793 40.313 72.3295 39.0548 72.5173C37.3647 72.5173 35.6745 72.5173 34.0032 72.5173C33.8154 72.4797 33.6464 72.4046 33.4586 72.3858C31.7872 72.1417 30.1158 71.9915 28.4633 71.6159C7.89987 67.0337 -4.32548 45.3248 2.32241 25.2309C8.59471 6.2262 29.2332 -4.06488 48.1064 2.45155C50.2848 3.20273 52.3318 4.29193 54.4163 5.30601C55.2989 5.71916 55.5243 6.56423 55.0924 7.29662C54.6792 8.02902 53.8717 8.19803 53.0079 7.74733C52.6323 7.55953 52.2755 7.33418 51.8999 7.14639C51.0736 6.75202 50.2473 6.35766 49.2708 5.88817C49.4022 6.11352 49.4022 6.16986 49.4398 6.18864C52.3506 9.0431 54.5102 12.4234 56.2191 16.1041C56.3506 16.4046 56.6886 16.6863 56.9891 16.8365C59.5431 18.0384 61.9656 19.4281 64.1628 21.2121C65.1205 21.9821 66.0032 22.8271 67.0736 23.7661C66.867 23.3154 66.7543 23.0149 66.6229 22.7332C65.4961 20.2731 64.0877 18.0008 62.4163 15.86C61.7966 15.0713 61.8717 14.2074 62.5665 13.7004C63.2238 13.2121 64.0501 13.3811 64.651 14.1323C68.4069 18.8835 70.8295 24.2356 71.8999 30.2074C72.1628 31.4844 72.313 32.8177 72.5008 34.1323ZM57.6088 36.5548C57.5525 30.752 56.6886 25.0994 54.6604 19.6347C54.3975 18.9586 54.0219 18.6018 53.3459 18.3577C48.7449 16.6675 43.9938 15.7473 39.0924 15.522C32.2942 15.1839 25.7027 16.0854 19.3365 18.4891C18.867 18.6581 18.6417 18.921 18.4726 19.3717C16.6698 24.0666 15.7496 28.9304 15.5055 33.9445C15.1863 40.7051 16.0689 47.2966 18.4726 53.644C18.6417 54.0947 18.8858 54.3577 19.3365 54.5267C24.0501 56.3295 28.9327 57.2685 33.9844 57.5126C40.7262 57.8318 47.2802 56.9492 53.6088 54.5642C54.0783 54.3952 54.36 54.1323 54.5478 53.644C56.6698 48.1417 57.5337 42.414 57.6088 36.5548ZM57.9844 52.5548C62.3787 50.076 66.0783 47.1088 68.2567 42.6018C70.1158 38.752 70.1722 34.8084 68.4445 30.8647C67.205 28.029 65.2895 25.7192 62.8858 23.8224C61.3834 22.6206 59.7496 21.5689 58.191 20.4609C58.1346 20.5173 58.0783 20.5736 58.0219 20.63C61.2332 31.2027 61.2332 41.7943 57.9844 52.5548ZM52.4633 15.0149C52.4069 14.8647 52.4069 14.7896 52.3506 14.7145C50.6041 11.5971 48.482 8.78019 45.6088 6.62057C40.9515 3.12761 35.9187 2.24498 30.5102 4.74263C27.0736 6.3201 24.5008 8.93043 22.3787 11.9915C21.7215 12.9304 21.1393 13.9257 20.4257 15.0713C31.2238 11.7849 41.8154 11.8037 52.4633 15.0149ZM15.0548 20.4797C10.7168 22.9398 7.03602 25.8694 4.83884 30.3201C2.94213 34.1699 2.82945 38.0947 4.51959 42.0572C5.74025 44.9116 7.67452 47.2591 10.0783 49.1933C11.5994 50.414 13.252 51.4656 14.8294 52.5924C14.8858 52.5361 14.9421 52.4797 14.9985 52.4234C11.806 41.8318 11.7872 31.2403 15.0548 20.4797ZM52.5384 58.1699C52.482 58.1135 52.4445 58.076 52.3881 58.0196C47.2238 59.6534 41.928 60.4234 36.5196 60.4234C31.0924 60.4234 25.7966 59.6347 20.4445 57.9633C22.698 61.9445 25.3271 65.3436 29.1956 67.5971C33.5149 70.1135 37.9844 70.3952 42.5478 68.2731C45.5149 66.8835 47.8811 64.7239 49.8341 62.1323C50.8107 60.8553 51.6557 59.4844 52.5384 58.1699ZM6.04072 23.5971C9.02663 20.6487 12.5008 18.4516 16.2755 16.6863C16.5196 16.5736 16.7074 16.2731 16.8201 16.0102C18.4914 12.4046 20.6135 9.08066 23.4679 6.28254C23.5243 6.2262 23.5806 6.1323 23.637 6.05719C15.4304 9.56892 9.57123 15.4281 6.04072 23.5971ZM5.94682 49.3624C7.65574 53.4187 10.0407 56.9304 13.083 59.9727C16.0313 62.921 21.928 66.8271 23.6933 66.9398C20.6698 64.0102 18.4726 60.5548 16.7262 56.799C16.6135 56.5361 16.2942 56.3483 16.0125 56.198C13.9468 54.9774 11.806 53.8506 9.79659 52.5361C8.44447 51.6534 7.28015 50.4891 5.94682 49.3624ZM66.9609 49.3999C66.9233 49.4187 66.867 49.4375 66.8482 49.475C63.9938 52.3858 60.6323 54.5454 56.9515 56.2544C56.651 56.3858 56.3694 56.7239 56.2191 57.0243C54.529 60.63 52.4069 63.9351 49.5712 66.752C49.5149 66.8084 49.4586 66.9023 49.4022 66.9774C57.6088 63.4656 63.4679 57.6065 66.9609 49.3999Z" fill="white"/>
<path d="M59.071 11.6548C58.2823 11.6736 57.625 11.0539 57.625 10.2651C57.625 9.51395 58.2823 8.83789 59.0522 8.83789C59.8034 8.83789 60.4231 9.43883 60.4419 10.2088C60.4607 11.0163 59.8785 11.636 59.071 11.6548Z" fill="white"/>
<path d="M54.2634 36.4984C54.2634 37.4185 54.2822 38.3199 54.2634 39.2401C54.1883 41.888 52.2728 43.9537 49.8315 44.104C47.1085 44.2542 44.8737 42.5453 44.6296 39.8035C44.4418 37.5312 44.4794 35.2026 44.686 32.9303C44.9301 30.4514 47.2024 28.8176 49.7939 28.9303C52.1038 29.043 54.0944 31.0148 54.2258 33.4185C54.2822 34.4514 54.2258 35.4843 54.2258 36.5171C54.2446 36.4984 54.2634 36.4984 54.2634 36.4984ZM51.4277 36.4984C51.4277 35.6157 51.4277 34.7143 51.4277 33.8317C51.4089 32.6674 50.6014 31.7847 49.4935 31.7284C48.423 31.6721 47.4653 32.5171 47.4277 33.6815C47.3902 35.5782 47.3902 37.4749 47.4277 39.3716C47.4653 40.4796 48.3855 41.3246 49.4371 41.3059C50.5263 41.2871 51.3902 40.4044 51.4089 39.2589C51.4465 38.3387 51.4277 37.4185 51.4277 36.4984Z" fill="white"/>
<path d="M35.7688 34.0388C37.1961 34.02 38.4918 34.3956 39.5623 35.3909C41.29 36.9872 41.6843 39.5224 40.5388 41.5506C39.3933 43.5787 36.9895 44.574 34.7548 43.9168C32.5576 43.2783 30.9801 41.2125 31.1491 38.9027C31.412 35.0341 33.121 31.8229 36.0505 29.3064C36.7266 28.7243 37.5904 28.7994 38.1163 29.4379C38.6233 30.0576 38.5294 30.8088 37.9097 31.4473C37.1397 32.236 36.3886 33.0623 35.6374 33.8698C35.6749 33.9261 35.7313 33.9825 35.7688 34.0388ZM33.966 39.0717C33.966 40.2548 34.9425 41.2689 36.1256 41.2876C37.3087 41.3064 38.3604 40.2548 38.3416 39.0529C38.3228 37.851 37.3651 36.8933 36.1444 36.8933C34.9425 36.9121 33.9848 37.8698 33.966 39.0717Z" fill="white"/>
<path d="M23.7331 44.1035C20.8599 44.0847 18.8693 42.188 18.7754 39.8406C18.7378 38.9204 19.2449 38.2631 20.0336 38.2068C20.8787 38.1317 21.4796 38.6951 21.5923 39.6528C21.705 40.6293 22.3998 41.3054 23.2636 41.3054C24.1463 41.2866 24.8599 40.5918 24.9162 39.7091C24.9538 38.789 24.3341 38.0941 23.3575 37.9439C22.3247 37.7936 21.8552 37.3429 21.8552 36.5354C21.8552 35.7091 22.3247 35.2772 23.3575 35.127C24.2777 34.9955 24.8787 34.3758 24.9162 33.512C24.9538 32.6481 24.3528 31.9345 23.4702 31.7843C22.7003 31.6528 21.9303 32.1598 21.6298 32.9861C21.5923 33.08 21.5923 33.1739 21.5547 33.249C21.273 34.0002 20.5406 34.4134 19.827 34.188C19.0571 33.9439 18.6439 33.249 18.8317 32.4228C19.2261 30.6763 20.6909 29.2866 22.4937 28.9674C24.2214 28.6669 26.0993 29.4744 27.0195 31.0143C28.0336 32.6669 28.0148 34.357 26.9256 35.9533C26.6251 36.404 26.6251 36.6481 26.9256 37.08C27.9397 38.5636 28.0336 40.1411 27.1885 41.7185C26.381 43.296 25.0101 44.066 23.7331 44.1035Z" fill="white"/>
</g>
<defs>
<clipPath id="clip0_347_707">
<rect width="72" height="72.0188" fill="white" transform="translate(0.5 0.499023)"/>
</clipPath>
</defs>
</svg>
