<svg width="8" height="17" viewBox="0 0 8 17" fill="none" xmlns="http://www.w3.org/2000/svg">
<path d="M1.32739 -0.000406849C1.49815 -0.000986668 1.66688 0.0367016 1.82117 0.10989C1.97546 0.183079 2.11139 0.289909 2.21897 0.422528L7.73997 7.2809C7.90809 7.48544 8 7.74199 8 8.00675C8 8.27151 7.90809 8.52806 7.73997 8.73259L2.02465 15.591C1.83063 15.8244 1.55182 15.9712 1.24957 15.9991C0.947313 16.0269 0.646366 15.9336 0.412933 15.7396C0.179501 15.5455 0.0327044 15.2667 0.00483665 14.9645C-0.0230311 14.6622 0.0703136 14.3613 0.264335 14.1279L5.37383 8.00103L0.435797 1.87422C0.296019 1.70643 0.207229 1.50212 0.179934 1.28545C0.152638 1.06879 0.187978 0.848834 0.281773 0.651625C0.375568 0.454415 0.523892 0.288201 0.709194 0.172648C0.894496 0.0570959 1.10902 -0.0029589 1.32739 -0.000406849Z" fill="white"/>
</svg>
